<?xml version="1.0" encoding="UTF-8" standalone="no"?>
<!-- Created with Inkscape (http://www.inkscape.org/) -->

<svg
   xmlns:dc="http://purl.org/dc/elements/1.1/"
   xmlns:cc="http://creativecommons.org/ns#"
   xmlns:rdf="http://www.w3.org/1999/02/22-rdf-syntax-ns#"
   xmlns:svg="http://www.w3.org/2000/svg"
   xmlns="http://www.w3.org/2000/svg"
   xmlns:sodipodi="http://sodipodi.sourceforge.net/DTD/sodipodi-0.dtd"
   xmlns:inkscape="http://www.inkscape.org/namespaces/inkscape"
   width="292.89166"
   height="226.47818"
   id="svg3533"
   version="1.1"
   inkscape:version="0.48.2 r9819"
   sodipodi:docname="New document 2">
  <defs
     id="defs3535">
    <filter
       color-interpolation-filters="sRGB"
       inkscape:collect="always"
       id="filter4999">
      <feGaussianBlur
         inkscape:collect="always"
         stdDeviation="1.4196904"
         id="feGaussianBlur5001" />
    </filter>
    <filter
       color-interpolation-filters="sRGB"
       inkscape:collect="always"
       id="filter7955"
       x="-0.0714375"
       width="1.142875"
       y="-0.3747541"
       height="1.7495081">
      <feGaussianBlur
         inkscape:collect="always"
         stdDeviation="4.8108514"
         id="feGaussianBlur7957" />
    </filter>
    <filter
       color-interpolation-filters="sRGB"
       inkscape:collect="always"
       id="filter5014"
       x="-0.11894023"
       width="1.2378805"
       y="-0.040119156"
       height="1.0802383">
      <feGaussianBlur
         inkscape:collect="always"
         stdDeviation="0.71763356"
         id="feGaussianBlur5016" />
    </filter>
    <filter
       color-interpolation-filters="sRGB"
       inkscape:collect="always"
       id="filter4992">
      <feGaussianBlur
         inkscape:collect="always"
         stdDeviation="0.8677255"
         id="feGaussianBlur4994" />
    </filter>
  </defs>
  <sodipodi:namedview
     id="base"
     pagecolor="#ffffff"
     bordercolor="#666666"
     borderopacity="1.0"
     inkscape:pageopacity="0.0"
     inkscape:pageshadow="2"
     inkscape:zoom="0.7"
     inkscape:cx="394.85659"
     inkscape:cy="101.16056"
     inkscape:document-units="px"
     inkscape:current-layer="layer1"
     showgrid="false"
     fit-margin-top="5"
     fit-margin-left="5"
     fit-margin-right="5"
     fit-margin-bottom="5"
     inkscape:window-width="1440"
     inkscape:window-height="876"
     inkscape:window-x="0"
     inkscape:window-y="24"
     inkscape:window-maximized="1" />
  <metadata
     id="metadata3538">
    <rdf:RDF>
      <cc:Work
         rdf:about="">
        <dc:format>image/svg+xml</dc:format>
        <dc:type
           rdf:resource="http://purl.org/dc/dcmitype/StillImage" />
        <dc:title></dc:title>
      </cc:Work>
    </rdf:RDF>
  </metadata>
  <g
     inkscape:label="Layer 1"
     inkscape:groupmode="layer"
     id="layer1"
     transform="translate(-159.26845,-393.40881)">
    <g
       id="g3640">
      <g
         transform="translate(158.58765,302.02718)"
         id="g6098"
         style="display:inline;filter:url(#filter10042)">
        <g
           id="g6079"
           transform="matrix(-0.96592583,0.25881907,0.25881907,0.96592583,198.77888,-49.517774)">
          <path
             sodipodi:nodetypes="sssss"
             inkscape:connector-curvature="0"
             id="path6081"
             d="m 199.57143,277.71933 c 0,8.49639 -46.86037,21.78571 -84.92857,21.78571 -38.0682,0 -68.928573,-9.75379 -68.928573,-21.78571 0,-12.03192 30.860373,-21.78572 68.928573,-21.78572 38.0682,0 84.92857,15.81472 84.92857,21.78572 z"
             style="fill:#88aa00;fill-opacity:1;stroke:#445500;stroke-width:2;stroke-linecap:round;stroke-linejoin:round;stroke-miterlimit:4;stroke-opacity:1;stroke-dashoffset:0" />
          <path
             style="opacity:0.5;fill:none;stroke:#000000;stroke-width:1.5;stroke-linecap:round;stroke-linejoin:round;stroke-opacity:1"
             d="m 175.71429,278.1488 c -9.82882,11.20032 -104.164667,13.57078 -110.000004,5.35714"
             id="path6083"
             inkscape:connector-curvature="0"
             sodipodi:nodetypes="cc" />
          <path
             sodipodi:nodetypes="cc"
             inkscape:connector-curvature="0"
             id="path6085"
             d="M 160.25418,276.11027 61.714286,275.60519"
             style="opacity:0.5;fill:none;stroke:#000000;stroke-width:1px;stroke-linecap:butt;stroke-linejoin:miter;stroke-opacity:1" />
        </g>
        <g
           transform="matrix(0.70710678,0.70710679,-0.70710679,0.70710678,210.07842,-58.020375)"
           id="g6059">
          <path
             style="fill:#88aa00;fill-opacity:1;stroke:#445500;stroke-width:2;stroke-linecap:round;stroke-linejoin:round;stroke-miterlimit:4;stroke-opacity:1;stroke-dashoffset:0"
             d="m 199.57143,277.71933 c 0,8.49639 -46.86037,21.78571 -84.92857,21.78571 -38.0682,0 -68.928573,-9.75379 -68.928573,-21.78571 0,-12.03192 30.860373,-21.78572 68.928573,-21.78572 38.0682,0 84.92857,15.81472 84.92857,21.78572 z"
             id="path6061"
             inkscape:connector-curvature="0"
             sodipodi:nodetypes="sssss" />
          <path
             sodipodi:nodetypes="cc"
             inkscape:connector-curvature="0"
             id="path6065"
             d="m 175.71429,278.1488 c -9.82882,11.20032 -104.164667,13.57078 -110.000004,5.35714"
             style="opacity:0.5;fill:none;stroke:#000000;stroke-width:1.5;stroke-linecap:round;stroke-linejoin:round;stroke-opacity:1" />
          <path
             style="opacity:0.5;fill:none;stroke:#000000;stroke-width:1px;stroke-linecap:butt;stroke-linejoin:miter;stroke-opacity:1"
             d="M 160.25418,276.11027 61.714286,275.60519"
             id="path6067"
             inkscape:connector-curvature="0"
             sodipodi:nodetypes="cc" />
        </g>
        <path
           sodipodi:nodetypes="cc"
           inkscape:connector-curvature="0"
           id="path5024"
           d="m 152.5753,218.33574 c 40.16694,-11.61131 56.24655,-8.85976 14.59766,28.31438"
           style="fill:#f0c8c8;fill-opacity:1;stroke:#501616;stroke-width:2;stroke-linecap:round;stroke-linejoin:round;stroke-opacity:1" />
        <path
           d="m 174.28572,186.6479 a 32.857143,32.857143 0 1 1 -65.71429,0 32.857143,32.857143 0 1 1 65.71429,0 z"
           sodipodi:ry="32.857143"
           sodipodi:rx="32.857143"
           sodipodi:cy="186.6479"
           sodipodi:cx="141.42857"
           id="path4218"
           style="fill:#f4d7d7;fill-opacity:1;stroke:#501616;stroke-width:1.73089004;stroke-linecap:round;stroke-linejoin:round;stroke-miterlimit:4;stroke-opacity:1;stroke-dasharray:none;stroke-dashoffset:0"
           sodipodi:type="arc"
           transform="matrix(0.95388434,0,0,1.399669,7.9966905,-23.079609)" />
        <path
           style="opacity:0.25;fill:#000000;fill-opacity:1;stroke:none;filter:url(#filter4999)"
           d="m 169.74003,190.88013 c 0,18.1465 -10.4175,32.85715 -28.564,32.85715 -18.1465,0 -24.77592,-8.3972 -24.77592,-26.5437 4.84,-46.84188 52.28876,-40.89752 53.33992,-6.31345 z"
           id="path4996"
           inkscape:connector-curvature="0"
           sodipodi:nodetypes="cscc" />
        <path
           style="fill:#ffcc00;stroke:#554400;stroke-width:1.99999988;stroke-linecap:butt;stroke-linejoin:miter;stroke-opacity:1"
           d="m 191.28123,171.33648 c -1.8557,6.62853 -2.18687,14.24954 -9.43303,17.36879 1.37279,7.74449 9.80323,7.76997 15.44128,10.84952 -68.12049,4.0559 -42.97751,-11.92299 -6.00825,-28.21831 z"
           id="path4216"
           inkscape:connector-curvature="0"
           sodipodi:nodetypes="cccc" />
        <path
           sodipodi:type="arc"
           style="fill:#f4d7d7;fill-opacity:1;stroke:#501616;stroke-width:2;stroke-linecap:round;stroke-linejoin:round;stroke-miterlimit:4;stroke-opacity:1;stroke-dasharray:none;stroke-dashoffset:0"
           id="path4210"
           sodipodi:cx="141.42857"
           sodipodi:cy="186.6479"
           sodipodi:rx="32.857143"
           sodipodi:ry="32.857143"
           d="m 174.28572,186.6479 a 32.857143,32.857143 0 1 1 -65.71429,0 32.857143,32.857143 0 1 1 65.71429,0 z" />
        <g
           id="g5020"
           transform="translate(6,2)">
          <path
             transform="matrix(0.24677758,0,0,0.24677758,114.10331,123.41479)"
             sodipodi:type="arc"
             style="fill:#ffffff;fill-opacity:1;stroke:#000000;stroke-width:8.10446453;stroke-linecap:round;stroke-linejoin:round;stroke-miterlimit:4;stroke-opacity:1;stroke-dasharray:none;stroke-dashoffset:0"
             id="path4212"
             sodipodi:cx="141.42857"
             sodipodi:cy="186.6479"
             sodipodi:rx="32.857143"
             sodipodi:ry="32.857143"
             d="m 174.28572,186.6479 a 32.857143,32.857143 0 1 1 -65.71429,0 32.857143,32.857143 0 1 1 65.71429,0 z" />
          <path
             d="m 174.28572,186.6479 a 32.857143,32.857143 0 1 1 -65.71429,0 32.857143,32.857143 0 1 1 65.71429,0 z"
             sodipodi:ry="32.857143"
             sodipodi:rx="32.857143"
             sodipodi:cy="186.6479"
             sodipodi:cx="141.42857"
             id="path4214"
             style="fill:#000000;fill-opacity:1;stroke:none"
             sodipodi:type="arc"
             transform="matrix(0.09305872,0,0,0.09305872,137.86386,151.34848)" />
        </g>
        <path
           sodipodi:type="arc"
           style="opacity:0.2;fill:#000000;fill-opacity:1;stroke:none;filter:url(#filter7955)"
           id="path6087"
           sodipodi:cx="146.47212"
           sodipodi:cy="285.90894"
           sodipodi:rx="80.812202"
           sodipodi:ry="15.404826"
           d="m 227.28432,285.90894 a 80.812202,15.404826 0 1 1 -161.6244,0 80.812202,15.404826 0 1 1 161.6244,0 z" />
        <path
           style="opacity:0.15;fill:#000000;fill-opacity:1;stroke:none;filter:url(#filter5014)"
           d="m 123.12942,214.75888 c -4.01401,-2.70414 -7.49013,-6.34067 -10.07304,-10.81441 -5.92792,-10.26745 -5.68452,-22.40443 -0.42069,-32.11572 4.13603,21.68525 2.58176,23.46281 10.49373,42.93013 z"
           id="path5003"
           inkscape:connector-curvature="0"
           sodipodi:nodetypes="cscc" />
        <g
           transform="matrix(-0.96592583,0.25881905,0.25881905,0.96592583,259.61152,-38.946768)"
           id="g6069">
          <path
             style="fill:#aad400;fill-opacity:1;stroke:#445500;stroke-width:2;stroke-linecap:round;stroke-linejoin:round;stroke-miterlimit:4;stroke-opacity:1;stroke-dashoffset:0"
             d="m 199.57143,277.71933 c 0,8.49639 -46.86037,21.78571 -84.92857,21.78571 -38.0682,0 -68.928573,-9.75379 -68.928573,-21.78571 0,-12.03192 30.860373,-21.78572 68.928573,-21.78572 38.0682,0 84.92857,15.81472 84.92857,21.78572 z"
             id="path6071"
             inkscape:connector-curvature="0"
             sodipodi:nodetypes="sssss" />
          <path
             style="opacity:0.5;fill:none;stroke:#000000;stroke-width:1.5;stroke-linecap:round;stroke-linejoin:round;stroke-opacity:1"
             d="M 175.71429,275.00504 C 165.88547,263.80472 70.539471,263.45457 65.714286,269.6479"
             id="path6073"
             inkscape:connector-curvature="0"
             sodipodi:nodetypes="cc" />
          <path
             sodipodi:nodetypes="cc"
             inkscape:connector-curvature="0"
             id="path6075"
             d="M 175.71429,280.97722 C 165.88547,292.17754 71.549623,294.548 65.714286,286.33436"
             style="opacity:0.5;fill:none;stroke:#000000;stroke-width:1.5;stroke-linecap:round;stroke-linejoin:round;stroke-opacity:1" />
          <path
             style="opacity:0.5;fill:none;stroke:#000000;stroke-width:1px;stroke-linecap:butt;stroke-linejoin:miter;stroke-opacity:1"
             d="M 160.25418,278.93869 61.714286,278.43361"
             id="path6077"
             inkscape:connector-curvature="0"
             sodipodi:nodetypes="cc" />
        </g>
        <g
           id="g6053"
           transform="matrix(0.96592583,0.25881905,-0.25881905,0.96592583,34.641751,-38.946768)">
          <path
             sodipodi:nodetypes="sssss"
             inkscape:connector-curvature="0"
             id="path6036"
             d="m 199.57143,277.71933 c 0,8.49639 -46.86037,21.78571 -84.92857,21.78571 -38.0682,0 -68.928573,-9.75379 -68.928573,-21.78571 0,-12.03192 30.860373,-21.78572 68.928573,-21.78572 38.0682,0 84.92857,15.81472 84.92857,21.78572 z"
             style="fill:#aad400;fill-opacity:1;stroke:#445500;stroke-width:2;stroke-linecap:round;stroke-linejoin:round;stroke-miterlimit:4;stroke-opacity:1;stroke-dashoffset:0" />
          <path
             sodipodi:nodetypes="cc"
             inkscape:connector-curvature="0"
             id="path6039"
             d="M 175.71429,275.00504 C 165.88547,263.80472 70.539471,263.45457 65.714286,269.6479"
             style="opacity:0.5;fill:none;stroke:#000000;stroke-width:1.5;stroke-linecap:round;stroke-linejoin:round;stroke-opacity:1" />
          <path
             style="opacity:0.5;fill:none;stroke:#000000;stroke-width:1.5;stroke-linecap:round;stroke-linejoin:round;stroke-opacity:1"
             d="M 175.71429,280.97722 C 165.88547,292.17754 71.549623,294.548 65.714286,286.33436"
             id="path6049"
             inkscape:connector-curvature="0"
             sodipodi:nodetypes="cc" />
          <path
             sodipodi:nodetypes="cc"
             inkscape:connector-curvature="0"
             id="path6051"
             d="M 160.25418,278.93869 61.714286,278.43361"
             style="opacity:0.5;fill:none;stroke:#000000;stroke-width:1px;stroke-linecap:butt;stroke-linejoin:miter;stroke-opacity:1" />
        </g>
        <g
           id="g6093"
           transform="matrix(0.8660254,0.50000001,-0.50000001,0.8660254,127.02663,-30.190597)">
          <path
             style="opacity:0.25;fill:#000000;fill-opacity:1;stroke:none;filter:url(#filter4992)"
             d="m 131.60862,232.95489 c -0.8197,41.80353 5.99982,56.62308 31.12774,6.77197"
             id="path4990"
             inkscape:connector-curvature="0"
             sodipodi:nodetypes="cc" />
          <path
             sodipodi:nodetypes="cc"
             inkscape:connector-curvature="0"
             id="path4220"
             d="m 128.3229,229.66917 c -0.8197,41.80353 5.99982,56.62308 31.12774,6.77197"
             style="fill:#f4d7d7;fill-opacity:1;stroke:#501616;stroke-width:2;stroke-linecap:round;stroke-linejoin:round;stroke-opacity:1" />
        </g>
      </g>
      <g
         id="g3649"
         style="opacity:0.8;display:inline;filter:url(#filter10042)"
         transform="matrix(0.79559245,-0.17361268,0.17361268,0.79559245,329.20089,402.41158)">
        <text
           id="text3636"
           y="97.784348"
           x="6.9447007"
           style="font-size:44.12151337px;font-style:normal;font-variant:normal;font-weight:normal;font-stretch:normal;fill:#000000;fill-opacity:1;stroke:none;font-family:Purisa;-inkscape-font-specification:Purisa"
           xml:space="preserve"
           transform="matrix(0.98468151,-0.1743626,0.1743626,0.98468151,0,0)"><tspan
             y="97.784348"
             x="6.9447007"
             id="tspan3638"
             sodipodi:role="line">♬𝅘𝅥</tspan></text>
        <text
           xml:space="preserve"
           style="font-size:44.12151337px;font-style:normal;font-variant:normal;font-weight:normal;font-stretch:normal;fill:#000000;fill-opacity:1;stroke:none;font-family:Purisa;-inkscape-font-specification:Purisa"
           x="69.524078"
           y="74.314751"
           id="text3640"
           transform="matrix(0.98567641,-0.16864763,0.16864763,0.98567641,0,0)"><tspan
             sodipodi:role="line"
             id="tspan3642"
             x="69.524078"
             y="74.314751">𝅘𝅥𝅯𝅘𝅥𝅮</tspan></text>
        <text
           id="text3644"
           y="124.13981"
           x="99.548325"
           style="font-size:44.12151337px;font-style:normal;font-variant:normal;font-weight:normal;font-stretch:normal;fill:#000000;fill-opacity:1;stroke:none;font-family:Purisa;-inkscape-font-specification:Purisa"
           xml:space="preserve"
           transform="matrix(0.8660254,-0.5,0.5,0.8660254,0,0)"><tspan
             y="124.13981"
             x="99.548325"
             id="tspan3646"
             sodipodi:role="line" /></text>
      </g>
    </g>
  </g>
</svg>
