<?xml version="1.0" encoding="UTF-8" standalone="no"?>
<!-- Created with Inkscape (http://www.inkscape.org/) -->

<svg
   xmlns:dc="http://purl.org/dc/elements/1.1/"
   xmlns:cc="http://creativecommons.org/ns#"
   xmlns:rdf="http://www.w3.org/1999/02/22-rdf-syntax-ns#"
   xmlns:svg="http://www.w3.org/2000/svg"
   xmlns="http://www.w3.org/2000/svg"
   xmlns:sodipodi="http://sodipodi.sourceforge.net/DTD/sodipodi-0.dtd"
   xmlns:inkscape="http://www.inkscape.org/namespaces/inkscape"
   width="468.31503"
   height="621.74603"
   id="svg2"
   version="1.1"
   inkscape:version="0.48.2 r9819"
   sodipodi:docname="blender.svg">
  <defs
     id="defs4">
    <marker
       inkscape:stockid="TriangleOutM"
       orient="auto"
       refY="0"
       refX="0"
       id="TriangleOutM"
       style="overflow:visible">
      <path
         id="path4292"
         d="m 5.77,0 -8.65,5 0,-10 8.65,5 z"
         style="fill-rule:evenodd;stroke:#000000;stroke-width:1pt;marker-start:none"
         transform="scale(0.4,0.4)"
         inkscape:connector-curvature="0" />
    </marker>
    <marker
       inkscape:stockid="TriangleOutL"
       orient="auto"
       refY="0"
       refX="0"
       id="TriangleOutL"
       style="overflow:visible">
      <path
         id="path4289"
         d="m 5.77,0 -8.65,5 0,-10 8.65,5 z"
         style="fill-rule:evenodd;stroke:#000000;stroke-width:1pt;marker-start:none"
         transform="scale(0.8,0.8)"
         inkscape:connector-curvature="0" />
    </marker>
    <filter
       inkscape:collect="always"
       id="filter3817"
       x="-0.11228882"
       width="1.2245775"
       y="-0.45341089"
       height="1.9068218"
       color-interpolation-filters="sRGB">
      <feGaussianBlur
         inkscape:collect="always"
         stdDeviation="18.432187"
         id="feGaussianBlur3819" />
    </filter>
  </defs>
  <sodipodi:namedview
     id="base"
     pagecolor="#ffffff"
     bordercolor="#666666"
     borderopacity="1.0"
     inkscape:pageopacity="0.0"
     inkscape:pageshadow="2"
     inkscape:zoom="0.7"
     inkscape:cx="229.55333"
     inkscape:cy="347.8668"
     inkscape:document-units="px"
     inkscape:current-layer="layer1"
     showgrid="false"
     inkscape:window-width="1440"
     inkscape:window-height="876"
     inkscape:window-x="0"
     inkscape:window-y="24"
     inkscape:window-maximized="1"
     fit-margin-top="5"
     fit-margin-left="5"
     fit-margin-right="5"
     fit-margin-bottom="5" />
  <metadata
     id="metadata7">
    <rdf:RDF>
      <cc:Work
         rdf:about="">
        <dc:format>image/svg+xml</dc:format>
        <dc:type
           rdf:resource="http://purl.org/dc/dcmitype/StillImage" />
        <dc:title />
      </cc:Work>
    </rdf:RDF>
  </metadata>
  <g
     inkscape:label="Layer 1"
     inkscape:groupmode="layer"
     id="layer1"
     transform="translate(564.4774,-310.01569)">
    <g
       id="g3903"
       transform="matrix(0.95000568,0,0,0.95000568,-16.514108,60.526594)">
      <path
         sodipodi:nodetypes="ccccc"
         inkscape:connector-curvature="0"
         id="path3787"
         d="m -227.42857,652.36219 -194.28572,0 c -28.39264,33.40325 -56.7752,66.82834 -62.85714,148.57143 148.14573,88.67242 230.31292,45.38774 311.42857,0 0.57981,-61.19571 -24.77017,-106.18531 -54.28571,-148.57143 z"
         style="fill:#008080;stroke:#000000;stroke-width:2.61727953;stroke-linecap:butt;stroke-linejoin:miter;stroke-opacity:1" />
      <path
         sodipodi:nodetypes="sssssss"
         inkscape:connector-curvature="0"
         id="path3843"
         d="m -133.34013,830.18951 c 0,24.54725 -88.19084,58.44672 -196.97976,58.44672 -108.78891,0 -196.97975,-33.89947 -196.97975,-58.44672 0,-10.97877 17.6411,-21.02783 46.8761,-28.78269 36.13103,-9.5841 90.98081,24.74208 151.1138,24.74208 44.35801,0 111.55545,-40.12817 144.48232,-34.5453 47.82694,8.10923 51.48729,24.04766 51.48729,38.58591 z"
         style="opacity:0.25;fill:#000000;fill-opacity:1;stroke:none;filter:url(#filter3817)" />
      <path
         sodipodi:nodetypes="sssss"
         inkscape:connector-curvature="0"
         id="path3785"
         d="m -214.00001,655.24252 c 0,28.25823 -51.95643,38.76216 -114.28571,38.76216 -62.32927,0 -111.42857,-10.50393 -111.42857,-38.76216 0,-28.25823 50.52787,-51.16606 112.85714,-51.16606 62.32928,0 112.85714,22.90783 112.85714,51.16606 z"
         style="fill:#999999;fill-opacity:1;stroke:#000000;stroke-width:2.61727953;stroke-linecap:round;stroke-linejoin:round;stroke-miterlimit:4;stroke-opacity:1;stroke-dashoffset:0" />
      <g
         transform="matrix(0.75736568,0,0,0.75736568,250.36048,110.13542)"
         id="g3891">
        <rect
           style="fill:#ffffff;fill-opacity:1;stroke:#000000;stroke-width:3.45576692;stroke-linecap:round;stroke-linejoin:round;stroke-miterlimit:4;stroke-opacity:1;stroke-dasharray:none;stroke-dashoffset:0"
           id="rect3887"
           width="52.857143"
           height="38.57143"
           x="-784.57141"
           y="639.21936"
           ry="19.285715" />
        <path
           style="fill:#cccccc;stroke:#000000;stroke-width:1.72788346px;stroke-linecap:butt;stroke-linejoin:miter;stroke-opacity:1"
           d="m -765.42857,649.50504 -48.57143,30 35.71429,-42.85714 -27.14286,-38.57143 47.14286,34.28571 58.57142,-1.42857 z"
           id="path3889"
           inkscape:connector-curvature="0" />
      </g>
      <g
         style="opacity:0.75;fill:#e6e6e6"
         id="g3819">
        <path
           inkscape:connector-curvature="0"
           style="fill:#e6e6e6;stroke:#000000;stroke-width:2.61727953;stroke-linecap:butt;stroke-linejoin:miter;stroke-opacity:1"
           d="m -195.28125,344.46875 c -0.0783,0.003 -0.14462,0.003 -0.21875,0.0312 l -32.5625,0 -4.5625,253.5625 c 5.04031,18.00111 96.09521,-17.51169 91.65625,-47.6875 -1.40462,-9.54853 -44.373,-206.30764 -54.3125,-205.90625 z m -5.0625,29.34375 c 6.5374,-0.32067 34.7949,156.87166 35.71875,164.5 2.91959,24.10752 -56.96615,52.47488 -60.28125,38.09375 l 3,-202.5625 21.40625,0 c 0.0488,-0.0222 0.10477,-0.0287 0.15625,-0.0312 z"
           id="path3812" />
        <path
           sodipodi:nodetypes="csssscc"
           inkscape:connector-curvature="0"
           id="rect3015"
           d="m -212.85716,355.21932 0,214.28572 c 0,47.48572 -37.86564,85.71429 -84.90055,85.71429 l -53.77033,0 c -47.0349,0 -84.90054,-38.22857 -84.90054,-85.71429 l 0,-214.28572 z"
           style="fill:#e6e6e6;stroke:#000000;stroke-width:2.61727953;stroke-linecap:round;stroke-linejoin:round;stroke-miterlimit:4;stroke-opacity:1;stroke-dashoffset:0" />
      </g>
      <path
         transform="matrix(0.9910043,0,0,1,-3.9324053,6)"
         d="m -211.42857,350.21933 c 0,17.75201 -50.52786,32.14286 -112.85714,32.14286 -62.32927,0 -112.85714,-14.39085 -112.85714,-32.14286 0,-17.75201 50.52787,-32.14286 112.85714,-32.14286 62.32928,0 112.85714,14.39085 112.85714,32.14286 z"
         sodipodi:ry="32.142857"
         sodipodi:rx="112.85714"
         sodipodi:cy="350.21933"
         sodipodi:cx="-324.28571"
         id="path3823"
         style="fill:#e6e6e6;fill-opacity:1;stroke:#000000;stroke-width:2.61727953;stroke-linecap:round;stroke-linejoin:round;stroke-miterlimit:4;stroke-opacity:1;stroke-dasharray:none;stroke-dashoffset:0"
         sodipodi:type="arc" />
      <path
         sodipodi:type="arc"
         style="fill:#f9f9f9;fill-opacity:1;stroke:#000000;stroke-width:2.91890383;stroke-linecap:round;stroke-linejoin:round;stroke-miterlimit:4;stroke-opacity:1;stroke-dasharray:none;stroke-dashoffset:0"
         id="path3826"
         sodipodi:cx="-324.28571"
         sodipodi:cy="350.21933"
         sodipodi:rx="112.85714"
         sodipodi:ry="32.142857"
         d="m -211.42857,350.21933 c 0,17.75201 -50.52786,32.14286 -112.85714,32.14286 -62.32927,0 -112.85714,-14.39085 -112.85714,-32.14286 0,-17.75201 50.52787,-32.14286 112.85714,-32.14286 62.32928,0 112.85714,14.39085 112.85714,32.14286 z"
         transform="matrix(0.96849589,0,0,0.82222222,-8.7717976,73.975501)" />
      <g
         transform="matrix(1.0182226,0,0,1,5.3270023,49.664678)"
         id="g3804">
        <g
           id="g3794"
           transform="matrix(0.84436301,0,0,0.81731994,-52.270764,55.579597)">
          <path
             sodipodi:nodetypes="ccccc"
             inkscape:connector-curvature="0"
             id="rect3789"
             d="m -452.85715,265.21932 261.42857,0 0,67.14286 c -87.14286,24.15941 -174.28572,23.34012 -261.42857,0 z"
             style="fill:#008080;fill-opacity:1;stroke:#000000;stroke-width:3.15057135;stroke-linecap:round;stroke-linejoin:round;stroke-miterlimit:4;stroke-opacity:1;stroke-dashoffset:0" />
          <path
             transform="matrix(0.98919084,0,0,1,-3.4821059,0)"
             d="m -190,265.21933 c 0,8.67876 -59.16237,15.71429 -132.14285,15.71429 -72.98049,0 -132.14286,-7.03553 -132.14286,-15.71429 0,-8.67876 59.16237,-15.71429 132.14286,-15.71429 72.98048,0 132.14285,7.03553 132.14285,15.71429 z"
             sodipodi:ry="15.714286"
             sodipodi:rx="132.14285"
             sodipodi:cy="265.21933"
             sodipodi:cx="-322.14285"
             id="path3792"
             style="fill:#00b2b2;fill-opacity:1;stroke:#000000;stroke-width:3.16773963;stroke-linecap:round;stroke-linejoin:round;stroke-miterlimit:4;stroke-opacity:1;stroke-dasharray:none;stroke-dashoffset:0"
             sodipodi:type="arc" />
        </g>
        <g
           transform="matrix(0.39906429,0,0,0.3459616,-198.1437,154.17374)"
           id="g3798">
          <path
             style="fill:#008080;fill-opacity:1;stroke:#000000;stroke-width:7.0439229;stroke-linecap:round;stroke-linejoin:round;stroke-miterlimit:4;stroke-opacity:1;stroke-dashoffset:0"
             d="m -452.85715,265.21932 261.42857,0 0,67.14286 c -87.14286,24.15941 -174.28572,23.34012 -261.42857,0 z"
             id="path3800"
             inkscape:connector-curvature="0"
             sodipodi:nodetypes="ccccc" />
          <path
             sodipodi:type="arc"
             style="fill:#00b2b2;fill-opacity:1;stroke:#000000;stroke-width:7.08230686;stroke-linecap:round;stroke-linejoin:round;stroke-miterlimit:4;stroke-opacity:1;stroke-dasharray:none;stroke-dashoffset:0"
             id="path3802"
             sodipodi:cx="-322.14285"
             sodipodi:cy="265.21933"
             sodipodi:rx="132.14285"
             sodipodi:ry="15.714286"
             d="m -190,265.21933 c 0,8.67876 -59.16237,15.71429 -132.14285,15.71429 -72.98049,0 -132.14286,-7.03553 -132.14286,-15.71429 0,-8.67876 59.16237,-15.71429 132.14286,-15.71429 72.98048,0 132.14285,7.03553 132.14285,15.71429 z"
             transform="matrix(0.98919084,0,0,1,-3.4821059,0)" />
        </g>
      </g>
      <path
         sodipodi:nodetypes="cc"
         inkscape:connector-curvature="0"
         id="path3867"
         d="m -415.86444,632.80131 c -5.90424,7.46837 -13.74931,9.69976 -13.76916,33.04608"
         style="opacity:0.5;fill:none;stroke:#000000;stroke-width:1.30863976px;stroke-linecap:butt;stroke-linejoin:miter;stroke-opacity:1" />
      <path
         style="opacity:0.5;fill:none;stroke:#000000;stroke-width:1.30863976px;stroke-linecap:butt;stroke-linejoin:miter;stroke-opacity:1"
         d="m -239.71847,637.61181 c 6.6116,6.85006 14.6384,8.29736 16.95923,31.52804"
         id="path3869"
         inkscape:connector-curvature="0"
         sodipodi:nodetypes="cc" />
      <path
         sodipodi:nodetypes="cc"
         inkscape:connector-curvature="0"
         id="path3871"
         d="m -405.07117,646.28086 c -4.29032,6.45752 -7.79595,13.9613 -8.08122,25.75889"
         style="opacity:0.5;fill:none;stroke:#000000;stroke-width:1.30863976px;stroke-linecap:butt;stroke-linejoin:miter;stroke-opacity:1" />
      <path
         inkscape:connector-curvature="0"
         id="path3873"
         d="m -382.84781,656.88746 -6.06092,22.72843"
         style="opacity:0.5;fill:none;stroke:#000000;stroke-width:1.30863976px;stroke-linecap:butt;stroke-linejoin:miter;stroke-opacity:1" />
      <path
         inkscape:connector-curvature="0"
         id="path3875"
         d="m -356.58385,661.93822 -3.03046,20.20305"
         style="opacity:0.5;fill:none;stroke:#000000;stroke-width:1.30863976px;stroke-linecap:butt;stroke-linejoin:miter;stroke-opacity:1" />
      <path
         inkscape:connector-curvature="0"
         id="path3877"
         d="m -329.81481,664.4636 -1.01015,20.70813"
         style="opacity:0.5;fill:none;stroke:#000000;stroke-width:1.30863976px;stroke-linecap:butt;stroke-linejoin:miter;stroke-opacity:1" />
      <path
         inkscape:connector-curvature="0"
         id="path3879"
         d="m -301.02546,663.95853 -0.50507,20.20305"
         style="opacity:0.5;fill:none;stroke:#000000;stroke-width:1.30863976px;stroke-linecap:butt;stroke-linejoin:miter;stroke-opacity:1" />
      <path
         inkscape:connector-curvature="0"
         id="path3881"
         d="m -275.77165,661.93822 2.52539,19.69798"
         style="opacity:0.5;fill:none;stroke:#000000;stroke-width:1.30863976px;stroke-linecap:butt;stroke-linejoin:miter;stroke-opacity:1" />
      <path
         sodipodi:nodetypes="cc"
         inkscape:connector-curvature="0"
         id="path3883"
         d="m -251.52798,650.82654 c 4.95895,7.51492 8.3383,14.91966 8.08122,23.73859"
         style="opacity:0.5;fill:none;stroke:#000000;stroke-width:1.30863976px;stroke-linecap:butt;stroke-linejoin:miter;stroke-opacity:1" />
      <path
         sodipodi:nodetypes="cc"
         inkscape:connector-curvature="0"
         id="path3895"
         d="m -315.16759,409.90516 0,226.27417"
         style="opacity:0.5;fill:none;stroke:#000000;stroke-width:1.30863976px;stroke-linecap:butt;stroke-linejoin:miter;stroke-opacity:1" />
      <path
         style="opacity:0.5;fill:none;stroke:#000000;stroke-width:1.30863965px;stroke-linecap:butt;stroke-linejoin:miter;stroke-opacity:1"
         d="m -379.16759,401.90516 0,185.95696"
         id="path3897"
         inkscape:connector-curvature="0"
         sodipodi:nodetypes="cc" />
      <path
         sodipodi:nodetypes="cc"
         inkscape:connector-curvature="0"
         id="path3899"
         d="m -247.84776,399.88485 0,185.95696"
         style="opacity:0.5;fill:none;stroke:#000000;stroke-width:1.30863965px;stroke-linecap:butt;stroke-linejoin:miter;stroke-opacity:1" />
    </g>
  </g>
</svg>
