<?xml version="1.0" encoding="UTF-8" standalone="no"?>
<!-- Created with Inkscape (http://www.inkscape.org/) -->

<svg
   xmlns:dc="http://purl.org/dc/elements/1.1/"
   xmlns:cc="http://creativecommons.org/ns#"
   xmlns:rdf="http://www.w3.org/1999/02/22-rdf-syntax-ns#"
   xmlns:svg="http://www.w3.org/2000/svg"
   xmlns="http://www.w3.org/2000/svg"
   xmlns:xlink="http://www.w3.org/1999/xlink"
   xmlns:sodipodi="http://sodipodi.sourceforge.net/DTD/sodipodi-0.dtd"
   xmlns:inkscape="http://www.inkscape.org/namespaces/inkscape"
   width="199.38559"
   height="239.26271"
   id="svg2"
   sodipodi:version="0.32"
   inkscape:version="0.48.2 r9819"
   version="1.0"
   sodipodi:docname="brain.svg"
   inkscape:output_extension="org.inkscape.output.svg.inkscape"
   inkscape:export-filename="/home/mihansen/School/Talks/figures/brain5.png"
   inkscape:export-xdpi="300.08875"
   inkscape:export-ydpi="300.08875">
  <defs
     id="defs4">
    <linearGradient
       id="linearGradient3659">
      <stop
         style="stop-color:#ff6600;stop-opacity:1;"
         offset="0"
         id="stop3661" />
      <stop
         style="stop-color:#ff6600;stop-opacity:0.50196081;"
         offset="1"
         id="stop3663" />
    </linearGradient>
    <linearGradient
       id="linearGradient3651">
      <stop
         style="stop-color:#ffff00;stop-opacity:1;"
         offset="0"
         id="stop3653" />
      <stop
         style="stop-color:#ffff00;stop-opacity:0.50196081;"
         offset="1"
         id="stop3655" />
    </linearGradient>
    <linearGradient
       id="linearGradient3430">
      <stop
         style="stop-color:#ffc8b4;stop-opacity:1;"
         offset="0"
         id="stop3432" />
      <stop
         style="stop-color:#f4e3d7;stop-opacity:0;"
         offset="1"
         id="stop3434" />
    </linearGradient>
    <linearGradient
       id="linearGradient3398">
      <stop
         style="stop-color:#f4e3d7;stop-opacity:0;"
         offset="0"
         id="stop3400" />
      <stop
         id="stop3406"
         offset="0.5"
         style="stop-color:#f9716b;stop-opacity:0.03921569;" />
      <stop
         style="stop-color:#ff967d;stop-opacity:0.39215687;"
         offset="1"
         id="stop3402" />
    </linearGradient>
    <inkscape:perspective
       sodipodi:type="inkscape:persp3d"
       inkscape:vp_x="0 : 526.18109 : 1"
       inkscape:vp_y="0 : 1000 : 0"
       inkscape:vp_z="744.09448 : 526.18109 : 1"
       inkscape:persp3d-origin="372.04724 : 350.78739 : 1"
       id="perspective10" />
    <radialGradient
       inkscape:collect="always"
       xlink:href="#linearGradient3651"
       id="radialGradient3657"
       cx="640.4834"
       cy="121.58711"
       fx="640.4834"
       fy="121.58711"
       r="14.501511"
       gradientUnits="userSpaceOnUse" />
    <radialGradient
       inkscape:collect="always"
       xlink:href="#linearGradient3659"
       id="radialGradient3665"
       cx="640.4834"
       cy="121.58711"
       fx="640.4834"
       fy="121.58711"
       r="15.501511"
       gradientUnits="userSpaceOnUse" />
    <filter
       id="filter3220"
       inkscape:label="Glow"
       width="1.5"
       height="1.5"
       x="-0.25"
       y="-0.25"
       inkscape:menu="Shadows and Glows"
       inkscape:menu-tooltip="Glow of object's own color at the edges"
       color-interpolation-filters="sRGB">
      <feGaussianBlur
         id="feGaussianBlur3222"
         in="SourceAlpha"
         stdDeviation="2"
         result="blur" />
      <feColorMatrix
         id="feColorMatrix3224"
         result="bluralpha"
         type="matrix"
         values="1 0 0 0 0 0 1 0 0 0 0 0 1 0 0 0 0 0 0.5 0 " />
      <feOffset
         id="feOffset3226"
         in="bluralpha"
         dx="4"
         dy="4"
         result="offsetBlur" />
      <feMerge
         id="feMerge3228"
         result="fbSourceGraphic">
        <feMergeNode
           id="feMergeNode3230"
           in="offsetBlur" />
        <feMergeNode
           id="feMergeNode3232"
           in="SourceGraphic" />
      </feMerge>
      <feColorMatrix
         result="fbSourceGraphicAlpha"
         in="fbSourceGraphic"
         values="0 0 0 -1 0 0 0 0 -1 0 0 0 0 -1 0 0 0 0 1 0"
         id="feColorMatrix3262" />
      <feGaussianBlur
         id="feGaussianBlur3264"
         stdDeviation="5"
         result="result91"
         in="fbSourceGraphic" />
      <feComposite
         id="feComposite3266"
         in2="result91"
         in="fbSourceGraphic"
         operator="over" />
    </filter>
    <filter
       inkscape:collect="always"
       id="filter4046"
       color-interpolation-filters="sRGB">
      <feGaussianBlur
         inkscape:collect="always"
         stdDeviation="3.371792"
         id="feGaussianBlur4048" />
    </filter>
    <filter
       inkscape:collect="always"
       id="filter4067"
       x="-0.18154062"
       width="1.3630813"
       y="-0.1784853"
       height="1.3569705"
       color-interpolation-filters="sRGB">
      <feGaussianBlur
         inkscape:collect="always"
         stdDeviation="0.15759349"
         id="feGaussianBlur4069" />
    </filter>
    <filter
       id="filter4105"
       inkscape:label="Torn edges"
       inkscape:menu="Distort"
       inkscape:menu-tooltip="Displace the outside of shapes and pictures without altering their content"
       height="1.4"
       y="-0.2"
       width="1.4"
       x="-0.2"
       color-interpolation-filters="sRGB">
      <feTurbulence
         id="feTurbulence4107"
         baseFrequency="0.05"
         numOctaves="5"
         type="fractalNoise"
         result="result91" />
      <feDisplacementMap
         id="feDisplacementMap4109"
         in2="result91"
         scale="25"
         result="result5"
         xChannelSelector="R"
         in="SourceGraphic"
         yChannelSelector="A" />
      <feComposite
         id="feComposite4111"
         in2="result5"
         in="SourceGraphic"
         operator="atop" />
    </filter>
    <filter
       id="filter4113"
       inkscape:label="Torn edges"
       x="-0.2"
       y="-0.2"
       width="1.4"
       height="1.4"
       inkscape:menu="Distort"
       inkscape:menu-tooltip="Displace the outside of shapes and pictures without altering their content"
       color-interpolation-filters="sRGB">
      <feMorphology
         id="feMorphology4115"
         radius="4"
         in="SourceGraphic"
         result="result0" />
      <feGaussianBlur
         id="feGaussianBlur4117"
         in="result0"
         stdDeviation="8"
         result="result91" />
      <feComposite
         id="feComposite4119"
         in2="result91"
         operator="in"
         in="SourceGraphic"
         result="fbSourceGraphic" />
      <feColorMatrix
         result="fbSourceGraphicAlpha"
         in="fbSourceGraphic"
         values="0 0 0 -1 0 0 0 0 -1 0 0 0 0 -1 0 0 0 0 1 0"
         id="feColorMatrix4133" />
      <feTurbulence
         id="feTurbulence4135"
         baseFrequency="0.05"
         numOctaves="5"
         type="fractalNoise"
         result="result91" />
      <feDisplacementMap
         id="feDisplacementMap4137"
         in2="result91"
         scale="25"
         result="result5"
         xChannelSelector="R"
         in="fbSourceGraphic"
         yChannelSelector="A" />
      <feComposite
         id="feComposite4139"
         in2="result5"
         in="fbSourceGraphic"
         operator="atop" />
    </filter>
  </defs>
  <sodipodi:namedview
     id="base"
     pagecolor="#ffffff"
     bordercolor="#666666"
     borderopacity="1.0"
     gridtolerance="10000"
     guidetolerance="10"
     objecttolerance="10"
     inkscape:pageopacity="0"
     inkscape:pageshadow="2"
     inkscape:zoom="1.7553926"
     inkscape:cx="80.934405"
     inkscape:cy="139.16068"
     inkscape:document-units="px"
     inkscape:current-layer="layer4"
     showgrid="false"
     inkscape:window-width="1440"
     inkscape:window-height="876"
     inkscape:window-x="0"
     inkscape:window-y="24"
     showguides="true"
     inkscape:guide-bbox="true"
     inkscape:window-maximized="1"
     fit-margin-top="0"
     fit-margin-left="0"
     fit-margin-right="0"
     fit-margin-bottom="0" />
  <metadata
     id="metadata7">
    <rdf:RDF>
      <cc:Work
         rdf:about="">
        <dc:format>image/svg+xml</dc:format>
        <dc:type
           rdf:resource="http://purl.org/dc/dcmitype/StillImage" />
        <dc:title />
      </cc:Work>
    </rdf:RDF>
  </metadata>
  <g
     inkscape:groupmode="layer"
     id="layer4"
     inkscape:label="Layer#2"
     style="display:inline"
     transform="translate(0.56967264,-20.311283)">
    <path
       sodipodi:type="arc"
       style="opacity:0.5;fill:#999999;fill-opacity:1;stroke:#666666;stroke-width:2;filter:url(#filter4113)"
       id="path4095"
       sodipodi:cx="237.26886"
       sodipodi:cy="67.733101"
       sodipodi:rx="22.502089"
       sodipodi:ry="54.688622"
       d="m 259.77095,67.733101 c 0,30.203692 -10.07453,54.688619 -22.50209,54.688619 -12.42756,0 -22.50209,-24.484927 -22.50209,-54.688619 0,-30.203692 10.07453,-54.688622 22.50209,-54.688622 12.42756,0 22.50209,24.48493 22.50209,54.688622 z"
       transform="matrix(0.96592583,0.25881905,-0.25881905,0.96592583,-101.90641,-46.021845)" />
  </g>
  <g
     inkscape:groupmode="layer"
     id="layer3"
     inkscape:label="Text"
     transform="translate(-357.10004,58.850712)"
     style="display:inline">
    <g
       id="g3148">
      <path
         inkscape:connector-curvature="0"
         id="path3506"
         d="m 498.28802,143.33938 c -0.25804,0.61682 -1.13378,1.78024 -1.61128,2.41691 -0.55052,0.73403 -0.6696,1.27383 -1.20846,1.81269 -0.50353,0.50353 -0.70494,1.30917 -1.20846,1.81269 -0.67142,0.67142 -1.06254,1.06254 -1.61128,1.61128 -0.64963,0.64963 -0.85912,1.03379 -1.61128,1.40987 -0.7629,0.38145 -1.58264,0.69061 -2.21551,1.00705"
         style="fill:none;stroke:#000000;stroke-width:1px;stroke-linecap:butt;stroke-linejoin:miter;stroke-opacity:1" />
      <path
         inkscape:connector-curvature="0"
         sodipodi:nodetypes="cssssssc"
         id="path3556"
         d="m 454.58207,117.15609 c -0.66929,1.27317 -2.09913,3.39263 -2.81973,4.83384 -0.84017,1.68034 -2.0141,1.5131 -2.0141,4.0282 0,1.63863 -1.26802,3.05797 -1.61128,4.43101 -0.4018,1.60721 -1.33208,2.94336 -2.41692,4.0282 -1.19789,1.19789 -2.23653,2.12532 -3.62538,2.81974 -1.53387,0.76694 -3.05409,0.92282 -4.43101,1.61128 -1.40146,0.70073 -3.04351,1.99451 -4.73313,2.41692"
         style="fill:none;stroke:#000000;stroke-width:2;stroke-linecap:butt;stroke-linejoin:miter;stroke-miterlimit:4;stroke-opacity:1;stroke-dasharray:none" />
      <path
         inkscape:connector-curvature="0"
         id="path3562"
         d="m 498.85816,139.01599 c -0.36722,-4.55119 -0.32306,-6.08353 0.23568,-8.17807 0.62017,-2.3248 0.62799,-10.54137 0.012,-12.61491 -1.00655,-3.38824 -5.16403,-6.78433 -8.90408,-7.27343 l -1.96229,-0.25661 1.76653,-3.02115 c 0.97159,-1.66163 2.02454,-3.92749 2.33989,-5.03525 0.80393,-2.823976 1.4282,-8.312069 1.35172,-11.883179 -0.0605,-2.824314 0.0553,-3.270469 1.77737,-6.847935 2.57541,-5.350305 4.45726,-10.963561 4.51792,-13.476299 0.0398,-1.647814 0.18185,-2.073893 0.65502,-1.964507 0.33233,0.07682 2.11222,0.300874 3.95532,0.497885 5.5935,0.597901 7.54108,1.811879 15.5136,9.66999 6.14715,6.058945 6.92496,6.983633 8.33199,9.905358 2.59562,5.389836 3.64885,10.879963 2.83723,14.789497 -0.26214,1.26269 -2.0661,5.5053 -4.07393,9.58116 -1.98192,4.02325 -3.60182,7.79903 -3.59978,8.39061 0.003,0.77688 -0.62349,1.69087 -2.25466,3.2911 -1.2421,1.21853 -3.90368,4.45367 -5.91462,7.1892 -2.34529,3.19035 -4.24498,5.34425 -5.29821,6.00715 -0.90308,0.5684 -2.27639,1.54057 -3.05182,2.16038 -1.53399,1.22612 -3.71315,2.10718 -6.28765,2.54214 l -1.64457,0.27785 -0.30266,-3.75098 z"
         style="fill:#d38d5f;fill-opacity:1;stroke:#c87137;stroke-width:0.80563951;stroke-miterlimit:4;stroke-opacity:1;stroke-dasharray:none" />
      <path
         inkscape:connector-curvature="0"
         id="path3564"
         d="m 453.00967,116.2626 c -1.80696,-0.68476 -3.38833,-1.66031 -4.69783,-2.89811 -1.69034,-1.59779 -2.09827,-2.29998 -2.83905,-4.88703 -1.28092,-4.47335 -2.76587,-8.25096 -3.90091,-9.923517 -2.07019,-3.050606 -2.6634,-5.26746 -2.42687,-9.069366 0.28687,-4.611057 1.68724,-7.333454 4.83226,-9.394151 1.21739,-0.797659 3.40094,-4.939633 3.75532,-7.123476 0.14189,-0.87432 -0.10284,-2.894502 -0.61481,-5.075227 -0.85956,-3.661252 -1.03974,-6.353776 -0.60218,-8.998888 l 0.23947,-1.447674 6.2007,-0.728539 c 5.77302,-0.6783 6.30491,-0.683025 7.71178,-0.06852 3.1081,1.357575 5.30214,1.555259 14.06585,1.267319 10.55227,-0.346711 11.38879,-0.150175 14.90157,3.500927 1.29379,1.344725 2.93112,3.035686 3.63852,3.757692 0.70741,0.72201 2.20287,1.642372 3.32326,2.04526 l 2.03707,0.732516 0,1.972596 c 0,2.072085 -2.27602,9.38792 -3.63998,11.70004 -1.95121,3.307574 -2.80466,6.592262 -2.81919,10.850123 -0.0256,7.4903 -1.45658,12.309425 -5.08096,17.110635 -0.90105,1.19361 -1.18044,1.30917 -3.1653,1.30917 -2.52363,0 -8.50597,1.55546 -12.28349,3.19381 -2.54764,1.10494 -6.38701,2.20005 -10.07049,2.8724 -3.201,0.58429 -5.72352,0.37871 -8.56474,-0.69799 l 0,0 z"
         style="fill:#d38d5f;fill-opacity:1;stroke:#c87137;stroke-width:0.80563951;stroke-miterlimit:4;stroke-opacity:1;stroke-dasharray:none" />
      <path
         inkscape:connector-curvature="0"
         id="path3566"
         d="m 430.35588,139.37091 c -1.88482,-0.79252 -3.00961,-0.86417 -17.52266,-1.11625 -8.72969,-0.15163 -16.19949,-0.45611 -17.08925,-0.69658 -2.95433,-0.79845 -7.47875,-3.33896 -9.8406,-5.52562 -3.34385,-3.09581 -5.69855,-8.75125 -5.69855,-13.68657 0,-2.63225 1.89166,-14.03228 2.61617,-15.76629 0.30504,-0.73006 1.77951,-2.737943 3.2766,-4.461983 1.4971,-1.724037 4.45395,-5.128576 6.5708,-7.565636 3.99881,-4.603706 6.92534,-7.563416 16.50617,-16.693301 4.83631,-4.608681 6.47483,-5.884395 11.01146,-8.573253 4.21837,-2.500241 6.38025,-3.488628 10.3681,-4.740229 6.79024,-2.131138 9.83097,-2.80999 12.61843,-2.817072 2.24914,-0.0057 2.33162,0.03049 2.05149,0.900391 -0.53762,1.669442 -0.25959,6.513805 0.5661,9.864012 0.65236,2.646941 0.73337,3.624798 0.40046,4.833837 -0.72067,2.617253 -2.23061,5.10572 -3.68602,6.074763 -1.62728,1.083477 -3.33443,3.403078 -4.11489,5.59113 -0.30352,0.850937 -0.55414,3.191263 -0.56397,5.266453 -0.019,4.004439 -0.10438,3.743714 3.62281,11.056948 0.64597,1.26746 1.64349,3.9726 2.21673,6.01143 0.57324,2.03882 1.29975,4.2049 1.61447,4.8135 0.70714,1.36747 3.41032,3.59499 5.82136,4.79703 0.99698,0.49705 1.88003,0.96389 1.96234,1.03742 0.18968,0.16947 -1.79671,3.59972 -3.03634,5.24336 -0.51705,0.68558 -0.94009,1.74647 -0.94009,2.35757 0,0.6111 -0.69278,2.58941 -1.5395,4.39627 -1.82907,3.90315 -4.27244,6.30521 -7.45526,7.32923 -1.14554,0.36855 -3.0317,1.19405 -4.19149,1.83443 -2.44993,1.35273 -2.84669,1.36955 -5.54487,0.23502 l 0,-1e-5 z"
         style="fill:#d38d5f;fill-opacity:1;stroke:#c87137;stroke-width:0.80563951;stroke-miterlimit:4;stroke-opacity:1;stroke-dasharray:none" />
      <path
         inkscape:connector-curvature="0"
         id="path3568"
         d="m 451.50391,158.2003 c -5.80449,-1.33963 -6.76411,-2.08407 -9.83314,-7.62818 -1.65932,-2.9975 -3.2022,-5.16605 -4.76907,-6.70303 -1.27392,-1.24962 -2.31621,-2.34921 -2.31621,-2.44356 0,-0.1695 2.49522,-1.35241 6.89627,-3.26932 3.43519,-1.49621 5.48707,-3.57917 7.21303,-7.32225 0.81727,-1.77241 1.60683,-3.8822 1.75458,-4.68843 0.14775,-0.80623 1.07991,-2.70105 2.07146,-4.21072 0.99156,-1.50968 1.80282,-2.8893 1.80282,-3.06585 0,-0.17655 1.69011,-0.32101 3.7558,-0.32101 2.84044,0 4.57581,-0.24544 7.12034,-1.00705 1.85049,-0.55387 3.69169,-1.00705 4.09155,-1.00705 0.39987,0 1.86339,-0.53541 3.25228,-1.1898 6.84519,-3.22522 15.70451,-4.24226 19.8465,-2.27838 2.55889,1.21326 4.83868,3.61293 5.39979,5.68369 0.62885,2.32075 0.54082,8.74295 -0.17079,12.4618 -0.51191,2.67517 -0.53442,3.86213 -0.13798,7.27268 l 0.47378,4.07573 -2.43304,3.60346 c -2.59442,3.84248 -3.63681,4.95948 -5.52833,5.92404 -1.09254,0.55713 -1.27363,0.54263 -2.25134,-0.18022 -2.18267,-1.61372 -5.31012,-1.68093 -9.45078,-0.20309 -0.88621,0.31629 -4.14905,1.85191 -7.25076,3.4125 -8.64655,4.35038 -11.8552,4.8569 -19.53676,3.08405 l 0,-1e-5 z"
         style="fill:#d38d5f;fill-opacity:1;stroke:#c87137;stroke-width:0.80563951;stroke-miterlimit:4;stroke-opacity:1;stroke-dasharray:none" />
      <path
         inkscape:connector-curvature="0"
         id="path3570"
         d="m 497.2226,164.00266 c -2.7035,-2.79837 -4.57369,-5.16058 -5.69088,-7.18806 l -1.66404,-3.01992 1.29076,-0.67806 c 1.60392,-0.84254 3.57552,-3.01382 5.61996,-6.18913 l 1.56855,-2.43617 3.49474,-0.83484 c 2.9158,-0.69655 4.09955,-1.24627 7.1455,-3.31833 3.01018,-2.04774 4.2108,-3.20542 6.84268,-6.59807 1.75557,-2.26303 3.59215,-4.77464 4.08129,-5.58139 0.48914,-0.80673 1.66276,-2.10055 2.60804,-2.87513 l 1.71868,-1.40832 0.79314,1.10428 c 0.43622,0.60738 1.69948,1.87035 2.80723,2.80662 4.97476,4.20462 6.07969,5.58124 6.87362,8.56384 0.9412,3.53581 0.76432,6.66001 -0.47856,8.45349 -1.08546,1.56632 -7.81732,7.3405 -9.72846,8.34449 -0.60083,0.31562 -3.63446,0.77286 -6.92434,1.04362 -3.22027,0.26505 -6.1773,0.62271 -6.57117,0.79482 -2.40425,1.0506 -1.86122,5.30674 1.29303,10.13458 0.30651,0.46913 0.45243,1.12624 0.32427,1.46022 -0.23331,0.60798 -0.97303,0.72653 -8.35469,1.33888 l -3.02249,0.25072 -4.02686,-4.16814 z"
         style="fill:#c87137;fill-opacity:1;stroke:#c87137;stroke-width:0.80563951;stroke-miterlimit:4;stroke-opacity:1;stroke-dasharray:none" />
      <g
         transform="translate(-200,0)"
         id="g3530"
         style="display:inline">
        <path
           inkscape:connector-curvature="0"
           style="fill:none;stroke:#000000;stroke-width:1px;stroke-linecap:butt;stroke-linejoin:miter;stroke-opacity:1"
           d="m 718.22759,92.986908 c 0.30995,0.619888 0.60423,1.283606 0.60423,2.215509 0,0.910666 0.21957,2.142868 0,3.021148 -0.17144,0.685769 -0.38102,1.524111 -0.60423,2.416915 -0.19874,0.79499 -0.62022,1.47387 -0.80564,2.21551 -0.26322,1.05292 -0.34355,1.29135 -0.80564,2.21551 -0.32035,0.64071 -0.73081,1.13363 -1.40986,1.81269 -0.46444,0.46443 -0.84645,1.08865 -1.20846,1.81269 -0.26896,0.53792 -0.65903,1.59352 -0.40282,2.61833 0.23484,0.93937 0.3776,1.51039 0.60423,2.41691 0.15571,0.62288 0.80564,1.43603 0.80564,2.21551 0,1.02091 -0.0149,2.07351 -0.20141,2.81974 -0.14679,0.58715 -0.40696,1.71406 -1.00705,2.0141 -0.5615,0.28075 -1.27089,0.66665 -1.81269,1.20846 -0.34434,0.34434 -1.05866,1.33497 -1.61128,1.61128 -0.78064,0.39032 -3.19755,1.39736 -2.41692,1.00705 0,-0.26855 0,-0.53709 0,-0.80564 0,-0.4445 -1.54646,-1.07535 -1.81269,-1.20846 -0.1201,-0.0601 -0.26854,0 -0.40282,0"
           id="path3508" />
        <path
           inkscape:connector-curvature="0"
           style="fill:none;stroke:#000000;stroke-width:1px;stroke-linecap:butt;stroke-linejoin:miter;stroke-opacity:1"
           d="m 708.1571,125.4139 c -0.78063,-0.39032 -0.3899,1.79977 -1.00705,2.41692 -0.31259,0.31258 -0.46906,0.7367 -0.60423,1.00704"
           id="path3510" />
        <path
           inkscape:connector-curvature="0"
           style="fill:none;stroke:#000000;stroke-width:1px;stroke-linecap:butt;stroke-linejoin:miter;stroke-opacity:1"
           d="m 715.00504,107.68983 c -0.37342,0.37341 -2.12246,-0.914 -2.41692,-1.20846 -0.42433,-0.42433 -1.4805,-0.74025 -2.0141,-1.00705 -0.82953,-0.41476 -1.12506,-0.86464 -1.81269,-1.20846 -0.59633,-0.29817 -1.01726,-1.21867 -1.40987,-1.61128 -0.67068,-0.67068 -1.04468,-1.08231 -1.40987,-1.81269 -0.36343,-0.72687 -0.89621,-1.188186 -1.20846,-1.812686 -0.37094,-0.741886 -0.40015,-1.802022 -0.60423,-2.618328 -0.24377,-0.975085 -0.20141,-1.74704 -0.20141,-2.819738 0,-0.819319 0.63401,-1.528986 0.80564,-2.215509 0.11074,-0.442953 1.14505,-1.346455 1.40987,-1.611279 0.50353,-0.503524 0.90635,-1.107754 1.40987,-1.611279 0.48702,-0.487024 0.84652,-1.290227 1.20846,-2.014098 0.45227,-0.904548 0.59551,-1.576381 0.80564,-2.416919 0.17493,-0.699741 0.22698,-1.914953 0.40282,-2.618328 0.25045,-1.001793 -0.32885,-1.866148 -0.60423,-2.416919 -0.45044,-0.900869 -0.60469,-1.613131 -0.80564,-2.416918 -0.17246,-0.689856 -1.06498,-1.467804 -1.40987,-1.812689 -0.61536,-0.615363 -1.0926,-0.891189 -1.61128,-1.409869 -0.68452,-0.684518 -1.32852,-1.127117 -1.81269,-1.611279 -0.59762,-0.597624 -1.15248,-0.878356 -1.81269,-1.208459 -0.54536,-0.272683 -1.05723,-1.460057 -1.40986,-1.812689 -0.33566,-0.335657 -0.52633,-0.394741 -0.80564,-0.60423"
           id="path3512" />
        <path
           inkscape:connector-curvature="0"
           style="fill:none;stroke:#000000;stroke-width:1px;stroke-linecap:butt;stroke-linejoin:miter;stroke-opacity:1"
           d="m 694.05841,86.340382 c 0.74389,-0.202362 1.52582,0.381455 2.41692,0.60423 0.83301,0.208254 1.44059,0.720297 2.0141,1.007049 0.73079,0.365397 1.28187,0.640937 2.0141,1.00705 0.77461,0.387308 1.11839,0.916986 1.61127,1.409869 0.5876,0.587591 1.08864,0.968814 1.40987,1.611279 0.15345,0.306883 0.27055,0.40582 0.40282,0.604229"
           id="path3516" />
        <path
           inkscape:connector-curvature="0"
           style="fill:none;stroke:#000000;stroke-width:1px;stroke-linecap:butt;stroke-linejoin:miter;stroke-opacity:1"
           d="m 711.98389,92.986908 c 0.0966,0.193276 -0.80564,1.756886 -0.80564,3.021148 0,0.78175 -0.20141,1.901259 -0.20141,2.819738"
           id="path3518" />
        <path
           inkscape:connector-curvature="0"
           style="fill:none;stroke:#000000;stroke-width:1px;stroke-linecap:butt;stroke-linejoin:miter;stroke-opacity:1"
           d="m 704.93454,100.23766 c 0,0.90323 -1.40875,1.20623 -1.81269,2.0141 -0.34089,0.6818 -0.84946,1.29611 -1.20846,2.0141 -0.36361,0.72724 -0.44041,1.76168 -0.60423,2.41692 -0.22817,0.91269 0.0321,2.14245 0.20141,2.81974 0.18918,0.75671 0.91614,1.22803 1.20846,1.81269 0.0425,0.0849 0.13428,0.13427 0.20141,0.20141"
           id="path3520" />
        <path
           inkscape:connector-curvature="0"
           style="fill:none;stroke:#000000;stroke-width:1px;stroke-linecap:butt;stroke-linejoin:miter;stroke-opacity:1"
           d="m 699.69789,113.3293 c 0.17866,0.35734 2.24322,-1.63899 2.41691,-1.81268 0.45027,-0.45027 1.62261,-0.85883 2.21551,-1.00705 0.58587,-0.14647 0.73443,-0.43537 1.40987,-0.60423"
           id="path3522" />
        <path
           inkscape:connector-curvature="0"
           style="fill:none;stroke:#000000;stroke-width:1px;stroke-linecap:butt;stroke-linejoin:miter;stroke-opacity:1"
           d="m 731.11783,95.806646 c 0.9257,-0.231425 -1.38597,1.362055 -1.81269,2.215509 -0.39449,0.788983 -1.1221,1.122092 -1.61128,1.611279 -0.62849,0.628486 -1.0979,0.851066 -1.81269,1.208456 -0.23262,0.11631 -0.92699,0 -1.20846,0"
           id="path3524" />
        <path
           inkscape:connector-curvature="0"
           style="fill:none;stroke:#000000;stroke-width:1px;stroke-linecap:butt;stroke-linejoin:miter;stroke-opacity:1"
           d="m 720.4431,78.686807 c -0.85977,0.429885 -0.37109,1.887189 -0.60423,2.819739 -0.21957,0.878279 0,2.110481 0,3.021148 0,0.433461 0.16849,0.673951 0.20141,0.805639"
           id="path3526" />
      </g>
      <path
         inkscape:connector-curvature="0"
         sodipodi:nodetypes="cssssssssssc"
         id="path3572"
         d="m 481.26888,56.934542 c -1.00949,-0.197706 -2.27499,1.167235 -2.92044,1.812688 -0.59428,0.594284 -0.88131,1.158389 -1.20846,1.812689 -0.39081,0.781621 -0.87842,1.15261 -1.20846,1.812689 -0.38656,0.773116 -0.578,1.304973 -0.80564,2.215509 -0.18527,0.741083 -0.80538,1.207414 -1.00705,2.014098 -0.20694,0.827759 -0.37854,1.514151 -0.60423,2.416919 -0.2176,0.870392 -0.24482,2.187748 -0.40282,2.819738 -0.27467,1.098691 -0.82719,1.230011 -1.40987,1.812689 -0.70879,0.708798 -1.47468,0.570082 -2.41691,0.805639 -0.64107,0.160265 -1.73073,0.563246 -2.21551,0.80564 -0.36301,0.181502 -0.67949,0.271794 -1.00705,0.402819"
         style="fill:none;stroke:#000000;stroke-width:1px;stroke-linecap:butt;stroke-linejoin:miter;stroke-opacity:1;display:inline" />
      <path
         inkscape:connector-curvature="0"
         id="path3574"
         d="m 493.857,85.937563 c -0.21143,0.105714 -1.94286,-1.338626 -2.21551,-1.611279 -0.67961,-0.679614 -1.27684,-1.276843 -1.81269,-1.812689 -0.34964,-0.349638 -0.80521,-1.610421 -1.00705,-2.014099 -0.37032,-0.740636 -0.73196,-1.665334 -1.00705,-2.215508 -0.39012,-0.780251 -0.64187,-1.28374 -1.00705,-2.014099 -0.25016,-0.500325 -1.54351,-0.889402 -2.01409,-1.007049 -0.91404,-0.228509 -1.29772,-0.60423 -2.41692,-0.60423 -0.66077,0 -1.93075,-0.230924 -2.61833,-0.40282 -0.71828,-0.179569 -1.21741,-1.016003 -1.61128,-1.409869 -0.65826,-0.658262 -1.11507,-1.061059 -1.81269,-1.409869 -0.57348,-0.28674 -1.23152,-1.030112 -1.61128,-1.409869 -0.47116,-0.471158 -0.92682,-0.765528 -1.40987,-1.007049"
         style="fill:none;stroke:#000000;stroke-width:1px;stroke-linecap:butt;stroke-linejoin:miter;stroke-opacity:1;display:inline" />
      <path
         inkscape:connector-curvature="0"
         id="path3576"
         d="m 456.99899,92.584088 c 0.16945,-0.530078 0.95739,-1.813603 1.40987,-2.416918 0.62951,-0.839347 0.61263,-1.418268 1.20846,-2.014099 0.61901,-0.619006 0.91174,-1.261509 1.61128,-1.611279 0.7498,-0.374901 1.13235,-0.930942 1.61128,-1.409869 0.31526,-0.315261 1.87163,-0.6337 2.21551,-0.805639 0.73836,-0.369182 1.67028,-0.40282 2.61833,-0.40282 0.7692,0 1.97132,-0.241069 2.61833,-0.40282 0.97421,-0.243554 1.95141,0.236092 2.61832,0.40282 0.83553,0.208883 1.61992,0.608546 2.41692,1.007049 0.82953,0.414765 1.12506,0.864644 1.81269,1.20846 0.69494,0.34747 1.15409,0.879157 1.81269,1.208459 0.70218,0.35109 1.58042,0.488093 2.21551,0.805639 0.88586,0.442931 1.18875,0.584525 1.81269,1.208459 0.54811,0.548115 0.92213,1.240031 1.20846,1.812689 0.35095,0.701898 0.20141,1.871575 0.20141,2.819738 0,1.122942 -0.39977,1.599081 -0.60423,2.416919 -0.20205,0.808171 -0.40282,1.646168 -0.40282,2.618328 0,1.007046 0,2.014096 0,3.021146 0,1.06516 0.17932,1.92577 0.40282,2.81974 0.22891,0.91567 0.6036,1.60876 0.80564,2.41692 0.25133,1.00532 0.60423,1.19171 0.60423,2.41692 0,0.53184 0.40282,0.86141 0.40282,1.61128"
         style="fill:none;stroke:#000000;stroke-width:1px;stroke-linecap:butt;stroke-linejoin:miter;stroke-opacity:1;display:inline" />
      <path
         inkscape:connector-curvature="0"
         id="path3578"
         d="m 484.59215,80.096676 c 0,0.566555 0,2.457325 0,3.625378 0,0.750571 -0.44029,1.761125 -0.60423,2.416919 -0.22356,0.89423 -0.73213,1.336355 -1.20846,1.812688 -0.34769,0.347687 -1.05011,0.262528 -1.61128,0.40282"
         style="fill:none;stroke:#000000;stroke-width:1px;stroke-linecap:butt;stroke-linejoin:miter;stroke-opacity:1;display:inline" />
      <path
         inkscape:connector-curvature="0"
         id="path3580"
         d="m 468.27795,89.96576 c -0.48298,0.482978 -1.95074,1.547915 -2.61833,2.215509 -0.53593,0.535928 -0.64031,1.554177 -0.80564,2.215508 -0.21297,0.851886 -0.0471,2.202561 -0.20141,2.819738 -0.21957,0.87828 0,2.110482 0,3.021145 0,0.77948 0.64992,1.59264 0.80564,2.21551 0.1813,0.72521 0.81134,1.41558 1.20846,1.81269 0.61536,0.61536 0.89119,1.0926 1.40987,1.61128 0.57194,0.57194 1.32263,0.86272 2.0141,1.20846 0.63477,0.31739 2.29274,0 3.02114,0 0.96212,0 2.16242,-0.0371 2.81974,-0.20141 1.05555,-0.26389 1.4706,-0.33248 2.41692,-0.80564"
         style="fill:none;stroke:#000000;stroke-width:1px;stroke-linecap:butt;stroke-linejoin:miter;stroke-opacity:1;display:inline" />
      <path
         inkscape:connector-curvature="0"
         id="path3582"
         d="m 454.38067,117.76032 c 1.01112,-0.25278 0.55285,-2.01002 0.80563,-3.02115 0.21152,-0.84607 0.71675,-1.6349 1.00705,-2.2155 0.36227,-0.72454 0.60423,-1.41779 0.60423,-2.41692 0,-1.04942 0.0223,-1.52197 -0.20141,-2.41692 -0.16726,-0.66906 -1.20956,-1.61239 -1.61128,-2.0141 -0.61536,-0.61536 -1.09259,-0.89119 -1.61127,-1.40987 -0.61537,-0.61536 -1.0926,-0.89119 -1.61128,-1.40987 -0.58645,-0.58645 -0.95424,-1.50565 -1.20846,-2.0141 -0.3294,-0.6588 -0.63949,-1.550895 -0.80564,-2.215506 -0.21387,-0.855467 -0.40282,-1.480686 -0.40282,-2.618328 0,-0.989882 0.0274,-2.123587 0.20141,-2.819738 0.15192,-0.607679 0,-1.777846 0,-2.618328 0,-1.059193 0.40282,-1.786808 0.40282,-2.819739 0,-0.635812 0.75548,-1.712369 1.00705,-2.215508 0.37368,-0.747366 0.71951,-1.237615 1.00705,-1.812689"
         style="fill:none;stroke:#000000;stroke-width:1px;stroke-linecap:butt;stroke-linejoin:miter;stroke-opacity:1;display:inline" />
      <path
         inkscape:connector-curvature="0"
         id="path3584"
         d="m 454.17926,56.128902 c 0.45036,-0.900732 1.20845,1.611279 1.81268,2.416918 0.55231,0.736407 0.73266,1.263909 1.20846,2.215509 0.40012,0.800224 0.64074,1.757297 0.80564,2.416918 0.21721,0.868829 0.19739,1.393769 0.40282,2.215509"
         style="fill:none;stroke:#000000;stroke-width:1px;stroke-linecap:butt;stroke-linejoin:miter;stroke-opacity:1;display:inline" />
      <path
         inkscape:connector-curvature="0"
         id="path3588"
         d="m 453.77644,69.623363 c 1.15204,0.504161 3.42223,1.711118 4.83383,2.416919 1.30391,0.651955 1.7157,2.834583 2.0141,4.028197 0.62345,2.493798 0.19138,3.01112 1.61128,4.431017 0.41911,0.41911 0.55338,0.553383 0.80564,0.80564"
         style="fill:none;stroke:#000000;stroke-width:1px;stroke-linecap:butt;stroke-linejoin:miter;stroke-opacity:1;display:inline" />
      <path
         inkscape:connector-curvature="0"
         sodipodi:nodetypes="csssssssssssssssssc"
         id="path3592"
         d="m 442.09466,60.372608 c -0.4342,0.970179 -1.38946,3.584558 -2.0141,4.833837 -0.63477,1.269554 0,4.585482 0,6.042296 0,2.167828 -0.94951,2.963616 -2.01409,4.028197 -1.3727,1.372696 -1.58837,2.002642 -3.22256,2.819739 -1.52525,0.762624 -2.05091,2.050903 -3.22256,3.222558 -1.34286,1.342859 -1.94249,1.727656 -2.41692,3.625377 -0.39886,1.595433 -1.24009,2.946284 -1.61128,4.431017 -0.43434,1.737377 0.11656,4.494421 0.40282,5.639477 0.41346,1.653813 1.21138,3.234224 1.61128,4.833834 0.37684,1.50736 0.80564,3.51318 0.80564,5.23666 0,1.69444 -1.5295,2.73796 -2.41692,3.62538 -1.29882,1.29882 -1.20846,2.57849 -1.20846,4.83383 0,2.43259 0.39477,3.59317 0.80564,5.23666 0.40732,1.62927 1.47854,2.95707 2.0141,4.0282 0.79863,1.59726 1.6698,2.07262 2.81974,3.22256 1.34284,1.34284 1.72226,2.52789 2.81974,3.62537 1.23072,1.23073 2.18519,1.78238 3.22256,2.81974 1.23197,1.23198 3.22929,3.4307 4.12889,4.33031"
         style="fill:none;stroke:#000000;stroke-width:1px;stroke-linecap:butt;stroke-linejoin:miter;stroke-opacity:1;display:inline" />
      <path
         inkscape:connector-curvature="0"
         sodipodi:nodetypes="csssssssssssc"
         id="path3594"
         d="m 427.79456,94.094663 c -3.58496,4.491309 -4.25306,4.555181 -4.83383,5.135951 -0.41437,0.414368 -1.68873,0.743657 -2.21551,1.007046 -0.70113,0.35057 -1.68657,0.60423 -2.61833,0.60423 -1.31463,0 -1.6776,-0.23457 -2.41692,-0.60423 -0.70186,-0.350927 -1.71102,-0.427753 -2.41692,-0.604226 -0.8417,-0.210426 -1.58779,-0.491779 -2.21551,-0.80564 -0.83327,-0.416636 -1.0854,-0.883996 -1.61128,-1.409869 -0.70825,-0.708258 -1.18674,-0.996192 -2.01409,-1.409869 -0.70268,-0.351339 -1.44622,-0.613315 -2.21551,-0.805639 -0.40183,-0.100457 -0.98948,0 -1.40987,0"
         style="fill:none;stroke:#000000;stroke-width:1px;stroke-linecap:butt;stroke-linejoin:miter;stroke-opacity:1;display:inline" />
      <path
         inkscape:connector-curvature="0"
         id="path3596"
         d="m 413.69587,100.03625 c -0.44556,-0.111387 -0.83911,1.94657 -1.00705,2.61833 -0.19125,0.76501 -0.42857,1.71427 -0.60423,2.41692 -0.21957,0.87828 0,2.11048 0,3.02115 0,1.02912 0.0122,2.06271 0.20141,2.81974 0.21957,0.87828 0,2.11048 0,3.02114 0,1.00739 -0.65778,1.31557 -1.00705,2.0141 -0.16727,0.33455 -1.64737,0.82369 -2.0141,1.00705 -0.76308,0.38154 -1.79352,0.40282 -2.61832,0.40282 -1.00705,0 -2.0141,0 -3.02115,0 -1.10806,0 -1.81424,0.2018 -2.61833,0.40282 -0.84474,0.21119 -1.34449,0.67225 -2.0141,1.00705 -0.57186,0.28593 -1.3297,1.04763 -1.81269,1.40987 -0.68806,0.51605 -1.17955,0.89189 -1.81269,1.20846 -0.13427,0.0671 -0.26854,0.13427 -0.40282,0.20141"
         style="fill:none;stroke:#000000;stroke-width:1px;stroke-linecap:butt;stroke-linejoin:miter;stroke-opacity:1;display:inline" />
      <path
         inkscape:connector-curvature="0"
         id="path3600"
         d="m 385.6999,132.66465 c 0.45869,-0.65813 1.56213,-1.36072 2.21551,-2.0141 0.41495,-0.41495 1.59475,-0.65045 2.21551,-0.80564 0.77602,-0.194 1.52683,-0.58311 2.41692,-0.80564 0.90567,-0.22641 1.45753,-0.40282 2.61832,-0.40282 1.0803,0 1.85307,0.21151 2.61833,0.40282 0.98215,0.24554 2.0761,-0.0348 3.02115,0.20141 0.40215,0.10054 1.76973,-0.69419 2.21551,-0.80563"
         style="fill:none;stroke:#000000;stroke-width:1px;stroke-linecap:butt;stroke-linejoin:miter;stroke-opacity:1;display:inline" />
      <path
         inkscape:connector-curvature="0"
         id="path3606"
         d="m 430.21148,82.513595 c -0.37962,-0.254189 -2.18492,-0.20141 -3.22256,-0.20141 -0.90801,0 -1.90404,0.224248 -2.61833,0.40282 -1.08463,0.271158 -1.70728,0.175058 -2.61832,0.402819 -0.87261,0.218153 -1.55974,0.754102 -2.0141,1.20846 -0.59239,0.592391 -0.92096,1.323772 -1.40987,1.812689 -0.6667,0.666703 -0.9914,1.145868 -1.20846,2.014098 -0.21919,0.87676 -0.80564,1.069393 -0.80564,2.215509 0,0.09495 -0.13427,0.134273 -0.20141,0.20141"
         style="fill:none;stroke:#000000;stroke-width:1px;stroke-linecap:butt;stroke-linejoin:miter;stroke-opacity:1;display:inline" />
      <path
         inkscape:connector-curvature="0"
         id="path3608"
         d="m 417.52266,86.340382 c 0,1.074186 -2.14837,0 -3.22256,0 -1.00705,0 -2.0141,0 -3.02115,0 -1.00705,0 -2.0141,0 -3.02114,0 -1.1099,0 -1.69871,0.172913 -2.61833,0.40282 -0.80938,0.202345 -1.39132,0.695658 -2.0141,1.007049 -0.77085,0.385427 -1.23648,0.833659 -1.81269,1.40987 -0.61536,0.615362 -1.0926,0.891188 -1.61128,1.409869 -0.52881,0.528808 -0.64408,1.569285 -0.80564,2.215508 -0.16872,0.67488 -0.25136,0.804029 -0.40282,1.409869"
         style="fill:none;stroke:#000000;stroke-width:1px;stroke-linecap:butt;stroke-linejoin:miter;stroke-opacity:1;display:inline" />
      <path
         inkscape:connector-curvature="0"
         id="path3610"
         d="m 399.19436,92.785498 c -0.21724,0.868971 -1.74936,0.386987 -2.61833,0.60423 -0.89151,0.222877 -1.46312,0.630856 -2.21551,1.007049 -0.67901,0.339508 -1.17216,0.970755 -1.61127,1.409869 -0.50353,0.503525 -0.70494,1.309164 -1.20846,1.812689 -0.65175,0.651745 -0.78528,1.52983 -1.00705,2.416915 -0.20309,0.81236 -0.59346,1.36679 -0.80564,2.21551 -0.23391,0.93565 -0.40282,1.73684 -0.40282,2.81974 0,0.93376 -0.40282,1.66553 -0.40282,2.61833 0,0.80529 -0.0399,1.16643 -0.20141,1.81269"
         style="fill:none;stroke:#000000;stroke-width:1px;stroke-linecap:butt;stroke-linejoin:miter;stroke-opacity:1;display:inline" />
      <path
         inkscape:connector-curvature="0"
         id="path3612"
         d="m 389.7281,103.25881 c 0,1.07419 -2.14837,0 -3.22256,0 -1.09112,0 -1.92899,-0.0213 -2.81974,0.20141 -0.94609,0.23652 -1.33691,0.66846 -2.0141,1.00705 -0.0849,0.0425 -0.13427,0.13427 -0.20141,0.20141"
         style="fill:none;stroke:#000000;stroke-width:1px;stroke-linecap:butt;stroke-linejoin:miter;stroke-opacity:1;display:inline" />
      <path
         inkscape:connector-curvature="0"
         id="path3614"
         d="m 415.91138,75.665659 c -0.25955,0.129775 -2.28082,0 -3.22256,0 -0.88421,0 -1.74106,0.435266 -2.41692,0.60423 -0.7252,0.181302 -1.41557,0.811345 -1.81268,1.208459 -0.61537,0.615363 -1.0926,0.891189 -1.61128,1.409869 -0.61537,0.615363 -0.89119,1.092599 -1.40987,1.611279 -0.61537,0.615363 -0.89119,1.092599 -1.40987,1.611279 -0.009,0.009 -0.18452,0.553554 -0.20141,0.60423"
         style="fill:none;stroke:#000000;stroke-width:1px;stroke-linecap:butt;stroke-linejoin:miter;stroke-opacity:1;display:inline" />
      <path
         inkscape:connector-curvature="0"
         id="path3618"
         d="m 417.52266,66.199395 c 0.1798,0.602264 0.66871,1.941653 1.00705,2.618329 0.36301,0.726027 0.94431,1.145724 1.40987,1.611279 0.66863,0.668635 1.07117,0.771317 2.0141,1.007049 0.65408,0.163522 1.46624,0.733124 2.0141,1.007049 0.5293,0.264655 1.39613,0.20141 2.01409,0.20141"
         style="fill:none;stroke:#000000;stroke-width:1px;stroke-linecap:butt;stroke-linejoin:miter;stroke-opacity:1;display:inline" />
      <path
         inkscape:connector-curvature="0"
         id="path3620"
         d="m 440.48338,63.379657 c 0.83423,0.417113 -1.58269,0.992757 -2.41691,1.409869 -0.75414,0.377068 -1.64286,0.410714 -2.41692,0.60423 -0.96915,0.242286 -1.50678,0.40282 -2.61833,0.40282 -0.79132,0 -1.9057,0.224663 -2.61833,0.402819 -1.00772,0.251932 -2.1275,0.173059 -2.81974,0 -0.9193,-0.229825 -1.207,-0.553513 -2.21551,-0.805639"
         style="fill:none;stroke:#000000;stroke-width:1px;stroke-linecap:butt;stroke-linejoin:miter;stroke-opacity:1;display:inline" />
      <path
         inkscape:connector-curvature="0"
         id="path3622"
         d="m 402.42934,104.19219 c -1.28295,-0.32074 0.83277,2.52005 1.42419,3.70287 0.50261,1.00524 0.32556,2.72642 0.56967,3.70288 0.3003,1.2012 -0.0937,3.22331 -0.28484,3.98771 -0.15857,0.63429 -0.2984,0.74601 -0.56967,1.42418"
         style="fill:none;stroke:#000000;stroke-width:1px;stroke-linecap:butt;stroke-linejoin:miter;stroke-opacity:1;display:inline" />
      <path
         inkscape:connector-curvature="0"
         id="path3624"
         d="m 390.46621,119.57336 c 0.37978,0 0.75956,0 1.13934,0 1.41147,0 3.64538,2.79351 3.98772,1.42418 -0.54764,0 -2.39345,2.96312 -2.56353,3.13321 -0.77289,0.77288 -1.35702,1.07218 -1.99386,1.70901"
         style="fill:none;stroke:#000000;stroke-width:1px;stroke-linecap:butt;stroke-linejoin:miter;stroke-opacity:1;display:inline" />
      <path
         inkscape:connector-curvature="0"
         id="path3626"
         d="m 428.63431,122.13689 c -0.57048,0.57047 -2.11378,1.5441 -2.84837,2.27869 -0.61103,0.61103 -0.96947,2.73855 -1.13934,3.41804 -0.28385,1.13536 -0.56983,2.27928 -0.85451,3.41804 -0.25131,1.00523 -0.67038,1.54215 -0.85451,2.27869"
         style="fill:none;stroke:#000000;stroke-width:1px;stroke-linecap:butt;stroke-linejoin:miter;stroke-opacity:1;display:inline" />
      <path
         inkscape:connector-curvature="0"
         id="path3628"
         d="m 454.83927,155.7476 c -0.63089,-0.15772 -1.98497,-0.35382 -2.84836,-0.56967 -0.83788,-0.20947 -2.5302,-0.69543 -3.41804,-1.13935 -1.1887,-0.59435 -1.74231,-1.20593 -2.2787,-2.27869 -0.52277,-1.04555 -0.85451,-1.55887 -0.85451,-3.41804 0,-1.28787 -0.31051,-3.03047 0,-4.27255 0.28811,-1.15241 0.92265,-1.84528 1.42419,-2.84836 0.44638,-0.89277 0.96514,-1.76434 1.99385,-2.27869 1.133,-0.5665 3.39565,0.3744 3.70288,-0.85451 1.39389,0.34847 0.2212,-2.87866 0.56967,-4.27255 0.23445,-0.9378 1.58112,-1.64507 2.27869,-1.99386 0.97285,-0.48642 2.05189,-1.15385 3.13321,-1.42418 1.15851,-0.28963 2.78618,0 3.98771,0 1.28295,-0.32074 0.83277,-2.52005 1.42418,-3.70288 0.37249,-0.74497 1.68973,-1.69937 2.27869,-1.99385 1.048,-0.524 2.06916,-0.87334 3.13321,-1.13935 1.33253,-0.33313 1.60604,-1.13934 3.41804,-1.13934 1.09575,0 2.41032,-0.88742 3.41803,-1.13935 1.19441,-0.2986 2.08107,-0.56967 3.70288,-0.56967 1.62114,0 1.90846,0.54832 3.1332,0.85451 2.09794,0 2.43517,-0.44132 3.41804,-1.42419 0.91417,-0.91417 1.18118,-1.50784 1.70902,-2.56353 0.59311,-1.18622 0.56967,-2.19314 0.56967,-3.70287 0,-0.9381 -0.15417,-2.04087 -0.28483,-2.56353"
         style="fill:none;stroke:#000000;stroke-width:1px;stroke-linecap:butt;stroke-linejoin:miter;stroke-opacity:1;display:inline" />
      <path
         inkscape:connector-curvature="0"
         id="path3630"
         d="m 498.41927,127.83362 c 0,-1.35941 -2.38405,1.37931 -3.70288,1.70902 -1.39655,0.34914 -2.53474,0.28484 -3.98771,0.28484 -1.63871,0 -2.53746,-0.28484 -3.98771,-0.28484 -1.89431,0 -1.9646,0.51115 -2.56353,1.70902 -0.63823,1.27646 -0.52011,2.08044 -0.85451,3.41804 -0.3085,1.234 -1.13105,2.13213 -1.99386,2.56353 -1.06803,0.53402 -2.17469,0.85451 -3.70287,0.85451 -0.47473,0 -0.94946,0 -1.42419,0"
         style="fill:none;stroke:#000000;stroke-width:1px;stroke-linecap:butt;stroke-linejoin:miter;stroke-opacity:1;display:inline" />
      <path
         inkscape:connector-curvature="0"
         id="path3632"
         d="m 463.38437,130.11231 c -1.34273,0 1.89891,1.89891 2.84836,2.84837 1.0224,1.0224 1.49635,1.85334 1.99386,2.84836 0.55219,1.10438 0.86236,2.00956 1.42418,3.13321 0.5526,1.1052 0.50071,2.28767 0.85451,3.70287 0.0892,0.35701 0.48582,0.72873 0.56968,0.85451"
         style="fill:none;stroke:#000000;stroke-width:1px;stroke-linecap:butt;stroke-linejoin:miter;stroke-opacity:1;display:inline" />
      <path
         inkscape:connector-curvature="0"
         id="path3634"
         d="m 464.80855,147.48734 c 0.0543,0.21737 2.98414,-1.66843 3.41804,-1.99385 0.90927,-0.68196 2.04679,-1.0234 2.84837,-1.42419 1.17211,-0.58605 2.27973,-0.56967 3.70287,-0.56967 0.13427,0 0.18989,-0.18989 0.28484,-0.28483"
         style="fill:none;stroke:#000000;stroke-width:1px;stroke-linecap:butt;stroke-linejoin:miter;stroke-opacity:1;display:inline" />
      <path
         inkscape:connector-curvature="0"
         sodipodi:nodetypes="csssc"
         id="path3636"
         d="m 456.26345,144.63898 c 0.49956,0 0.91307,3.08258 1.13935,3.98771 0.34077,1.36306 0.56967,2.22542 0.56967,3.70288 0,1.90303 -0.48776,1.90217 -1.99385,2.27869 -0.85953,0.21488 -0.92302,0.96954 -1.60221,1.13934"
         style="fill:none;stroke:#000000;stroke-width:1px;stroke-linecap:butt;stroke-linejoin:miter;stroke-opacity:1;display:inline" />
      <path
         inkscape:connector-curvature="0"
         id="path3638"
         d="m 497.56476,137.23323 c -1.04328,-0.55082 -2.9749,-0.22157 -3.98772,0.28483 -1.09271,0.54636 -1.78821,0.89411 -2.84836,1.42419 -0.78772,0.39386 -1.61546,1.80672 -1.99386,2.56353 -0.57244,1.14488 -1.11895,1.62743 -1.42418,2.84836 -0.21102,0.84407 -1.35648,1.85846 -1.70902,2.56353 -0.36604,0.73208 -1.71973,0.85451 -2.56353,0.85451"
         style="fill:none;stroke:#000000;stroke-width:1px;stroke-linecap:butt;stroke-linejoin:miter;stroke-opacity:1;display:inline" />
      <path
         id="path3268"
         style="fill:none;stroke:#ffd42a;stroke-width:3;stroke-linecap:butt;stroke-linejoin:miter;stroke-opacity:1;filter:url(#filter4046)"
         d="m 513.23077,167.4259 c 0,0.75956 -12.15303,1.51913 -12.53281,1.13935 -0.37978,-0.37978 -0.75957,-0.75956 -1.13935,-1.13935 -2.34178,-2.34177 -6.18131,-5.52655 -7.97542,-9.11477 -1.61274,-3.22548 -3.85974,-8.43467 -10.25412,-6.83607 -5.67381,1.41845 -8.10477,3.48271 -12.53281,5.69673 -3.16344,1.58172 -8.98759,3.73467 -14.8115,2.27869 -4.86177,-1.21544 -9.14871,-1.20723 -11.39346,-5.69673 -2.67048,-5.34095 -4.37827,-7.79631 -5.69673,-9.11477 -4.66018,-4.66018 -8.11123,-5.69673 -13.67216,-5.69673 -5.69673,0 -11.39346,0 -17.09019,0 -6.26086,0 -10.09571,0.0792 -14.8115,-2.2787 -3.11885,-1.55942 -7.17184,-4.08954 -9.11477,-7.97542 -1.58172,-3.16344 -3.73467,-8.9876 -2.2787,-14.8115 0.95119,-3.80475 0.93024,-11.18435 3.41804,-13.67216 2.9341,-2.934095 4.49441,-5.633749 7.97543,-9.114767 2.93409,-2.934099 4.4944,-5.633752 7.97542,-9.11477 2.9341,-2.934099 5.63375,-4.494406 9.11477,-7.975424 3.15058,-3.150579 4.08851,-5.462295 9.11477,-7.975424 3.72112,-1.860561 5.72349,-4.279237 11.39346,-5.696731 3.81735,-0.954337 9.19306,-3.418039 14.8115,-3.418039 0.79724,0 1.60038,-0.03374 2.40322,-0.0908 0.80283,-0.05706 1.60537,-0.137433 2.40139,-0.230694 1.59205,-0.186522 3.15807,-0.42459 4.64843,-0.630774 2.98072,-0.41237 5.65879,-0.697206 7.63716,-0.187075 2.97258,2.972584 16.27452,1.139346 20.50823,1.139346 5.95834,0 8.7068,3.253861 11.39346,6.836078 2.14344,2.857919 7.38533,4.557385 12.53281,4.557385 4.3893,0 9.0344,3.337666 11.39347,5.696731 3.79812,3.798126 6.01063,6.01063 9.11477,9.11477 2.7589,2.758909 4.60406,7.022812 5.69673,11.393463 1.50734,6.029375 0.94495,9.503555 -1.13935,13.672155 -2.04797,4.09595 -3.89325,7.7865 -5.69673,11.39346 -2.30423,4.60846 5.25734,8.67538 6.83608,10.25412 3.7711,3.77109 4.55738,5.89518 4.55738,12.53281 0,3.56261 -6.31595,7.45529 -7.97542,9.11477 -3.67362,3.67362 -7.29308,3.41803 -13.67216,3.41803 -7.9972,0 -2.75158,8.64189 -1.13934,10.25412 0.53709,0.53709 0,1.51913 0,2.27869 z M 446.27645,56.804341 c -0.16101,1.565027 -0.84125,3.369491 -0.84125,5.401414 0,2.182467 0.68602,4.591321 1.09048,6.209149 0.49366,1.974626 0.98289,2.916391 0.40282,5.236657 -0.51294,2.05177 -1.2713,2.945422 -2.0141,4.431017 -0.63445,1.268906 -2.39446,1.991637 -3.22256,2.819738 -1.18119,1.181192 -1.76914,2.329821 -2.41692,3.625378 -0.82881,1.657625 -0.80563,3.224031 -0.80563,5.236656 0,1.932707 -0.42769,3.172824 0.40282,4.833837 0.87164,1.743298 0.78218,2.796284 2.01409,4.028198 0.88177,0.881765 1.4517,2.903395 2.0141,4.028195 0.62593,1.25185 1.27935,3.90891 1.61128,5.23666 0.40347,1.61386 0.94726,3.10298 1.61128,4.43102 0.68685,1.3737 2.33552,1.93269 3.22256,2.81973 1.13907,1.13908 2.80711,1.40356 4.0282,2.0141 1.76913,0.88457 3.3179,0.80564 5.63947,0.80564 2.29857,0 3.79257,-0.44462 5.23666,-0.80564 1.86773,-0.46693 2.80075,-1.20846 4.83384,-1.20846 1.18932,0 3.62549,-1.61133 4.43101,-2.0141 1.43911,-0.71955 3.30592,-0.82648 4.83384,-1.20845 2.09724,-0.52431 2.40464,-1.20846 4.83384,-1.20846 1.00705,0 2.26332,-0.0534 3.27037,-0.0534 1.00705,0 1.76487,0.0534 2.77192,0.0534 2.58201,0 3.10997,0.74934 4.83384,1.61128 1.77346,0.88673 2.11068,1.70785 3.22256,2.81973 1.38663,1.38664 1.14964,2.98731 1.61128,4.83384 0.43914,1.75656 0,4.22096 0,6.0423 0,2.2198 -0.34583,3.3974 -0.80564,5.23665 -0.45842,1.83368 -0.49931,3.64226 0,5.63948 0.4361,1.74441 0.20747,4.50411 0.29933,6.05557 0.58902,-0.0133 1.00708,-0.23917 1.71477,-0.41609 1.65442,-0.41361 3.36907,-0.47608 4.83383,-1.20846 1.123,-0.5615 2.54177,-1.33331 3.62538,-2.41692 1.00705,-1.00705 2.61833,-1.40987 3.62538,-2.41692 1.09748,-1.09748 1.4769,-2.28254 2.81974,-3.62538 0.98815,-0.98815 1.54805,-2.35369 2.81973,-3.62538 1.00705,-1.00705 1.40987,-2.61832 2.41692,-3.62537 1.17403,-1.17403 3.31113,-3.16577 4.43102,-4.0282 M 486.60014,111.4571 c 1.19323,-0.77 2.49517,-3.97506 3.47684,-5.28395 0.93585,-1.2478 1.70821,-3.69053 1.96733,-4.72703 0.43048,-1.721904 0.44612,-3.798563 0.80564,-5.236654 0.43914,-1.75656 0,-4.220962 0,-6.042296 0,-2.326145 0.47521,-3.367346 1.20846,-4.833837 0.77611,-1.552212 0.88945,-2.903553 2.0141,-4.028197 0.67593,-0.67593 1.2252,-4.061682 1.61128,-4.833837 0.77741,-1.554835 1.20838,-2.819424 1.61128,-4.431017 0.29099,-1.163966 0,-2.818362 0,-4.028198"
         sodipodi:nodetypes="ccsssssssssssssssssssssscsssssssssssssccsssssssssssssssssssssssssssscsssssssccssssssssc"
         inkscape:connector-curvature="0" />
      <path
         inkscape:connector-curvature="0"
         sodipodi:nodetypes="ccsssssssssssssssssssssscsssssssssssssccsssssssssssssssssssssssssssscsssssssccssssssssc"
         d="m 513.23077,167.4259 c 0,0.75956 -12.15303,1.51913 -12.53281,1.13935 -0.37978,-0.37978 -0.75957,-0.75956 -1.13935,-1.13935 -2.34178,-2.34177 -6.18131,-5.52655 -7.97542,-9.11477 -1.61274,-3.22548 -3.85974,-8.43467 -10.25412,-6.83607 -5.67381,1.41845 -8.10477,3.48271 -12.53281,5.69673 -3.16344,1.58172 -8.98759,3.73467 -14.8115,2.27869 -4.86177,-1.21544 -9.14871,-1.20723 -11.39346,-5.69673 -2.67048,-5.34095 -4.37827,-7.79631 -5.69673,-9.11477 -4.66018,-4.66018 -8.11123,-5.69673 -13.67216,-5.69673 -5.69673,0 -11.39346,0 -17.09019,0 -6.26086,0 -10.09571,0.0792 -14.8115,-2.2787 -3.11885,-1.55942 -7.17184,-4.08954 -9.11477,-7.97542 -1.58172,-3.16344 -3.73467,-8.9876 -2.2787,-14.8115 0.95119,-3.80475 0.93024,-11.18435 3.41804,-13.67216 2.9341,-2.934095 4.49441,-5.633749 7.97543,-9.114767 2.93409,-2.934099 4.4944,-5.633752 7.97542,-9.11477 2.9341,-2.934099 5.63375,-4.494406 9.11477,-7.975424 3.15058,-3.150579 4.08851,-5.462295 9.11477,-7.975424 3.72112,-1.860561 5.72349,-4.279237 11.39346,-5.696731 3.81735,-0.954337 9.19306,-3.418039 14.8115,-3.418039 0.79724,0 1.60038,-0.03374 2.40322,-0.0908 0.80283,-0.05706 1.60537,-0.137433 2.40139,-0.230694 1.59205,-0.186522 3.15807,-0.42459 4.64843,-0.630774 2.98072,-0.41237 5.65879,-0.697206 7.63716,-0.187075 2.97258,2.972584 16.27452,1.139346 20.50823,1.139346 5.95834,0 8.7068,3.253861 11.39346,6.836078 2.14344,2.857919 7.38533,4.557385 12.53281,4.557385 4.3893,0 9.0344,3.337666 11.39347,5.696731 3.79812,3.798126 6.01063,6.01063 9.11477,9.11477 2.7589,2.758909 4.60406,7.022812 5.69673,11.393463 1.50734,6.029375 0.94495,9.503555 -1.13935,13.672155 -2.04797,4.09595 -3.89325,7.7865 -5.69673,11.39346 -2.30423,4.60846 5.25734,8.67538 6.83608,10.25412 3.7711,3.77109 4.55738,5.89518 4.55738,12.53281 0,3.56261 -6.31595,7.45529 -7.97542,9.11477 -3.67362,3.67362 -7.29308,3.41803 -13.67216,3.41803 -7.9972,0 -2.75158,8.64189 -1.13934,10.25412 0.53709,0.53709 0,1.51913 0,2.27869 z M 446.27645,56.804341 c -0.16101,1.565027 -0.84125,3.369491 -0.84125,5.401414 0,2.182467 0.68602,4.591321 1.09048,6.209149 0.49366,1.974626 0.98289,2.916391 0.40282,5.236657 -0.51294,2.05177 -1.2713,2.945422 -2.0141,4.431017 -0.63445,1.268906 -2.39446,1.991637 -3.22256,2.819738 -1.18119,1.181192 -1.76914,2.329821 -2.41692,3.625378 -0.82881,1.657625 -0.80563,3.224031 -0.80563,5.236656 0,1.932707 -0.42769,3.172824 0.40282,4.833837 0.87164,1.743298 0.78218,2.796284 2.01409,4.028198 0.88177,0.881765 1.4517,2.903395 2.0141,4.028195 0.62593,1.25185 1.27935,3.90891 1.61128,5.23666 0.40347,1.61386 0.94726,3.10298 1.61128,4.43102 0.68685,1.3737 2.33552,1.93269 3.22256,2.81973 1.13907,1.13908 2.80711,1.40356 4.0282,2.0141 1.76913,0.88457 3.3179,0.80564 5.63947,0.80564 2.29857,0 3.79257,-0.44462 5.23666,-0.80564 1.86773,-0.46693 2.80075,-1.20846 4.83384,-1.20846 1.18932,0 3.62549,-1.61133 4.43101,-2.0141 1.43911,-0.71955 3.30592,-0.82648 4.83384,-1.20845 2.09724,-0.52431 2.40464,-1.20846 4.83384,-1.20846 1.00705,0 2.26332,-0.0534 3.27037,-0.0534 1.00705,0 1.76487,0.0534 2.77192,0.0534 2.58201,0 3.10997,0.74934 4.83384,1.61128 1.77346,0.88673 2.11068,1.70785 3.22256,2.81973 1.38663,1.38664 1.14964,2.98731 1.61128,4.83384 0.43914,1.75656 0,4.22096 0,6.0423 0,2.2198 -0.34583,3.3974 -0.80564,5.23665 -0.45842,1.83368 -0.49931,3.64226 0,5.63948 0.4361,1.74441 0.20747,4.50411 0.29933,6.05557 0.58902,-0.0133 1.00708,-0.23917 1.71477,-0.41609 1.65442,-0.41361 3.36907,-0.47608 4.83383,-1.20846 1.123,-0.5615 2.54177,-1.33331 3.62538,-2.41692 1.00705,-1.00705 2.61833,-1.40987 3.62538,-2.41692 1.09748,-1.09748 1.4769,-2.28254 2.81974,-3.62538 0.98815,-0.98815 1.54805,-2.35369 2.81973,-3.62538 1.00705,-1.00705 1.40987,-2.61832 2.41692,-3.62537 1.17403,-1.17403 3.31113,-3.16577 4.43102,-4.0282 M 486.60014,111.4571 c 1.19323,-0.77 2.49517,-3.97506 3.47684,-5.28395 0.93585,-1.2478 1.70821,-3.69053 1.96733,-4.72703 0.43048,-1.721904 0.44612,-3.798563 0.80564,-5.236654 0.43914,-1.75656 0,-4.220962 0,-6.042296 0,-2.326145 0.47521,-3.367346 1.20846,-4.833837 0.77611,-1.552212 0.88945,-2.903553 2.0141,-4.028197 0.67593,-0.67593 1.2252,-4.061682 1.61128,-4.833837 0.77741,-1.554835 1.20838,-2.819424 1.61128,-4.431017 0.29099,-1.163966 0,-2.818362 0,-4.028198"
         style="fill:none;stroke:#000000;stroke-width:1px;stroke-linecap:butt;stroke-linejoin:miter;stroke-opacity:1"
         id="path3459" />
    </g>
  </g>
  <g
     inkscape:groupmode="layer"
     id="layer1"
     inkscape:label="Layer"
     style="display:inline"
     transform="translate(0.56967264,-20.311283)">
    <g
       id="g4059"
       transform="matrix(0.70710678,-0.70710679,0.70710679,0.70710678,-282.16803,363.92827)">
      <path
         sodipodi:nodetypes="scsss"
         inkscape:connector-curvature="0"
         id="path4050"
         d="m 356.22156,61.545178 -2.93629,10.987637 -2.93629,-10.987637 c -1.06575,-3.988048 1.31461,-7.484234 2.93629,-7.484234 1.62167,0 4.00203,3.496186 2.93629,7.484234 z"
         style="opacity:0.75;fill:#87cdde;fill-opacity:1;stroke:#0b2228;stroke-width:0.75;stroke-linecap:round;stroke-linejoin:round;stroke-miterlimit:4;stroke-opacity:1;stroke-dashoffset:0" />
      <path
         d="m 354.69275,58.404705 c 0,0.589916 -0.46228,1.068137 -1.03253,1.068137 -0.57025,0 -1.03254,-0.478221 -1.03254,-1.068137 0,-0.589916 0.46229,-1.068137 1.03254,-1.068137 0.57025,0 1.03253,0.478221 1.03253,1.068137 z"
         sodipodi:ry="1.0681372"
         sodipodi:rx="1.0325326"
         sodipodi:cy="58.404705"
         sodipodi:cx="353.66022"
         id="path4053"
         style="opacity:0.75;fill:#ffffff;fill-opacity:1;stroke:none;filter:url(#filter4067)"
         sodipodi:type="arc" />
    </g>
    <g
       transform="matrix(0.70710677,-0.7071068,0.7071068,0.70710677,-259.51567,334.10271)"
       id="g4071">
      <path
         style="opacity:0.75;fill:#87cdde;fill-opacity:1;stroke:#0b2228;stroke-width:0.75;stroke-linecap:round;stroke-linejoin:round;stroke-miterlimit:4;stroke-opacity:1;stroke-dashoffset:0"
         d="m 356.22156,61.545178 -2.93629,10.987637 -2.93629,-10.987637 c -1.06575,-3.988048 1.31461,-7.484234 2.93629,-7.484234 1.62167,0 4.00203,3.496186 2.93629,7.484234 z"
         id="path4073"
         inkscape:connector-curvature="0"
         sodipodi:nodetypes="scsss" />
    </g>
    <g
       id="g4077"
       transform="matrix(0.92068615,-0.39030374,0.39030374,0.92068615,-292.19783,166.91793)">
      <path
         sodipodi:nodetypes="scsss"
         inkscape:connector-curvature="0"
         id="path4079"
         d="M 356.22156,61.545178 352.7156,77.0902 350.34898,61.545178 c -0.6213,-4.080973 1.31461,-7.484234 2.93629,-7.484234 1.62167,0 4.00203,3.496186 2.93629,7.484234 z"
         style="opacity:0.75;fill:#87cdde;fill-opacity:1;stroke:#0b2228;stroke-width:0.75;stroke-linecap:round;stroke-linejoin:round;stroke-miterlimit:4;stroke-opacity:1;stroke-dashoffset:0" />
      <path
         d="m 354.69275,58.404705 c 0,0.589916 -0.46228,1.068137 -1.03253,1.068137 -0.57025,0 -1.03254,-0.478221 -1.03254,-1.068137 0,-0.589916 0.46229,-1.068137 1.03254,-1.068137 0.57025,0 1.03253,0.478221 1.03253,1.068137 z"
         sodipodi:ry="1.0681372"
         sodipodi:rx="1.0325326"
         sodipodi:cy="58.404705"
         sodipodi:cx="353.66022"
         id="path4081"
         style="opacity:0.75;fill:#ffffff;fill-opacity:1;stroke:none;filter:url(#filter4067)"
         sodipodi:type="arc"
         transform="translate(-1.1943606,0)" />
    </g>
    <g
       transform="matrix(0.70710678,0.70710679,-0.70710679,0.70710678,-21.13257,-153.96154)"
       id="g4083">
      <path
         style="opacity:0.75;fill:#87cdde;fill-opacity:1;stroke:#0b2228;stroke-width:0.75;stroke-linecap:round;stroke-linejoin:round;stroke-miterlimit:4;stroke-opacity:1;stroke-dashoffset:0"
         d="m 356.22156,61.545178 -3.50596,10.711185 -2.36662,-10.711185 c -0.89059,-4.030781 1.31461,-7.484234 2.93629,-7.484234 1.62167,0 4.00203,3.496186 2.93629,7.484234 z"
         id="path4085"
         inkscape:connector-curvature="0"
         sodipodi:nodetypes="scsss" />
      <path
         transform="translate(-1.1943606,0)"
         sodipodi:type="arc"
         style="opacity:0.75;fill:#ffffff;fill-opacity:1;stroke:none;filter:url(#filter4067)"
         id="path4087"
         sodipodi:cx="353.66022"
         sodipodi:cy="58.404705"
         sodipodi:rx="1.0325326"
         sodipodi:ry="1.0681372"
         d="m 354.69275,58.404705 c 0,0.589916 -0.46228,1.068137 -1.03253,1.068137 -0.57025,0 -1.03254,-0.478221 -1.03254,-1.068137 0,-0.589916 0.46229,-1.068137 1.03254,-1.068137 0.57025,0 1.03253,0.478221 1.03253,1.068137 z" />
    </g>
    <g
       id="g4089"
       transform="matrix(-0.91749015,-0.39775852,-0.39775852,0.91749015,496.66064,198.8574)">
      <path
         sodipodi:nodetypes="scsss"
         inkscape:connector-curvature="0"
         id="path4091"
         d="m 356.22156,61.545178 -3.50596,10.711185 -2.36662,-10.711185 c -0.89059,-4.030781 1.31461,-7.484234 2.93629,-7.484234 1.62167,0 4.00203,3.496186 2.93629,7.484234 z"
         style="opacity:0.75;fill:#87cdde;fill-opacity:1;stroke:#0b2228;stroke-width:0.75;stroke-linecap:round;stroke-linejoin:round;stroke-miterlimit:4;stroke-opacity:1;stroke-dashoffset:0" />
      <path
         d="m 354.69275,58.404705 c 0,0.589916 -0.46228,1.068137 -1.03253,1.068137 -0.57025,0 -1.03254,-0.478221 -1.03254,-1.068137 0,-0.589916 0.46229,-1.068137 1.03254,-1.068137 0.57025,0 1.03253,0.478221 1.03253,1.068137 z"
         sodipodi:ry="1.0681372"
         sodipodi:rx="1.0325326"
         sodipodi:cy="58.404705"
         sodipodi:cx="353.66022"
         id="path4093"
         style="opacity:0.75;fill:#ffffff;fill-opacity:1;stroke:none;filter:url(#filter4067)"
         sodipodi:type="arc"
         transform="translate(-1.1943606,0)" />
    </g>
  </g>
  <g
     inkscape:groupmode="layer"
     id="layer2"
     inkscape:label="Layer#1"
     transform="translate(0.56967264,-20.311283)" />
</svg>
