<?xml version="1.0" encoding="UTF-8" standalone="no"?>
<!-- Created with Inkscape (http://www.inkscape.org/) -->

<svg
   xmlns:dc="http://purl.org/dc/elements/1.1/"
   xmlns:cc="http://creativecommons.org/ns#"
   xmlns:rdf="http://www.w3.org/1999/02/22-rdf-syntax-ns#"
   xmlns:svg="http://www.w3.org/2000/svg"
   xmlns="http://www.w3.org/2000/svg"
   xmlns:xlink="http://www.w3.org/1999/xlink"
   xmlns:sodipodi="http://sodipodi.sourceforge.net/DTD/sodipodi-0.dtd"
   xmlns:inkscape="http://www.inkscape.org/namespaces/inkscape"
   width="70.809776mm"
   height="64.558334mm"
   viewBox="0 0 70.809776 64.558334"
   version="1.1"
   id="svg1459"
   inkscape:version="0.92.3 (2405546, 2018-03-11)"
   sodipodi:docname="brick_wall.svg">
  <defs
     id="defs1453" />
  <sodipodi:namedview
     id="base"
     pagecolor="#ffffff"
     bordercolor="#666666"
     borderopacity="1.0"
     inkscape:pageopacity="0.0"
     inkscape:pageshadow="2"
     inkscape:zoom="1.4"
     inkscape:cx="21.689445"
     inkscape:cy="112.18229"
     inkscape:document-units="mm"
     inkscape:current-layer="layer1"
     showgrid="false"
     fit-margin-top="0"
     fit-margin-left="0"
     fit-margin-right="0"
     fit-margin-bottom="0"
     inkscape:window-width="1920"
     inkscape:window-height="1172"
     inkscape:window-x="1600"
     inkscape:window-y="0"
     inkscape:window-maximized="1" />
  <metadata
     id="metadata1456">
    <rdf:RDF>
      <cc:Work
         rdf:about="">
        <dc:format>image/svg+xml</dc:format>
        <dc:type
           rdf:resource="http://purl.org/dc/dcmitype/StillImage" />
        <dc:title></dc:title>
      </cc:Work>
    </rdf:RDF>
  </metadata>
  <g
     inkscape:label="Layer 1"
     inkscape:groupmode="layer"
     id="layer1"
     transform="translate(-71.94035,-170.98274)">
    <g
       style="display:inline"
       id="g3922"
       transform="matrix(0.26490337,0,0,0.26458333,-69.915359,169.43568)">
      <rect
         style="opacity:1;fill:#9e6c6c;fill-opacity:1;fill-rule:nonzero;stroke:none;stroke-width:2;stroke-miterlimit:4;stroke-dasharray:none;stroke-opacity:1"
         id="rect4967"
         width="266"
         height="244"
         x="536.15192"
         y="5.8471632" />
      <g
         transform="translate(269.31571,4.3577766)"
         id="g8476">
        <rect
           y="4.4566746"
           x="270.91116"
           height="18.065424"
           width="36.693634"
           id="rect4963"
           style="opacity:1;fill:#550000;fill-opacity:1;fill-rule:nonzero;stroke:#000000;stroke-width:1.99879146;stroke-miterlimit:4;stroke-dasharray:none;stroke-opacity:1" />
        <use
           x="0"
           y="0"
           xlink:href="#rect4963"
           id="use2491"
           transform="translate(40.200012)"
           width="799.99799"
           height="352" />
        <use
           x="0"
           y="0"
           xlink:href="#use2491"
           id="use2493"
           transform="translate(40.200012)"
           width="799.99799"
           height="352" />
        <use
           x="0"
           y="0"
           xlink:href="#use2493"
           id="use2495"
           transform="translate(40.200013)"
           width="799.99799"
           height="352" />
        <use
           x="0"
           y="0"
           xlink:href="#use2495"
           id="use2497"
           transform="translate(40.200012)"
           width="799.99799"
           height="352" />
        <use
           x="0"
           y="0"
           xlink:href="#use2497"
           id="use2499"
           transform="translate(40.200012)"
           width="799.99799"
           height="352" />
        <use
           x="0"
           y="0"
           xlink:href="#use2499"
           id="use2501"
           transform="matrix(0.5735733,0,0,1,241.1929,0)"
           width="799.99799"
           height="352" />
        <use
           x="0"
           y="0"
           xlink:href="#rect4963"
           id="use2525"
           transform="matrix(-1,0,0,1,800.58356,22.242654)"
           width="799.99799"
           height="352" />
        <use
           x="0"
           y="0"
           xlink:href="#use2491"
           id="use2527"
           transform="matrix(-1,0,0,1,800.4317,22.242654)"
           width="799.99799"
           height="352" />
        <use
           x="0"
           y="0"
           xlink:href="#use2493"
           id="use2529"
           transform="matrix(-1,0,0,1,800.27985,22.242654)"
           width="799.99799"
           height="352" />
        <use
           x="0"
           y="0"
           xlink:href="#use2495"
           id="use2531"
           transform="matrix(-1,0,0,1,800.12799,22.242654)"
           width="799.99799"
           height="352" />
        <use
           x="0"
           y="0"
           xlink:href="#use2497"
           id="use2533"
           transform="matrix(-1,0,0,1,799.97614,22.242654)"
           width="799.99799"
           height="352" />
        <use
           x="0"
           y="0"
           xlink:href="#use2499"
           id="use2535"
           transform="matrix(-1,0,0,1,799.82428,22.242654)"
           width="799.99799"
           height="352" />
        <use
           x="0"
           y="0"
           xlink:href="#use2501"
           id="use2537"
           transform="matrix(-1,0,0,1,799.67241,22)"
           width="799.99799"
           height="352" />
        <use
           x="0"
           y="0"
           xlink:href="#rect4963"
           id="use2539"
           transform="translate(0,44)"
           width="799.99799"
           height="352" />
        <use
           x="0"
           y="0"
           xlink:href="#use2491"
           id="use2541"
           transform="translate(0,44)"
           width="799.99799"
           height="352"
           style="fill:#550000" />
        <use
           x="0"
           y="0"
           xlink:href="#use2493"
           id="use2543"
           transform="translate(0,44)"
           width="799.99799"
           height="352" />
        <use
           x="0"
           y="0"
           xlink:href="#use2495"
           id="use2545"
           transform="translate(0,44)"
           width="799.99799"
           height="352"
           style="fill-opacity:1" />
        <use
           x="0"
           y="0"
           xlink:href="#use2497"
           id="use2547"
           transform="translate(0,44)"
           width="799.99799"
           height="352" />
        <use
           x="0"
           y="0"
           xlink:href="#use2499"
           id="use2549"
           transform="translate(0,44)"
           width="799.99799"
           height="352" />
        <use
           x="0"
           y="0"
           xlink:href="#use2501"
           id="use2551"
           transform="translate(0,44)"
           width="799.99799"
           height="352" />
        <use
           x="0"
           y="0"
           xlink:href="#use2525"
           id="use2553"
           transform="translate(0,44)"
           width="799.99799"
           height="352" />
        <use
           x="0"
           y="0"
           xlink:href="#use2527"
           id="use2555"
           transform="translate(0,44)"
           width="799.99799"
           height="352" />
        <use
           x="0"
           y="0"
           xlink:href="#use2529"
           id="use2557"
           transform="translate(0,44)"
           width="799.99799"
           height="352" />
        <use
           x="0"
           y="0"
           xlink:href="#use2531"
           id="use2559"
           transform="translate(0,44)"
           width="799.99799"
           height="352" />
        <use
           x="0"
           y="0"
           xlink:href="#use2533"
           id="use2561"
           transform="translate(0,44)"
           width="799.99799"
           height="352" />
        <use
           x="0"
           y="0"
           xlink:href="#use2535"
           id="use2563"
           transform="translate(0,44)"
           width="799.99799"
           height="352" />
        <use
           x="0"
           y="0"
           xlink:href="#use2537"
           id="use2565"
           transform="translate(0,44)"
           width="799.99799"
           height="352" />
        <use
           x="0"
           y="0"
           xlink:href="#use2539"
           id="use2567"
           transform="translate(0,44)"
           width="799.99799"
           height="352" />
        <use
           x="0"
           y="0"
           xlink:href="#use2541"
           id="use2569"
           transform="translate(0,44)"
           width="799.99799"
           height="352" />
        <use
           x="0"
           y="0"
           xlink:href="#use2543"
           id="use2571"
           transform="translate(0,44)"
           width="799.99799"
           height="352" />
        <use
           x="0"
           y="0"
           xlink:href="#use2545"
           id="use2573"
           transform="translate(0,44)"
           width="799.99799"
           height="352" />
        <use
           x="0"
           y="0"
           xlink:href="#use2547"
           id="use2575"
           transform="translate(0,44)"
           width="799.99799"
           height="352" />
        <use
           x="0"
           y="0"
           xlink:href="#use2549"
           id="use2577"
           transform="translate(0,44)"
           width="799.99799"
           height="352" />
        <use
           x="0"
           y="0"
           xlink:href="#use2551"
           id="use2579"
           transform="translate(0,44)"
           width="799.99799"
           height="352" />
        <use
           x="0"
           y="0"
           xlink:href="#use2553"
           id="use2581"
           transform="translate(0,44)"
           width="799.99799"
           height="352" />
        <use
           x="0"
           y="0"
           xlink:href="#use2555"
           id="use2583"
           transform="translate(0,44)"
           width="799.99799"
           height="352" />
        <use
           x="0"
           y="0"
           xlink:href="#use2557"
           id="use2585"
           transform="translate(0,44)"
           width="799.99799"
           height="352" />
        <use
           x="0"
           y="0"
           xlink:href="#use2559"
           id="use2587"
           transform="translate(0,44)"
           width="799.99799"
           height="352" />
        <use
           x="0"
           y="0"
           xlink:href="#use2561"
           id="use2589"
           transform="translate(0,44)"
           width="799.99799"
           height="352" />
        <use
           x="0"
           y="0"
           xlink:href="#use2563"
           id="use2591"
           transform="translate(0,44)"
           width="799.99799"
           height="352" />
        <use
           x="0"
           y="0"
           xlink:href="#use2565"
           id="use2593"
           transform="translate(0,44)"
           width="799.99799"
           height="352" />
        <use
           x="0"
           y="0"
           xlink:href="#use2567"
           id="use2595"
           transform="translate(0,44)"
           width="799.99799"
           height="352" />
        <use
           x="0"
           y="0"
           xlink:href="#use2569"
           id="use2597"
           transform="translate(0,44)"
           width="799.99799"
           height="352" />
        <use
           x="0"
           y="0"
           xlink:href="#use2571"
           id="use2599"
           transform="translate(0,44)"
           width="799.99799"
           height="352" />
        <use
           x="0"
           y="0"
           xlink:href="#use2573"
           id="use2601"
           transform="translate(0,44)"
           width="799.99799"
           height="352" />
        <use
           x="0"
           y="0"
           xlink:href="#use2575"
           id="use2603"
           transform="translate(0,44)"
           width="799.99799"
           height="352" />
        <use
           x="0"
           y="0"
           xlink:href="#use2577"
           id="use2605"
           transform="translate(0,44)"
           width="799.99799"
           height="352" />
        <use
           x="0"
           y="0"
           xlink:href="#use2579"
           id="use2607"
           transform="translate(0,44)"
           width="799.99799"
           height="352" />
        <use
           x="0"
           y="0"
           xlink:href="#use2581"
           id="use2609"
           transform="translate(0,44)"
           width="799.99799"
           height="352" />
        <use
           x="0"
           y="0"
           xlink:href="#use2583"
           id="use2611"
           transform="translate(0,44)"
           width="799.99799"
           height="352" />
        <use
           x="0"
           y="0"
           xlink:href="#use2585"
           id="use2613"
           transform="translate(0,44)"
           width="799.99799"
           height="352" />
        <use
           x="0"
           y="0"
           xlink:href="#use2587"
           id="use2615"
           transform="translate(0,44)"
           width="799.99799"
           height="352" />
        <use
           x="0"
           y="0"
           xlink:href="#use2589"
           id="use2617"
           transform="translate(0,44)"
           width="799.99799"
           height="352" />
        <use
           x="0"
           y="0"
           xlink:href="#use2591"
           id="use2619"
           transform="translate(0,44)"
           width="799.99799"
           height="352" />
        <use
           x="0"
           y="0"
           xlink:href="#use2593"
           id="use2621"
           transform="translate(0,44)"
           width="799.99799"
           height="352" />
        <use
           x="0"
           y="0"
           xlink:href="#use2595"
           id="use2623"
           transform="translate(0,44)"
           width="799.99799"
           height="352" />
        <use
           x="0"
           y="0"
           xlink:href="#use2597"
           id="use2625"
           transform="translate(0,44)"
           width="799.99799"
           height="352" />
        <use
           x="0"
           y="0"
           xlink:href="#use2599"
           id="use2627"
           transform="translate(0,44)"
           width="799.99799"
           height="352" />
        <use
           x="0"
           y="0"
           xlink:href="#use2601"
           id="use2629"
           transform="translate(0,44)"
           width="799.99799"
           height="352" />
        <use
           x="0"
           y="0"
           xlink:href="#use2603"
           id="use2631"
           transform="translate(0,44)"
           width="799.99799"
           height="352" />
        <use
           x="0"
           y="0"
           xlink:href="#use2605"
           id="use2633"
           transform="translate(0,44)"
           width="799.99799"
           height="352" />
        <use
           x="0"
           y="0"
           xlink:href="#use2607"
           id="use2635"
           transform="translate(0,44)"
           width="799.99799"
           height="352" />
        <use
           x="0"
           y="0"
           xlink:href="#use2609"
           id="use2637"
           transform="translate(0,44)"
           width="799.99799"
           height="352" />
        <use
           x="0"
           y="0"
           xlink:href="#use2611"
           id="use2639"
           transform="translate(0,44)"
           width="799.99799"
           height="352" />
        <use
           x="0"
           y="0"
           xlink:href="#use2613"
           id="use2641"
           transform="translate(0,44)"
           width="799.99799"
           height="352" />
        <use
           x="0"
           y="0"
           xlink:href="#use2615"
           id="use2643"
           transform="translate(0,44)"
           width="799.99799"
           height="352" />
        <use
           x="0"
           y="0"
           xlink:href="#use2617"
           id="use2645"
           transform="translate(0,44)"
           width="799.99799"
           height="352" />
        <use
           x="0"
           y="0"
           xlink:href="#use2619"
           id="use2647"
           transform="translate(0,44)"
           width="799.99799"
           height="352" />
        <use
           x="0"
           y="0"
           xlink:href="#use2621"
           id="use2649"
           transform="translate(0,44)"
           width="799.99799"
           height="352" />
        <use
           x="0"
           y="0"
           xlink:href="#use2623"
           id="use2651"
           transform="translate(0,44)"
           width="799.99799"
           height="352" />
        <use
           x="0"
           y="0"
           xlink:href="#use2625"
           id="use2653"
           transform="translate(0,44)"
           width="799.99799"
           height="352" />
        <use
           x="0"
           y="0"
           xlink:href="#use2627"
           id="use2655"
           transform="translate(0,44)"
           width="799.99799"
           height="352" />
        <use
           x="0"
           y="0"
           xlink:href="#use2629"
           id="use2657"
           transform="translate(0,44)"
           width="799.99799"
           height="352" />
        <use
           x="0"
           y="0"
           xlink:href="#use2631"
           id="use2659"
           transform="translate(0,44)"
           width="799.99799"
           height="352" />
        <use
           x="0"
           y="0"
           xlink:href="#use2633"
           id="use2661"
           transform="translate(0,44)"
           width="799.99799"
           height="352" />
        <use
           x="0"
           y="0"
           xlink:href="#use2635"
           id="use2663"
           transform="translate(0,44)"
           width="799.99799"
           height="352" />
      </g>
    </g>
  </g>
</svg>
