<?xml version="1.0" encoding="UTF-8" standalone="no"?>
<!-- Created with Inkscape (http://www.inkscape.org/) -->

<svg
   xmlns:dc="http://purl.org/dc/elements/1.1/"
   xmlns:cc="http://creativecommons.org/ns#"
   xmlns:rdf="http://www.w3.org/1999/02/22-rdf-syntax-ns#"
   xmlns:svg="http://www.w3.org/2000/svg"
   xmlns="http://www.w3.org/2000/svg"
   xmlns:xlink="http://www.w3.org/1999/xlink"
   xmlns:sodipodi="http://sodipodi.sourceforge.net/DTD/sodipodi-0.dtd"
   xmlns:inkscape="http://www.inkscape.org/namespaces/inkscape"
   width="65.973755mm"
   height="61.645962mm"
   viewBox="0 0 65.973755 61.645962"
   version="1.1"
   id="svg2417"
   inkscape:version="0.92.3 (2405546, 2018-03-11)"
   sodipodi:docname="burned_guy.svg">
  <defs
     id="defs2411">
    <filter
       inkscape:collect="always"
       id="filter26765"
       x="-0.033348836"
       width="1.0666977"
       y="-0.29875001"
       height="1.5975">
      <feGaussianBlur
         inkscape:collect="always"
         stdDeviation="2.1064862"
         id="feGaussianBlur26767" />
    </filter>
    <linearGradient
       inkscape:collect="always"
       xlink:href="#linearGradient4157-3-5-5-0-9-2"
       id="linearGradient26711"
       gradientUnits="userSpaceOnUse"
       gradientTransform="matrix(0.7502633,-0.47626706,0.58363145,0.60453705,394.92354,446.01863)"
       x1="181.25"
       y1="278.875"
       x2="211.74998"
       y2="305.625" />
    <linearGradient
       id="linearGradient4157-3-5-5-0-9-2"
       inkscape:collect="always">
      <stop
         id="stop4159-2-6-7-2-7-8"
         offset="0"
         style="stop-color:#000000;stop-opacity:0" />
      <stop
         id="stop4161-1-29-4-5-8-8"
         offset="1"
         style="stop-color:#000000;stop-opacity:0.4" />
    </linearGradient>
    <linearGradient
       y2="166.75029"
       x2="356.36673"
       y1="105.32663"
       x1="287.46475"
       gradientUnits="userSpaceOnUse"
       id="linearGradient34186"
       xlink:href="#linearGradient4238-5"
       inkscape:collect="always" />
    <linearGradient
       inkscape:collect="always"
       id="linearGradient4238-5">
      <stop
         style="stop-color:#808080;stop-opacity:0.5"
         offset="0"
         id="stop4240-0" />
      <stop
         style="stop-color:#808080;stop-opacity:1"
         offset="1"
         id="stop4242-9" />
    </linearGradient>
    <filter
       style="color-interpolation-filters:sRGB"
       id="filter4230-8"
       inkscape:label="Evanescent"
       inkscape:menu="Blurs"
       inkscape:menu-tooltip="Blur the contents of objects, preserving the outline and adding progressive transparency at edges">
      <feGaussianBlur
         id="feGaussianBlur4232-6"
         result="result6"
         stdDeviation="3"
         in="SourceGraphic" />
      <feColorMatrix
         id="feColorMatrix4234-2"
         values="1 0 0 0 0 0 1 0 0 0 0 0 1 0 0 0 0 0 1 0 "
         result="result7"
         in="SourceGraphic" />
      <feComposite
         id="feComposite4236-5"
         in2="result7"
         operator="in"
         in="result6" />
    </filter>
    <clipPath
       clipPathUnits="userSpaceOnUse"
       id="clipPath10478">
      <path
         inkscape:connector-curvature="0"
         style="display:inline;opacity:0.25;fill:#000000;stroke:none"
         d="m 162.93428,138.63465 -30.69781,0.51578 -13.61079,41.40328 8.72374,41.5548 65.22113,-1.79369 1.54799,-53.24232 -16.0055,2.71147 3.65547,-10.87845 -7.14386,10.93708 -0.97319,-16.3837 -13.4699,8.25187 7.81225,-12.693 -12.81321,5.79827 z"
         id="path10480"
         sodipodi:nodetypes="cccccccccccccc" />
    </clipPath>
    <filter
       inkscape:collect="always"
       id="filter26591"
       x="-0.13775635"
       width="1.2755127"
       y="-0.038352177"
       height="1.0767044">
      <feGaussianBlur
         inkscape:collect="always"
         stdDeviation="0.67598591"
         id="feGaussianBlur26593" />
    </filter>
  </defs>
  <sodipodi:namedview
     id="base"
     pagecolor="#ffffff"
     bordercolor="#666666"
     borderopacity="1.0"
     inkscape:pageopacity="0.0"
     inkscape:pageshadow="2"
     inkscape:zoom="1.979899"
     inkscape:cx="14.161098"
     inkscape:cy="131.7567"
     inkscape:document-units="mm"
     inkscape:current-layer="layer1"
     showgrid="false"
     inkscape:window-width="1920"
     inkscape:window-height="1172"
     inkscape:window-x="1600"
     inkscape:window-y="0"
     inkscape:window-maximized="1"
     fit-margin-top="0"
     fit-margin-left="0"
     fit-margin-right="0"
     fit-margin-bottom="0" />
  <metadata
     id="metadata2414">
    <rdf:RDF>
      <cc:Work
         rdf:about="">
        <dc:format>image/svg+xml</dc:format>
        <dc:type
           rdf:resource="http://purl.org/dc/dcmitype/StillImage" />
        <dc:title></dc:title>
      </cc:Work>
    </rdf:RDF>
  </metadata>
  <g
     inkscape:label="Layer 1"
     inkscape:groupmode="layer"
     id="layer1"
     transform="translate(-87.993629,-205.93916)">
    <g
       style="display:inline"
       id="g26668"
       transform="matrix(0,0.2689669,-0.2689669,0,268.2764,66.633698)"
       clip-path="none">
      <path
         style="display:inline;fill:#4d4d4d;fill-opacity:1;stroke:#000000;stroke-width:2;stroke-linecap:round;stroke-linejoin:round;stroke-miterlimit:4;stroke-dashoffset:0;stroke-opacity:1"
         d="m 667.51432,590.55152 -3.28695,-1.89496 c -1.3118,-0.75625 -2.97761,-0.31055 -3.73497,0.99932 l -29.41662,50.87607 c -1.8232,1.57588 -3.94372,5.22667 0.23016,5.2685 l 4.29947,-3.55254 -1.2052,5.44747 c 1.90245,4.09852 4.05232,-0.59804 4.69822,-2.53835 l 29.41669,-50.87606 c 0.75738,-1.30983 0.31104,-2.97318 -1.0008,-3.72945 z"
         id="use7893"
         sodipodi:nodetypes="cccccccccc"
         inkscape:connector-curvature="0" />
      <path
         style="fill:#93a7ac;fill-opacity:1;stroke:#000000;stroke-width:1.90944684;stroke-linecap:butt;stroke-linejoin:miter;stroke-opacity:1"
         d="m 668.3645,552.27184 -39.5625,71.375 24.75,15.6875 c 2.96758,-3.41095 5.67417,-6.89438 8.21875,-10.40625 l -4.71875,1.5625 4.25,-4.4375 -2.5,-4.21875 3.1875,-0.375 -4.0625,-2.125 h 5.5 l -1.59375,-4.75 4.59375,2.125 0.6875,-3.71875 3.71875,2.09375 c 7.45452,-12.54303 13.43127,-25.43314 20,-38.1875 z"
         id="path13381"
         inkscape:connector-curvature="0" />
      <path
         sodipodi:nodetypes="cccccccccc"
         id="path7567"
         d="m 697.45362,573.92603 -3.79405,0.002 c -1.51418,9.7e-4 -2.73397,1.21987 -2.73493,2.73293 l -0.0375,58.76828 c -0.79099,2.27635 -0.80202,6.4983 2.83359,4.44757 l 1.94718,-5.22631 1.68,5.32024 c 3.69682,2.59819 3.21039,-2.54408 2.79959,-4.5474 l 0.0376,-58.7683 c 9.9e-4,-1.51303 -1.21722,-2.73037 -2.73145,-2.7294 z"
         style="display:inline;fill:#4d4d4d;fill-opacity:1;stroke:#000000;stroke-width:2;stroke-linecap:round;stroke-linejoin:round;stroke-miterlimit:4;stroke-dashoffset:0;stroke-opacity:1"
         inkscape:connector-curvature="0" />
      <path
         style="fill:#93a7ac;fill-opacity:1;stroke:#000000;stroke-width:1.90944684;stroke-linecap:butt;stroke-linejoin:miter;stroke-opacity:1"
         d="m 713.4895,558.27184 -34.03125,14.59375 c -2.74626,14.01799 -0.62494,29.60474 2.1875,45.90625 l 3.40625,0.0937 -1.96875,-8.15625 4.65625,5.125 -0.59375,-4.875 7.28125,1.8125 5.15625,-8.28125 -0.6875,7.8125 -1.96875,2.53125 c 0,0 2.46678,1.8383 3.40625,1 0.93959,-0.83821 5.12841,-1.23144 4.125,-0.65625 -1.00346,0.5752 -6.53125,6.125 -6.53125,6.125 l 6.1875,1.875 c 0,0 -5.72824,1.10978 -7.0625,1.5 -1.33423,0.3902 -2.06969,6.7998 -2.65625,5.5625 -0.58659,-1.23733 -2,-7.03125 -2,-7.03125 0,0 -4.58652,1.07281 -5.28125,4.09375 -0.37794,1.64333 -1.94083,2.94965 -3.28125,3.8125 1.01652,5.87113 1.98814,11.80911 2.71875,17.78125 l 28.9375,-9.09375 -2,-81.53125 z"
         id="path13385"
         inkscape:connector-curvature="0" />
      <path
         sodipodi:nodetypes="cccccc"
         id="path13387"
         d="m 685.56382,642.31534 0.69018,9.0162 c -38.75952,22.70584 9.97641,21.68453 33.53689,8.92506 l -1.36868,-8.83222 -2.19002,-14.1315 c -10.26001,6.63724 -18.53943,8.39878 -30.66837,5.02246 z"
         style="display:inline;fill:#502d16;fill-opacity:1;fill-rule:nonzero;stroke:#000000;stroke-width:2.02674413;stroke-linecap:round;stroke-linejoin:round;stroke-miterlimit:4;stroke-dasharray:none;stroke-dashoffset:0;stroke-opacity:1"
         inkscape:connector-curvature="0" />
      <ellipse
         style="opacity:0.2;fill:#000000;fill-opacity:1;fill-rule:nonzero;stroke:none;filter:url(#filter26765)"
         id="path26759"
         transform="matrix(0,-1.3300894,1.3169156,0,-16.948942,1446.2127)"
         cx="668.78735"
         cy="558.16162"
         rx="75.798248"
         ry="8.4611998" />
      <ellipse
         style="color:#000000;display:inline;overflow:visible;visibility:visible;fill:#321859;fill-opacity:1;fill-rule:nonzero;stroke:#000000;stroke-width:1.34454226;stroke-linecap:round;stroke-linejoin:round;stroke-miterlimit:4;stroke-dasharray:none;stroke-dashoffset:0;stroke-opacity:1;marker:none;enable-background:accumulate"
         id="path6773"
         transform="matrix(1.5915493,0,0,1.390244,-464.78433,240.18951)"
         cx="720.5"
         cy="188.875"
         rx="17.75"
         ry="5.125" />
      <path
         style="display:inline;fill:#4d4d4d;fill-opacity:1;stroke:#000000;stroke-width:2.26830983;stroke-linecap:round;stroke-linejoin:round;stroke-miterlimit:4;stroke-dashoffset:0;stroke-opacity:1"
         d="m 676.05338,494.07721 10.74721,-10e-6 c 1.30394,5.51606 0.003,8.68792 -1.99998,11.22757 -3.33857,3.71211 -2.81563,5.31567 -6.74722,10e-6 -2.01787,-3.74252 -2.64871,-7.48505 -2.00001,-11.22757 z"
         id="rect4263-6"
         sodipodi:nodetypes="ccccc"
         inkscape:connector-curvature="0" />
      <path
         style="display:inline;fill:#aad400;fill-opacity:1;fill-rule:nonzero;stroke:#000000;stroke-width:1.90600181;stroke-linecap:round;stroke-linejoin:round;stroke-miterlimit:4;stroke-dashoffset:0;stroke-opacity:1"
         d="m 697.052,491.30309 c -7.85497,-0.2411 -2.80902,11.52715 -15.84375,11.03125 -8.70086,-0.31225 -10.50703,-16.84811 -20.46875,-6.5 -0.89802,2.10737 -1.2412,1.31036 -1.84375,3.5 -4.68245,10.89654 -5.76824,22.29694 -5.65625,33.875 l 3.1875,2.8125 0.6875,-7.03125 4.0625,4.34375 c 0,0 -0.326,6.01419 -2.09375,7.6875 -1.76777,1.67333 -1.59375,7.375 -1.59375,7.375 0,0 3.86612,0.009 4.75,0.34375 0.88389,0.33467 -3,2.98294 -3,4.65625 10e-6,1.67333 0.375,8.71875 0.375,8.71875 l -2.3125,-6.6875 c 0,0 -2.4795,8.03632 -2.65625,9.375 -0.17677,1.33865 -0.69731,-3.69259 -0.34375,-5.03125 0.23259,-0.88067 -0.36856,-2.14066 -0.8125,-2.9375 0.0353,8.8601 0.0597,17.72904 0.0937,18.375 24.13243,13.85257 46.87264,11.51099 70.09375,8.625 -3.19667,-1.62986 -4.97387,-24.40087 -2.09375,-63.03125 -1.76994,-14.63535 4.23438,-17.79446 -11.21875,-24.375 -6.63553,-3.64464 -10.69418,-5.04463 -13.3125,-5.125 z m -43.65625,49.59375 c 1.8e-4,0.0137 -1.9e-4,0.11059 0,0.125 h 0.0312 z"
         id="path13389"
         inkscape:connector-curvature="0" />
      <path
         sodipodi:nodetypes="cccc"
         id="path13413"
         d="m 718.01408,583.09227 4.59592,0.0812 c -1.94532,-16.33795 -4.32412,-46.07525 -0.9389,-63.15472 -9.48085,-1.69145 -6.06584,53.80128 -3.65702,63.07355 z"
         style="display:inline;fill:url(#linearGradient26711);fill-rule:evenodd;stroke:none"
         inkscape:connector-curvature="0" />
      <g
         id="g5760"
         transform="matrix(-0.94134152,-0.15928902,-0.15928902,0.94134152,1288.3792,456.75245)">
        <path
           transform="matrix(-1.0327425,-0.17475543,-0.17475543,1.0327425,1395.4202,85.554099)"
           sodipodi:nodetypes="cccccccccccc"
           id="rect7877"
           d="m 670.28125,141.34375 c -2.15199,0.0418 -1.63209,3.11928 -2.15625,4.875 -1.90703,-3.76992 -4.48576,-4.18184 -6.21875,-2.8125 -1.98705,1.65641 2.83895,6.64656 4.0625,6.3125 0.1851,7.65978 1.90116,14.19739 4.0625,20.375 0.88536,5.02474 4.09508,16.15479 5.5,16.53125 l 10.03125,2.28125 1.8125,-10 c -7.30619,-0.31953 -6.91615,-8.25891 -9.09375,-12.625 -1.52926,-6.07725 -3.56517,-12.1415 -6.09375,-18.21875 1.77339,-0.34654 1.85039,-6.25806 -0.8125,-6.53125 -0.42812,-0.13134 -0.78632,-0.19346 -1.09375,-0.1875 z"
           style="display:inline;fill:#4d4d4d;fill-opacity:1;stroke:#000000;stroke-width:2;stroke-linecap:round;stroke-linejoin:round;stroke-miterlimit:4;stroke-dashoffset:0;stroke-opacity:1"
           inkscape:connector-curvature="0" />
        <path
           sodipodi:nodetypes="ccccccc"
           id="path7933"
           d="m 671.61669,142.22314 -7.54381,14.85811 -9.11652,0.53858 -0.11144,3.60697 10.0383,-0.25993 c 5.50107,-11.25558 12.29334,-22.17003 15.39746,-34.05886 z"
           style="display:inline;opacity:0.2;fill:#000000;stroke:none"
           inkscape:connector-curvature="0" />
      </g>
      <path
         style="display:inline;opacity:0.75;fill:url(#linearGradient34186);stroke:#4d4d4d;stroke-width:0.52801436px;stroke-linecap:butt;stroke-linejoin:miter;stroke-opacity:1;filter:url(#filter4230-8)"
         d="m 339.839,142.84269 c -4.25909,-1.50565 2.88748,-4.75273 -4.73895,-8.01975 2.44545,-4.43776 2.97268,-7.69567 -0.8616,-12.63406 -1.49814,-5.37557 -6.67846,-7.47005 -11.75888,-7.70039 -5.35436,-1.94787 -4.10574,-8.90678 -6.42364,-12.99743 -4.28482,-2.496733 -10.51422,-3.729844 -14.89326,-1.44808 -3.44086,3.19902 -3.12052,8.72875 -5.41268,12.70703 -0.93787,5.047 2.83661,8.51821 7.10754,10.30635 3.49752,1.03054 3.57331,4.69789 3.39246,7.67736 -0.67257,3.60224 2.61464,6.29667 5.83693,7.00887 4.50479,0.53464 10.92725,2.22971 10.41307,7.9763 -2.00869,6.87353 6.57673,6.00331 12.59719,6.64503 3.98142,2.59163 10.19439,11.13082 14.96301,7.85475 l -0.50147,-5.52558 c -6.00232,-7.55703 -4.93038,-5.26871 -9.71972,-11.8504 z"
         id="path5137"
         sodipodi:nodetypes="ccccccccccccccc"
         transform="matrix(0.44641388,1.8148573,1.8320908,-0.53475294,218.69349,-12.212438)"
         inkscape:export-xdpi="90"
         inkscape:export-ydpi="90"
         inkscape:connector-curvature="0" />
      <ellipse
         style="fill:#ffffff;fill-opacity:1;fill-rule:nonzero;stroke:none"
         id="path26947"
         transform="matrix(0,-1.1954315,1.1954315,0,-69.712237,1363.9711)"
         cx="743.01031"
         cy="626.21771"
         rx="13.586332"
         ry="13.960268" />
      <path
         style="display:inline;fill:#aad400;fill-opacity:1;fill-rule:nonzero;stroke:#000000;stroke-width:1.94017911;stroke-linecap:round;stroke-linejoin:round;stroke-miterlimit:4;stroke-dashoffset:0;stroke-opacity:1"
         d="m 662.36249,496.31656 -18.21808,-9.66625 c -4.40937,0.52484 -6.85346,11.42881 -9.31983,16.97545 5.45473,6.95405 7.56865,8.9881 19.85374,18.44596"
         id="path13415"
         sodipodi:nodetypes="cccs"
         clip-path="none"
         inkscape:connector-curvature="0" />
      <g
         transform="matrix(-1.0132291,0.01702395,0.01702395,1.0132291,836.38991,281.17743)"
         id="g13417"
         clip-path="url(#clipPath10478)">
        <path
           style="display:inline;fill:#333333;fill-opacity:1;fill-rule:nonzero;stroke:#000000;stroke-width:1.88624907;stroke-linecap:round;stroke-linejoin:round;stroke-miterlimit:4;stroke-dasharray:none;stroke-dashoffset:0;stroke-opacity:1"
           d="m 680.59375,443.3125 c -2.60575,-0.0121 -5.25655,0.37863 -7.875,1.1875 -11.20123,3.46019 -18.44981,13.72587 -18.625,24.9375 l 6.59375,0.1875 -6.28125,4.125 c 0.19952,1.35771 0.48842,2.70993 0.90625,4.0625 4.35518,14.09848 19.19118,22.03272 33.15625,17.71875 13.96507,-4.31397 21.76143,-19.21402 17.40625,-33.3125 -3.53859,-11.45502 -13.98969,-18.85384 -25.28125,-18.90625 z m 5.4375,21.28125 c 1.82307,0.082 3.3761,1.3534 3.625,3.09375 0.28445,1.98898 -1.22366,3.84857 -3.375,4.15625 -2.15134,0.30768 -4.1218,-1.04227 -4.40625,-3.03125 -0.28445,-1.98898 1.22366,-3.84857 3.375,-4.15625 0.26892,-0.0385 0.52081,-0.0742 0.78125,-0.0625 z m -16.5625,4.625 c 1.82307,0.082 3.3761,1.32215 3.625,3.0625 0.28445,1.98898 -1.25491,3.87982 -3.40625,4.1875 -2.15134,0.30768 -4.1218,-1.07352 -4.40625,-3.0625 -0.28445,-1.98898 1.22366,-3.84857 3.375,-4.15625 0.26892,-0.0385 0.55206,-0.043 0.8125,-0.0312 z m 9.4375,13.92164 c 3.42341,-0.13862 6.44763,1.75887 6.90625,4.4375 0.48919,2.8572 -2.6127,1.27677 -6.3125,1.71875 -3.69978,0.44199 -6.60456,2.73221 -7.09375,-0.125 -0.4892,-2.8572 2.11272,-5.52677 5.8125,-5.96875 0.23124,-0.0276 0.45927,-0.0533 0.6875,-0.0625 z"
           transform="matrix(-0.9866651,0.01657763,0.01657763,0.9866651,820.57548,-291.29332)"
           id="path13419"
           inkscape:connector-curvature="0"
           sodipodi:nodetypes="sscccsssscssscccsssccccssscc" />
        <path
           style="display:inline;opacity:0.2;fill:#000000;fill-opacity:1;fill-rule:nonzero;stroke:none;filter:url(#filter26591)"
           d="m 142.78185,163.07079 c -7.71122,4.73569 -12.87656,15.47951 -11.0387,25.98003 0.73588,6.76865 4.19555,12.60925 8.84326,16.36463 -5.96439,-15.45167 -7.28332,-28.00303 2.19544,-42.34466 z"
           id="path13421"
           sodipodi:nodetypes="cccc"
           inkscape:connector-curvature="0" />
        <g
           id="g13431" />
      </g>
      <g
         transform="matrix(0.94134152,-0.15928902,0.15928902,0.94134152,80.377473,454.27756)"
         id="g5764">
        <path
           style="display:inline;fill:#4d4d4d;fill-opacity:1;stroke:#000000;stroke-width:2;stroke-linecap:round;stroke-linejoin:round;stroke-miterlimit:4;stroke-dashoffset:0;stroke-opacity:1"
           d="m 670.28125,141.34375 c -2.15199,0.0418 -1.63209,3.11928 -2.15625,4.875 -1.90703,-3.76992 -4.48576,-4.18184 -6.21875,-2.8125 -1.98705,1.65641 2.83895,6.64656 4.0625,6.3125 0.1851,7.65978 1.90116,14.19739 4.0625,20.375 0.88536,5.02474 4.09508,16.15479 5.5,16.53125 l 10.03125,2.28125 1.8125,-10 c -7.30619,-0.31953 -6.91615,-8.25891 -9.09375,-12.625 -1.52926,-6.07725 -3.56517,-12.1415 -6.09375,-18.21875 1.77339,-0.34654 1.85039,-6.25806 -0.8125,-6.53125 -0.42812,-0.13134 -0.78632,-0.19346 -1.09375,-0.1875 z"
           id="path5766"
           sodipodi:nodetypes="cccccccccccc"
           transform="matrix(-1.0327425,-0.17475543,-0.17475543,1.0327425,1395.4202,85.554099)"
           inkscape:connector-curvature="0" />
        <path
           style="display:inline;opacity:0.2;fill:#000000;stroke:none"
           d="m 671.61669,142.22314 -7.54381,14.85811 -9.11652,0.53858 -0.11144,3.60697 10.0383,-0.25993 c 5.50107,-11.25558 12.29334,-22.17003 15.39746,-34.05886 z"
           id="path5768"
           sodipodi:nodetypes="ccccccc"
           inkscape:connector-curvature="0" />
      </g>
      <path
         style="display:inline;fill:#aad400;fill-opacity:1;fill-rule:nonzero;stroke:#000000;stroke-width:1.94017911;stroke-linecap:round;stroke-linejoin:round;stroke-miterlimit:4;stroke-dashoffset:0;stroke-opacity:1"
         clip-path="none"
         d="m 726.14575,483.39684 -16.09375,12.90625 10.625,24.5 c 1.25791,-1.41596 2.15199,-2.37737 3.21875,-3.5625 l -3.84375,1.46875 4.375,-5.25 -2.5625,-5 3.28125,-0.4375 -4.1875,-2.5 h 5.65625 l -1.625,-5.65625 4.71875,2.5 0.75,-4.375 4.1875,2.71875 c 0,0 -0.36211,3.7661 -2.1875,4.8125 -1.31216,0.7522 -1.5743,2.78174 -1.625,3.875 3.22436,-3.75398 5.37305,-6.67376 7.65625,-11.09375 -3.46127,-4.98677 -7.9141,-15.21627 -12.34375,-14.90625 z"
         id="path13447"
         inkscape:connector-curvature="0" />
      <path
         style="display:inline;opacity:0.2;fill:#000000;stroke:#000000;stroke-width:0.89781594px;stroke-linecap:round;stroke-linejoin:round;stroke-opacity:1"
         d="m 708.96571,500.26502 c 5.79133,4.75405 6.99547,9.55547 7.66303,16.85451 z"
         id="path13449"
         sodipodi:nodetypes="ccc"
         inkscape:connector-curvature="0" />
      <path
         sodipodi:nodetypes="ccc"
         id="path13451"
         d="m 664.17805,500.01906 c -4.7988,5.75431 -5.08265,10.69626 -4.37179,17.99121 z"
         style="display:inline;opacity:0.2;fill:#000000;stroke:#000000;stroke-width:0.89781594px;stroke-linecap:round;stroke-linejoin:round;stroke-opacity:1"
         inkscape:connector-curvature="0" />
      <g
         transform="matrix(-0.94134152,-0.15928902,-0.15928902,0.94134152,1288.6218,455.63633)"
         id="g7557">
        <path
           transform="matrix(-1.0327425,-0.17475543,-0.17475543,1.0327425,1395.4202,85.554099)"
           id="path7549"
           d="m 701.49998,165.25 0.5,6.125"
           style="fill:none;stroke:#000000;stroke-width:1px;stroke-linecap:butt;stroke-linejoin:miter;stroke-opacity:1"
           inkscape:connector-curvature="0" />
        <path
           style="fill:none;stroke:#000000;stroke-width:1.04742372px;stroke-linecap:butt;stroke-linejoin:miter;stroke-opacity:1"
           d="m 639.62025,133.20884 -1.58676,6.23817"
           id="path7551"
           inkscape:connector-curvature="0" />
        <path
           id="path7553"
           d="m 637.15157,134.84932 6.23817,1.58676"
           style="fill:none;stroke:#000000;stroke-width:1.04742372px;stroke-linecap:butt;stroke-linejoin:miter;stroke-opacity:1"
           inkscape:connector-curvature="0" />
        <path
           style="fill:none;stroke:#000000;stroke-width:1.04742372px;stroke-linecap:butt;stroke-linejoin:miter;stroke-opacity:1"
           d="m 636.8239,136.78571 6.23817,1.58676"
           id="path7555"
           inkscape:connector-curvature="0" />
      </g>
      <g
         id="g7581"
         transform="matrix(-2.1304036,-0.36049604,-0.36049604,2.1304036,2113.2356,501.57043)">
        <path
           style="fill:none;stroke:#000000;stroke-width:0.44186068px;stroke-linecap:butt;stroke-linejoin:miter;stroke-opacity:1"
           d="m 701.49998,165.25 0.5,6.125"
           id="path7583"
           transform="matrix(-1.0327425,-0.17475543,-0.17475543,1.0327425,1395.4202,85.554099)"
           inkscape:connector-curvature="0" />
        <path
           id="path7585"
           d="m 639.62025,133.20884 -1.58676,6.23817"
           style="fill:none;stroke:#000000;stroke-width:0.46281534px;stroke-linecap:butt;stroke-linejoin:miter;stroke-opacity:1"
           inkscape:connector-curvature="0" />
        <path
           style="fill:none;stroke:#000000;stroke-width:0.46281534px;stroke-linecap:butt;stroke-linejoin:miter;stroke-opacity:1"
           d="m 637.15157,134.84932 6.23817,1.58676"
           id="path7587"
           inkscape:connector-curvature="0" />
        <path
           id="path7589"
           d="m 636.8239,136.78571 6.23817,1.58676"
           style="fill:none;stroke:#000000;stroke-width:0.46281534px;stroke-linecap:butt;stroke-linejoin:miter;stroke-opacity:1"
           inkscape:connector-curvature="0" />
      </g>
      <path
         style="display:inline;fill:#000000;fill-rule:evenodd;stroke:none"
         d="m 684.3962,437.37501 c -1.40523,0.0247 -2.81888,0.1912 -4.21875,0.1875 -0.15589,0.0397 -0.31057,0.0607 -0.46875,0.0937 l 0.6875,4.28125 -5.125,-3.8125 c -1.43624,0.0944 -2.86825,0.22625 -4.1875,0.6875 -2.17177,1.37895 -4.67402,2.12195 -6.78125,3.65625 l -1,7.09375 -3.71875,-4.5 c -0.55758,0.26352 -1.09891,0.57264 -1.59376,0.90625 -0.7117,0.80558 -1.36939,1.64574 -2.03125,2.46875 l 1.25001,5.125 -5.53126,-0.3125 c -0.55421,1.26206 -0.70247,2.75927 -0.25,4.09375 0.44585,2.0478 1.63205,4.36437 3.65626,3.125 1.76965,-0.96987 3.44804,0.83188 5.24999,0.46875 2.10601,0.27552 2.95347,-3.83973 5.00001,-2.53125 1.6941,0.84699 3.96213,2.35436 5.71875,1.03122 0.95538,-2.27611 2.87149,-2.50526 4.59375,-1.15625 2.00207,1.56834 1.6765,-1.31738 1.59375,-2.84374 0.47911,-2.79132 3.41461,-0.023 4.9375,-1.31251 2.01275,-1.6941 3.7927,0.91197 5.59375,1.8125 1.31552,1.39402 3.41308,2.89955 4.9375,1.0625 1.46545,-1.801 3.51741,1.05578 5.34376,0.84373 2.23585,0.0569 4.17183,1.96052 6.4375,1.56251 2.95248,-0.1153 1.32072,-3.93574 0.5625,-5.75001 -1.01971,-2.22142 -2.20526,-4.33141 -4.1875,-5.46875 -2.56611,-1.6324 -4.2406,-4.60099 -6.68751,-6.40625 -1.88722,-1.18326 -3.26475,-3.95338 -5.59374,-3.84375 -1.37158,-0.48538 -2.78228,-0.58724 -4.1875,-0.5625 z"
         id="path15074-1-0"
         inkscape:connector-curvature="0" />
      <path
         style="opacity:0.5;fill:none;stroke:#000000;stroke-width:1px;stroke-linecap:butt;stroke-linejoin:miter;stroke-opacity:1"
         d="m 692.67701,479.39684 c -0.39587,0.41928 -0.22959,1.12451 -0.50864,1.58002 0.11744,0.49738 -0.34157,0.39375 -0.28704,0.88883 -0.28605,0.13706 -0.19054,0.60987 -0.46336,0.65555 -0.16012,0.47761 -0.55616,0.70477 -0.59922,1.16833 -0.75669,0.0598 -0.86692,0.96522 -1.52987,1.29444 -0.10384,0.61941 0.51355,-0.39887 0.82334,-0.35528 0.30181,-0.34187 0.4587,-0.58168 0.83792,-0.85761 0.0778,-0.0614 0.33213,-0.29267 0.38192,-0.60223 0.24146,-0.46532 0.86724,-0.65894 0.83167,-1.16615 0.17437,-0.0941 0.40302,-0.39178 0.49909,-0.47929 0.30753,-0.32693 0.58691,-0.34534 0.56447,-0.89173 0.34649,0.10269 0.10731,-0.64562 0.44647,-0.57939 -0.0419,-0.53925 0.18873,-1.40601 -0.4558,-1.63897 -0.5027,0.21566 -0.3611,0.95512 -0.81651,1.14179 0.0149,0.0415 -0.27954,0.053 -0.28324,0.33906 -0.49377,0.008 -0.037,0.82209 0.17867,0.14212 0.53717,-0.61206 0.51728,-1.58406 1.34051,-2.05142 0.17715,-0.35793 0.98262,-0.0784 0.78963,-0.58809"
         id="path3435"
         inkscape:connector-curvature="0" />
      <path
         style="fill:none;stroke:#000000;stroke-width:1px;stroke-linecap:butt;stroke-linejoin:miter;stroke-opacity:1"
         d="m 694.42701,485.89684 c -0.48583,0.48008 -0.96275,0.97844 -1.45976,1.44069 -0.0596,0.11354 -0.015,0.45869 -0.0935,0.17428 0.0975,-0.23934 0.45364,-0.0318 0.54326,-0.35086 0.0571,-0.23924 0.41094,-0.27515 0.50195,-0.27934 -0.27309,-0.20403 0.2175,-0.23783 0.25819,-0.28408 -0.13117,-0.36358 0.40059,-0.039 0.24639,-0.40589 0.0308,-0.14789 0.34507,0.0786 0.26316,-0.21181 0.006,-0.32724 0.42556,-0.0241 0.0781,0.096 -0.1532,0.17548 -0.0226,0.39224 -0.35315,0.34531 0.10601,0.29857 -0.33091,0.43797 -0.247,0.71755 -0.3449,-0.0417 -0.54583,0.29815 -0.73683,0.54393 0.0947,0.1829 -0.14987,0.3592 -0.21201,0.21448 0.38624,0.0135 0.76757,0.0556 1.02911,-0.27383 0.41709,-0.0317 -0.23995,0.32899 -0.41613,0.26964 -0.29504,-0.047 -0.0841,0.44566 -0.31975,0.57627 -0.15886,0.24208 -0.005,-0.38047 -0.26053,-0.13936 -0.13148,0.20113 -0.01,0.3855 -0.32955,0.33122 0.11331,0.16392 -0.0637,0.38083 -0.22559,0.24256 0.2822,0.1349 0.47686,-0.45319 0.71453,-0.25241 -0.37616,-0.11991 -0.45161,0.3507 -0.73548,0.48822 -0.21457,-0.0402 -0.28912,0.046 -0.25507,0.26285 -0.3988,-0.12655 -0.158,0.45079 -0.53047,0.53549 -0.17377,0.0806 -0.31162,0.49313 -0.44963,0.41587 0.0209,-0.13486 0.16392,-0.1235 0.23984,-0.20681"
         id="path3437"
         inkscape:connector-curvature="0" />
    </g>
  </g>
</svg>
