<?xml version="1.0" encoding="UTF-8" standalone="no"?>
<!-- Created with Inkscape (http://www.inkscape.org/) -->

<svg
   xmlns:dc="http://purl.org/dc/elements/1.1/"
   xmlns:cc="http://creativecommons.org/ns#"
   xmlns:rdf="http://www.w3.org/1999/02/22-rdf-syntax-ns#"
   xmlns:svg="http://www.w3.org/2000/svg"
   xmlns="http://www.w3.org/2000/svg"
   xmlns:sodipodi="http://sodipodi.sourceforge.net/DTD/sodipodi-0.dtd"
   xmlns:inkscape="http://www.inkscape.org/namespaces/inkscape"
   width="16.400944mm"
   height="10.160813mm"
   viewBox="0 0 16.400944 10.160813"
   version="1.1"
   id="svg1290"
   inkscape:version="0.92.3 (2405546, 2018-03-11)"
   sodipodi:docname="cat.svg">
  <defs
     id="defs1284" />
  <sodipodi:namedview
     id="base"
     pagecolor="#ffffff"
     bordercolor="#666666"
     borderopacity="1.0"
     inkscape:pageopacity="0.0"
     inkscape:pageshadow="2"
     inkscape:zoom="0.35"
     inkscape:cx="-906.14895"
     inkscape:cy="964.91582"
     inkscape:document-units="mm"
     inkscape:current-layer="layer1"
     showgrid="false"
     fit-margin-top="0"
     fit-margin-left="0"
     fit-margin-right="0"
     fit-margin-bottom="0"
     inkscape:window-width="1920"
     inkscape:window-height="1172"
     inkscape:window-x="1600"
     inkscape:window-y="0"
     inkscape:window-maximized="1" />
  <metadata
     id="metadata1287">
    <rdf:RDF>
      <cc:Work
         rdf:about="">
        <dc:format>image/svg+xml</dc:format>
        <dc:type
           rdf:resource="http://purl.org/dc/dcmitype/StillImage" />
        <dc:title></dc:title>
      </cc:Work>
    </rdf:RDF>
  </metadata>
  <g
     inkscape:label="Layer 1"
     inkscape:groupmode="layer"
     id="layer1"
     transform="translate(-205.73405,-393.97316)">
    <g
       id="g22543"
       transform="matrix(0.26458333,0,0,0.26458333,49.580765,327.35818)">
      <ellipse
         transform="matrix(1.6644758,0,0,1.6644758,393.8746,71.939831)"
         id="path4116"
         style="fill:#e6e6e6;fill-opacity:1;stroke:#1a1a1a;stroke-width:1.21967924;stroke-miterlimit:4;stroke-dasharray:none;stroke-opacity:1"
         cx="141"
         cy="121.12501"
         rx="12.5"
         ry="7.625" />
      <path
         sodipodi:nodetypes="ccc"
         id="path39977"
         d="m 613.63166,279.41056 c 8.30461,3.25009 14.43354,0.52425 17.01781,-1.49828 -5.85033,1.09601 -12.36386,2.29814 -17.01781,1.49828 z"
         style="opacity:0.2;fill:#000000;stroke:none"
         inkscape:connector-curvature="0" />
      <g
         transform="matrix(1.6644758,0,0,1.6644758,399.28415,74.436545)"
         id="g4118">
        <path
           style="fill:#ececec;fill-opacity:1;stroke:#1a1a1a;stroke-width:1.21967924;stroke-miterlimit:4;stroke-opacity:1"
           d="m 132.58252,118.12444 c 0,4.19597 -3.64302,7.6014 -8.13173,7.6014 -4.48871,0 -8.13173,-3.40543 -8.13173,-7.6014 0,-1.04899 0.22769,-2.04858 0.63936,-2.95789 0.41167,-0.90932 -1.43018,-6.47836 -0.69426,-7.16629 0.36796,-0.34397 4.53599,3.31286 5.02237,3.12045 0.97276,-0.38482 2.04208,-0.59766 3.16426,-0.59766 1.12218,0 4.379,-3.72466 5.35176,-3.33984 0.97276,0.38482 -0.33855,4.87912 0.39737,5.56705 1.47184,1.37585 2.3826,3.27619 2.3826,5.37418 z"
           id="path4075"
           sodipodi:nodetypes="cssssssssc"
           inkscape:connector-curvature="0" />
        <path
           sodipodi:nodetypes="cc"
           id="path18494"
           d="m 124.5764,122.59635 c -0.13757,-0.84492 -0.134,-1.0519 -0.2187,-1.89151"
           style="fill:none;stroke:#000000;stroke-width:0.35744467;stroke-linecap:round;stroke-linejoin:round;stroke-miterlimit:4;stroke-dasharray:none;stroke-opacity:1"
           inkscape:connector-curvature="0" />
        <ellipse
           transform="matrix(1.5856866,0,0,1.5840322,-45.815607,-76.935757)"
           id="path4100"
           style="fill:#de8787;fill-opacity:1;stroke:#501616;stroke-width:0.22553718;stroke-miterlimit:4;stroke-dasharray:none;stroke-opacity:1"
           cx="107.28125"
           cy="124.18751"
           rx="0.46875"
           ry="0.5" />
        <path
           style="fill:#f4d7d7;fill-rule:evenodd;stroke:#280b0b;stroke-width:0.60983962;stroke-linecap:round;stroke-linejoin:round;stroke-miterlimit:4;stroke-dasharray:none;stroke-opacity:1"
           d="m 118.17522,113.79341 -0.61872,-3.13779 2.47487,1.63519 c 0,0 -0.53033,2.34229 -1.85615,1.5026 z"
           id="path4104"
           inkscape:connector-curvature="0" />
        <path
           id="path4106"
           d="m 128.141,112.64436 0.61872,-3.13779 -2.47487,1.63519 c 0,0 0.53033,2.34229 1.85615,1.5026 z"
           style="fill:#f4d7d7;fill-rule:evenodd;stroke:#280b0b;stroke-width:0.60983962;stroke-linecap:round;stroke-linejoin:round;stroke-miterlimit:4;stroke-dasharray:none;stroke-opacity:1"
           inkscape:connector-curvature="0" />
        <path
           style="fill:none;stroke:#000000;stroke-width:0.35744467;stroke-linecap:round;stroke-linejoin:round;stroke-miterlimit:4;stroke-dasharray:none;stroke-opacity:1"
           d="m 122.63883,120.55512 c -1.66221,-0.51917 -3.40899,-0.45956 -5.10383,-0.29891 -0.90456,0.16158 -1.78571,0.47198 -2.66221,0.78505"
           id="path4108"
           inkscape:connector-curvature="0" />
        <path
           style="fill:none;stroke:#000000;stroke-width:0.35744467;stroke-linecap:round;stroke-linejoin:round;stroke-miterlimit:4;stroke-dasharray:none;stroke-opacity:1"
           d="m 122.62537,121.19457 c -0.9719,-0.068 -1.92618,0.39103 -2.88702,0.56664 -1.22028,0.0942 -2.36563,0.83043 -3.40423,1.761 l -0.097,0.067 -0.0979,0.0633"
           id="path4110"
           inkscape:connector-curvature="0" />
        <path
           style="fill:none;stroke:#000000;stroke-width:0.35744467;stroke-linecap:round;stroke-linejoin:round;stroke-miterlimit:4;stroke-dasharray:none;stroke-opacity:1"
           d="m 126.48372,120.11318 c 2.01397,-0.68818 4.06829,-1.25185 6.13716,-1.68194 0.56569,-0.0576 1.14142,-0.0245 1.69745,-0.17423"
           id="path4112"
           inkscape:connector-curvature="0" />
        <path
           style="fill:none;stroke:#000000;stroke-width:0.35744467;stroke-linecap:round;stroke-linejoin:round;stroke-miterlimit:4;stroke-dasharray:none;stroke-opacity:1"
           d="m 126.44709,120.96914 c 1.63729,-0.0286 3.29734,-0.14962 4.89984,0.3489 0.91981,0.16907 1.84982,0.26017 2.76152,0.4908"
           id="path4114"
           inkscape:connector-curvature="0" />
        <path
           style="fill:none;stroke:#000000;stroke-width:0.53616703;stroke-linecap:round;stroke-linejoin:round;stroke-miterlimit:4;stroke-dasharray:none;stroke-opacity:1"
           d="m 120.50823,117.02511 c 0.70583,-0.13756 0.87875,-0.13396 1.58012,-0.21871"
           id="path18485"
           sodipodi:nodetypes="cc"
           inkscape:connector-curvature="0" />
        <path
           sodipodi:nodetypes="cc"
           id="path18489"
           d="m 126.95918,116.63346 c -0.71799,-0.0183 -0.8903,0.0138 -1.59874,0.0465"
           style="fill:none;stroke:#000000;stroke-width:0.53616697;stroke-linecap:round;stroke-linejoin:round;stroke-miterlimit:4;stroke-dasharray:none;stroke-opacity:1"
           inkscape:connector-curvature="0" />
        <path
           style="fill:none;stroke:#000000;stroke-width:0.53616697;stroke-linecap:round;stroke-linejoin:round;stroke-miterlimit:4;stroke-dasharray:none;stroke-opacity:1"
           d="m 125.57357,122.3585 c -0.78189,0.71086 -1.32808,0.62333 -1.95537,0.29008"
           id="path18491"
           sodipodi:nodetypes="cc"
           inkscape:connector-curvature="0" />
      </g>
      <path
         style="fill:#e6e6e6;fill-rule:evenodd;stroke:#1a1a1a;stroke-width:2.03012657px;stroke-linecap:butt;stroke-linejoin:miter;stroke-opacity:1"
         d="m 647.4991,274.38172 c -0.9569,1.39112 -2.13803,2.58932 -3.34399,3.76907 -1.23618,1.62305 -2.78918,3.1426 -4.88096,3.51306 -2.25791,1.02681 -4.78116,1.0142 -7.20787,1.11648 -2.5048,0.43366 -4.93007,1.45845 -7.52354,1.17212 -4.32043,-0.0393 -8.64712,0.0816 -12.96337,-0.0659 -2.79196,-0.27294 -5.59066,-0.39628 -8.3963,-0.35923 -2.24991,0.0488 -4.64178,-0.83313 -6.80073,-0.0644 -2.91275,0.71634 0.88263,3.09461 2.22279,3.61036 2.12816,0.58926 4.32168,1.0787 6.54415,1.10613 3.70158,0.33702 7.43418,0.5337 11.1409,0.14231 2.32161,0.13632 4.64296,0.28486 6.91575,0.80208 4.09666,0.0396 8.19929,0.0611 12.29548,-0.005 2.70076,-0.45442 5.4229,-1.05453 7.89301,-2.24903 1.50329,-1.09419 3.25157,-1.78267 4.54019,-3.17745 1.75268,-1.45563 3.68106,-3.42419 3.132,-5.93096 0.26205,-2.19456 -1.65353,-3.81038 -1.76048,-5.89657 -0.89652,0.39362 -1.41729,1.64146 -1.80703,2.51677 z"
         id="path4142"
         inkscape:connector-curvature="0" />
    </g>
  </g>
</svg>
