<?xml version="1.0" encoding="UTF-8" standalone="no"?>
<!-- Created with Inkscape (http://www.inkscape.org/) -->

<svg
   xmlns:dc="http://purl.org/dc/elements/1.1/"
   xmlns:cc="http://creativecommons.org/ns#"
   xmlns:rdf="http://www.w3.org/1999/02/22-rdf-syntax-ns#"
   xmlns:svg="http://www.w3.org/2000/svg"
   xmlns="http://www.w3.org/2000/svg"
   xmlns:xlink="http://www.w3.org/1999/xlink"
   xmlns:sodipodi="http://sodipodi.sourceforge.net/DTD/sodipodi-0.dtd"
   xmlns:inkscape="http://www.inkscape.org/namespaces/inkscape"
   width="523.15753"
   height="291.6727"
   id="svg4664"
   version="1.1"
   inkscape:version="0.48.2 r9819"
   sodipodi:docname="cloudy.svg">
  <defs
     id="defs4666">
    <filter
       color-interpolation-filters="sRGB"
       inkscape:collect="always"
       id="filter6960"
       x="-0.15000001"
       width="1.3"
       y="-0.22499999"
       height="1.45">
      <feGaussianBlur
         inkscape:collect="always"
         stdDeviation="3.4821429"
         id="feGaussianBlur6962" />
    </filter>
    <filter
       color-interpolation-filters="sRGB"
       inkscape:collect="always"
       id="filter7280">
      <feGaussianBlur
         inkscape:collect="always"
         stdDeviation="0.74670455"
         id="feGaussianBlur7282" />
    </filter>
    <filter
       color-interpolation-filters="sRGB"
       inkscape:collect="always"
       id="filter4044">
      <feGaussianBlur
         inkscape:collect="always"
         stdDeviation="2.5279315"
         id="feGaussianBlur4046" />
    </filter>
    <filter
       color-interpolation-filters="sRGB"
       inkscape:collect="always"
       id="filter4032">
      <feGaussianBlur
         inkscape:collect="always"
         stdDeviation="4.0714287"
         id="feGaussianBlur4034" />
    </filter>
    <filter
       color-interpolation-filters="sRGB"
       inkscape:collect="always"
       id="filter4056">
      <feGaussianBlur
         inkscape:collect="always"
         stdDeviation="2.4428572"
         id="feGaussianBlur4058" />
    </filter>
    <radialGradient
       inkscape:collect="always"
       xlink:href="#linearGradient7286"
       id="radialGradient7292"
       cx="-163.64471"
       cy="787.70221"
       fx="-163.64471"
       fy="787.70221"
       r="185.86807"
       gradientTransform="matrix(1.6875028,-0.00797262,0.00534631,0.92933143,501.8686,71.513396)"
       gradientUnits="userSpaceOnUse" />
    <linearGradient
       inkscape:collect="always"
       id="linearGradient7286">
      <stop
         style="stop-color:#999999;stop-opacity:1"
         offset="0"
         id="stop7288" />
      <stop
         style="stop-color:#cccccc;stop-opacity:0;"
         offset="1"
         id="stop7290" />
    </linearGradient>
    <radialGradient
       r="185.86807"
       fy="787.70221"
       fx="-163.64471"
       cy="787.70221"
       cx="-163.64471"
       gradientTransform="matrix(1.6875028,-0.00797262,0.00534631,0.92933143,1086.2253,557.57283)"
       gradientUnits="userSpaceOnUse"
       id="radialGradient4662"
       xlink:href="#linearGradient7286"
       inkscape:collect="always" />
    <radialGradient
       inkscape:collect="always"
       xlink:href="#linearGradient7286"
       id="radialGradient4784"
       gradientUnits="userSpaceOnUse"
       gradientTransform="matrix(1.6875028,-0.00797262,0.00534631,0.92933143,1086.2253,557.57283)"
       cx="-163.64471"
       cy="787.70221"
       fx="-163.64471"
       fy="787.70221"
       r="185.86807" />
    <filter
       inkscape:collect="always"
       id="filter3796">
      <feGaussianBlur
         inkscape:collect="always"
         stdDeviation="0.34937675"
         id="feGaussianBlur3798" />
    </filter>
    <filter
       inkscape:collect="always"
       id="filter3804">
      <feGaussianBlur
         inkscape:collect="always"
         stdDeviation="0.34937675"
         id="feGaussianBlur3806" />
    </filter>
  </defs>
  <sodipodi:namedview
     id="base"
     pagecolor="#ffffff"
     bordercolor="#666666"
     borderopacity="1.0"
     inkscape:pageopacity="0.0"
     inkscape:pageshadow="2"
     inkscape:zoom="0.7"
     inkscape:cx="93.627859"
     inkscape:cy="89.754483"
     inkscape:document-units="px"
     inkscape:current-layer="g4761"
     showgrid="false"
     fit-margin-top="5"
     fit-margin-left="5"
     fit-margin-right="5"
     fit-margin-bottom="5"
     inkscape:window-width="1440"
     inkscape:window-height="876"
     inkscape:window-x="0"
     inkscape:window-y="24"
     inkscape:window-maximized="1" />
  <metadata
     id="metadata4669">
    <rdf:RDF>
      <cc:Work
         rdf:about="">
        <dc:format>image/svg+xml</dc:format>
        <dc:type
           rdf:resource="http://purl.org/dc/dcmitype/StillImage" />
        <dc:title />
      </cc:Work>
    </rdf:RDF>
  </metadata>
  <g
     inkscape:label="Layer 1"
     inkscape:groupmode="layer"
     id="layer1"
     transform="translate(-138.42126,-312.23687)">
    <g
       id="g4761"
       transform="translate(-414.28571,-834.28571)">
      <rect
         ry="23.331709"
         y="1151.5226"
         x="557.70697"
         height="278.78268"
         width="513.15753"
         id="rect7284"
         style="fill:url(#radialGradient4784);fill-opacity:1;stroke:none;display:inline" />
      <g
         style="opacity:0.75;display:inline"
         id="g6940"
         transform="matrix(0.66340981,0,0,0.66340981,559.54314,1090.4377)">
        <path
           sodipodi:type="star"
           style="opacity:0.5;fill:#ffde0a;fill-opacity:1;stroke:#ffeeaa;stroke-width:3.23643804;stroke-linecap:round;stroke-linejoin:round;stroke-miterlimit:4;stroke-opacity:1;stroke-dasharray:none;stroke-dashoffset:0;filter:url(#filter4044)"
           id="path6942"
           sodipodi:sides="13"
           sodipodi:cx="255.71429"
           sodipodi:cy="218.07648"
           sodipodi:r1="127.58351"
           sodipodi:r2="63.791756"
           sodipodi:arg1="1.0471976"
           sodipodi:arg2="1.2888586"
           inkscape:flatsided="false"
           inkscape:rounded="0"
           inkscape:randomized="0"
           d="m 319.50604,328.56704 -46.04377,-49.21742 -12.61071,66.2069 -17.89726,-64.97748 -41.93411,52.76281 14.3493,-65.85197 -61.65091,27.2314 43.30861,-51.64057 -67.24423,-4.5384 62.34644,-25.59894 -57.43271,-35.26851 67.10145,6.3071 -34.46405,-57.91903 56.48433,36.76826 -3.60008,-67.300988 32.92732,58.806258 28.08862,-61.265113 1.82707,67.372443 53.34255,-41.19413 -29.69175,60.50442 66.37635,-11.68607 -54.40854,39.77555 64.20413,20.49913 -66.66099,9.9346 47.32351,47.98822 -63.64222,-22.18226 z"
           inkscape:transform-center-x="0.28966782"
           inkscape:transform-center-y="-1.4488977"
           transform="matrix(1.0598565,0.28398768,-0.28398973,1.0598641,154.39266,-21.493328)" />
        <path
           transform="matrix(1.2359222,0,0,1.2359311,47.477436,12.733844)"
           inkscape:transform-center-y="1.5294105"
           inkscape:transform-center-x="-0.76533548"
           d="m 319.50604,328.56704 -44.62393,-44.31557 -14.03055,61.30505 -18.91806,-59.97727 -40.91331,47.7626 11.12172,-61.89889 -58.42333,23.27832 38.61364,-49.64023 -62.54926,-6.53874 57.25964,-26.00959 -52.34591,-34.85786 62.78816,3.57954 -30.15076,-55.19147 53.93266,32.34864 -1.04841,-62.881368 32.72183,53.707058 28.29411,-56.165913 4.01483,62.761833 51.15479,-36.58352 -25.61192,57.43863 62.29652,-8.62028 -49.37128,38.95692 59.16687,21.31776 -61.82029,11.55066 42.48281,46.37216 -60.10701,-18.50172 z"
           inkscape:randomized="0"
           inkscape:rounded="0"
           inkscape:flatsided="false"
           sodipodi:arg2="1.2888586"
           sodipodi:arg1="1.0471976"
           sodipodi:r2="68.895096"
           sodipodi:r1="127.58351"
           sodipodi:cy="218.07648"
           sodipodi:cx="255.71429"
           sodipodi:sides="13"
           id="path6944"
           style="opacity:0.75;fill:#ffdd55;fill-opacity:1;stroke:#ffeeaa;stroke-width:3.23643804;stroke-linecap:round;stroke-linejoin:round;stroke-miterlimit:4;stroke-opacity:1;stroke-dasharray:none;stroke-dashoffset:0;filter:url(#filter4044)"
           sodipodi:type="star" />
        <path
           transform="translate(-4.2857143,51.428571)"
           d="m 450.00002,232.36218 c 0,44.97176 -36.45682,81.42858 -81.42858,81.42858 -44.97176,0 -81.42857,-36.45682 -81.42857,-81.42858 0,-44.97176 36.45681,-81.42857 81.42857,-81.42857 44.97176,0 81.42858,36.45681 81.42858,81.42857 z"
           sodipodi:ry="81.428574"
           sodipodi:rx="81.428574"
           sodipodi:cy="232.36218"
           sodipodi:cx="368.57144"
           id="path6946"
           style="fill:#ffdd55;fill-opacity:1;stroke:#ffeeaa;stroke-width:4;filter:url(#filter4032)"
           sodipodi:type="arc" />
        <path
           sodipodi:type="arc"
           style="opacity:0.75;fill:#ffdd55;fill-opacity:1;stroke:#fff6d5;stroke-width:3.48979592;filter:url(#filter4056)"
           id="path6948"
           sodipodi:cx="368.57144"
           sodipodi:cy="232.36218"
           sodipodi:rx="81.428574"
           sodipodi:ry="81.428574"
           d="m 450.00002,232.36218 c 0,44.97176 -36.45682,81.42858 -81.42858,81.42858 -44.97176,0 -81.42857,-36.45682 -81.42857,-81.42858 0,-44.97176 36.45681,-81.42857 81.42857,-81.42857 44.97176,0 81.42858,36.45681 81.42858,81.42857 z"
           transform="matrix(0.85964913,0,0,0.85964913,47.443609,84.040806)" />
      </g>
      <g
         style="display:inline;filter:url(#filter7280)"
         transform="translate(288.35672,458.05943)"
         id="g7235">
        <path
           sodipodi:nodetypes="sssss"
           inkscape:connector-curvature="0"
           id="path7079"
           d="m 504.08385,958.07028 c 0,7.91918 2.80865,14.33895 6.27329,14.33895 3.46465,0 6.27329,-6.41977 6.27329,-14.33895 0,-7.91919 -2.80864,-20.61225 -6.27329,-20.61225 -3.46464,0 -6.27329,12.69306 -6.27329,20.61225 z"
           style="opacity:0.75;fill:#d7e3f4;fill-opacity:1;stroke:#5f8dd3;stroke-width:1.88198757" />
        <path
           sodipodi:nodetypes="sssss"
           inkscape:connector-curvature="0"
           id="path7081"
           d="m 600.2267,937.64171 c 0,7.91918 2.80865,14.33895 6.27329,14.33895 3.46465,0 6.27329,-6.41977 6.27329,-14.33895 0,-7.91919 -2.80864,-20.61225 -6.27329,-20.61225 -3.46464,0 -6.27329,12.69306 -6.27329,20.61225 z"
           style="opacity:0.75;fill:#d7e3f4;fill-opacity:1;stroke:#5f8dd3;stroke-width:1.88198757" />
        <path
           style="opacity:0.75;fill:#d7e3f4;fill-opacity:1;stroke:#5f8dd3;stroke-width:1.88198757"
           d="m 430.08385,958.07028 c 0,7.91918 2.80865,14.33895 6.27329,14.33895 3.46465,0 6.27329,-6.41977 6.27329,-14.33895 0,-7.91919 -2.80864,-20.61225 -6.27329,-20.61225 -3.46464,0 -6.27329,12.69306 -6.27329,20.61225 z"
           id="path7125"
           inkscape:connector-curvature="0"
           sodipodi:nodetypes="sssss" />
        <path
           style="opacity:0.75;fill:#d7e3f4;fill-opacity:1;stroke:#5f8dd3;stroke-width:1.37103868"
           d="m 553.35843,922.07584 c 0,5.76917 2.04612,10.446 4.57013,10.446 2.52402,0 4.57013,-4.67683 4.57013,-10.446 0,-5.76918 -2.04611,-15.01614 -4.57013,-15.01614 -2.52401,0 -4.57013,9.24696 -4.57013,15.01614 z"
           id="path7083"
           inkscape:connector-curvature="0"
           sodipodi:nodetypes="sssss" />
        <path
           style="opacity:0.75;fill:#d7e3f4;fill-opacity:1;stroke:#5f8dd3;stroke-width:1.88198757"
           d="m 520.2267,937.64171 c 0,7.91918 2.80865,14.33895 6.27329,14.33895 3.46465,0 6.27329,-6.41977 6.27329,-14.33895 0,-7.91919 -2.80864,-20.61225 -6.27329,-20.61225 -3.46464,0 -6.27329,12.69306 -6.27329,20.61225 z"
           id="path7127"
           inkscape:connector-curvature="0"
           sodipodi:nodetypes="sssss" />
        <path
           sodipodi:nodetypes="sssss"
           inkscape:connector-curvature="0"
           id="path7129"
           d="m 473.35843,918.07584 c 0,5.76917 2.04612,10.446 4.57013,10.446 2.52402,0 4.57013,-4.67683 4.57013,-10.446 0,-5.76918 -2.04611,-15.01614 -4.57013,-15.01614 -2.52401,0 -4.57013,9.24696 -4.57013,15.01614 z"
           style="opacity:0.75;fill:#d7e3f4;fill-opacity:1;stroke:#5f8dd3;stroke-width:1.37103868" />
        <path
           style="opacity:0.75;fill:#d7e3f4;fill-opacity:1;stroke:#5f8dd3;stroke-width:1.88198757"
           d="m 490.13042,954.07028 c 0,7.91918 -2.80865,14.33895 -6.27329,14.33895 -3.46465,0 -6.27329,-6.41977 -6.27329,-14.33895 0,-7.91919 2.80864,-20.61225 6.27329,-20.61225 3.46464,0 6.27329,12.69306 6.27329,20.61225 z"
           id="path6983"
           inkscape:connector-curvature="0"
           sodipodi:nodetypes="sssss" />
        <path
           sodipodi:nodetypes="sssss"
           inkscape:connector-curvature="0"
           id="path6985"
           d="m 592.13042,954.07028 c 0,7.91918 -2.80865,14.33895 -6.27329,14.33895 -3.46465,0 -6.27329,-6.41977 -6.27329,-14.33895 0,-7.91919 2.80864,-20.61225 6.27329,-20.61225 3.46464,0 6.27329,12.69306 6.27329,20.61225 z"
           style="opacity:0.75;fill:#d7e3f4;fill-opacity:1;stroke:#5f8dd3;stroke-width:1.88198757" />
        <path
           style="opacity:0.75;fill:#d7e3f4;fill-opacity:1;stroke:#5f8dd3;stroke-width:1.88198757"
           d="m 401.98757,927.64171 c 0,7.91918 -2.80865,14.33895 -6.27329,14.33895 -3.46465,0 -6.27329,-6.41977 -6.27329,-14.33895 0,-7.91919 2.80864,-20.61225 6.27329,-20.61225 3.46464,0 6.27329,12.69306 6.27329,20.61225 z"
           id="path6978"
           inkscape:connector-curvature="0"
           sodipodi:nodetypes="sssss" />
        <path
           sodipodi:nodetypes="sssss"
           inkscape:connector-curvature="0"
           id="path6981"
           d="m 448.85584,912.07584 c 0,5.76917 -2.04612,10.446 -4.57013,10.446 -2.52402,0 -4.57013,-4.67683 -4.57013,-10.446 0,-5.76918 2.04611,-15.01614 4.57013,-15.01614 2.52401,0 4.57013,9.24696 4.57013,15.01614 z"
           style="opacity:0.75;fill:#d7e3f4;fill-opacity:1;stroke:#5f8dd3;stroke-width:1.37103868" />
        <path
           style="opacity:0.75;fill:#d7e3f4;fill-opacity:1;stroke:#5f8dd3;stroke-width:1.13664579"
           d="m 549.07452,932.11375 c 0,4.78287 -1.69632,8.66016 -3.78882,8.66016 -2.09251,0 -3.78882,-3.87729 -3.78882,-8.66016 0,-4.78287 1.69631,-12.44898 3.78882,-12.44898 2.0925,0 3.78882,7.66611 3.78882,12.44898 z"
           id="path6987"
           inkscape:connector-curvature="0"
           sodipodi:nodetypes="sssss" />
      </g>
      <path
         transform="matrix(-1.6189342,0,0,1.613162,1064.2501,1140.9565)"
         id="path29532"
         d="m 209.80613,93.555312 c 5.06714,0 9.491,2.098126 11.83057,5.194942 0.55404,-0.05181 1.10438,-0.07529 1.67695,-0.07529 4.87948,0 9.15531,1.928446 11.55491,4.837316 0.80724,-0.1126 1.63063,-0.1694 2.48098,-0.1694 7.50687,0 13.5994,4.58721 13.5994,10.23931 0,5.11884 -4.98974,9.35204 -11.50896,10.10755 0.0402,0.32023 0.0689,0.65066 0.0689,0.97876 0,5.6521 -6.09254,10.23931 -13.59941,10.23931 -4.19792,0 -7.93403,-1.43614 -10.42928,-3.68916 -2.48172,2.48813 -6.41788,4.10325 -10.86575,4.10325 -3.62597,0 -6.93374,-1.06098 -9.37257,-2.80452 -2.43749,1.73792 -5.7302,2.80452 -9.34959,2.80452 -5.88417,0 -10.87917,-2.81675 -12.77242,-6.75719 -1.92244,0.78365 -4.11688,1.22344 -6.45513,1.22344 -7.50687,0 -13.59942,-4.58721 -13.59942,-10.2393 0,-5.6521 6.09255,-10.23931 13.59942,-10.23931 0.2188,0 0.42694,0.0111 0.64322,0.0188 1.08163,-4.83932 6.65929,-8.52648 13.39266,-8.52648 0.21116,0 0.41143,0.0116 0.62025,0.0188 2.146,-3.531457 6.88964,-5.985477 12.38188,-5.985476 2.52133,0 4.86664,0.529005 6.8916,1.430492 2.42382,-1.683559 5.6566,-2.710405 9.21177,-2.710405 z"
         style="fill:#ffffff;fill-opacity:1;fill-rule:nonzero;stroke:#333333;stroke-width:2.08630418999999989;stroke-miterlimit:4;stroke-opacity:1;stroke-dasharray:none;display:inline;filter:url(#filter3796)"
         inkscape:connector-curvature="0" />
      <path
         transform="translate(516.35671,390.05943)"
         d="m 307.14285,950.93359 c 0,10.25672 -12.47207,18.57143 -27.85714,18.57143 -15.38508,0 -27.85715,-8.31471 -27.85715,-18.57143 0,-10.25671 12.47207,-18.57142 27.85715,-18.57142 15.38507,0 27.85714,8.31471 27.85714,18.57142 z"
         sodipodi:ry="18.571428"
         sodipodi:rx="27.857143"
         sodipodi:cy="950.93359"
         sodipodi:cx="279.28571"
         id="path6950"
         style="opacity:0.2;fill:#000000;fill-opacity:1;stroke:none;display:inline;filter:url(#filter6960)"
         sodipodi:type="arc" />
      <path
         inkscape:connector-curvature="0"
         style="fill:#ffffff;fill-opacity:1;fill-rule:nonzero;stroke:#333333;stroke-width:2.08630418999999989;stroke-miterlimit:4;stroke-opacity:1;stroke-dasharray:none;display:inline;filter:url(#filter3804)"
         d="m 209.80613,93.555312 c 5.06714,0 9.491,2.098126 11.83057,5.194942 0.55404,-0.05181 1.10438,-0.07529 1.67695,-0.07529 4.87948,0 9.15531,1.928446 11.55491,4.837316 0.80724,-0.1126 1.63063,-0.1694 2.48098,-0.1694 7.50687,0 13.5994,4.58721 13.5994,10.23931 0,5.11884 -4.98974,9.35204 -11.50896,10.10755 0.0402,0.32023 0.0689,0.65066 0.0689,0.97876 0,5.6521 -6.09254,10.23931 -13.59941,10.23931 -4.19792,0 -7.93403,-1.43614 -10.42928,-3.68916 -2.48172,2.48813 -6.41788,4.10325 -10.86575,4.10325 -3.62597,0 -6.93374,-1.06098 -9.37257,-2.80452 -2.43749,1.73792 -5.7302,2.80452 -9.34959,2.80452 -5.88417,0 -10.87917,-2.81675 -12.77242,-6.75719 -1.92244,0.78365 -4.11688,1.22344 -6.45513,1.22344 -7.50687,0 -13.59942,-4.58721 -13.59942,-10.2393 0,-5.6521 6.09255,-10.23931 13.59942,-10.23931 0.2188,0 0.42694,0.0111 0.64322,0.0188 1.08163,-4.83932 6.65929,-8.52648 13.39266,-8.52648 0.21116,0 0.41143,0.0116 0.62025,0.0188 2.146,-3.531457 6.88964,-5.985477 12.38188,-5.985476 2.52133,0 4.86664,0.529005 6.8916,1.430492 2.42382,-1.683559 5.6566,-2.710405 9.21177,-2.710405 z"
         id="path6928"
         transform="matrix(1.6189342,0,0,1.613162,530.17762,1159.5279)" />
    </g>
  </g>
</svg>
