<?xml version="1.0" encoding="UTF-8" standalone="no"?>
<!-- Created with Inkscape (http://www.inkscape.org/) -->

<svg
   xmlns:dc="http://purl.org/dc/elements/1.1/"
   xmlns:cc="http://creativecommons.org/ns#"
   xmlns:rdf="http://www.w3.org/1999/02/22-rdf-syntax-ns#"
   xmlns:svg="http://www.w3.org/2000/svg"
   xmlns="http://www.w3.org/2000/svg"
   xmlns:xlink="http://www.w3.org/1999/xlink"
   xmlns:sodipodi="http://sodipodi.sourceforge.net/DTD/sodipodi-0.dtd"
   xmlns:inkscape="http://www.inkscape.org/namespaces/inkscape"
   width="42.084293mm"
   height="43.284737mm"
   viewBox="0 0 42.084293 43.284737"
   version="1.1"
   id="svg2705"
   inkscape:version="0.92.3 (2405546, 2018-03-11)"
   sodipodi:docname="dead_neo.svg">
  <defs
     id="defs2699">
    <linearGradient
       inkscape:collect="always"
       xlink:href="#linearGradient4157"
       id="linearGradient7135"
       x1="181.25"
       y1="278.875"
       x2="211.74998"
       y2="305.625"
       gradientUnits="userSpaceOnUse"
       gradientTransform="translate(1.25,1)" />
    <linearGradient
       inkscape:collect="always"
       id="linearGradient4157">
      <stop
         style="stop-color:#000000;stop-opacity:0"
         offset="0"
         id="stop4159" />
      <stop
         style="stop-color:#000000;stop-opacity:0.4"
         offset="1"
         id="stop4161" />
    </linearGradient>
    <linearGradient
       inkscape:collect="always"
       xlink:href="#linearGradient4946"
       id="linearGradient7109"
       gradientUnits="userSpaceOnUse"
       x1="94.443398"
       y1="126.43295"
       x2="155.16528"
       y2="126.43295" />
    <linearGradient
       inkscape:collect="always"
       id="linearGradient4946">
      <stop
         style="stop-color:#ffccaa;stop-opacity:1"
         offset="0"
         id="stop4948" />
      <stop
         id="stop4954"
         offset="0.5265879"
         style="stop-color:#ffccaa;stop-opacity:1" />
      <stop
         style="stop-color:#ffe6d5;stop-opacity:1"
         offset="1"
         id="stop4950" />
    </linearGradient>
    <linearGradient
       inkscape:collect="always"
       xlink:href="#linearGradient4157"
       id="linearGradient7111"
       gradientUnits="userSpaceOnUse"
       gradientTransform="matrix(0.9399834,0.5426997,-0.5426997,0.9399834,171.44184,-90.526094)"
       x1="211.63281"
       y1="247.68443"
       x2="226.51173"
       y2="247.68443" />
    <linearGradient
       inkscape:collect="always"
       xlink:href="#linearGradient7127"
       id="linearGradient7125"
       x1="188"
       y1="324"
       x2="208.62498"
       y2="342.75"
       gradientUnits="userSpaceOnUse" />
    <linearGradient
       id="linearGradient7127"
       inkscape:collect="always">
      <stop
         id="stop7129"
         offset="0"
         style="stop-color:#000000;stop-opacity:0" />
      <stop
         id="stop7131"
         offset="1"
         style="stop-color:#000000;stop-opacity:1" />
    </linearGradient>
  </defs>
  <sodipodi:namedview
     id="base"
     pagecolor="#ffffff"
     bordercolor="#666666"
     borderopacity="1.0"
     inkscape:pageopacity="0.0"
     inkscape:pageshadow="2"
     inkscape:zoom="2.8"
     inkscape:cx="44.815605"
     inkscape:cy="89.117604"
     inkscape:document-units="mm"
     inkscape:current-layer="layer1"
     showgrid="false"
     fit-margin-top="0"
     fit-margin-left="0"
     fit-margin-right="0"
     fit-margin-bottom="0"
     inkscape:window-width="1920"
     inkscape:window-height="1172"
     inkscape:window-x="1600"
     inkscape:window-y="0"
     inkscape:window-maximized="1" />
  <metadata
     id="metadata2702">
    <rdf:RDF>
      <cc:Work
         rdf:about="">
        <dc:format>image/svg+xml</dc:format>
        <dc:type
           rdf:resource="http://purl.org/dc/dcmitype/StillImage" />
        <dc:title></dc:title>
      </cc:Work>
    </rdf:RDF>
  </metadata>
  <g
     inkscape:label="Layer 1"
     inkscape:groupmode="layer"
     id="layer1"
     transform="translate(-37.519996,-215.23377)">
    <g
       transform="matrix(0.26458333,0,0,0.26458333,12.228977,162.79172)"
       style="display:inline"
       id="g8072"
       clip-path="none"
       mask="none">
      <g
         id="g7146">
        <ellipse
           transform="matrix(0.48959312,-0.87195102,0.86403873,0.50342534,0,0)"
           id="path7137"
           style="opacity:1;fill:#333333;fill-opacity:1;fill-rule:nonzero;stroke:#000000;stroke-width:2.00012684;stroke-linecap:round;stroke-linejoin:round;stroke-miterlimit:4;stroke-dasharray:none;stroke-dashoffset:0;stroke-opacity:1"
           cx="-210.04401"
           cy="291.5491"
           rx="19.761551"
           ry="26.1698" />
        <ellipse
           style="opacity:1;fill:#4d4d4d;fill-opacity:1;fill-rule:nonzero;stroke:#000000;stroke-width:1.73807502;stroke-linecap:round;stroke-linejoin:round;stroke-miterlimit:4;stroke-dasharray:none;stroke-dashoffset:0;stroke-opacity:1"
           id="path7105"
           transform="matrix(0.6877731,-0.8312,0.9348143,0.7954499,-207.48676,190.30456)"
           cx="167.75"
           cy="301.25"
           rx="45.25"
           ry="30.25" />
        <path
           style="fill:url(#linearGradient7135);fill-rule:evenodd;stroke:none;stroke-width:1px;stroke-linecap:butt;stroke-linejoin:miter;stroke-opacity:1"
           d="m 212.12499,266 -34.03919,45.62487 -39.4608,34.50013 4.25,3 c 30.26357,-23.71622 56.89461,-52.18268 82.87499,-81.5 z"
           id="path7133"
           sodipodi:nodetypes="cccccc"
           inkscape:connector-curvature="0" />
      </g>
      <g
         transform="translate(0,-14)"
         id="g7079">
        <ellipse
           style="display:inline;fill:url(#linearGradient7109);fill-opacity:1;fill-rule:nonzero;stroke:#000000;stroke-width:1.87213981;stroke-linecap:round;stroke-linejoin:round;stroke-miterlimit:4;stroke-dasharray:none;stroke-dashoffset:0;stroke-opacity:1"
           id="path14573"
           transform="matrix(-0.9263143,-0.5348078,-0.5334894,0.9240308,405.12258,198.70192)"
           cx="124.80434"
           cy="126.43295"
           rx="29.344931"
           ry="29.698484" />
        <g
           id="g4112"
           transform="matrix(0.9399834,0.5426997,-0.5426997,0.9399834,168.27783,-90.472867)">
          <path
             sodipodi:nodetypes="cc"
             id="path14581"
             d="m 191.83442,240.53743 c 1.81646,-1.42812 3.76868,-1.15957 5.78911,-0.0383"
             style="opacity:0.35;fill:none;fill-rule:evenodd;stroke:#000000;stroke-width:0.92131978px;stroke-linecap:round;stroke-linejoin:round;stroke-opacity:1"
             inkscape:connector-curvature="0" />
          <g
             transform="matrix(1.2268303,0,0,1.2268303,-29.493442,65.675757)"
             id="g14583">
            <path
               style="opacity:0.34000017;fill:#000000;fill-opacity:1;fill-rule:nonzero;stroke:none;stroke-width:1;stroke-linecap:round;stroke-linejoin:round;stroke-miterlimit:4;stroke-dashoffset:0;stroke-opacity:1"
               d="m 170.45695,140.2889 c 4.38762,-1.35858 7.70157,-0.5698 11.125,0 v 7.875 c -3.70833,1.7303 -7.41667,1.60201 -11.125,0 z"
               id="path14585"
               sodipodi:nodetypes="ccccc"
               inkscape:connector-curvature="0" />
            <path
               sodipodi:nodetypes="ccccc"
               id="path14587"
               d="m 169.25,138.75 c 4.38762,-1.35858 7.70157,-0.5698 11.125,0 v 7.875 c -3.70833,1.7303 -7.41667,1.60201 -11.125,0 z"
               style="fill:#1a1a1a;fill-opacity:1;fill-rule:nonzero;stroke:#000000;stroke-width:0.75097579;stroke-linecap:round;stroke-linejoin:round;stroke-miterlimit:4;stroke-dashoffset:0;stroke-opacity:1"
               inkscape:connector-curvature="0" />
            <path
               sodipodi:nodetypes="ccccc"
               id="path14589"
               d="m 169.76014,138.93751 -0.0414,0.89583 c 3.66558,-0.86646 6.77552,-0.28822 10.0573,-0.15678 l 0.0365,-0.5828 c -2.98639,-0.29034 -5.07139,-1.17005 -10.05236,-0.15625 z"
               style="fill:#595959;fill-opacity:1;fill-rule:evenodd;stroke:none;stroke-width:1px;stroke-linecap:butt;stroke-linejoin:miter;stroke-opacity:1"
               inkscape:connector-curvature="0" />
            <path
               sodipodi:nodetypes="cccc"
               id="path14591"
               d="m 174.96875,139.15626 2.70312,5.03125 -4.92187,-4.96875 z"
               style="fill:#595959;fill-opacity:1;fill-rule:evenodd;stroke:none;stroke-width:1px;stroke-linecap:butt;stroke-linejoin:miter;stroke-opacity:1"
               inkscape:connector-curvature="0" />
            <path
               style="fill:#595959;fill-opacity:1;fill-rule:evenodd;stroke:none;stroke-width:1px;stroke-linecap:butt;stroke-linejoin:miter;stroke-opacity:1"
               d="m 169.73438,139.51564 3.92187,5.64062 -3.98438,-4.32812 z"
               id="path14593"
               sodipodi:nodetypes="cccc"
               inkscape:connector-curvature="0" />
          </g>
          <g
             id="g14595"
             transform="matrix(1.2268303,0,0,1.2268303,-9.8641534,65.675757)">
            <path
               sodipodi:nodetypes="ccccc"
               id="path14597"
               d="m 170.45695,140.2889 c 4.38762,-1.35858 7.70157,-0.5698 11.125,0 v 7.875 c -3.70833,1.7303 -7.41667,1.60201 -11.125,0 z"
               style="opacity:0.34000017;fill:#000000;fill-opacity:1;fill-rule:nonzero;stroke:none;stroke-width:1;stroke-linecap:round;stroke-linejoin:round;stroke-miterlimit:4;stroke-dashoffset:0;stroke-opacity:1"
               inkscape:connector-curvature="0" />
            <path
               style="fill:#1a1a1a;fill-opacity:1;fill-rule:nonzero;stroke:#000000;stroke-width:0.75097579;stroke-linecap:round;stroke-linejoin:round;stroke-miterlimit:4;stroke-dashoffset:0;stroke-opacity:1"
               d="m 169.25,138.75 c 4.38762,-1.35858 7.70157,-0.5698 11.125,0 v 7.875 c -3.70833,1.7303 -7.41667,1.60201 -11.125,0 z"
               id="path14599"
               sodipodi:nodetypes="ccccc"
               inkscape:connector-curvature="0" />
            <path
               style="fill:#595959;fill-opacity:1;fill-rule:evenodd;stroke:none;stroke-width:1px;stroke-linecap:butt;stroke-linejoin:miter;stroke-opacity:1"
               d="m 169.76014,138.93751 -0.0414,0.89583 c 3.66558,-0.86646 6.77552,-0.28822 10.0573,-0.15678 l 0.0365,-0.5828 c -2.98639,-0.29034 -5.07139,-1.17005 -10.05236,-0.15625 z"
               id="path14601"
               sodipodi:nodetypes="ccccc"
               inkscape:connector-curvature="0" />
            <path
               style="fill:#595959;fill-opacity:1;fill-rule:evenodd;stroke:none;stroke-width:1px;stroke-linecap:butt;stroke-linejoin:miter;stroke-opacity:1"
               d="m 174.96875,139.15626 2.70312,5.03125 -4.92187,-4.96875 z"
               id="path14603"
               sodipodi:nodetypes="cccc"
               inkscape:connector-curvature="0" />
            <path
               sodipodi:nodetypes="cccc"
               id="path14605"
               d="m 169.73438,139.51564 3.92187,5.64062 -3.98438,-4.32812 z"
               style="fill:#595959;fill-opacity:1;fill-rule:evenodd;stroke:none;stroke-width:1px;stroke-linecap:butt;stroke-linejoin:miter;stroke-opacity:1"
               inkscape:connector-curvature="0" />
          </g>
          <path
             style="fill:none;fill-rule:evenodd;stroke:#000000;stroke-width:1.3819797;stroke-linecap:round;stroke-linejoin:round;stroke-opacity:1"
             d="m 192.14112,239.11891 c 2.25335,-0.87834 4.13118,-0.48518 5.13736,-0.0384"
             id="path14607"
             sodipodi:nodetypes="cc"
             inkscape:connector-curvature="0" />
          <path
             sodipodi:nodetypes="cc"
             id="path14609"
             d="m 212.15379,239.19558 c 1.61196,-1.42812 12.08557,-2.30972 13.87853,-1.18849"
             style="fill:none;fill-rule:evenodd;stroke:#000000;stroke-width:1.84263957;stroke-linecap:round;stroke-linejoin:round;stroke-opacity:1"
             inkscape:connector-curvature="0" />
          <path
             style="fill:none;fill-rule:evenodd;stroke:#000000;stroke-width:1.84263957;stroke-linecap:round;stroke-linejoin:round;stroke-opacity:1"
             d="m 177.26581,239.34894 c -1.81878,-0.80765 -4.5953,-0.20559 -5.90412,-0.53674"
             id="path14611"
             sodipodi:nodetypes="cc"
             inkscape:connector-curvature="0" />
        </g>
        <path
           style="display:inline;fill:url(#linearGradient7111);fill-opacity:1;fill-rule:nonzero;stroke:none;stroke-width:2.03201914;stroke-linecap:round;stroke-linejoin:round;stroke-miterlimit:4;stroke-dashoffset:0;stroke-opacity:1"
           d="m 249.80198,235.68348 c 5.6941,11.07775 4.29566,25.95998 -5.06749,34.78031 -5.51433,6.05872 -13.55268,8.93842 -21.535,8.77547 17.56349,-10.26911 27.73595,-21.54194 26.60249,-43.55578 z"
           id="path4152"
           sodipodi:nodetypes="cccc"
           inkscape:connector-curvature="0" />
        <path
           id="path14553"
           d="m 237.99615,215.8611 c -2.15643,-1.15756 -4.15193,-2.71729 -6.58795,-3.2329 -1.75525,-1.03701 -3.73586,0.16637 -5.58472,0.14269 -2.48814,0.14328 -4.77417,1.3527 -7.29601,1.33552 -1.9066,-0.0926 -3.53548,0.76676 -5.06506,1.76949 -1.19174,0.84991 -3.72099,2.62756 -1.48792,3.92693 1.60975,1.19579 3.7323,0.78504 5.47173,1.67645 1.33413,0.89405 3.88109,-0.0979 4.4047,1.66651 0.55689,1.81194 2.66349,1.70887 4.14323,1.35984 1.68777,0.16941 3.92154,-0.749 4.90212,1.17383 0.73928,1.45982 3.93245,0.89154 3.36513,2.88221 -0.57553,0.94544 -1.78239,2.67414 0.28403,2.49829 1.77755,-0.15112 3.15818,0.78864 3.12994,2.6462 0.90792,1.57836 3.1619,1.53456 4.74945,1.69389 2.01344,0.009 1.27713,3.01799 2.98991,3.7152 1.2647,0.98098 3.16226,0.5248 4.19859,1.88185 1.14192,1.63567 2.84563,0.6501 3.8754,-0.47937 1.31508,-1.10546 1.45544,-3.21387 0.69732,-4.68638 -1.05455,-1.62772 -2.22595,-3.21344 -2.85498,-5.05558 -1.05156,-1.64074 -2.70192,-2.83237 -3.50122,-4.64093 -1.10683,-1.85944 -2.90251,-3.16847 -4.11111,-4.955 -1.85898,-1.82273 -3.73208,-3.63549 -5.72258,-5.31874 z"
           style="fill:#000000;fill-rule:evenodd;stroke:none;stroke-width:1px;stroke-linecap:butt;stroke-linejoin:miter;stroke-opacity:1"
           inkscape:connector-curvature="0" />
        <ellipse
           transform="matrix(1.4683203,0.671769,-0.3978846,0.8411948,132.03065,46.938435)"
           id="path9140"
           style="opacity:1;fill:#000000;fill-opacity:1;fill-rule:nonzero;stroke:none;stroke-width:2;stroke-linecap:round;stroke-linejoin:round;stroke-miterlimit:4;stroke-dasharray:none;stroke-dashoffset:0;stroke-opacity:1"
           cx="102.53048"
           cy="176.28397"
           rx="5.6568542"
           ry="5.3033009" />
        <g
           id="g7075"
           transform="translate(2.75,0.25)">
          <ellipse
             transform="matrix(0.8585786,-1.5757548e-8,1.7274765e-7,1.1649916,-319.30672,-8.8624738)"
             id="path9146"
             style="opacity:1;fill:#d35f5f;fill-opacity:1;fill-rule:nonzero;stroke:#000000;stroke-width:1.49982238;stroke-linecap:round;stroke-linejoin:round;stroke-miterlimit:4;stroke-dasharray:none;stroke-dashoffset:0;stroke-opacity:1"
             cx="618.8952"
             cy="239.57002"
             rx="4.4194174"
             ry="5.3033009" />
          <path
             id="path9148"
             d="m 212.16746,267.92644 -0.0849,5.14712"
             style="opacity:0.75;fill:none;fill-rule:evenodd;stroke:#000000;stroke-width:1px;stroke-linecap:round;stroke-linejoin:round;stroke-opacity:1"
             inkscape:connector-curvature="0" />
        </g>
      </g>
      <path
         inkscape:connector-curvature="0"
         style="fill:#ffccaa;fill-opacity:1;fill-rule:evenodd;stroke:#000000;stroke-width:2;stroke-linecap:round;stroke-linejoin:round;stroke-opacity:1"
         d="m 226.69924,339.95882 -1.28224,2.26959 c -1.06705,4.24578 7.47896,9.20283 3.33447,12.3366 -1.35584,-0.0767 -2.88935,-0.6117 -4.82957,-3.10272 l 0.26181,5.29854 c -0.59094,7.3579 -4.83719,3.28619 -6.23825,-2.73709 -1.07976,3.7608 -1.68889,6.3602 -4.47849,6.77828 -2.23227,-0.31683 -1.50222,-4.62589 -1.15509,-7.50879 -2.83044,3.28663 -6.83367,2.9041 -7.33722,1.10504 -0.27887,-3.78071 2.81971,-6.33402 4.91721,-8.01458 -4.91935,1.78832 -7.45147,-1.79464 -7.67935,-3.65724 1.89684,-4.16086 7.48909,-0.55452 10.92875,-3.12563 l 1.14129,-4.04453 z"
         id="path3359"
         sodipodi:nodetypes="cccccccccccccc" />
      <g
         id="g7139">
        <path
           style="fill:#1a1a1a;fill-opacity:1;fill-rule:nonzero;stroke:#000000;stroke-width:1.99999988;stroke-linecap:round;stroke-linejoin:round;stroke-miterlimit:4;stroke-dashoffset:0;stroke-opacity:1"
           d="m 190.63274,241.4828 1.5292,20.18971 -35.94724,36.34732 -19.84745,52.24737 c -14.7291,7.36695 -26.94387,2.16224 -39.77919,0.0603 11.45669,-25.91473 21.51104,-51.89043 47.93648,-77.15434 14.51134,-14.85374 30.2921,-23.36038 46.1082,-31.69036 z"
           id="rect7113"
           sodipodi:nodetypes="ccccccc"
           inkscape:connector-curvature="0" />
        <path
           sodipodi:nodetypes="ccccccc"
           id="path7116"
           d="m 238.68042,262.40684 -26.02056,9.53248 -32.86883,44.1748 -42.67657,33.57719 c 13.57149,6.61706 28.92859,6.29008 45.52828,1.13078 l 34.89745,-31.25998 c 10.42789,-16.93854 15.94787,-36.94452 21.14023,-57.15527 z"
           style="fill:#1a1a1a;fill-opacity:1;fill-rule:nonzero;stroke:#000000;stroke-width:1.99999988;stroke-linecap:round;stroke-linejoin:round;stroke-miterlimit:4;stroke-dashoffset:0;stroke-opacity:1"
           inkscape:connector-curvature="0" />
        <path
           style="fill:#1a1a1a;fill-opacity:1;fill-rule:nonzero;stroke:#000000;stroke-width:2;stroke-linecap:round;stroke-linejoin:round;stroke-miterlimit:4;stroke-dashoffset:0;stroke-opacity:1"
           d="m 171.9888,269.35876 c -9.03932,6.24759 -13.47579,29.40481 -18.61651,53.03682 l -21.45721,-2.66851 c -11.73643,-23.03992 30.33587,-89.47402 58.43329,-78.0702"
           id="rect7118"
           sodipodi:nodetypes="cccc"
           inkscape:connector-curvature="0" />
        <path
           style="fill:url(#linearGradient7125);fill-rule:evenodd;stroke:none;stroke-width:1px;stroke-linecap:butt;stroke-linejoin:miter;stroke-opacity:1"
           d="M 219.87499,304.75 170,351.125 l 13,0.625 34.62499,-31.75 3.5,-5 z"
           id="path7123"
           sodipodi:nodetypes="cccccc"
           inkscape:connector-curvature="0" />
        <path
           sodipodi:nodetypes="cccc"
           id="path7121"
           d="m 238.64932,262.44288 c 2.91839,12.19412 -6.811,71.31876 -7.66344,82.76611 l -21.58157,-8.51864 c 2.67665,-15.81639 5.03626,-32.2913 5.05467,-49.4368"
           style="fill:#1a1a1a;fill-opacity:1;fill-rule:nonzero;stroke:#000000;stroke-width:2;stroke-linecap:round;stroke-linejoin:round;stroke-miterlimit:4;stroke-dashoffset:0;stroke-opacity:1"
           inkscape:connector-curvature="0" />
      </g>
      <path
         sodipodi:nodetypes="cccccccccccccc"
         id="path7925"
         d="m 148.06597,321.43229 -0.65114,2.52413 c 0.0682,4.37728 9.60599,6.95355 6.4138,11.05321 -1.32949,0.27683 -2.94922,0.15697 -5.46805,-1.74701 l 1.62425,5.05024 c 1.33356,7.26013 -3.82184,4.42617 -6.7341,-1.02925 -0.0696,3.91211 0.0148,6.5806 -2.57154,7.70643 -2.23821,0.27172 -2.6483,-4.07946 -3.05914,-6.95397 -1.88336,3.90721 -5.84919,4.57383 -6.80121,2.9664 -1.24789,-3.57971 1.08427,-6.84799 2.67533,-9.01416 -4.28887,3.0006 -7.66205,0.19509 -8.36424,-1.54506 0.7553,-4.51002 7.09038,-2.47395 9.74739,-5.8477 l 0.0556,-4.2021 z"
         style="fill:#ffccaa;fill-opacity:1;fill-rule:evenodd;stroke:#000000;stroke-width:2;stroke-linecap:round;stroke-linejoin:round;stroke-opacity:1"
         inkscape:connector-curvature="0" />
    </g>
  </g>
</svg>
