<?xml version="1.0" encoding="UTF-8" standalone="no"?>
<!-- Created with Inkscape (http://www.inkscape.org/) -->

<svg
   xmlns:dc="http://purl.org/dc/elements/1.1/"
   xmlns:cc="http://creativecommons.org/ns#"
   xmlns:rdf="http://www.w3.org/1999/02/22-rdf-syntax-ns#"
   xmlns:svg="http://www.w3.org/2000/svg"
   xmlns="http://www.w3.org/2000/svg"
   xmlns:xlink="http://www.w3.org/1999/xlink"
   xmlns:sodipodi="http://sodipodi.sourceforge.net/DTD/sodipodi-0.dtd"
   xmlns:inkscape="http://www.inkscape.org/namespaces/inkscape"
   width="387.7399"
   height="217.86472"
   id="svg3717"
   version="1.1"
   inkscape:version="0.48.2 r9819"
   sodipodi:docname="New document 5">
  <defs
     id="defs3719" />
  <sodipodi:namedview
     id="base"
     pagecolor="#ffffff"
     bordercolor="#666666"
     borderopacity="1.0"
     inkscape:pageopacity="0.0"
     inkscape:pageshadow="2"
     inkscape:zoom="0.35"
     inkscape:cx="187.99717"
     inkscape:cy="70.626621"
     inkscape:document-units="px"
     inkscape:current-layer="layer1"
     showgrid="false"
     fit-margin-top="5"
     fit-margin-left="5"
     fit-margin-right="5"
     fit-margin-bottom="5"
     inkscape:window-width="1440"
     inkscape:window-height="876"
     inkscape:window-x="0"
     inkscape:window-y="24"
     inkscape:window-maximized="1" />
  <metadata
     id="metadata3722">
    <rdf:RDF>
      <cc:Work
         rdf:about="">
        <dc:format>image/svg+xml</dc:format>
        <dc:type
           rdf:resource="http://purl.org/dc/dcmitype/StillImage" />
        <dc:title></dc:title>
      </cc:Work>
    </rdf:RDF>
  </metadata>
  <g
     inkscape:label="Layer 1"
     inkscape:groupmode="layer"
     id="layer1"
     transform="translate(-187.00284,-385.12405)">
    <g
       id="g3813"
       transform="translate(-4.8001964e-6,0)">
      <g
         transform="matrix(0.81210931,0,0,0.81210931,-92.59498,-95.796478)"
         id="g14730"
         style="display:inline;filter:url(#filter10042)">
        <path
           inkscape:connector-curvature="0"
           id="rect14719"
           transform="matrix(1.2313613,0,0,1.2313613,-82.865499,-158.30017)"
           d="m 364.25,678.03125 c -7.8946,16.40708 -19.54513,26.81167 -2,43.21875 l 10.75,6 3.6875,-14.9375 10.5,14.9375 7.5,-16.9375 6.15625,8.9375 88.125,8 0,-49.21875 -124.71875,0 z m 5.34375,5.34375 11.90625,6.8125 -15.875,11.875 3.96875,-18.6875 z"
           style="fill:#000000;fill-opacity:1;stroke:#000000;stroke-width:2.43632793;stroke-linecap:round;stroke-linejoin:round;stroke-miterlimit:4;stroke-opacity:1;stroke-dashoffset:0" />
        <path
           sodipodi:nodetypes="sssss"
           inkscape:connector-curvature="0"
           id="path14721"
           d="m 565.68544,682.64636 c 0,31.24195 -26.23112,56.56854 -58.58885,56.56854 -32.35773,0 -77.72188,-31.87063 -58.58885,-56.56854 15.868,-20.48324 32.90874,-52.04103 58.58885,-56.56854 31.86627,-5.61815 58.58885,25.3266 58.58885,56.56854 z"
           style="fill:#000000;fill-opacity:1;stroke:#000000;stroke-width:3;stroke-linecap:round;stroke-linejoin:round;stroke-miterlimit:4;stroke-opacity:1;stroke-dashoffset:0" />
        <path
           style="fill:#000000;stroke:#000000;stroke-width:1px;stroke-linecap:butt;stroke-linejoin:miter;stroke-opacity:1"
           d="m 519.21841,648.30116 40.4061,-48.48732 -4.04061,80.81221 z"
           id="path14723"
           inkscape:connector-curvature="0" />
        <path
           sodipodi:nodetypes="ccccccccc"
           inkscape:connector-curvature="0"
           id="path14726"
           transform="matrix(1.2313613,0,0,1.2313613,-82.865499,-158.30017)"
           d="m 473.71875,689.46875 -55.55774,40.10389 2.35874,19.17182 -22.76975,-12.46321 2.625,20 -22.125,-8 c 1.06773,14.1854 10.03169,18.97132 28.3125,23.21875 l 86.40625,-48.71875 z"
           style="fill:#000000;fill-opacity:1;stroke:#000000;stroke-width:1.90349209;stroke-linecap:round;stroke-linejoin:round;stroke-miterlimit:4;stroke-opacity:1;stroke-dashoffset:0" />
        <path
           inkscape:connector-curvature="0"
           id="path14728"
           d="m 491.21841,648.30116 40.4061,-48.48732 -4.04061,80.81221 z"
           style="fill:#000000;stroke:#000000;stroke-width:1px;stroke-linecap:butt;stroke-linejoin:miter;stroke-opacity:1" />
        <path
           sodipodi:nodetypes="cccc"
           inkscape:connector-curvature="0"
           id="path14802"
           d="m 499.57773,645.14126 -26.49569,21.26466 38.61985,-0.0462 c 6.83886,-12.40999 -5.69744,-15.31573 -12.12416,-21.21844 z"
           style="fill:#ffffff;stroke:#000000;stroke-width:1.23136127px;stroke-linecap:butt;stroke-linejoin:miter;stroke-opacity:1" />
      </g>
      <g
         transform="matrix(-1,0,0,1,1121.3424,-324.56912)"
         id="g14783"
         style="display:inline;filter:url(#filter10042)">
        <path
           sodipodi:type="arc"
           style="fill:#000000;fill-opacity:1;stroke:#ffffff;stroke-width:7.70998526;stroke-linecap:round;stroke-linejoin:round;stroke-miterlimit:4;stroke-opacity:1;stroke-dasharray:none;stroke-dashoffset:0"
           id="path14742"
           sodipodi:cx="650.53827"
           sodipodi:cy="871.54486"
           sodipodi:rx="74.751289"
           sodipodi:ry="71.720833"
           d="m 725.28956,871.54486 a 74.751289,71.720833 0 1 1 -149.50258,0 74.751289,71.720833 0 1 1 149.50258,0 z"
           transform="matrix(0.25527911,-0.04607545,0.04607545,0.25527911,378.74129,594.44041)" />
        <use
           x="0"
           y="0"
           xlink:href="#path14742"
           id="use14744"
           transform="translate(11.024711,-16.375622)"
           width="744.09448"
           height="1052.3622" />
        <use
           x="0"
           y="0"
           xlink:href="#path14742"
           id="use14748"
           transform="translate(-10.918022,-4.5121167)"
           width="744.09448"
           height="1052.3622" />
        <use
           height="1052.3622"
           width="744.09448"
           transform="translate(8.912573,2.4494695)"
           id="use14746"
           xlink:href="#path14742"
           y="0"
           x="0" />
        <use
           height="1052.3622"
           width="744.09448"
           transform="translate(-12.998726,23.504141)"
           id="use14762"
           xlink:href="#path14742"
           y="0"
           x="0" />
        <path
           transform="translate(-10.101526,-22.223356)"
           style="fill:#000000;fill-opacity:1;stroke:#000000;stroke-width:3;stroke-linecap:round;stroke-linejoin:round;stroke-miterlimit:4;stroke-opacity:1;stroke-dashoffset:0"
           d="m 725.28956,871.54486 c 0,39.61032 -33.46729,71.72083 -74.75129,71.72083 -41.284,0 -74.75129,-32.11051 -74.75129,-71.72083 0,-39.61032 21.34546,-76.77159 62.62946,-76.77159 41.284,0 86.87312,37.16127 86.87312,76.77159 z"
           id="path14738"
           inkscape:connector-curvature="0"
           sodipodi:nodetypes="sssss" />
        <use
           height="1052.3622"
           width="744.09448"
           transform="translate(66.918735,-12.078198)"
           id="use14750"
           xlink:href="#path14742"
           y="0"
           x="0" />
        <use
           x="0"
           y="0"
           xlink:href="#path14742"
           id="use14760"
           transform="translate(114.32111,9.3620058)"
           width="744.09448"
           height="1052.3622" />
        <use
           height="1052.3622"
           width="744.09448"
           transform="translate(88.895411,8.3430089)"
           id="use14754"
           xlink:href="#path14742"
           y="0"
           x="0" />
        <path
           transform="matrix(0.3653853,0,0,0.3653853,345.97313,568.16625)"
           d="m 725.28956,871.54486 a 74.751289,71.720833 0 1 1 -149.50258,0 74.751289,71.720833 0 1 1 149.50258,0 z"
           sodipodi:ry="71.720833"
           sodipodi:rx="74.751289"
           sodipodi:cy="871.54486"
           sodipodi:cx="650.53827"
           id="path14740"
           style="fill:#000000;fill-opacity:1;stroke:#ffffff;stroke-width:3;stroke-linecap:round;stroke-linejoin:round;stroke-miterlimit:4;stroke-opacity:1;stroke-dasharray:none;stroke-dashoffset:0"
           sodipodi:type="arc" />
        <use
           x="0"
           y="0"
           xlink:href="#path14742"
           id="use14756"
           transform="translate(81.790589,-31.020954)"
           width="744.09448"
           height="1052.3622" />
        <use
           height="1052.3622"
           width="744.09448"
           transform="translate(100.98437,-18.931994)"
           id="use14758"
           xlink:href="#path14742"
           y="0"
           x="0" />
        <path
           style="fill:#ffffff;stroke:#000000;stroke-width:1px;stroke-linecap:butt;stroke-linejoin:miter;stroke-opacity:1"
           d="m 626.29458,903.86976 c 26.17331,-4.13127 56.44459,-4.16456 51.51778,-39.39595 z"
           id="path14771"
           inkscape:connector-curvature="0"
           sodipodi:nodetypes="ccc" />
        <path
           sodipodi:type="arc"
           style="fill:#ffffff;fill-opacity:1;stroke:#ffffff;stroke-width:2;stroke-linecap:round;stroke-linejoin:round;stroke-miterlimit:4;stroke-opacity:1;stroke-dasharray:none;stroke-dashoffset:0"
           id="path14773"
           sodipodi:cx="590.93921"
           sodipodi:cy="835.17938"
           sodipodi:rx="10.101525"
           sodipodi:ry="8.0812206"
           d="m 601.04073,835.17938 a 10.101525,8.0812206 0 1 1 -20.20305,0 10.101525,8.0812206 0 1 1 20.20305,0 z" />
        <path
           d="m 601.04073,835.17938 a 10.101525,8.0812206 0 1 1 -20.20305,0 10.101525,8.0812206 0 1 1 20.20305,0 z"
           sodipodi:ry="8.0812206"
           sodipodi:rx="10.101525"
           sodipodi:cy="835.17938"
           sodipodi:cx="590.93921"
           id="path14775"
           style="fill:#ffffff;fill-opacity:1;stroke:#ffffff;stroke-width:2;stroke-linecap:round;stroke-linejoin:round;stroke-miterlimit:4;stroke-opacity:1;stroke-dasharray:none;stroke-dashoffset:0"
           sodipodi:type="arc"
           transform="translate(40.406102,-2.0203051)" />
        <use
           height="1052.3622"
           width="744.09448"
           transform="matrix(0.74274547,0,0,0.74274547,134.51661,172.68149)"
           id="use14779"
           xlink:href="#path14742"
           y="0"
           x="0" />
        <use
           x="0"
           y="0"
           xlink:href="#path14742"
           id="use14781"
           transform="matrix(0.74274547,0,0,0.74274547,256.74507,158.53935)"
           width="744.09448"
           height="1052.3622" />
      </g>
    </g>
  </g>
</svg>
