<?xml version="1.0" encoding="UTF-8" standalone="no"?>
<!-- Created with Inkscape (http://www.inkscape.org/) -->

<svg
   xmlns:dc="http://purl.org/dc/elements/1.1/"
   xmlns:cc="http://creativecommons.org/ns#"
   xmlns:rdf="http://www.w3.org/1999/02/22-rdf-syntax-ns#"
   xmlns:svg="http://www.w3.org/2000/svg"
   xmlns="http://www.w3.org/2000/svg"
   xmlns:xlink="http://www.w3.org/1999/xlink"
   xmlns:sodipodi="http://sodipodi.sourceforge.net/DTD/sodipodi-0.dtd"
   xmlns:inkscape="http://www.inkscape.org/namespaces/inkscape"
   width="8.9159508mm"
   height="9.276948mm"
   viewBox="0 0 8.9159508 9.276948"
   version="1.1"
   id="svg1501"
   inkscape:version="0.92.3 (2405546, 2018-03-11)"
   sodipodi:docname="gas_can.svg">
  <defs
     id="defs1495">
    <linearGradient
       inkscape:collect="always"
       xlink:href="#linearGradient3168"
       id="linearGradient3185"
       gradientUnits="userSpaceOnUse"
       x1="105"
       y1="526"
       x2="134.5"
       y2="503" />
    <linearGradient
       inkscape:collect="always"
       id="linearGradient3168">
      <stop
         style="stop-color:#aa0000;stop-opacity:1"
         offset="0"
         id="stop3170" />
      <stop
         id="stop3176"
         offset="0.29837412"
         style="stop-color:#d40000;stop-opacity:1" />
      <stop
         style="stop-color:#ff0000;stop-opacity:1"
         offset="1"
         id="stop3172" />
    </linearGradient>
  </defs>
  <sodipodi:namedview
     id="base"
     pagecolor="#ffffff"
     bordercolor="#666666"
     borderopacity="1.0"
     inkscape:pageopacity="0.0"
     inkscape:pageshadow="2"
     inkscape:zoom="1.979899"
     inkscape:cx="63.73597"
     inkscape:cy="116.50157"
     inkscape:document-units="mm"
     inkscape:current-layer="layer1"
     showgrid="false"
     fit-margin-top="0"
     fit-margin-left="0"
     fit-margin-right="0"
     fit-margin-bottom="0"
     inkscape:window-width="1920"
     inkscape:window-height="1172"
     inkscape:window-x="1600"
     inkscape:window-y="0"
     inkscape:window-maximized="1" />
  <metadata
     id="metadata1498">
    <rdf:RDF>
      <cc:Work
         rdf:about="">
        <dc:format>image/svg+xml</dc:format>
        <dc:type
           rdf:resource="http://purl.org/dc/dcmitype/StillImage" />
        <dc:title></dc:title>
      </cc:Work>
    </rdf:RDF>
  </metadata>
  <g
     inkscape:label="Layer 1"
     inkscape:groupmode="layer"
     id="layer1"
     transform="translate(49.059165,-301.43296)">
    <g
       id="g3180"
       transform="matrix(-0.21796071,0,0,0.21796071,-19.74345,195.51767)">
      <path
         id="rect3158"
         d="m 109,500 c -2.7616,0 -5,2.2384 -5,5 v 18 c 0,2.7616 2.2384,5 5,5 h 20 c 2.7616,0 5,-2.23837 5,-5 v -18 c 0,-2.7616 -2.2384,-5 -5,-5 z m 10.375,4 h 6.25 c 1.45425,0 2.625,1.17075 2.625,2.625 0,1.45425 -1.17075,2.625 -2.625,2.625 h -6.25 c -1.45425,0 -2.625,-1.17075 -2.625,-2.625 0,-1.45425 1.17075,-2.625 2.625,-2.625 z"
         style="opacity:1;fill:url(#linearGradient3185);fill-opacity:1;fill-rule:nonzero;stroke:#000000;stroke-width:1;stroke-linecap:round;stroke-linejoin:round;stroke-miterlimit:4;stroke-dasharray:none;stroke-dashoffset:0;stroke-opacity:1"
         inkscape:connector-curvature="0" />
      <path
         id="rect3163"
         d="m 96,486.4375 -1.90625,1.59375 8.6875,10.34375 -0.3125,0.28125 c -0.84878,0.71221 -0.93096,1.96374 -0.21875,2.8125 l 1.59375,1.90625 c 0.71221,0.84878 1.96372,0.9622 2.8125,0.25 l 2.125,-1.78125 c 0.84878,-0.71221 0.93096,-1.96371 0.21875,-2.8125 l -1.59375,-1.90625 c -0.6876,-0.81944 -1.87319,-0.94532 -2.71875,-0.3125 z"
         style="opacity:1;fill:#333333;fill-opacity:1;fill-rule:nonzero;stroke:#000000;stroke-width:1;stroke-linecap:round;stroke-linejoin:round;stroke-miterlimit:4;stroke-dasharray:none;stroke-dashoffset:0;stroke-opacity:1"
         inkscape:connector-curvature="0" />
      <rect
         ry="2.5"
         y="514.25"
         x="110.875"
         height="9.5"
         width="16.25"
         id="rect3178"
         style="opacity:1;fill:#d40000;fill-opacity:1;fill-rule:nonzero;stroke:#800000;stroke-width:1;stroke-linecap:round;stroke-linejoin:round;stroke-miterlimit:4;stroke-dasharray:none;stroke-dashoffset:0;stroke-opacity:1" />
    </g>
  </g>
</svg>
