<?xml version="1.0" encoding="UTF-8" standalone="no"?>
<!-- Created with Inkscape (http://www.inkscape.org/) -->

<svg
   xmlns:dc="http://purl.org/dc/elements/1.1/"
   xmlns:cc="http://creativecommons.org/ns#"
   xmlns:rdf="http://www.w3.org/1999/02/22-rdf-syntax-ns#"
   xmlns:svg="http://www.w3.org/2000/svg"
   xmlns="http://www.w3.org/2000/svg"
   xmlns:xlink="http://www.w3.org/1999/xlink"
   xmlns:sodipodi="http://sodipodi.sourceforge.net/DTD/sodipodi-0.dtd"
   xmlns:inkscape="http://www.inkscape.org/namespaces/inkscape"
   width="34.815228mm"
   height="66.185379mm"
   viewBox="0 0 34.815228 66.185379"
   version="1.1"
   id="svg2860"
   inkscape:version="0.92.3 (2405546, 2018-03-11)"
   sodipodi:docname="guy_turned_around.svg">
  <defs
     id="defs2854">
    <linearGradient
       inkscape:collect="always"
       xlink:href="#linearGradient4157-2"
       id="linearGradient16940"
       gradientUnits="userSpaceOnUse"
       gradientTransform="matrix(0.2377297,-8.734313e-4,-0.02128294,0.31232196,-2.5852303,114.78106)"
       x1="211.63281"
       y1="247.68443"
       x2="226.51173"
       y2="247.68443" />
    <linearGradient
       inkscape:collect="always"
       id="linearGradient4157-2">
      <stop
         style="stop-color:#000000;stop-opacity:0"
         offset="0"
         id="stop4159-1" />
      <stop
         style="stop-color:#000000;stop-opacity:0.4"
         offset="1"
         id="stop4161-7-8" />
    </linearGradient>
    <linearGradient
       inkscape:collect="always"
       xlink:href="#linearGradient4157-2"
       id="linearGradient16934"
       gradientUnits="userSpaceOnUse"
       gradientTransform="matrix(-0.21978041,-0.1363669,-0.16805011,0.17768978,141.75725,189.0197)"
       x1="181.25"
       y1="278.875"
       x2="211.74998"
       y2="305.625" />
    <linearGradient
       inkscape:collect="always"
       xlink:href="#linearGradient4157-2"
       id="linearGradient19946"
       gradientUnits="userSpaceOnUse"
       gradientTransform="matrix(-0.21978041,-0.1363669,-0.16805011,0.17768978,139.74439,205.12264)"
       x1="181.25"
       y1="278.875"
       x2="211.74998"
       y2="305.625" />
    <linearGradient
       y2="129.94043"
       x2="149.12186"
       y1="123.44043"
       x1="87.749123"
       gradientTransform="matrix(0.28359692,-0.00724708,0.00775969,0.2648625,2.753622,152.0794)"
       gradientUnits="userSpaceOnUse"
       id="linearGradient28154"
       xlink:href="#linearGradient6177-3"
       inkscape:collect="always" />
    <linearGradient
       id="linearGradient6177-3"
       inkscape:collect="always">
      <stop
         id="stop6179-8"
         offset="0"
         style="stop-color:#28170b;stop-opacity:1" />
      <stop
         style="stop-color:#784421;stop-opacity:1"
         offset="0.24077106"
         id="stop6181-6" />
      <stop
         id="stop6183-6"
         offset="1"
         style="stop-color:#a05a2c;stop-opacity:1" />
    </linearGradient>
  </defs>
  <sodipodi:namedview
     id="base"
     pagecolor="#ffffff"
     bordercolor="#666666"
     borderopacity="1.0"
     inkscape:pageopacity="0.0"
     inkscape:pageshadow="2"
     inkscape:zoom="0.98994949"
     inkscape:cx="71.987306"
     inkscape:cy="127.67877"
     inkscape:document-units="mm"
     inkscape:current-layer="layer1"
     showgrid="false"
     fit-margin-top="0"
     fit-margin-left="0"
     fit-margin-right="0"
     fit-margin-bottom="0"
     inkscape:window-width="1920"
     inkscape:window-height="1172"
     inkscape:window-x="1600"
     inkscape:window-y="0"
     inkscape:window-maximized="1" />
  <metadata
     id="metadata2857">
    <rdf:RDF>
      <cc:Work
         rdf:about="">
        <dc:format>image/svg+xml</dc:format>
        <dc:type
           rdf:resource="http://purl.org/dc/dcmitype/StillImage" />
        <dc:title></dc:title>
      </cc:Work>
    </rdf:RDF>
  </metadata>
  <g
     inkscape:label="Layer 1"
     inkscape:groupmode="layer"
     id="layer1"
     transform="translate(-19.812628,-181.35738)">
    <g
       id="g3524">
      <g
         id="g16517"
         transform="matrix(0.27835484,-0.00739787,0.00901172,0.33907798,-94.026751,131.99305)">
        <ellipse
           transform="rotate(15,510.44271,256.93881)"
           id="path16513"
           style="fill:#ffccaa;fill-opacity:1;stroke:#000000;stroke-width:1.8120892;stroke-linecap:round;stroke-linejoin:round;stroke-miterlimit:4;stroke-dasharray:none;stroke-opacity:1"
           cx="507.79105"
           cy="255.92188"
           rx="14.584077"
           ry="9.4575529" />
        <ellipse
           style="opacity:0.2;fill:#000000;fill-opacity:1;stroke:none"
           id="path16515"
           transform="matrix(0.69726896,0.03669372,-0.18683266,0.13694284,201.86971,210.07609)"
           cx="507.79105"
           cy="255.92188"
           rx="14.584077"
           ry="9.4575529" />
      </g>
      <g
         transform="matrix(-0.27835484,0.00739787,0.00901172,0.33907798,164.36704,125.12569)"
         id="g16521">
        <ellipse
           style="fill:#ffccaa;fill-opacity:1;stroke:#000000;stroke-width:1.8120892;stroke-linecap:round;stroke-linejoin:round;stroke-miterlimit:4;stroke-dasharray:none;stroke-opacity:1"
           id="path16523"
           transform="rotate(15,510.44271,256.93881)"
           cx="507.79105"
           cy="255.92188"
           rx="14.584077"
           ry="9.4575529" />
        <ellipse
           transform="matrix(0.69726896,0.03669372,-0.18683266,0.13694284,201.86971,210.07609)"
           id="path16525"
           style="opacity:0.2;fill:#000000;fill-opacity:1;stroke:none"
           cx="507.79105"
           cy="255.92188"
           rx="14.584077"
           ry="9.4575529" />
      </g>
      <path
         inkscape:connector-curvature="0"
         sodipodi:nodetypes="ccsccc"
         id="path17408"
         d="m 26.645684,225.78777 20.963074,-0.21153 c 1.197347,3.55487 0.983277,6.08191 0.357749,8.5371 -0.834385,3.27481 0.384691,6.63921 0.09326,12.53018 l -23.105244,0.54275 c 0.341399,-7.1623 1.72392,-14.39293 1.691159,-21.3985 z"
         style="display:inline;fill:#214478;fill-opacity:1;stroke:#000000;stroke-width:0.71298856;stroke-linecap:round;stroke-linejoin:round;stroke-miterlimit:4;stroke-dashoffset:0;stroke-opacity:1" />
      <path
         inkscape:connector-curvature="0"
         style="fill:#6600ff;fill-opacity:1;fill-rule:nonzero;stroke:#000000;stroke-width:0.65418231;stroke-linecap:round;stroke-linejoin:round;stroke-miterlimit:4;stroke-dashoffset:0;stroke-opacity:1"
         d="m 35.668386,195.86909 c -2.743759,1.62246 -4.939601,5.29426 -9.63997,9.0064 -1.647358,1.30101 -0.724739,4.16369 -0.440338,6.69994 1.44002,5.81401 1.361352,11.13095 -0.116239,17.10366 7.295074,4.21135 20.306518,2.61423 24.185667,0.34598 -1.068389,-0.61258 -1.897422,-5.87733 -0.259298,-19.07164 -1.761364,-7.27055 -8.555872,-12.99836 -13.729822,-14.08434 z"
         id="path5861"
         sodipodi:nodetypes="csccccc" />
      <path
         inkscape:connector-curvature="0"
         style="display:inline;fill:#ffccaa;fill-opacity:1;fill-rule:nonzero;stroke:#000000;stroke-width:0.55690628;stroke-linecap:round;stroke-linejoin:round;stroke-miterlimit:4;stroke-dasharray:none;stroke-dashoffset:0;stroke-opacity:1"
         d="m 37.024079,195.42833 c -2.763692,0.2392 -4.74941,2.02833 -4.692466,4.0095 0.0517,1.79845 1.560569,2.5862 4.488942,2.69668 5.07879,-0.25521 5.280803,-1.18528 5.519276,-3.56291 -0.172116,-1.97518 -2.552063,-3.38247 -5.315752,-3.14327 z"
         id="path9207"
         sodipodi:nodetypes="csccc" />
      <path
         inkscape:connector-curvature="0"
         style="display:inline;fill:#6600ff;fill-opacity:1;fill-rule:nonzero;stroke:#000000;stroke-width:0.65436482;stroke-linecap:round;stroke-linejoin:round;stroke-miterlimit:4;stroke-dasharray:none;stroke-dashoffset:0;stroke-opacity:1"
         d="m 48.079975,211.28191 1.270667,2.98647 c 2.211565,0.43234 4.073149,-0.55749 4.950036,-1.92791 -1.42335,-3.75443 -7.382603,-11.93489 -12.256141,-13.48288"
         id="path9221"
         sodipodi:nodetypes="cccs"
         clip-path="none" />
      <ellipse
         transform="rotate(20.559359)"
         id="path5893"
         style="display:inline;fill:#ffccaa;fill-opacity:1;fill-rule:nonzero;stroke:#000000;stroke-width:0.62919855;stroke-linecap:round;stroke-linejoin:round;stroke-miterlimit:4;stroke-dasharray:none;stroke-dashoffset:0;stroke-opacity:1"
         cx="101.82645"
         cy="166.10283"
         rx="9.0838356"
         ry="9.1706161" />
      <path
         inkscape:connector-curvature="0"
         sodipodi:nodetypes="cccc"
         id="path5895"
         d="m 43.231045,184.61181 c 2.160927,1.93288 3.259025,5.83767 2.207371,9.38578 -0.539411,2.30458 -1.876478,4.18315 -3.483921,5.29662 2.553452,-5.09407 3.539624,-9.36934 1.27655,-14.6824 z"
         style="display:inline;fill:url(#linearGradient16940);fill-opacity:1;fill-rule:nonzero;stroke:none;stroke-width:0.27845314" />
      <path
         inkscape:connector-curvature="0"
         clip-path="none"
         sodipodi:nodetypes="cccss"
         id="path9233"
         d="m 27.223845,211.52224 -1.450828,3.28993 c -1.652155,0.60644 -3.723516,0.13805 -5.633211,-0.93619 0.247671,-1.15178 1.543081,-2.8423 2.285354,-4.50706 1.801091,-4.03943 7.100529,-8.33799 9.57081,-10.17014"
         style="display:inline;fill:#6600ff;fill-opacity:1;fill-rule:nonzero;stroke:#000000;stroke-width:0.65436482;stroke-linecap:round;stroke-linejoin:round;stroke-miterlimit:4;stroke-dasharray:none;stroke-dashoffset:0;stroke-opacity:1" />
      <path
         inkscape:connector-curvature="0"
         style="display:inline;opacity:0.2;fill:#000000;stroke:none;stroke-width:0.27845314"
         d="m 44.882248,223.85744 c -7.501823,2.87992 -9.964075,1.24264 -13.604051,0.28417 4.534519,0.27342 9.069199,0.18493 13.604051,-0.28417 z"
         id="path4242-1"
         sodipodi:nodetypes="ccc" />
      <path
         inkscape:connector-curvature="0"
         style="display:inline;fill:url(#linearGradient16934);fill-rule:evenodd;stroke:none;stroke-width:0.27845314"
         d="m 48.852393,214.74322 c -0.229386,4.93758 -0.545586,12.34037 0.663254,14.05026 l -1.490449,0.63492 c -0.400952,-2.73457 -1.291739,-10.41512 0.502545,-16.50616 z"
         id="path9205"
         sodipodi:nodetypes="ccccc" />
      <path
         inkscape:connector-curvature="0"
         sodipodi:nodetypes="cc"
         id="path7947-2"
         d="m 30.225402,210.94132 c 1.43792,-2.03294 3.11368,-3.97974 2.555232,-6.73578"
         style="display:inline;opacity:0.25;fill:none;stroke:#000000;stroke-width:0.60888648;stroke-linecap:round;stroke-linejoin:round;stroke-opacity:1" />
      <path
         inkscape:connector-curvature="0"
         style="display:inline;opacity:0.25;fill:none;stroke:#000000;stroke-width:0.60888648;stroke-linecap:round;stroke-linejoin:round;stroke-opacity:1"
         d="m 46.203696,210.83559 c -0.268148,-2.47559 -0.301015,-5.04408 -2.54412,-6.73998"
         id="path10348"
         sodipodi:nodetypes="cc" />
      <path
         sodipodi:nodetypes="cc"
         inkscape:connector-curvature="0"
         id="path19942"
         d="m 37.948177,237.02571 c 0.32444,5.28559 -0.957272,6.19371 -1.501566,9.72317"
         style="fill:none;stroke:#000000;stroke-width:0.67095566;stroke-linecap:round;stroke-linejoin:round;stroke-miterlimit:4;stroke-dasharray:none;stroke-opacity:1" />
      <path
         sodipodi:nodetypes="ccccc"
         id="path19944"
         d="m 48.025198,229.4284 c -0.06927,4.94648 0.100302,15.57604 0.03457,17.21512 l -1.952934,-0.23958 c -0.400952,-2.73457 -1.571661,-10.3422 0.222624,-16.43324 z"
         style="display:inline;fill:url(#linearGradient19946);fill-rule:evenodd;stroke:none;stroke-width:0.27845314"
         inkscape:connector-curvature="0" />
      <path
         inkscape:connector-curvature="0"
         style="display:inline;fill:url(#linearGradient28154);fill-rule:evenodd;stroke:#28170b;stroke-width:0.61477596;stroke-linecap:butt;stroke-linejoin:miter;stroke-opacity:1"
         d="m 39.487012,181.66477 c 0.683371,0.1149 1.221008,0.32511 1.8533,0.6193 0.572957,0.0739 1.13347,0.79058 1.548524,1.09016 0.527676,0.43954 0.449497,0.54191 1.01297,0.9537 1.749791,1.00313 1.512191,2.43234 2.186958,3.80685 0.353323,0.84497 0.173896,3.14404 -0.111755,4.51497 -0.209355,1.00483 -0.890182,1.69763 -1.435316,2.5316 -1.078201,1.12612 -4.744688,1.77089 -8.650813,1.27867 -0.51727,-0.0652 -1.810871,-0.67588 -2.299877,-0.76121 -2.747695,-0.47951 -4.882047,-2.03188 -4.834797,-2.94666 -1.310687,-2.53552 -0.570362,-1.36618 -0.177064,-3.8839 0.56522,-2.64202 0.554588,-4.91994 3.003503,-6.21245 0.521409,-0.16414 1.415989,-0.29861 1.880658,-0.57735 0.523017,-0.16736 1.586806,0.30336 2.08337,0.0596 0.573888,-0.20364 0.955754,-0.21393 1.539398,-0.38568 0.734567,-0.0721 1.661594,-0.0661 2.400799,-0.0876 l -1e-6,-1e-5 1e-6,1e-5 z"
         id="path9247-2"
         sodipodi:nodetypes="cccccscsscccccccccc" />
    </g>
  </g>
</svg>
