<?xml version="1.0" encoding="UTF-8" standalone="no"?>
<!-- Created with Inkscape (http://www.inkscape.org/) -->

<svg
   xmlns:dc="http://purl.org/dc/elements/1.1/"
   xmlns:cc="http://creativecommons.org/ns#"
   xmlns:rdf="http://www.w3.org/1999/02/22-rdf-syntax-ns#"
   xmlns:svg="http://www.w3.org/2000/svg"
   xmlns="http://www.w3.org/2000/svg"
   xmlns:xlink="http://www.w3.org/1999/xlink"
   xmlns:sodipodi="http://sodipodi.sourceforge.net/DTD/sodipodi-0.dtd"
   xmlns:inkscape="http://www.inkscape.org/namespaces/inkscape"
   width="28.690712mm"
   height="17.171492mm"
   viewBox="0 0 28.690712 17.171492"
   version="1.1"
   id="svg1777"
   inkscape:version="0.92.3 (2405546, 2018-03-11)"
   sodipodi:docname="hat.svg">
  <defs
     id="defs1771">
    <filter
       style="color-interpolation-filters:sRGB"
       inkscape:collect="always"
       id="filter32884-3"
       x="-0.041139029"
       width="1.0822781"
       y="-0.10580043"
       height="1.2116009">
      <feGaussianBlur
         inkscape:collect="always"
         stdDeviation="1.1890584"
         id="feGaussianBlur32886-1" />
    </filter>
    <filter
       style="color-interpolation-filters:sRGB"
       inkscape:collect="always"
       id="filter32872-9"
       x="-0.11408614"
       width="1.2281723"
       y="-0.040703308"
       height="1.0814066">
      <feGaussianBlur
         inkscape:collect="always"
         stdDeviation="0.59047138"
         id="feGaussianBlur32874-6" />
    </filter>
    <filter
       style="color-interpolation-filters:sRGB"
       inkscape:collect="always"
       id="filter32919-4">
      <feGaussianBlur
         inkscape:collect="always"
         stdDeviation="1.6597547"
         id="feGaussianBlur32921-9" />
    </filter>
  </defs>
  <sodipodi:namedview
     id="base"
     pagecolor="#ffffff"
     bordercolor="#666666"
     borderopacity="1.0"
     inkscape:pageopacity="0.0"
     inkscape:pageshadow="2"
     inkscape:zoom="1.4"
     inkscape:cx="-24.49397"
     inkscape:cy="10.463359"
     inkscape:document-units="mm"
     inkscape:current-layer="layer1"
     showgrid="false"
     fit-margin-top="0"
     fit-margin-left="0"
     fit-margin-right="0"
     fit-margin-bottom="0"
     inkscape:window-width="1920"
     inkscape:window-height="1172"
     inkscape:window-x="1600"
     inkscape:window-y="0"
     inkscape:window-maximized="1" />
  <metadata
     id="metadata1774">
    <rdf:RDF>
      <cc:Work
         rdf:about="">
        <dc:format>image/svg+xml</dc:format>
        <dc:type
           rdf:resource="http://purl.org/dc/dcmitype/StillImage" />
        <dc:title></dc:title>
      </cc:Work>
    </rdf:RDF>
  </metadata>
  <g
     inkscape:label="Layer 1"
     inkscape:groupmode="layer"
     id="layer1"
     transform="translate(-57.470121,-172.75354)">
    <g
       style="display:inline"
       id="g32931"
       transform="matrix(-0.29322496,0.12443489,0.11850506,0.18868864,233.23774,76.415568)">
      <path
         inkscape:connector-curvature="0"
         transform="matrix(0.99564346,-0.23179249,0.30785951,1.1471468,338.09472,78.510723)"
         style="opacity:0.2;fill:#000000;fill-opacity:1;stroke:none;filter:url(#filter32884-3)"
         d="m 207.30314,119.36121 c 5.05211,-1.75563 38.34536,-10.55672 54.17404,-7.74707 6.30384,1.11896 21.94724,-0.24319 10.64409,8.76527 -21.72155,3.6038 -45.70468,8.41039 -65.89251,4.72258 -7.30835,-2.90901 -2.04305,-2.87819 1.07438,-5.74078 z"
         id="path18817"
         sodipodi:nodetypes="csccc" />
      <path
         style="fill:#333333;fill-opacity:1;stroke:#000000;stroke-width:1.33130777;stroke-linecap:round;stroke-linejoin:round;stroke-miterlimit:4;stroke-dashoffset:0;stroke-opacity:1"
         d="m 594.7489,124.24371 19.08888,-8.5009 c 6.52142,-2.90421 14.89445,6.44979 16.27956,10.68183 l 5.12352,15.65425 c 1.38511,4.23204 -3.04181,10.12187 -9.56323,13.02607 l -19.08887,8.50091 c -6.52142,2.9042 -12.6682,1.72835 -13.97981,-2.54159 l -4.68105,-15.23916 c -1.31161,-4.26993 0.29958,-18.67721 6.821,-21.58141 z"
         id="rect3629"
         inkscape:connector-curvature="0"
         sodipodi:nodetypes="sssssssss" />
      <path
         style="fill:#333333;fill-opacity:1;stroke:#000000;stroke-width:1.09051871;stroke-linecap:round;stroke-linejoin:round;stroke-miterlimit:4;stroke-dashoffset:0;stroke-opacity:1"
         d="m 646.94279,141.98592 c -9.17791,14.4735 -66.2115,32.30451 -70.45139,22.85548 6.52929,-10.03924 61.95219,-34.77723 70.45139,-22.85548 z"
         id="path32947"
         sodipodi:nodetypes="ccc"
         inkscape:connector-curvature="0" />
      <path
         sodipodi:nodetypes="ccccc"
         inkscape:connector-curvature="0"
         id="path32888"
         d="M 587.22136,147.28731 631.7256,130.4881 c 1.74644,2.97278 3.84595,4.86394 3.27025,7.96432 -13.2061,9.06696 -28.35754,15.13593 -44.49455,16.97572 -2.34383,-2.74928 -3.26207,-4.79201 -3.27994,-8.14083 z"
         style="display:inline;fill:#4d4d4d;stroke:#000000;stroke-width:0.72701252;stroke-linecap:butt;stroke-linejoin:miter;stroke-miterlimit:4;stroke-dasharray:none;stroke-opacity:1" />
      <use
         height="352"
         width="799.99799"
         transform="matrix(1.4690832,0,0,1.4690832,456.3621,95.160132)"
         id="use3641"
         xlink:href="#path3639"
         y="0"
         x="0" />
      <path
         transform="matrix(1.3405018,-0.39327166,-0.13602282,0.9308995,386.73324,17.928213)"
         sodipodi:nodetypes="ccccc"
         id="path3872-7"
         d="m 168.22439,196.12021 6.95348,29.70501 5.90318,-1.64277 -10.08457,-34.07937 z"
         style="opacity:0.2;fill:#000000;stroke:none;filter:url(#filter32872-9)"
         inkscape:connector-curvature="0" />
      <path
         style="opacity:0.2;fill:#000000;stroke:none;filter:url(#filter32919-4)"
         d="m 657.50001,134.75001 c -27.61946,3.11597 -51.98893,10.27382 -77.85839,22.94796 -0.004,-0.0967 -7.98721,5.32688 -7.98721,5.32688 0.0235,4.11716 0.11228,2.60428 5.65468,5.72482 l 3.36261,-0.0396 c -2.13222,-3.13437 -1.65305,-2.53417 -2.99477,-6.1425 26.19737,-14.6069 53.4002,-21.19377 83.01058,-25.5363 z"
         id="path3874"
         inkscape:connector-curvature="0"
         sodipodi:nodetypes="cccccccc"
         transform="matrix(0.79854616,0.01280446,0.00784695,0.81278755,118.8684,21.174953)" />
    </g>
  </g>
</svg>
