<?xml version="1.0" encoding="UTF-8" standalone="no"?>
<!-- Created with Inkscape (http://www.inkscape.org/) -->

<svg
   xmlns:dc="http://purl.org/dc/elements/1.1/"
   xmlns:cc="http://creativecommons.org/ns#"
   xmlns:rdf="http://www.w3.org/1999/02/22-rdf-syntax-ns#"
   xmlns:svg="http://www.w3.org/2000/svg"
   xmlns="http://www.w3.org/2000/svg"
   xmlns:xlink="http://www.w3.org/1999/xlink"
   xmlns:sodipodi="http://sodipodi.sourceforge.net/DTD/sodipodi-0.dtd"
   xmlns:inkscape="http://www.inkscape.org/namespaces/inkscape"
   width="38.211819mm"
   height="55.075615mm"
   viewBox="0 0 38.211819 55.075615"
   version="1.1"
   id="svg1682"
   inkscape:version="0.92.3 (2405546, 2018-03-11)"
   sodipodi:docname="jesus.svg">
  <defs
     id="defs1676">
    <radialGradient
       r="17"
       fy="159.8188"
       fx="151.875"
       cy="159.8188"
       cx="151.875"
       gradientTransform="matrix(0.87602884,0.02150284,-0.00702624,0.28625049,-14.963392,128.40029)"
       gradientUnits="userSpaceOnUse"
       id="radialGradient5176"
       xlink:href="#linearGradient7335"
       inkscape:collect="always" />
    <linearGradient
       inkscape:collect="always"
       id="linearGradient7335">
      <stop
         style="stop-color:#000000;stop-opacity:0.498"
         offset="0"
         id="stop7337" />
      <stop
         style="stop-color:#000000;stop-opacity:0"
         offset="1"
         id="stop7339" />
    </linearGradient>
    <linearGradient
       inkscape:collect="always"
       xlink:href="#linearGradient7335"
       id="linearGradient11092"
       gradientUnits="userSpaceOnUse"
       gradientTransform="matrix(0.71761023,0.26181435,-0.32071753,0.5858135,166.7677,30.121608)"
       x1="97.75"
       y1="271.125"
       x2="119.5"
       y2="261.25" />
    <linearGradient
       y2="305.625"
       x2="211.74998"
       y1="278.875"
       x1="181.25"
       gradientTransform="matrix(-0.68779055,-0.4227906,-0.5222334,0.55682259,380.65624,196.21423)"
       gradientUnits="userSpaceOnUse"
       id="linearGradient5149"
       xlink:href="#linearGradient4157"
       inkscape:collect="always" />
    <linearGradient
       id="linearGradient4157"
       inkscape:collect="always">
      <stop
         id="stop4159"
         offset="0"
         style="stop-color:#000000;stop-opacity:0" />
      <stop
         id="stop4161"
         offset="1"
         style="stop-color:#000000;stop-opacity:0.4" />
    </linearGradient>
    <linearGradient
       inkscape:collect="always"
       xlink:href="#linearGradient7335"
       id="linearGradient2340"
       gradientUnits="userSpaceOnUse"
       gradientTransform="matrix(0.71761023,0.26181435,-0.32071753,0.5858135,166.7677,30.121608)"
       x1="97.75"
       y1="271.125"
       x2="119.5"
       y2="261.25" />
  </defs>
  <sodipodi:namedview
     id="base"
     pagecolor="#ffffff"
     bordercolor="#666666"
     borderopacity="1.0"
     inkscape:pageopacity="0.0"
     inkscape:pageshadow="2"
     inkscape:zoom="0.35"
     inkscape:cx="1066.497"
     inkscape:cy="-21.634381"
     inkscape:document-units="mm"
     inkscape:current-layer="layer1"
     showgrid="false"
     fit-margin-top="0"
     fit-margin-left="0"
     fit-margin-right="0"
     fit-margin-bottom="0"
     inkscape:window-width="1920"
     inkscape:window-height="1172"
     inkscape:window-x="1600"
     inkscape:window-y="0"
     inkscape:window-maximized="1" />
  <metadata
     id="metadata1679">
    <rdf:RDF>
      <cc:Work
         rdf:about="">
        <dc:format>image/svg+xml</dc:format>
        <dc:type
           rdf:resource="http://purl.org/dc/dcmitype/StillImage" />
        <dc:title></dc:title>
      </cc:Work>
    </rdf:RDF>
  </metadata>
  <g
     inkscape:label="Layer 1"
     inkscape:groupmode="layer"
     id="layer1"
     transform="translate(316.19519,-88.03362)">
    <g
       transform="matrix(0.26458333,0,0,0.26458333,-327.63581,55.657323)"
       id="g5191">
      <g
         id="g10900"
         transform="translate(-17.234018,66.553822)">
        <g
           id="use14378"
           transform="matrix(1.0172156,0,0,1.0172156,-69.42414,-53.137992)"
           style="fill:#ffbe93;fill-opacity:1">
          <path
             sodipodi:nodetypes="cccccc"
             id="path10234"
             d="m 173.12669,290.9834 v 6.49994 c -31.32599,11.80546 2.93592,16.34688 21.85812,9.90493 v -6.36729 -10.18766 c -8.36426,3.56641 -13.25896,3.83684 -21.85812,0.15008 z"
             style="display:inline;fill:#ffbe93;fill-opacity:1;fill-rule:nonzero;stroke:#000000;stroke-width:1.71452677;stroke-linecap:round;stroke-linejoin:round;stroke-miterlimit:4;stroke-dasharray:none;stroke-dashoffset:0;stroke-opacity:1"
             inkscape:connector-curvature="0" />
        </g>
        <g
           style="fill:#ffbe93;fill-opacity:1"
           transform="matrix(1.0172156,0,0,1.0172156,-69.42414,-47.137992)"
           id="g10889">
          <path
             style="display:inline;fill:#784421;fill-opacity:1;fill-rule:nonzero;stroke:#28170b;stroke-width:1.71452677;stroke-linecap:round;stroke-linejoin:round;stroke-miterlimit:4;stroke-dasharray:none;stroke-dashoffset:0;stroke-opacity:1"
             d="m 161.01934,301.30231 0.77662,3.6862 33.44953,-0.12012 -0.26068,-3.84741 z"
             id="path10891"
             sodipodi:nodetypes="ccccc"
             inkscape:connector-curvature="0" />
        </g>
        <path
           style="fill:#784421;fill-opacity:1;stroke:#28170b;stroke-width:1.5;stroke-linecap:round;stroke-linejoin:round;stroke-miterlimit:4;stroke-dashoffset:0;stroke-opacity:1"
           d="m 102.80398,250.75099 c 0.81677,-0.59751 1.98052,-1.5614 3.27504,-0.88479 l 3.72252,9.43114 -3.83741,-0.0522 -3.16002,-8.49365 -1.3e-4,-4.8e-4 z"
           id="rect10893"
           sodipodi:nodetypes="ccccccc"
           inkscape:connector-curvature="0" />
        <path
           style="fill:none;stroke:#000000;stroke-width:1px;stroke-linecap:round;stroke-linejoin:round;stroke-opacity:1"
           d="m 96.753129,254.77154 c 0.506117,-0.11324 1.6979,-1.38619 4.780471,-0.55806"
           id="path10896"
           sodipodi:nodetypes="cc"
           inkscape:connector-curvature="0" />
      </g>
      <use
         height="352"
         width="799.99799"
         transform="matrix(-1,0,0,1,230.89771,0)"
         id="use10908"
         xlink:href="#g10900"
         y="0"
         x="0" />
      <path
         sodipodi:nodetypes="cssssc"
         id="path11105"
         d="m 160.51906,218.13694 c -1.65772,4.63802 -6.90027,12.90636 -10.1069,14.92905 -0.77104,0.48636 -2.39545,-6.26808 -3.0381,-6.49778 -3.31542,-1.18499 -0.91747,-6.96928 1.13884,-12.72249 2.05631,-5.75322 6.41094,-9.45649 9.72635,-8.2715 3.31541,1.18499 4.33612,6.80951 2.27981,12.56272 z"
         style="fill:#b3b3b3;fill-opacity:1;stroke:#000000;stroke-width:1.50000012;stroke-linecap:round;stroke-linejoin:round;stroke-miterlimit:4;stroke-dashoffset:0;stroke-opacity:1"
         inkscape:connector-curvature="0" />
      <path
         style="fill:#e6e6e6;fill-opacity:1;fill-rule:nonzero;stroke:#000000;stroke-width:1.74404347;stroke-linecap:round;stroke-linejoin:round;stroke-miterlimit:4;stroke-dashoffset:0;stroke-opacity:1"
         d="m 118.16096,165.55934 c 17.81452,1.5953 29.94626,29.43768 30.28635,63.24266 -6.8155,26.93037 -1.78661,48.23119 0.69656,75.24755 -18.67297,18.07902 -53.424078,9.63069 -65.916178,4.26906 2.80391,-2.76749 6.64043,-23.59363 1.34021,-80.3733 0.92392,-36.11374 14.86961,-64.06264 33.593058,-62.38597 z"
         id="path4479"
         sodipodi:nodetypes="cccccc"
         inkscape:connector-curvature="0" />
      <ellipse
         transform="matrix(-0.00997239,-0.26326163,-0.47209109,0.02508307,260.39078,211.74164)"
         id="path4483"
         style="fill:#ffbe93;fill-opacity:1;fill-rule:nonzero;stroke:#000000;stroke-width:3.70659637;stroke-linecap:round;stroke-linejoin:round;stroke-miterlimit:4;stroke-dasharray:none;stroke-dashoffset:0;stroke-opacity:1"
         cx="167.75"
         cy="301.25"
         rx="45.25"
         ry="30.25" />
      <path
         style="fill:url(#radialGradient5176);fill-rule:evenodd;stroke:none"
         d="m 101.34752,173.85979 c 11.86704,15.21579 22.69425,10.66551 30.78706,-0.34458 -9.64235,4.96349 -21.42216,5.27784 -30.78706,0.34458 z"
         id="path4485"
         sodipodi:nodetypes="ccc"
         inkscape:connector-curvature="0" />
      <path
         style="fill:#b3b3b3;fill-opacity:1;stroke:#000000;stroke-width:1.50000012;stroke-linecap:round;stroke-linejoin:round;stroke-miterlimit:4;stroke-dashoffset:0;stroke-opacity:1"
         d="m 70.795552,220.38694 c 0.96656,2.70428 3.941485,13.20371 6.519832,11.27455 4.388435,-3.28349 9.017138,-9.36185 9.220608,-10.58852 0.43272,-2.60879 -3.73051,-0.44631 -5.786819,-6.19953 -2.05631,-5.75321 -3.670901,-8.48421 -6.986311,-7.29922 -3.31541,1.18499 -5.02362,7.05951 -2.96731,12.81272 z"
         id="path11108"
         sodipodi:nodetypes="cssssc"
         inkscape:connector-curvature="0" />
      <ellipse
         style="display:inline;fill:#ffbe93;fill-opacity:1;fill-rule:nonzero;stroke:#000000;stroke-width:2.03510833;stroke-linecap:round;stroke-linejoin:round;stroke-miterlimit:4;stroke-dasharray:none;stroke-dashoffset:0;stroke-opacity:1"
         id="path4499"
         transform="matrix(-0.80505382,0.10183163,0.10158057,0.80306921,203.84285,39.917349)"
         cx="124.80434"
         cy="126.43295"
         rx="29.344931"
         ry="29.698484" />
      <ellipse
         transform="matrix(-0.97871596,0.00659477,-0.02509678,0.60379532,228.20255,82.222249)"
         id="path6357"
         style="fill:#000000;fill-opacity:1;fill-rule:nonzero;stroke:none"
         cx="109.15961"
         cy="146.14354"
         rx="4.6845822"
         ry="4.3310289" />
      <ellipse
         style="fill:#000000;fill-opacity:1;fill-rule:nonzero;stroke:none"
         id="path4505"
         transform="matrix(-0.63403954,-0.03090895,-0.03090895,0.63403954,198.63715,60.762283)"
         cx="109.15961"
         cy="146.14354"
         rx="4.6845822"
         ry="4.3310289" />
      <ellipse
         transform="matrix(-0.63403954,-0.03090895,-0.03090895,0.63403954,185.84049,61.237021)"
         id="use18960"
         style="fill:#000000;fill-opacity:1;fill-rule:nonzero;stroke:none"
         cx="109.15961"
         cy="146.14354"
         rx="4.6845822"
         ry="4.3310289" />
      <g
         transform="matrix(0.46001304,-0.90725717,-0.90725717,-0.46001304,191.68949,458.53196)"
         id="use9003">
        <path
           style="fill:#ffbe93;fill-opacity:1;fill-rule:evenodd;stroke:#000000;stroke-width:1.71452713;stroke-linecap:round;stroke-linejoin:round;stroke-opacity:1"
           d="m 156.45906,202.6428 -0.5884,9.71679 9.05066,21.23108 c -6.01594,5.22106 5.42729,21.54023 8.3306,12.49018 -1.31292,-13.35415 5.20498,-2.68553 6.71384,-5.616 1.0259,-1.99244 -0.30783,-4.42834 -5.19046,-7.29585 l -8.17923,-19.81716 -0.29353,-7.71806 c -2.88524,0.30046 -7.32199,-0.4073 -9.84348,-2.99098 z"
           id="path10220"
           sodipodi:nodetypes="ccccsccccc"
           inkscape:connector-curvature="0" />
        <path
           style="fill:url(#linearGradient2340);fill-rule:evenodd;stroke:none"
           d="m 156.74424,202.34652 -0.81029,10.03655 8.68406,21.03197 c 0.80957,0.16927 1.66365,0.73267 1.59585,-2.07789 l -7.72618,-18.9009 0.13828,-8.61252 z"
           id="path10222"
           sodipodi:nodetypes="ccccccc"
           inkscape:connector-curvature="0" />
        <path
           style="fill:none;stroke:#000000;stroke-width:0.85726339px;stroke-linecap:round;stroke-linejoin:round;stroke-opacity:1"
           d="m 168.9375,247.875 c -0.17881,-1.51603 -1.23818,-4.78167 0.125,-7.5"
           id="path10224"
           sodipodi:nodetypes="cc"
           inkscape:connector-curvature="0" />
        <path
           sodipodi:nodetypes="cc"
           id="path10226"
           d="m 165.5,244.3125 c -0.17881,-1.51603 -0.55068,-3.53167 0.8125,-6.25"
           style="fill:none;stroke:#000000;stroke-width:0.85726339px;stroke-linecap:round;stroke-linejoin:round;stroke-opacity:1"
           inkscape:connector-curvature="0" />
      </g>
      <path
         clip-path="none"
         sodipodi:nodetypes="ccccs"
         id="path11110"
         d="m 94.122292,206.63033 c -3.76933,9.71548 -5.04308,21.29503 -16.526279,25.157 -0.659781,-9.03259 0.0023,-17.86662 -5.456651,-25.53638 2.10444,-0.78322 2.77523,-2.88159 4.41406,-6.28597 5.71866,-11.76027 13.40592,-23.65286 22.15548,-26.69017"
         style="fill:#e6e6e6;fill-opacity:1;fill-rule:nonzero;stroke:#000000;stroke-width:1.74404323;stroke-linecap:round;stroke-linejoin:round;stroke-miterlimit:4;stroke-dashoffset:0;stroke-opacity:1"
         inkscape:connector-curvature="0" />
      <path
         style="fill:#c83737;fill-opacity:1;stroke:#280b0b;stroke-width:2;stroke-miterlimit:4;stroke-dasharray:none;stroke-opacity:1"
         d="m 92.149212,176.26976 c -7.59619,16.40641 7.62967,58.35857 8.879668,77.85857 18.33333,5 10.10417,10.125 27.9375,5.625 -6.33333,-32.5 -12.02673,-82.52431 -36.817168,-83.48357 z"
         id="rect3257"
         sodipodi:nodetypes="cccc"
         inkscape:connector-curvature="0" />
      <g
         id="g10847"
         transform="matrix(-0.48397704,-0.89470318,0.89470318,-0.48397704,46.378856,460.5864)">
        <path
           sodipodi:nodetypes="ccccsccccc"
           id="path10849"
           d="m 156.45906,202.6428 -0.5884,9.71679 9.05066,21.23108 c -6.01594,5.22106 5.42729,21.54023 8.3306,12.49018 -1.31292,-13.35415 5.20498,-2.68553 6.71384,-5.616 1.0259,-1.99244 -0.30783,-4.42834 -5.19046,-7.29585 l -8.17923,-19.81716 -0.29353,-7.71806 c -3.3407,-1.22838 -7.50147,-1.00975 -9.84348,-2.99098 z"
           style="fill:#ffbe93;fill-opacity:1;fill-rule:evenodd;stroke:#000000;stroke-width:1.71452713;stroke-linecap:round;stroke-linejoin:round;stroke-opacity:1"
           inkscape:connector-curvature="0" />
        <path
           sodipodi:nodetypes="ccccccc"
           id="path10851"
           d="m 156.74424,202.34652 -0.81029,10.03655 8.68406,21.03197 c 0.80957,0.16927 1.66365,0.73267 1.59585,-2.07789 l -7.72618,-18.9009 0.13828,-8.61252 z"
           style="fill:url(#linearGradient11092);fill-rule:evenodd;stroke:none"
           inkscape:connector-curvature="0" />
        <path
           sodipodi:nodetypes="cc"
           id="path10853"
           d="m 168.9375,247.875 c -0.17881,-1.51603 -1.23818,-4.78167 0.125,-7.5"
           style="fill:none;stroke:#000000;stroke-width:0.85726339px;stroke-linecap:round;stroke-linejoin:round;stroke-opacity:1"
           inkscape:connector-curvature="0" />
        <path
           style="fill:none;stroke:#000000;stroke-width:0.85726339px;stroke-linecap:round;stroke-linejoin:round;stroke-opacity:1"
           d="m 165.5,244.3125 c -0.17881,-1.51603 -0.55068,-3.53167 0.8125,-6.25"
           id="path10855"
           sodipodi:nodetypes="cc"
           inkscape:connector-curvature="0" />
      </g>
      <path
         style="fill:#e6e6e6;fill-opacity:1;fill-rule:nonzero;stroke:#000000;stroke-width:1.74404323;stroke-linecap:round;stroke-linejoin:round;stroke-miterlimit:4;stroke-dashoffset:0;stroke-opacity:1"
         d="m 137.05848,211.56501 c 3.19441,13.44031 13.99374,35.16541 15.38156,10.47359 -0.25825,-9.15663 3.57538,-12.49864 7.11021,-17.03765 -8.0654,-11.06956 -15.75232,-24.57055 -28.25704,-31.72614"
         id="path4487"
         sodipodi:nodetypes="cccc"
         clip-path="none"
         inkscape:connector-curvature="0" />
      <g
         id="g9408"
         transform="translate(-17.234018,66.553822)">
        <path
           sodipodi:nodetypes="ccccccccccccccccccccccccccccccccccccccccccccccccc"
           id="path12590"
           d="m 127.88082,57.520974 c -1.34427,-0.373366 -1.98605,-0.202315 -2.66131,0.685293 -1.48725,-0.0991 -2.76751,1.967654 -4.72296,1.767869 -0.84935,1.141139 -3.60812,0.90256 -2.99505,3.147565 -1.33502,0.84451 -1.77205,2.781929 -3.88635,3.326389 -1.73866,1.336347 -3.57917,3.014807 -3.84755,5.204415 -0.82517,2.040218 -2.99874,3.536211 -2.43248,6.191832 -1.2592,2.757098 -1.92986,5.60825 -1.35808,8.733972 0.15899,2.719278 0.88999,5.370872 1.56649,8.002452 0.4464,2.699998 0.21894,5.36189 0.88239,8.013849 -0.44238,2.88663 0.80853,5.2801 1.40578,7.98382 0.13596,2.82509 2.18554,2.95096 4.34526,4.25638 1.55262,1.45639 6.78009,2.54835 5.84495,-0.98615 -1.79447,-2.12712 -0.94052,-4.95544 -1.71475,-7.40293 -0.17817,-3.05525 -3.20059,-4.18681 -2.52231,-7.352343 2.12808,-2.294452 0.14673,-4.81967 -1.54539,-6.739155 -2.53479,-0.784813 0.1567,-3.226368 -1.91407,-4.476396 2.51635,-1.20915 -1.04417,-3.39518 0.002,-5.513532 -0.52982,-2.335476 2.34061,-4.49321 3.74062,-5.591244 0.59703,-1.389156 0.23505,-3.132682 1.79285,-4.185189 -1.60544,-1.636934 3.11827,-0.939933 3.13215,-1.713431 1.45774,-0.494739 3.86227,1.577477 4.04585,-1.310441 2.0139,-0.414784 2.73594,2.050366 4.24609,2.584755 2.14724,0.207548 4.00711,-3.899504 6.86923,-2.154324 1.21463,-1.395493 1.61076,-0.548675 2.43183,0.276296 0.84434,-0.965944 1.91632,-1.54528 2.85054,-1.234592 -1.14228,-1.079268 2.73623,-0.7025 1.9214,1.169453 1.54088,1.82528 3.89338,2.883147 5.5588,4.395619 1.97417,1.608328 -1.37224,3.338296 1.09386,4.353615 1.73762,0.384574 2.65751,2.138014 3.95528,3.459672 1.57601,1.128072 2.94933,4.109273 2.55578,6.350574 -1.06968,2.139488 -3.5223,4.119602 -4.24203,6.87416 -0.0192,2.075424 -0.45939,5.183303 0.26476,6.952653 0.12885,2.77789 -3.3094,2.35665 -3.35583,4.77865 -0.89776,2.20501 -1.07592,5.53671 1.21477,7.2428 1.49967,4.01149 5.56466,1.03711 7.63306,0.29162 3.14465,-1.62446 1.14357,-6.52628 2.21327,-9.36626 1.44186,-3.67865 2.15486,-7.61039 2.61267,-11.509962 -0.68078,-3.117631 -0.33357,-6.327725 -1.15551,-9.417195 -0.75466,-2.398192 -1.00698,-5.119327 -1.69328,-7.098226 -0.58208,-2.419395 -2.45494,-4.92727 -1.92835,-7.326629 -1.11931,-3.035278 -3.36816,-5.307392 -4.84961,-8.130292 -0.57625,-2.882495 -3.85191,-1.021232 -5.16455,-2.328897 -1.32745,-0.323732 -2.60444,-2.82046 -4.44439,-0.935063 -1.76217,0.782406 -3.96111,0.703371 -4.78379,-0.841309 -2.19414,1.790142 -3.34425,-1.939696 -5.29294,-0.241545 -2.11693,0.794493 -3.06315,-1.876329 -5.01972,-0.22514 -2.05111,0.09091 0.56779,-0.08317 -0.41475,-0.935315 -1.16149,1.194243 1.22167,0.757799 0.37443,0.621674"
           style="fill:#955429;fill-opacity:1;fill-rule:evenodd;stroke:#28170b;stroke-width:1.47171736;stroke-linecap:round;stroke-linejoin:round;stroke-miterlimit:4;stroke-dasharray:none;stroke-opacity:1"
           inkscape:connector-curvature="0" />
        <path
           sodipodi:nodetypes="ccccssssccsscccccc"
           id="path4281"
           d="m 121.33448,68.44164 -3.13251,1.18485 -4.49217,4.152428 c -2.63787,1.45143 -3.48182,4.394129 -3.73156,7.757761 -0.3065,2.217039 -0.32166,4.571404 -0.14192,6.954026 0.16553,2.194279 1.32422,4.412525 1.74505,6.569533 0.47282,2.423447 0.0692,4.727531 0.63667,6.622182 0.78582,2.62394 1.49334,4.46258 1.65437,4.74537 1.61897,2.84314 2.30762,6.58661 3.26849,9.87992 1.7341,0.24053 3.09439,0.005 2.37212,-2.88043 0.94668,-5.21726 -3.06128,-10.02802 -3.58949,-15.192979 -0.26589,-2.599884 -1.19727,-4.299815 -2.43561,-6.513925 -1.31714,-2.355028 -1.09124,-6.486044 -0.66767,-9.723741 l 3.43111,-5.379642 1.46827,-4.280475 2.31939,-0.894613 4.23792,-1.019179 z"
           style="opacity:0.2;fill:#000000;stroke:none"
           inkscape:connector-curvature="0" />
        <path
           style="opacity:0.2;fill:#000000;stroke:none"
           d="m 157.78454,83.932885 c 0.65771,2.424404 1.0098,4.772257 1.09328,7.069622 0.0742,2.040874 -1.36447,3.456534 -1.68833,5.435986 -0.32016,1.956914 0.47868,4.478097 -0.18006,6.410487 -0.87069,2.55414 -3.26524,4.03977 -4.62577,6.62267 -0.80303,1.52453 -0.43131,4.12367 -1.37292,5.6808 -2.08207,-1.47273 -1.90122,-4.04277 -1.71363,-6.00184 0.32504,-3.39745 2.04764,-4.18216 2.85586,-6.09995 1.67208,-3.967587 0.28048,-8.674744 2.11128,-12.522203 1.53535,-3.226578 0.94789,-5.644291 -0.10049,-8.531822 -3.60383,-1.652702 -4.82544,-4.421024 -5.54217,-7.048974 -0.25596,-0.93847 -1.74212,-0.92468 -2.7549,-1.229363 l -4.1181,-5.09273 4.37572,0.801107 c 2.62456,0.966219 4.27702,3.573393 6.25225,5.745523 1.13485,1.24797 2.63535,2.192104 3.58362,3.476067 1.1143,1.508758 1.60071,3.385777 1.82436,5.28462 z"
           id="path4283"
           sodipodi:nodetypes="cssssccsscscccssc"
           inkscape:connector-curvature="0" />
      </g>
      <path
         sodipodi:nodetypes="ccccccccccccccccccccccccccccccccsccccccccccc"
         id="path3248"
         d="m 118.04755,163.07043 c -1.66945,0.13262 -3.41929,0.18922 -4.96287,0.89886 -0.79526,-0.002 -1.93704,0.0273 -2.5356,0.50618 -0.12798,1.02869 -1.01164,1.85379 -2.00114,2.29476 -0.9563,0.52395 -1.42709,1.5704 -2.48321,1.94111 0.12243,0.77728 -0.41332,1.51735 -0.75887,1.92272 0.38276,0.97262 0.48732,1.82804 -0.41234,2.45003 -0.35674,0.80125 -0.009,1.80945 1.03366,1.59352 1.03939,0.51456 1.2094,2.48879 2.64816,2.30949 1.17282,-0.13677 1.68404,0.88631 1.78532,1.86664 0.62085,1.02077 1.99878,1.21909 2.95979,1.63135 1.18818,0.1327 2.46189,-0.0789 3.6475,-0.28547 0.94228,-0.55377 1.89232,-0.89258 2.85076,-0.17706 1.15433,0.18025 1.695,-1.41701 2.79015,-1.2134 0.98905,0.0866 2.06381,0.42581 2.91582,-0.22858 1.05395,-0.38395 1.45656,-1.38811 2.34855,-1.95408 -0.0848,-1.34668 1.0037,-1.96088 2.1459,-2.20679 0.40285,-0.98211 0.70246,-2.21095 0.0612,-3.30272 -0.98783,0.0447 -1.64617,-0.50008 -1.35339,-1.4933 -0.33453,-0.95926 -0.4748,-2.00719 -0.73322,-3.06345 -0.57429,-0.62747 -1.54748,0.21688 -2.24553,-0.55353 -1.05656,-0.68993 -2.15767,-1.31506 -3.37928,-1.65864 -1.45962,-0.34858 -2.89089,-0.81752 -4.32133,-1.27764 z m -0.19862,2.58558 c 0.79313,1.01935 2.17221,0.94609 3.2677,1.33364 1.08399,0.39798 2.35486,-0.10109 2.94508,1.10294 1.59753,-0.092 1.1082,1.40489 1.18629,2.40422 0.46171,0.75599 2.17459,1.6898 0.50876,1.8935 -0.0922,1.04918 -1.0344,1.85518 -1.62135,2.72217 -0.45512,0.80732 -1.33076,1.05435 -2.11343,0.92943 -0.62982,0.45151 0.18984,-2.93789 -0.15568,-2.71195 -0.3642,-0.0783 -1.3895,0.50443 -1.69268,0.26576 -0.60282,-0.47456 -1.4556,-0.30035 -2.18315,-0.12723 -0.88203,1.20065 -0.8583,0.51433 -2.95224,-0.0422 -0.64432,0.37456 -0.90199,1.06078 -1.564,1.58159 -0.71441,-0.6379 -1.94072,1.77841 -1.1027,0.4258 -0.0205,-0.98342 -1.02415,-1.45266 -1.54491,-1.95877 -0.0368,-0.66754 0.72836,-2.04013 0.1929,-2.17592 -0.70722,0.13729 -1.97504,0.40322 -1.41934,-0.80052 0.26984,-1.03988 1.61456,-0.99667 2.16372,-1.28245 0.17989,-0.86682 0.17013,-2.86994 1.45843,-2.55671 1.01359,0.55738 2.29909,0.62867 3.27861,0.27359 0.50985,-0.35649 0.79372,-0.99135 1.34799,-1.27691 z"
         style="fill:#955429;fill-opacity:1;stroke:#28170b;stroke-width:1.20000005;stroke-miterlimit:4;stroke-dasharray:none;stroke-opacity:1"
         inkscape:connector-curvature="0" />
      <path
         sodipodi:nodetypes="ccccc"
         id="path10845"
         d="m 86.375332,245.26976 0.65355,14.73357 c 19.754828,4.57358 37.311318,7.23659 58.062488,5.5 -0.38246,-4.43954 -0.37356,-8.05539 -0.33963,-15.22097 -20.11954,6.03936 -37.93243,-0.13573 -58.376408,-5.0126 z"
         style="fill:#c83737;fill-opacity:1;stroke:#280b0b;stroke-width:1.99999988;stroke-linecap:round;stroke-linejoin:round;stroke-miterlimit:4;stroke-dasharray:none;stroke-opacity:1"
         inkscape:connector-curvature="0" />
      <path
         sodipodi:nodetypes="cccssc"
         id="path4475"
         d="m 89.972622,310.08465 -6.36526,-1.49801 c 4.0015,-17.04122 3.10192,-59.90596 1.24952,-79.10148 l 2.40034,-6.70451 c 0.0876,-0.24482 1.13088,9.03796 1.45406,9.81439 3.73949,8.98405 5.44887,67.1816 1.26134,77.48961 z"
         style="fill:url(#linearGradient5149);fill-rule:evenodd;stroke:none"
         inkscape:connector-curvature="0" />
      <path
         sodipodi:nodetypes="ccc"
         id="path25926"
         d="m 128.04688,308.12053 c -8.4296,-15.31298 -4.36253,-29.09297 -0.89438,-35.3258 -0.85887,12.42524 -1.77866,26.25019 0.89438,35.3258 z"
         style="opacity:0.2;fill:#000000;stroke:none"
         inkscape:connector-curvature="0" />
      <path
         style="opacity:0.2;fill:#000000;stroke:none"
         d="m 109.36374,306.70632 c 8.4296,-15.31298 4.36253,-29.09297 0.89438,-35.3258 0.85887,12.42524 1.77866,26.25019 -0.89438,35.3258 z"
         id="path10881"
         sodipodi:nodetypes="ccc"
         inkscape:connector-curvature="0" />
      <path
         style="opacity:0.2;fill:#000000;stroke:none"
         d="m 111.21106,239.01048 c 2.43235,-24.73102 -6.37675,-42.60657 -11.898188,-50.07976 5.292498,17.17369 11.147398,36.29537 11.898188,50.07976 z"
         id="path10883"
         sodipodi:nodetypes="ccc"
         inkscape:connector-curvature="0" />
      <path
         sodipodi:nodetypes="ccc"
         id="path10885"
         d="m 92.379132,254.30067 c 20.000348,6.91227 37.795338,5.86979 45.815778,4.38331 -16.0945,-0.8104 -34.00258,-1.73435 -45.815778,-4.38331 z"
         style="opacity:0.2;fill:#000000;stroke:none"
         inkscape:connector-curvature="0" />
    </g>
  </g>
</svg>
