<?xml version="1.0" encoding="UTF-8" standalone="no"?>
<!-- Created with Inkscape (http://www.inkscape.org/) -->

<svg
   xmlns:dc="http://purl.org/dc/elements/1.1/"
   xmlns:cc="http://creativecommons.org/ns#"
   xmlns:rdf="http://www.w3.org/1999/02/22-rdf-syntax-ns#"
   xmlns:svg="http://www.w3.org/2000/svg"
   xmlns="http://www.w3.org/2000/svg"
   xmlns:xlink="http://www.w3.org/1999/xlink"
   xmlns:sodipodi="http://sodipodi.sourceforge.net/DTD/sodipodi-0.dtd"
   xmlns:inkscape="http://www.inkscape.org/namespaces/inkscape"
   width="32.575363mm"
   height="78.474304mm"
   viewBox="0 0 32.575363 78.474304"
   version="1.1"
   id="svg4791"
   inkscape:version="0.92.3 (2405546, 2018-03-11)"
   sodipodi:docname="justice_of_the_peace.svg">
  <defs
     id="defs4785">
    <linearGradient
       inkscape:collect="always"
       xlink:href="#linearGradient4157"
       id="linearGradient4203"
       gradientUnits="userSpaceOnUse"
       gradientTransform="matrix(1.1130789,-0.57041246,0.84515116,0.75124313,73.096439,253.69795)"
       x1="181.25"
       y1="278.875"
       x2="211.74998"
       y2="305.625" />
    <linearGradient
       inkscape:collect="always"
       id="linearGradient4157">
      <stop
         style="stop-color:#000000;stop-opacity:0"
         offset="0"
         id="stop4159" />
      <stop
         style="stop-color:#000000;stop-opacity:0.4"
         offset="1"
         id="stop4161" />
    </linearGradient>
    <linearGradient
       inkscape:collect="always"
       xlink:href="#linearGradient4157"
       id="linearGradient4200"
       gradientUnits="userSpaceOnUse"
       gradientTransform="matrix(1.1130789,-0.68421892,0.84515116,0.90112824,116.64024,219.35317)"
       x1="181.25"
       y1="278.875"
       x2="211.74998"
       y2="305.625" />
    <linearGradient
       inkscape:collect="always"
       xlink:href="#linearGradient4157"
       id="linearGradient4194"
       gradientUnits="userSpaceOnUse"
       gradientTransform="matrix(0.98068311,-0.60283412,0.74462418,0.79394304,179.87102,154.16584)"
       x1="181.25"
       y1="278.875"
       x2="211.74998"
       y2="305.625" />
    <radialGradient
       inkscape:collect="always"
       xlink:href="#linearGradient7335"
       id="radialGradient4190"
       gradientUnits="userSpaceOnUse"
       gradientTransform="matrix(-1.2477565,-0.06518614,-0.02130018,0.40771594,750.21742,161.28283)"
       cx="151.875"
       cy="159.8188"
       fx="151.875"
       fy="159.8188"
       r="17" />
    <linearGradient
       id="linearGradient7335"
       inkscape:collect="always">
      <stop
         id="stop7337"
         offset="0"
         style="stop-color:#000000;stop-opacity:0.498" />
      <stop
         id="stop7339"
         offset="1"
         style="stop-color:#000000;stop-opacity:0" />
    </linearGradient>
    <linearGradient
       inkscape:collect="always"
       xlink:href="#linearGradient4157"
       id="linearGradient4186"
       gradientUnits="userSpaceOnUse"
       gradientTransform="matrix(0.92656205,-0.15579414,0.11720117,1.2316669,354.59995,-93.752374)"
       x1="211.63281"
       y1="247.68443"
       x2="226.51173"
       y2="247.68443" />
    <linearGradient
       inkscape:collect="always"
       xlink:href="#linearGradient7335"
       id="linearGradient29031"
       gradientUnits="userSpaceOnUse"
       gradientTransform="matrix(0.71761023,0.26181435,-0.32071753,0.5858135,166.7677,30.121608)"
       x1="97.75"
       y1="271.125"
       x2="119.5"
       y2="261.25" />
    <linearGradient
       inkscape:collect="always"
       xlink:href="#linearGradient7335"
       id="linearGradient5508"
       gradientUnits="userSpaceOnUse"
       gradientTransform="matrix(0.71761023,0.26181435,-0.32071753,0.5858135,166.7677,30.121608)"
       x1="97.75"
       y1="271.125"
       x2="119.5"
       y2="261.25" />
  </defs>
  <sodipodi:namedview
     id="base"
     pagecolor="#ffffff"
     bordercolor="#666666"
     borderopacity="1.0"
     inkscape:pageopacity="0.0"
     inkscape:pageshadow="2"
     inkscape:zoom="1.4"
     inkscape:cx="-100.51767"
     inkscape:cy="77.809436"
     inkscape:document-units="mm"
     inkscape:current-layer="layer1"
     showgrid="false"
     fit-margin-top="0"
     fit-margin-left="0"
     fit-margin-right="0"
     fit-margin-bottom="0"
     inkscape:window-width="1920"
     inkscape:window-height="1172"
     inkscape:window-x="1600"
     inkscape:window-y="0"
     inkscape:window-maximized="1" />
  <metadata
     id="metadata4788">
    <rdf:RDF>
      <cc:Work
         rdf:about="">
        <dc:format>image/svg+xml</dc:format>
        <dc:type
           rdf:resource="http://purl.org/dc/dcmitype/StillImage" />
        <dc:title></dc:title>
      </cc:Work>
    </rdf:RDF>
  </metadata>
  <g
     inkscape:label="Layer 1"
     inkscape:groupmode="layer"
     id="layer1"
     transform="translate(-73.670652,-111.10809)">
    <g
       id="g5679"
       transform="matrix(0.26458333,0,0,0.26458333,-57.707013,74.440476)">
      <path
         sodipodi:nodetypes="cccccccccccccccc"
         id="path20423"
         d="m 557.76703,270.32102 c -22.26021,0 -40.32645,18.14474 -40.32645,40.50165 0.72689,10.90721 4.84999,17.8043 4.41267,28.25672 v 70.12269 c 0,7.73962 3.17795,13.94827 9.63265,13.94827 h 11.2018 c 6.45474,0 9.63264,-6.20865 9.63264,-13.94827 v -52.03283 c 3.85211,-9.98766 8.92121,-1.96426 10.89341,0 v 52.03283 c 0,7.73962 3.17793,13.94827 9.63263,13.94827 h 11.2018 c 6.45471,0 9.63264,-6.20865 9.63264,-13.94827 v -70.12269 c -1.7747,-9.42343 4.03912,-18.42023 4.41269,-28.25672 0,-22.35692 -18.06627,-40.50164 -40.32648,-40.50165 z"
         style="fill:#ffccaa;fill-opacity:1;fill-rule:nonzero;stroke:#000000;stroke-width:2.4867363;stroke-linecap:round;stroke-linejoin:round;stroke-miterlimit:4;stroke-dashoffset:0;stroke-opacity:1"
         inkscape:connector-curvature="0" />
      <path
         style="fill:url(#linearGradient4203);fill-rule:evenodd;stroke:none"
         d="m 547.79497,407.23671 4.11436,-0.77484 c 0.60586,-19.30515 -2.78159,-41.77731 1.70241,-61.35942 -2.13045,0.70085 -7.51513,7.25837 -7.70511,10.76947 -0.99627,18.41164 -1.14373,33.4276 1.88834,51.36479 z"
         id="path28748"
         sodipodi:nodetypes="cccsc"
         inkscape:connector-curvature="0" />
      <path
         sodipodi:nodetypes="cccsc"
         id="path28750"
         d="m 588.77748,407.08406 4.7267,-1.85212 c 1.051,-29.77382 -2.6636,-56.77703 -0.2566,-87.66961 l -3.8109,0.61705 c -4.7196,0.76417 0.1021,68.14702 -0.6592,88.90468 z"
         style="fill:url(#linearGradient4200);fill-rule:evenodd;stroke:none"
         inkscape:connector-curvature="0" />
      <path
         style="fill:#5a2ca0;fill-opacity:1;fill-rule:nonzero;stroke:#000000;stroke-width:2.48673677;stroke-linecap:round;stroke-linejoin:round;stroke-miterlimit:4;stroke-dashoffset:0;stroke-opacity:1"
         d="m 555.51042,198.57503 c -26.69676,1.47567 -47.2945,28.46899 -45.97713,60.25299 13.51975,14.49655 -1.69881,99.60653 -1.73526,111.39358 27.29559,16.73963 87.50194,11.98473 102.47159,3.75724 -3.99795,-2.43569 -11.5663,-70.52518 -4.009,-120.49742 -1.31737,-31.78399 -24.05346,-56.38204 -50.7502,-54.90639 z"
         id="path20425"
         sodipodi:nodetypes="cccccc"
         inkscape:connector-curvature="0" />
      <path
         sodipodi:nodetypes="cccccc"
         id="path20429"
         d="m 527.56765,213.08541 14.26013,54.01387 17.17793,26.2786 13.46572,-24.84644 16.96748,-55.79958 z"
         style="fill:#c6afe9;fill-opacity:1;stroke:#000000;stroke-width:1.99998176;stroke-linecap:butt;stroke-linejoin:miter;stroke-opacity:1"
         inkscape:connector-curvature="0" />
      <path
         style="opacity:0.2;fill:#000000;stroke:none"
         d="m 553.54826,268.41098 c -13.23813,13.24222 -25.70891,7.09023 -31.50475,0.89439 11.73784,5.45494 23.72808,3.99951 31.50475,-0.89439 z"
         id="path11747"
         sodipodi:nodetypes="ccc"
         inkscape:connector-curvature="0" />
      <path
         style="fill:url(#linearGradient4194);fill-rule:evenodd;stroke:none"
         d="m 594.0855,257.62751 c 2.50076,24.55178 0.67268,93.05878 7.71209,118.97425 l 7.31223,-2.5062 c -6.86512,-32.5911 -5.37768,-64.34695 -7.95211,-96.50898 l -7.07225,-19.95907 z"
         id="path20433"
         sodipodi:nodetypes="cccccc"
         inkscape:connector-curvature="0" />
      <path
         style="fill:#ffccaa;fill-opacity:1;stroke:#000000;stroke-width:1.99998176;stroke-linecap:round;stroke-linejoin:round;stroke-opacity:1"
         d="m 535.09267,208.46844 c 5.07261,13.26282 11.24062,20.13851 21.92011,29.66341 13.13022,-9.99458 18.18172,-18.94872 25.10206,-32.4918 z"
         id="path20435"
         sodipodi:nodetypes="cccc"
         inkscape:connector-curvature="0" />
      <path
         style="fill:url(#radialGradient4190);fill-rule:evenodd;stroke:none"
         d="m 579.89503,213.19677 c -18.53396,20.33438 -33.42908,12.68199 -43.73075,-3.8551 13.16549,8.11032 29.87791,9.84483 43.73075,3.8551 z"
         id="path20437"
         sodipodi:nodetypes="ccc"
         inkscape:connector-curvature="0" />
      <ellipse
         style="display:inline;fill:#ffccaa;fill-opacity:1;fill-rule:nonzero;stroke:#000000;stroke-width:2.03510833;stroke-linecap:round;stroke-linejoin:round;stroke-miterlimit:4;stroke-dasharray:none;stroke-dashoffset:0;stroke-opacity:1"
         id="path20439"
         transform="matrix(1.2137561,0.15352858,-0.15315005,1.210764,426.17083,8.089806)"
         cx="124.80434"
         cy="126.43295"
         rx="29.344931"
         ry="29.698484" />
      <path
         style="display:inline;fill:url(#linearGradient4186);fill-opacity:1;fill-rule:nonzero;stroke:none"
         d="m 578.04123,149.21164 c 9.66643,6.15289 16.45193,20.67731 14.62495,35.18866 -0.62638,9.33343 -4.63662,17.51676 -10.19171,22.88955 6.69282,-21.50317 7.79827,-38.80843 -4.43324,-58.07821 z"
         id="path20441"
         sodipodi:nodetypes="cccc"
         inkscape:connector-curvature="0" />
      <ellipse
         style="fill:#000000;fill-opacity:1;fill-rule:nonzero;stroke:none"
         id="path20443"
         transform="matrix(0.95592292,-0.04660053,0.04660053,0.95592292,436.01934,41.517106)"
         cx="109.15961"
         cy="146.14354"
         rx="4.6845822"
         ry="4.3310289" />
      <g
         id="g20459"
         transform="matrix(1.4503925,0,0,1.4503925,268.65313,-16.180257)"
         style="fill:#aa0000">
        <path
           sodipodi:nodetypes="cccccc"
           id="path20461"
           d="m 174.50563,290.9834 v 6.49994 c -31.32599,11.80546 2.14419,16.34688 21.06639,9.90493 v -6.36729 -10.18766 c -8.36426,3.56641 -12.46723,3.83684 -21.06639,0.15008 z"
           style="display:inline;fill:#aa0000;fill-opacity:1;fill-rule:nonzero;stroke:#000000;stroke-width:1.71452677;stroke-linecap:round;stroke-linejoin:round;stroke-miterlimit:4;stroke-dasharray:none;stroke-dashoffset:0;stroke-opacity:1"
           inkscape:connector-curvature="0" />
      </g>
      <g
         style="fill:#aa0000"
         transform="matrix(-1.4503925,0,0,1.4503925,846.83793,-16.180257)"
         id="g20463">
        <path
           style="display:inline;fill:#aa0000;fill-opacity:1;fill-rule:nonzero;stroke:#000000;stroke-width:1.71452677;stroke-linecap:round;stroke-linejoin:round;stroke-miterlimit:4;stroke-dasharray:none;stroke-dashoffset:0;stroke-opacity:1"
           d="m 174.50563,290.9834 v 6.49994 c -31.32599,11.80546 2.14419,16.34688 21.06639,9.90493 v -6.36729 -10.18766 c -8.36426,3.56641 -12.46723,3.83684 -21.06639,0.15008 z"
           id="path20465"
           sodipodi:nodetypes="cccccc"
           inkscape:connector-curvature="0" />
      </g>
      <ellipse
         transform="matrix(0.95592292,-0.04660053,0.04660053,0.95592292,455.31248,42.232854)"
         id="path20467"
         style="fill:#000000;fill-opacity:1;fill-rule:nonzero;stroke:none"
         cx="109.15961"
         cy="146.14354"
         rx="4.6845822"
         ry="4.3310289" />
      <g
         id="g20495"
         transform="matrix(1.0671565,-0.98224999,0.98224999,1.0671565,125.15813,222.20004)">
        <path
           sodipodi:nodetypes="ccccccc"
           id="path20497"
           d="m 161.98053,213.19503 1.45993,21.35123 9.83473,10.67036 -1.39074,-29.4179 -9.90389,-2.60374 -1e-5,5e-5 z"
           style="fill:#ffccaa;fill-opacity:1;fill-rule:evenodd;stroke:#000000;stroke-width:1.71452713;stroke-linecap:round;stroke-linejoin:round;stroke-opacity:1"
           inkscape:connector-curvature="0" />
        <path
           sodipodi:nodetypes="ccccc"
           id="path20499"
           d="m 162.1126,215.76669 2.50541,17.64835 c 0.80957,0.16927 1.66365,0.73267 1.59585,-2.07789 l -1.49852,-15.35101 z"
           style="fill:url(#linearGradient5508);fill-rule:evenodd;stroke:none"
           inkscape:connector-curvature="0" />
      </g>
      <path
         style="fill:#5a2ca0;fill-opacity:1;fill-rule:nonzero;stroke:#000000;stroke-width:2.4867363;stroke-linecap:round;stroke-linejoin:round;stroke-miterlimit:4;stroke-dashoffset:0;stroke-opacity:1"
         d="m 527.39436,254.32333 -3.71161,21.17052 6.16328,11.5594 c -5.56532,1.19137 -14.76099,17.46237 -20.05156,11.75775 -1.41235,-4.9235 -7.79845,-12.41537 -10.37864,-19.33832 -7.98581,-34.1806 14.87251,-56.40519 34.42993,-72.62079"
         id="path20469"
         sodipodi:nodetypes="cccccc"
         clip-path="none"
         inkscape:connector-curvature="0" />
      <path
         sodipodi:nodetypes="ccc"
         id="path25920"
         d="m 564.04351,268.41098 c 13.23813,13.24222 25.70891,7.09023 31.50475,0.89439 -11.73784,5.45494 -23.72808,3.99951 -31.50475,-0.89439 z"
         style="opacity:0.2;fill:#000000;stroke:none"
         inkscape:connector-curvature="0" />
      <g
         transform="matrix(-0.0403688,-1.4548202,-1.4548202,0.0403688,920.02467,526.21253)"
         id="g28532">
        <path
           style="fill:#ffccaa;fill-opacity:1;fill-rule:evenodd;stroke:#000000;stroke-width:1.71452713;stroke-linecap:round;stroke-linejoin:round;stroke-opacity:1"
           d="m 157.14774,215.35537 7.77358,18.2353 c -6.01594,5.22106 5.42729,21.54023 8.3306,12.49018 -1.31292,-13.35415 5.20498,-2.68553 6.71384,-5.616 1.0259,-1.99244 -0.30783,-4.42834 -5.19046,-7.29585 l -7.15019,-17.32395 z"
           id="path28534"
           sodipodi:nodetypes="cccsccc"
           inkscape:connector-curvature="0" />
        <path
           style="fill:url(#linearGradient29031);fill-rule:evenodd;stroke:none"
           d="m 157.65217,216.54445 6.96584,16.87059 c 0.80957,0.16927 1.66365,0.73267 1.59585,-2.07789 l -6.13553,-15.00962 z"
           id="path28536"
           sodipodi:nodetypes="ccccc"
           inkscape:connector-curvature="0" />
        <path
           style="fill:none;stroke:#000000;stroke-width:0.85726339px;stroke-linecap:round;stroke-linejoin:round;stroke-opacity:1"
           d="m 168.9375,247.875 c -0.17881,-1.51603 -1.23818,-4.78167 0.125,-7.5"
           id="path28538"
           sodipodi:nodetypes="cc"
           inkscape:connector-curvature="0" />
        <path
           sodipodi:nodetypes="cc"
           id="path28540"
           d="m 165.5,244.3125 c -0.17881,-1.51603 -0.55068,-3.53167 0.8125,-6.25"
           style="fill:none;stroke:#000000;stroke-width:0.85726339px;stroke-linecap:round;stroke-linejoin:round;stroke-opacity:1"
           inkscape:connector-curvature="0" />
      </g>
      <path
         clip-path="none"
         sodipodi:nodetypes="cccccc"
         id="path20481"
         d="m 592.5333,258.33582 c -2.50152,12.13218 2.69601,17.87285 -2.77902,28.68346 6.39084,6.18399 3.70566,11.11797 2.34862,17.30196 l 12.72761,1.2682 c 7.58699,-3.10412 15.3463,-15.07537 13.21928,-22.21051 1.24087,-30.33503 -7.53832,-54.0935 -33.03362,-74.97873"
         style="fill:#5a2ca0;fill-opacity:1;fill-rule:nonzero;stroke:#000000;stroke-width:2.4867363;stroke-linecap:round;stroke-linejoin:round;stroke-miterlimit:4;stroke-dashoffset:0;stroke-opacity:1"
         inkscape:connector-curvature="0" />
      <g
         transform="rotate(1.4854157,868.96701,72.271045)"
         id="g28451">
        <g
           transform="matrix(-0.96592583,0.25881905,0.25881905,0.96592583,999.2209,-131.6707)"
           id="g28434">
          <path
             transform="translate(-1.7040842)"
             style="fill:#ffffff;fill-opacity:1;stroke:#000000;stroke-width:2;stroke-linecap:round;stroke-linejoin:round;stroke-miterlimit:4;stroke-dashoffset:0;stroke-opacity:1"
             d="m 511.94528,316.83496 32.18003,0.47188 2.6835,9.10142 -34.86353,-0.0274 v -9.54594 z"
             id="rect28436"
             sodipodi:nodetypes="ccccc"
             inkscape:connector-curvature="0" />
          <path
             style="opacity:0.35;fill:none;stroke:#000000;stroke-width:1px;stroke-linecap:round;stroke-linejoin:round;stroke-opacity:1"
             d="m 513.51156,320.19371 h 27.40039"
             id="path28438"
             inkscape:connector-curvature="0" />
          <path
             id="path28440"
             d="m 513.51156,322.72405 h 27.40039"
             style="opacity:0.35;fill:none;stroke:#000000;stroke-width:1px;stroke-linecap:round;stroke-linejoin:round;stroke-opacity:1"
             inkscape:connector-curvature="0" />
        </g>
        <g
           id="g28429"
           transform="rotate(15,556.70613,369.55356)">
          <path
             transform="translate(-1.7040842)"
             style="fill:#ffffff;fill-opacity:1;stroke:#000000;stroke-width:2;stroke-linecap:round;stroke-linejoin:round;stroke-miterlimit:4;stroke-dashoffset:0;stroke-opacity:1"
             d="m 511.94528,316.83496 32.13428,0.30113 2.59812,9.1243 -34.7324,0.12051 z"
             id="rect28423"
             sodipodi:nodetypes="ccccc"
             inkscape:connector-curvature="0" />
          <path
             id="path28425"
             d="m 513.51156,320.19371 h 27.40039"
             style="opacity:0.35;fill:none;stroke:#000000;stroke-width:1px;stroke-linecap:round;stroke-linejoin:round;stroke-opacity:1"
             inkscape:connector-curvature="0" />
          <path
             style="opacity:0.35;fill:none;stroke:#000000;stroke-width:1px;stroke-linecap:round;stroke-linejoin:round;stroke-opacity:1"
             d="m 513.51156,322.72405 h 27.40039"
             id="path28427"
             inkscape:connector-curvature="0" />
        </g>
        <path
           style="fill:#1a1a1a;fill-opacity:1;stroke:#000000;stroke-width:2.07326031;stroke-linecap:round;stroke-linejoin:round;stroke-miterlimit:4;stroke-dasharray:none;stroke-dashoffset:0;stroke-opacity:1"
           d="m 521.125,313.84375 -1.15625,4.375 38.18658,10.09375 37.93842,-10.09375 -1.1875,-4.375 -36.875,9.875 z"
           transform="translate(-1.7040842)"
           id="rect28442"
           sodipodi:nodetypes="ccccccc"
           inkscape:connector-curvature="0" />
      </g>
      <path
         sodipodi:nodetypes="cc"
         id="path25916"
         d="m 531.79589,229.09316 1.125,-10.125"
         style="fill:none;stroke:#000000;stroke-width:2;stroke-linecap:butt;stroke-linejoin:miter;stroke-opacity:1"
         inkscape:connector-curvature="0" />
      <path
         style="fill:none;stroke:#000000;stroke-width:2;stroke-linecap:butt;stroke-linejoin:miter;stroke-opacity:1"
         d="m 585.96238,224.31105 -0.90888,-7.07118"
         id="path25918"
         sodipodi:nodetypes="cc"
         inkscape:connector-curvature="0" />
      <g
         transform="translate(-2,2)"
         id="g5662">
        <path
           sodipodi:nodetypes="cccccccccssssccccccccsssscscccccccccc"
           id="path12590"
           d="m 551.6673,137.58625 c -2.77724,0.439 -4.75327,1.30368 -7.34035,2.52429 -2.32642,0.27059 -4.66198,3.32895 -6.37006,4.59174 -2.17701,1.85966 -1.86995,2.3102 -4.18928,4.0465 -1.80879,1.23981 -5.89793,5.40427 -6.60083,7.38437 -0.30233,0.97094 -4.35361,8.53838 -5.01489,14.4761 -0.85449,11.65677 3.26114,22.48992 3.25326,32.55549 0.45879,6.44297 3.33923,10.74087 3.6371,10.70422 3.85206,3.40948 9.68734,6.50306 11.39137,3.46844 -0.8638,-4.14967 -2.6365,-9.48909 -4.43567,-15.23684 -0.88563,-2.82928 -5.01753,-3.5976 -2.57088,-8.69147 1.81808,-3.78521 -2.00317,-8.11828 -2.44418,-11.94805 -0.22426,-1.94747 0.0204,-4.26267 -0.27459,-5.6279 -1.08875,-5.03915 2.18443,-10.95852 4.05365,-11.40913 1.83809,-2.48805 2.02096,-6.35221 2.93938,-6.51539 1.84179,-0.10879 3.48306,-2.78584 5.18788,-1.53527 1.76833,1.27097 3.62418,-0.28684 4.73562,-1.63418 3.17022,-0.97967 3.80223,3.60242 6.80666,2.93204 1.52141,-1.37318 9.00835,-4.34833 10.273,-2.62911 1.92725,0.81338 3.95911,-0.79257 5.52235,-1.74971 0.7758,-0.58333 4.12854,4.80912 8.5255,7.31597 2.08488,1.72903 0.82367,4.4864 2.27017,6.17584 1.57199,1.83599 4.82558,2.7795 5.75064,4.63042 1.28103,2.56314 3.05586,5.1714 3.35119,7.9101 0.38083,3.53152 -1.96773,7.01478 -2.66247,11.16303 -0.47296,2.82405 -0.14936,6.09858 -0.8736,9.35096 -0.50339,1.94311 -1.77057,3.91143 -2.97906,5.89475 -2.04038,3.34858 -3.91347,6.7399 -1.66078,10.1248 3.35115,4.46495 9.18585,-0.68862 12.76253,-5.39705 1.26481,-13.86869 7.07653,-25.46392 1.33681,-42.83488 l -4.15714,-11.50538 c 0.43527,-1.92505 -6.59851,-12.73462 -8.31516,-13.55524 -2.09567,-0.75668 -5.70496,-1.41686 -7.56026,-2.66535 -2.10199,-0.77067 -6.45227,1.17776 -8.44003,0.0783 -2.30451,-0.93239 -3.8495,-1.01003 -6.19647,-1.80497 -2.96718,-0.37627 -6.72079,-0.43016 -9.71141,-0.58744 z"
           style="fill:#a05a2c;fill-rule:evenodd;stroke:#28170b;stroke-width:2;stroke-linecap:round;stroke-linejoin:round;stroke-miterlimit:4;stroke-dasharray:none;stroke-opacity:1"
           inkscape:connector-curvature="0" />
        <path
           style="opacity:0.2;fill:#000000;stroke:none"
           d="m 542.59806,153.08404 -4.25694,1.61016 -6.10467,5.64297 c -3.58475,1.97243 -4.73164,5.97143 -5.07102,10.54246 -0.41652,3.01286 -0.43713,6.21234 -0.19287,9.45022 0.22495,2.98193 1.79956,5.99643 2.37145,8.92771 0.64254,3.29336 0.0941,6.42451 0.86521,8.99926 1.0679,3.56582 2.02938,6.06445 2.24822,6.44875 2.2001,3.86371 3.13595,8.95092 4.44173,13.42638 2.35657,0.32688 4.20515,0.007 3.22361,-3.91438 -1.68253,-6.8921 -8.04679,-13.38956 -6.9953,-20.52648 0.51766,-3.51363 -0.71085,-6.20361 -2.3937,-9.21249 -1.78994,-3.20038 -0.2818,-8.57402 0.29382,-12.97391 l 4.66272,-7.3107 1.99532,-5.81698 3.15195,-1.21574 5.75915,-1.38502 z"
           id="path4281"
           sodipodi:nodetypes="ccccssssccsscccccc"
           inkscape:connector-curvature="0" />
        <path
           sodipodi:nodetypes="csssccsscscccc"
           id="path4283"
           d="m 592.13211,174.13597 c 0.8938,3.29466 1.37228,6.48529 1.48573,9.60731 0.10079,2.77346 -1.85426,4.69728 -2.29437,7.38727 -0.43509,2.65936 0.65051,6.08554 -0.24469,8.71157 -1.88163,5.51966 -4.7044,11.0187 -8.15196,16.71988 -2.82944,-2.00137 -1.50263,-4.89336 -1.2477,-7.55566 1.76677,-2.53476 3.22357,-5.67686 4.24133,-8.40968 2.04204,-5.48312 0.38116,-11.7886 2.86913,-17.01713 2.08648,-4.38478 -0.15325,-8.15081 -1.57794,-12.07484 -4.89745,-2.24595 -6.55757,-6.00798 -7.53158,-9.57925 -0.34783,-1.27534 -2.36746,-1.2566 -3.74378,-1.67065 l -5.59633,-6.9208 5.94642,1.08867 c 8.02378,2.95392 14.833,11.11472 15.84574,19.71331 z"
           style="opacity:0.2;fill:#000000;stroke:none"
           inkscape:connector-curvature="0" />
      </g>
      <path
         sodipodi:nodetypes="ccc"
         id="path25922"
         d="m 529.85329,366.56239 c -8.4296,-16.69098 -4.36253,-31.71101 -0.89438,-38.50473 -0.85887,13.54337 -1.77866,28.61241 0.89438,38.50473 z"
         style="opacity:0.2;fill:#000000;stroke:none"
         inkscape:connector-curvature="0" />
      <path
         style="opacity:0.2;fill:#000000;stroke:none"
         d="m 584.86863,368.56239 c 8.4296,-16.69098 4.36253,-31.71101 0.89438,-38.50473 0.85887,13.54337 1.77866,28.61241 -0.89438,38.50473 z"
         id="path25924"
         sodipodi:nodetypes="ccc"
         inkscape:connector-curvature="0" />
      <path
         sodipodi:nodetypes="ccc"
         id="path25926"
         d="m 558.35329,371.06239 c -8.4296,-12.24782 -4.36253,-23.26951 -0.89438,-28.25473 -0.85887,9.93811 -1.77866,20.99576 0.89438,28.25473 z"
         style="opacity:0.2;fill:#000000;stroke:none"
         inkscape:connector-curvature="0" />
      <g
         id="g10510"
         style="display:inline"
         transform="matrix(1.7818545,0,0,1.7818545,333.30669,-74.857728)">
        <ellipse
           style="fill:#ffd42a;fill-opacity:1;fill-rule:nonzero;stroke:#d4aa00;stroke-width:1;stroke-linecap:round;stroke-linejoin:round;stroke-miterlimit:4;stroke-dasharray:none;stroke-dashoffset:0;stroke-opacity:1"
           id="path10491"
           cx="138.7697"
           cy="177.78656"
           rx="4.0658641"
           ry="3.4471455" />
        <ellipse
           id="path10493"
           style="fill:#aa0000;fill-opacity:1;fill-rule:nonzero;stroke:#550000;stroke-width:2.03211832;stroke-linecap:round;stroke-linejoin:round;stroke-miterlimit:4;stroke-dasharray:none;stroke-dashoffset:0;stroke-opacity:1"
           transform="matrix(0.4970648,0,0,0.4871795,69.792162,87.300729)"
           cx="138.7697"
           cy="177.78656"
           rx="4.0658641"
           ry="3.4471455" />
        <ellipse
           transform="matrix(0.4970648,0,0,0.4871795,66.458386,88.875825)"
           style="fill:#aa0000;fill-opacity:1;fill-rule:nonzero;stroke:#550000;stroke-width:2.03211832;stroke-linecap:round;stroke-linejoin:round;stroke-miterlimit:4;stroke-dasharray:none;stroke-dashoffset:0;stroke-opacity:1"
           id="path10495"
           cx="138.7697"
           cy="177.78656"
           rx="4.0658641"
           ry="3.4471455" />
        <ellipse
           id="path10497"
           style="fill:#aa0000;fill-opacity:1;fill-rule:nonzero;stroke:#550000;stroke-width:2.03211832;stroke-linecap:round;stroke-linejoin:round;stroke-miterlimit:4;stroke-dasharray:none;stroke-dashoffset:0;stroke-opacity:1"
           transform="matrix(0.4970648,0,0,0.4871795,66.024392,91.7688)"
           cx="138.7697"
           cy="177.78656"
           rx="4.0658641"
           ry="3.4471455" />
        <ellipse
           transform="matrix(0.4970648,0,0,0.4871795,67.261831,94.066901)"
           style="fill:#aa0000;fill-opacity:1;fill-rule:nonzero;stroke:#550000;stroke-width:2.03211832;stroke-linecap:round;stroke-linejoin:round;stroke-miterlimit:4;stroke-dasharray:none;stroke-dashoffset:0;stroke-opacity:1"
           id="path10499"
           cx="138.7697"
           cy="177.78656"
           rx="4.0658641"
           ry="3.4471455" />
        <ellipse
           id="path10501"
           style="fill:#aa0000;fill-opacity:1;fill-rule:nonzero;stroke:#550000;stroke-width:2.03211832;stroke-linecap:round;stroke-linejoin:round;stroke-miterlimit:4;stroke-dasharray:none;stroke-dashoffset:0;stroke-opacity:1"
           transform="matrix(0.4970648,0,0,0.4871795,69.856705,95.247559)"
           cx="138.7697"
           cy="177.78656"
           rx="4.0658641"
           ry="3.4471455" />
        <ellipse
           transform="matrix(0.4970648,0,0,0.4871795,72.903567,93.76409)"
           style="fill:#aa0000;fill-opacity:1;fill-rule:nonzero;stroke:#550000;stroke-width:2.03211832;stroke-linecap:round;stroke-linejoin:round;stroke-miterlimit:4;stroke-dasharray:none;stroke-dashoffset:0;stroke-opacity:1"
           id="path10503"
           cx="138.7697"
           cy="177.78656"
           rx="4.0658641"
           ry="3.4471455" />
        <ellipse
           id="path10505"
           style="fill:#aa0000;fill-opacity:1;fill-rule:nonzero;stroke:#550000;stroke-width:2.03211832;stroke-linecap:round;stroke-linejoin:round;stroke-miterlimit:4;stroke-dasharray:none;stroke-dashoffset:0;stroke-opacity:1"
           transform="matrix(0.4970648,0,0,0.4871795,74.145716,91.183016)"
           cx="138.7697"
           cy="177.78656"
           rx="4.0658641"
           ry="3.4471455" />
        <ellipse
           transform="matrix(0.4970648,0,0,0.4871795,73.100951,88.411365)"
           style="fill:#aa0000;fill-opacity:1;fill-rule:nonzero;stroke:#550000;stroke-width:2.03211832;stroke-linecap:round;stroke-linejoin:round;stroke-miterlimit:4;stroke-dasharray:none;stroke-dashoffset:0;stroke-opacity:1"
           id="path10507"
           cx="138.7697"
           cy="177.78656"
           rx="4.0658641"
           ry="3.4471455" />
      </g>
      <ellipse
         transform="matrix(0.977708,-0.07870684,0.09564895,1.1881652,-7.11196,-23.021969)"
         id="path28462"
         style="fill:#ffccaa;fill-opacity:1;stroke:#000000;stroke-width:1.5;stroke-linecap:round;stroke-linejoin:round;stroke-miterlimit:4;stroke-dasharray:none;stroke-dashoffset:0;stroke-opacity:1"
         cx="529.9375"
         cy="321.40564"
         rx="3.1874998"
         ry="2.9374998" />
      <ellipse
         style="fill:#ffccaa;fill-opacity:1;stroke:#000000;stroke-width:1.5;stroke-linecap:round;stroke-linejoin:round;stroke-miterlimit:4;stroke-dasharray:none;stroke-dashoffset:0;stroke-opacity:1"
         id="path28464"
         transform="matrix(0.92402259,-0.32907444,0.39990958,1.1229236,-70.890609,131.18167)"
         cx="529.9375"
         cy="321.40564"
         rx="3.1874998"
         ry="2.9374998" />
      <ellipse
         transform="matrix(0.92402259,-0.32907444,0.39990958,1.1229236,-64.934254,131.95622)"
         id="path28466"
         style="fill:#ffccaa;fill-opacity:1;stroke:#000000;stroke-width:1.5;stroke-linecap:round;stroke-linejoin:round;stroke-miterlimit:4;stroke-dasharray:none;stroke-dashoffset:0;stroke-opacity:1"
         cx="529.9375"
         cy="321.40564"
         rx="3.1874998"
         ry="2.9374998" />
      <ellipse
         transform="translate(8.2959158,-8)"
         id="path28633"
         style="fill:#ffccaa;fill-opacity:1;stroke:#000000;stroke-width:2;stroke-linecap:round;stroke-linejoin:round;stroke-miterlimit:4;stroke-dasharray:none;stroke-dashoffset:0;stroke-opacity:1"
         cx="516.71826"
         cy="428.0275"
         rx="9.3691645"
         ry="4.4194174" />
      <ellipse
         style="fill:#ffccaa;fill-opacity:1;stroke:#000000;stroke-width:2;stroke-linecap:round;stroke-linejoin:round;stroke-miterlimit:4;stroke-dasharray:none;stroke-dashoffset:0;stroke-opacity:1"
         id="path28637"
         transform="translate(72.295916,-8)"
         cx="516.71826"
         cy="428.0275"
         rx="9.3691645"
         ry="4.4194174" />
      <path
         sodipodi:nodetypes="cscc"
         id="path5667"
         d="m 565.67086,203.4759 c -0.1233,3.01474 -5.7187,5.47991 -7.92164,5.39749 -2.57235,-0.0963 -7.02652,-3.4719 -8.32836,-5.81063 6.78308,1.00251 9.31437,1.35152 16.25,0.41314 z"
         style="fill:#000000;fill-opacity:1;stroke:none"
         inkscape:connector-curvature="0" />
    </g>
  </g>
</svg>
