<?xml version="1.0" encoding="UTF-8" standalone="no"?>
<!-- Created with Inkscape (http://www.inkscape.org/) -->

<svg
   xmlns:dc="http://purl.org/dc/elements/1.1/"
   xmlns:cc="http://creativecommons.org/ns#"
   xmlns:rdf="http://www.w3.org/1999/02/22-rdf-syntax-ns#"
   xmlns:svg="http://www.w3.org/2000/svg"
   xmlns="http://www.w3.org/2000/svg"
   xmlns:xlink="http://www.w3.org/1999/xlink"
   xmlns:sodipodi="http://sodipodi.sourceforge.net/DTD/sodipodi-0.dtd"
   xmlns:inkscape="http://www.inkscape.org/namespaces/inkscape"
   width="263.125"
   height="409.59439"
   id="svg2"
   version="1.1"
   inkscape:version="0.48.0 r9654"
   sodipodi:docname="rabbit.svg">
  <defs
     id="defs4">
    <linearGradient
       inkscape:collect="always"
       xlink:href="#linearGradient4157"
       id="linearGradient8384"
       gradientUnits="userSpaceOnUse"
       gradientTransform="translate(1.25,1)"
       x1="181.25"
       y1="278.875"
       x2="211.74998"
       y2="305.625" />
    <linearGradient
       inkscape:collect="always"
       id="linearGradient4157">
      <stop
         style="stop-color:#000000;stop-opacity:0"
         offset="0"
         id="stop4159" />
      <stop
         style="stop-color:#000000;stop-opacity:0.4"
         offset="1"
         id="stop4161" />
    </linearGradient>
    <linearGradient
       inkscape:collect="always"
       xlink:href="#linearGradient4157"
       id="linearGradient8790"
       gradientUnits="userSpaceOnUse"
       gradientTransform="matrix(1.3138117,-0.85562503,1.102419,1.0196941,-350.28632,172.01187)"
       x1="181.25"
       y1="278.875"
       x2="211.74998"
       y2="305.625" />
    <linearGradient
       inkscape:collect="always"
       xlink:href="#linearGradient4157"
       id="linearGradient8792"
       gradientUnits="userSpaceOnUse"
       gradientTransform="matrix(-1.3138117,-0.85562503,-1.102419,1.0196941,716.04022,172.01187)"
       x1="181.25"
       y1="278.875"
       x2="211.74998"
       y2="305.625" />
  </defs>
  <sodipodi:namedview
     id="base"
     pagecolor="#ffffff"
     bordercolor="#666666"
     borderopacity="1.0"
     inkscape:pageopacity="0.0"
     inkscape:pageshadow="2"
     inkscape:zoom="0.98994949"
     inkscape:cx="157.80506"
     inkscape:cy="177.32841"
     inkscape:document-units="px"
     inkscape:current-layer="layer1"
     showgrid="false"
     inkscape:window-width="1440"
     inkscape:window-height="847"
     inkscape:window-x="0"
     inkscape:window-y="24"
     inkscape:window-maximized="1"
     fit-margin-top="0"
     fit-margin-left="0"
     fit-margin-right="0"
     fit-margin-bottom="0" />
  <metadata
     id="metadata7">
    <rdf:RDF>
      <cc:Work
         rdf:about="">
        <dc:format>image/svg+xml</dc:format>
        <dc:type
           rdf:resource="http://purl.org/dc/dcmitype/StillImage" />
        <dc:title></dc:title>
      </cc:Work>
    </rdf:RDF>
  </metadata>
  <g
     inkscape:label="Layer 1"
     inkscape:groupmode="layer"
     id="layer1"
     transform="translate(-48.749996,16.125651)">
    <g
       id="g8733">
      <path
         sodipodi:type="arc"
         style="fill:#4d4d4d;fill-opacity:1;fill-rule:nonzero;stroke:#000000;stroke-width:0.88945144;stroke-linecap:round;stroke-linejoin:round;stroke-miterlimit:4;stroke-opacity:1;stroke-dasharray:none;stroke-dashoffset:0;display:inline"
         id="path8168"
         sodipodi:cx="167.75"
         sodipodi:cy="301.25"
         sodipodi:rx="45.25"
         sodipodi:ry="30.25"
         d="m 213,301.25 a 45.25,30.25 0 1 1 -90.5,0 45.25,30.25 0 1 1 90.5,0 z"
         transform="matrix(0.01468649,-2.0813745,-2.4293269,0.01632744,909.39066,664.79337)" />
      <path
         inkscape:connector-curvature="0"
         style="fill:url(#linearGradient8790);fill-rule:evenodd;stroke:none;display:inline"
         d="m 218.90472,261.8009 3.12631,76.67193 -8.87397,61.55015 8.89097,-0.57732 16.54881,-147.64565 -19.69212,10.00089 z"
         id="path8679"
         sodipodi:nodetypes="cccccc" />
      <path
         sodipodi:nodetypes="cccccc"
         id="path8170"
         d="m 146.84918,261.8009 -3.12631,76.67193 8.87397,61.55015 -8.89097,-0.57732 -16.54881,-147.64565 19.69212,10.00089 z"
         style="fill:url(#linearGradient8792);fill-rule:evenodd;stroke:none;display:inline"
         inkscape:connector-curvature="0" />
      <path
         transform="matrix(0.00729359,-0.45175006,-1.206449,0.00354377,545.20836,337.19157)"
         d="m 213,301.25 c 0,16.70661 -20.25912,30.25 -45.25,30.25 -24.99088,0 -45.25,-13.54339 -45.25,-30.25 0,-16.70661 20.25912,-30.25 45.25,-30.25 24.99088,0 45.25,13.54339 45.25,30.25 z"
         sodipodi:ry="30.25"
         sodipodi:rx="45.25"
         sodipodi:cy="301.25"
         sodipodi:cx="167.75"
         id="path8641"
         style="fill:#ececec;fill-opacity:1;fill-rule:nonzero;stroke:#000000;stroke-width:2.7091732;stroke-linecap:round;stroke-linejoin:round;stroke-miterlimit:4;stroke-opacity:1;stroke-dasharray:none;stroke-dashoffset:0;display:inline"
         sodipodi:type="arc" />
      <path
         sodipodi:type="arc"
         style="opacity:0.1;fill:#000000;fill-opacity:1;fill-rule:nonzero;stroke:none;display:inline"
         id="path8643"
         sodipodi:cx="167.75"
         sodipodi:cy="301.25"
         sodipodi:rx="45.25"
         sodipodi:ry="30.25"
         d="m 213,301.25 c 0,16.70661 -20.25912,30.25 -45.25,30.25 -24.99088,0 -45.25,-13.54339 -45.25,-30.25 0,-16.70661 20.25912,-30.25 45.25,-30.25 24.99088,0 45.25,13.54339 45.25,30.25 z"
         transform="matrix(0.00729359,-0.45175006,-1.206449,0.00354377,545.20836,331.19157)" />
      <g
         transform="matrix(1.1292596,0,0,1.1292596,-28.091663,-39.675487)"
         id="g8693">
        <path
           transform="matrix(0.64703046,-0.37356321,0.17567568,0.3042792,-1.4776119,277.79762)"
           d="m 185.86806,331.61835 c 0,10.321 -9.83667,18.68782 -21.97081,18.68782 -12.13415,0 -21.97082,-8.36682 -21.97082,-18.68782 0,-10.321 9.83667,-18.68783 21.97082,-18.68783 12.13414,0 21.97081,8.36683 21.97081,18.68783 z"
           sodipodi:ry="18.687822"
           sodipodi:rx="21.970818"
           sodipodi:cy="331.61835"
           sodipodi:cx="163.89725"
           id="path8687"
           style="fill:#ececec;fill-opacity:1;stroke:#000000;stroke-width:3.45675302"
           sodipodi:type="arc" />
        <path
           transform="matrix(0.5,-0.86602541,0.86602541,0.5,-186.15506,306.04414)"
           d="m 184.28572,314.50504 c 0,2.36693 -3.51777,4.28571 -7.85715,4.28571 -4.33938,0 -7.85714,-1.91878 -7.85714,-4.28571 0,-2.36694 3.51776,-4.28572 7.85714,-4.28572 4.33938,0 7.85715,1.91878 7.85715,4.28572 z"
           sodipodi:ry="4.2857141"
           sodipodi:rx="7.8571429"
           sodipodi:cy="314.50504"
           sodipodi:cx="176.42857"
           id="path8701"
           style="fill:#d40000;fill-opacity:1;stroke:#2b0000;stroke-width:1.32830393;stroke-linecap:round;stroke-linejoin:round;stroke-miterlimit:4;stroke-opacity:1;stroke-dasharray:none;stroke-dashoffset:0"
           sodipodi:type="arc" />
        <path
           sodipodi:type="arc"
           style="fill:#ececec;fill-opacity:1;stroke:#000000;stroke-width:1.98347199"
           id="path8683"
           sodipodi:cx="163.89725"
           sodipodi:cy="331.61835"
           sodipodi:rx="21.970818"
           sodipodi:ry="18.687822"
           d="m 185.86806,331.61835 c 0,10.321 -9.83667,18.68782 -21.97081,18.68782 -12.13415,0 -21.97082,-8.36682 -21.97082,-18.68782 0,-10.321 9.83667,-18.68783 21.97082,-18.68783 12.13414,0 21.97081,8.36683 21.97081,18.68783 z"
           transform="matrix(1,0,0,0.7972973,-1.5152288,61.916634)" />
        <path
           style="fill:none;stroke:#000000;stroke-width:1.32830393;stroke-linecap:round;stroke-linejoin:round;stroke-opacity:1"
           d="m 182.34265,322.71529 c -3.34786,2.9199 -7.82021,3.64681 -13.09706,2.80489"
           id="path8689"
           inkscape:connector-curvature="0"
           sodipodi:nodetypes="cc" />
        <path
           sodipodi:nodetypes="cc"
           inkscape:connector-curvature="0"
           id="path8691"
           d="m 183.377,328.62548 c -4.19562,3.06826 -9.67845,3.972 -16.08215,3.3273"
           style="fill:none;stroke:#000000;stroke-width:1.32830393;stroke-linecap:round;stroke-linejoin:round;stroke-opacity:1" />
      </g>
      <g
         transform="matrix(0.85052196,0,0,1,15.590835,-2)"
         id="g8635">
        <path
           sodipodi:nodetypes="ccccccc"
           id="path8174"
           d="m 114.00402,232.05759 30.75285,26.07967 -3.97185,72.40465 16.73182,73.04434 -62.45481,3.78854 -8.1527,-106.27741 c 6.02293,-26.97139 8.37228,-43.24531 27.09469,-69.03979 z"
           style="fill:#1a1a1a;fill-opacity:1;fill-rule:nonzero;stroke:#000000;stroke-width:2.16863918;stroke-linecap:round;stroke-linejoin:round;stroke-miterlimit:4;stroke-opacity:1;stroke-dashoffset:0;display:inline"
           inkscape:connector-curvature="0" />
        <path
           sodipodi:nodetypes="csccsc"
           id="path8178"
           d="M 113.53464,232.34925 C 74.772797,268.77368 60.427001,335.16186 89.79576,339.17654 l 73.80647,12.08927 c -2.00381,-12.67656 -4.00912,-25.35313 0.54458,-38.02969 -24.74744,-3.04852 -42.33524,-8.14395 -40.15877,-13.79629 l 5.82231,-15.12077"
           style="fill:#1a1a1a;fill-opacity:1;fill-rule:nonzero;stroke:#000000;stroke-width:2.16863942;stroke-linecap:round;stroke-linejoin:round;stroke-miterlimit:4;stroke-opacity:1;stroke-dashoffset:0;display:inline"
           inkscape:connector-curvature="0" />
      </g>
      <g
         transform="matrix(-1.1292596,0,0,1.1292596,392.8557,-39.675487)"
         id="g8703">
        <path
           sodipodi:type="arc"
           style="fill:#ececec;fill-opacity:1;stroke:#000000;stroke-width:3.45675302"
           id="path8705"
           sodipodi:cx="163.89725"
           sodipodi:cy="331.61835"
           sodipodi:rx="21.970818"
           sodipodi:ry="18.687822"
           d="m 185.86806,331.61835 c 0,10.321 -9.83667,18.68782 -21.97081,18.68782 -12.13415,0 -21.97082,-8.36682 -21.97082,-18.68782 0,-10.321 9.83667,-18.68783 21.97082,-18.68783 12.13414,0 21.97081,8.36683 21.97081,18.68783 z"
           transform="matrix(0.64703046,-0.37356321,0.17567568,0.3042792,-1.4776119,277.79762)" />
        <path
           sodipodi:type="arc"
           style="fill:#0000ff;fill-opacity:1;stroke:#00112b;stroke-width:1.32830393;stroke-linecap:round;stroke-linejoin:round;stroke-miterlimit:4;stroke-opacity:1;stroke-dasharray:none;stroke-dashoffset:0"
           id="path8707"
           sodipodi:cx="176.42857"
           sodipodi:cy="314.50504"
           sodipodi:rx="7.8571429"
           sodipodi:ry="4.2857141"
           d="m 184.28572,314.50504 c 0,2.36693 -3.51777,4.28571 -7.85715,4.28571 -4.33938,0 -7.85714,-1.91878 -7.85714,-4.28571 0,-2.36694 3.51776,-4.28572 7.85714,-4.28572 4.33938,0 7.85715,1.91878 7.85715,4.28572 z"
           transform="matrix(0.5,-0.86602541,0.86602541,0.5,-186.15506,306.04414)" />
        <path
           transform="matrix(1,0,0,0.7972973,-1.5152288,61.916634)"
           d="m 185.86806,331.61835 c 0,10.321 -9.83667,18.68782 -21.97081,18.68782 -12.13415,0 -21.97082,-8.36682 -21.97082,-18.68782 0,-10.321 9.83667,-18.68783 21.97082,-18.68783 12.13414,0 21.97081,8.36683 21.97081,18.68783 z"
           sodipodi:ry="18.687822"
           sodipodi:rx="21.970818"
           sodipodi:cy="331.61835"
           sodipodi:cx="163.89725"
           id="path8709"
           style="fill:#ececec;fill-opacity:1;stroke:#000000;stroke-width:1.98347199"
           sodipodi:type="arc" />
        <path
           sodipodi:nodetypes="cc"
           inkscape:connector-curvature="0"
           id="path8711"
           d="m 182.34265,322.71529 c -3.34786,2.9199 -7.82021,3.64681 -13.09706,2.80489"
           style="fill:none;stroke:#000000;stroke-width:1.32830393;stroke-linecap:round;stroke-linejoin:round;stroke-opacity:1" />
        <path
           style="fill:none;stroke:#000000;stroke-width:1.32830393;stroke-linecap:round;stroke-linejoin:round;stroke-opacity:1"
           d="m 183.377,328.62548 c -4.19562,3.06826 -9.67845,3.972 -16.08215,3.3273"
           id="path8713"
           inkscape:connector-curvature="0"
           sodipodi:nodetypes="cc" />
      </g>
      <use
         height="1052.3622"
         width="744.09448"
         transform="matrix(-1,0,0,1,365.9026,0)"
         id="use8639"
         xlink:href="#g8635"
         y="0"
         x="0" />
      <g
         transform="translate(-8.5714286,-45)"
         id="g5031">
        <g
           id="g2990"
           transform="matrix(0.77723072,-0.44873437,0.44873437,0.77723072,-28.518321,81.687264)">
          <path
             sodipodi:nodetypes="sssss"
             inkscape:connector-curvature="0"
             id="path2985"
             d="m 148.57143,216.6479 c -10.6761,52.07256 -17.29793,93.57029 -30,94.28572 -15.04094,0.84716 -19.526253,-37.72441 -30.000004,-94.28572 -9.481358,-51.2021 13.431454,-94.28571 30.000004,-94.28571 16.56854,0 40.45855,43.27424 30,94.28571 z"
             style="fill:#ececec;fill-opacity:1;stroke:#000000;stroke-width:2.22848988;stroke-linecap:round;stroke-linejoin:round;stroke-miterlimit:4;stroke-opacity:1;stroke-dashoffset:0"
             transform="translate(-0.71428572,-82.142857)" />
          <path
             style="fill:#f4d7d7;fill-opacity:1;stroke:#000000;stroke-width:2.22848988;stroke-linecap:round;stroke-linejoin:round;stroke-miterlimit:4;stroke-opacity:1;stroke-dashoffset:0"
             d="m 138.64765,140.93527 c -7.38013,39.54664 -11.95764,71.06221 -20.73827,71.60554 -10.39744,0.64338 -13.49803,-28.6499 -20.73828,-71.60554 -6.554234,-38.88558 9.28484,-71.60555 20.73828,-71.60555 11.45343,0 27.96802,32.86474 20.73827,71.60555 z"
             id="path2988"
             inkscape:connector-curvature="0"
             sodipodi:nodetypes="sssss" />
          <path
             sodipodi:nodetypes="ccc"
             transform="matrix(0.96496443,0.55712248,-0.55712248,0.96496443,56.229588,-14.738371)"
             inkscape:connector-curvature="0"
             id="path5062"
             d="M 72.857143,16.290752 C 55.386436,34.970533 68.546251,52.425093 73.214286,70.219324 72.122781,51.465167 69.495934,31.482738 72.857143,16.290752 z"
             style="opacity:0.1;fill:#000000;stroke:none" />
        </g>
        <use
           x="0"
           y="0"
           xlink:href="#g2990"
           id="use5024"
           transform="matrix(-1,0,0,1,372.42804,0)"
           width="744.09448"
           height="1052.3622" />
        <path
           sodipodi:type="arc"
           style="fill:#ececec;fill-opacity:1;stroke:#000000;stroke-width:1.59788394;stroke-linecap:round;stroke-linejoin:round;stroke-miterlimit:4;stroke-opacity:1;stroke-dasharray:none;stroke-dashoffset:0"
           id="path3000"
           sodipodi:cx="176.42857"
           sodipodi:cy="267.71933"
           sodipodi:rx="70.714287"
           sodipodi:ry="56.785713"
           d="m 247.14286,267.71933 c 0,31.36188 -31.65986,56.78571 -70.71429,56.78571 -39.05442,0 -70.71428,-25.42383 -70.71428,-56.78571 0,-31.36188 31.65986,-56.78571 70.71428,-56.78571 39.05443,0 70.71429,25.42383 70.71429,56.78571 z"
           transform="matrix(1.2020202,0,0,1.3033401,-20.642136,-108.35286)" />
        <g
           transform="matrix(-2.928702,0.01534888,0.01534888,2.928702,516.41034,152.00325)"
           id="g18849-2-6"
           style="display:inline">
          <path
             inkscape:connector-curvature="0"
             style="opacity:0.35;fill:none;stroke:#000000;stroke-width:0.9184925px;stroke-linecap:round;stroke-linejoin:round;stroke-opacity:1"
             d="m 107.81112,21.815695 c 1.59689,-1.255493 3.31313,-1.019405 5.08934,-0.03372"
             id="path14581-3-7-4"
             sodipodi:nodetypes="cc" />
          <g
             id="g14583-7-0-4"
             transform="matrix(1.0785363,0,0,1.0785363,-86.763577,-131.90944)">
            <path
               inkscape:connector-curvature="0"
               sodipodi:nodetypes="ccccc"
               id="path14585-3-3-3"
               d="m 170.45695,140.2889 c 4.38762,-1.35858 7.70157,-0.5698 11.125,0 l 0,7.875 c -3.70833,1.7303 -7.41667,1.60201 -11.125,0 l 0,-7.875 z"
               style="opacity:0.15;fill:#000000;fill-opacity:1;fill-rule:nonzero;stroke:none" />
            <path
               inkscape:connector-curvature="0"
               style="fill:#1a1a1a;fill-opacity:1;fill-rule:nonzero;stroke:#000000;stroke-width:0.85161024;stroke-linecap:round;stroke-linejoin:round;stroke-miterlimit:4;stroke-opacity:1;stroke-dashoffset:0"
               d="m 169.25,138.75 c 4.38762,-1.35858 7.70157,-0.5698 11.125,0 l 0,7.875 c -3.70833,1.7303 -7.41667,1.60201 -11.125,0 l 0,-7.875 z"
               id="path14587-5-4-7"
               sodipodi:nodetypes="ccccc" />
            <path
               inkscape:connector-curvature="0"
               style="fill:#595959;fill-opacity:1;fill-rule:evenodd;stroke:none"
               d="m 169.76014,138.93751 -0.0414,0.89583 c 3.66558,-0.86646 6.77552,-0.28822 10.0573,-0.15678 l 0.0365,-0.5828 c -2.98639,-0.29034 -5.07139,-1.17005 -10.05236,-0.15625 z"
               id="path14589-5-6-3"
               sodipodi:nodetypes="ccccc" />
            <path
               inkscape:connector-curvature="0"
               style="fill:#595959;fill-opacity:1;fill-rule:evenodd;stroke:none"
               d="m 174.96875,139.15626 2.70312,5.03125 -4.92187,-4.96875 2.21875,-0.0625 z"
               id="path14591-1-3-4"
               sodipodi:nodetypes="cccc" />
            <path
               inkscape:connector-curvature="0"
               sodipodi:nodetypes="cccc"
               id="path14593-8-6-7"
               d="m 169.73438,139.51564 3.92187,5.64062 -3.98438,-4.32812 0.0625,-1.3125 z"
               style="fill:#595959;fill-opacity:1;fill-rule:evenodd;stroke:none" />
          </g>
          <g
             transform="matrix(1.0785363,0,0,1.0785363,-69.506993,-131.90944)"
             id="g14595-1-3-2">
            <path
               inkscape:connector-curvature="0"
               style="opacity:0.15;fill:#000000;fill-opacity:1;fill-rule:nonzero;stroke:none"
               d="m 170.45695,140.2889 c 4.38762,-1.35858 7.70157,-0.5698 11.125,0 l 0,7.875 c -3.70833,1.7303 -7.41667,1.60201 -11.125,0 l 0,-7.875 z"
               id="path14597-7-3-1"
               sodipodi:nodetypes="ccccc" />
            <path
               inkscape:connector-curvature="0"
               sodipodi:nodetypes="ccccc"
               id="path14599-6-4-7"
               d="m 169.25,138.75 c 4.38762,-1.35858 7.70157,-0.5698 11.125,0 l 0,7.875 c -3.70833,1.7303 -7.41667,1.60201 -11.125,0 l 0,-7.875 z"
               style="fill:#1a1a1a;fill-opacity:1;fill-rule:nonzero;stroke:#000000;stroke-width:0.85161024;stroke-linecap:round;stroke-linejoin:round;stroke-miterlimit:4;stroke-opacity:1;stroke-dashoffset:0" />
            <path
               inkscape:connector-curvature="0"
               sodipodi:nodetypes="ccccc"
               id="path14601-8-4-9"
               d="m 169.76014,138.93751 -0.0414,0.89583 c 3.66558,-0.86646 6.77552,-0.28822 10.0573,-0.15678 l 0.0365,-0.5828 c -2.98639,-0.29034 -5.07139,-1.17005 -10.05236,-0.15625 z"
               style="fill:#595959;fill-opacity:1;fill-rule:evenodd;stroke:none" />
            <path
               inkscape:connector-curvature="0"
               sodipodi:nodetypes="cccc"
               id="path14603-2-3-5"
               d="m 174.96875,139.15626 2.70312,5.03125 -4.92187,-4.96875 2.21875,-0.0625 z"
               style="fill:#595959;fill-opacity:1;fill-rule:evenodd;stroke:none" />
            <path
               inkscape:connector-curvature="0"
               style="fill:#595959;fill-opacity:1;fill-rule:evenodd;stroke:none"
               d="m 169.73438,139.51564 3.92187,5.64062 -3.98438,-4.32812 0.0625,-1.3125 z"
               id="path14605-4-9-6"
               sodipodi:nodetypes="cccc" />
          </g>
          <path
             inkscape:connector-curvature="0"
             sodipodi:nodetypes="cc"
             id="path14607-7-7-8"
             d="m 108.08075,20.568637 c 1.98097,-0.772166 3.63182,-0.426529 4.51637,-0.03372"
             style="fill:none;stroke:#000000;stroke-width:1.37773883;stroke-linecap:round;stroke-linejoin:round;stroke-opacity:1" />
          <path
             inkscape:connector-curvature="0"
             style="fill:none;stroke:#000000;stroke-width:1.83698499;stroke-linecap:round;stroke-linejoin:round;stroke-opacity:1"
             d="m 125.67437,20.636042 c 1.41711,-1.255492 11.29263,-1.956119 12.86887,-0.970423"
             id="path14609-7-2-9"
             sodipodi:nodetypes="cc" />
          <path
             inkscape:connector-curvature="0"
             sodipodi:nodetypes="cc"
             id="path14611-3-5-5"
             d="M 95.003499,20.770863 C 93.404563,20.060836 85.348618,20.52217 84.198,20.231047"
             style="fill:none;stroke:#000000;stroke-width:1.83698499;stroke-linecap:round;stroke-linejoin:round;stroke-opacity:1" />
        </g>
        <path
           style="fill:#f4d7d7;fill-opacity:1;stroke:#280b0b;stroke-width:2;stroke-linecap:round;stroke-linejoin:round;stroke-miterlimit:4;stroke-opacity:1;stroke-dashoffset:0"
           d="m 204.03071,248.11722 c -10.85512,13.06018 -12.33816,11.82473 -21.00382,0.65606 -8.93751,-11.28436 25.02859,-14.97541 21.00382,-0.65606 z"
           id="path4240"
           inkscape:connector-curvature="0"
           sodipodi:nodetypes="ccc" />
        <path
           style="fill:none;stroke:#000000;stroke-width:3;stroke-linecap:round;stroke-linejoin:round;stroke-opacity:1"
           d="m 193.44421,257.87721 0,15.65736"
           id="path4243"
           inkscape:connector-curvature="0" />
        <path
           inkscape:connector-curvature="0"
           id="path4245"
           d="m 223.96908,277.70589 c -35.13263,-4.82363 -49.10272,-3.8643 -61.04974,0"
           style="fill:none;stroke:#000000;stroke-width:3;stroke-linecap:round;stroke-linejoin:round;stroke-opacity:1"
           sodipodi:nodetypes="cc" />
        <g
           id="g5020"
           transform="matrix(0.99970321,0.02436216,-0.02436216,0.99970321,5.566221,-4.6442384)">
          <path
             sodipodi:nodetypes="ccccc"
             inkscape:connector-curvature="0"
             id="rect5015"
             d="m 180.08,275.0701 13.8896,0 0,26.5165 -9.8896,0 z"
             style="fill:#ffffff;fill-opacity:1;stroke:#000000;stroke-width:2;stroke-linecap:round;stroke-linejoin:round;stroke-miterlimit:4;stroke-opacity:1;stroke-dashoffset:0" />
          <path
             style="fill:#ffffff;fill-opacity:1;stroke:#000000;stroke-width:2;stroke-linecap:round;stroke-linejoin:round;stroke-miterlimit:4;stroke-opacity:1;stroke-dashoffset:0"
             d="m 194.08,275.0701 13.8896,0 -4,26.5165 -9.8896,0 z"
             id="path5018"
             inkscape:connector-curvature="0"
             sodipodi:nodetypes="ccccc" />
        </g>
        <path
           transform="matrix(1.2020202,0,0,1.3033401,-20.642136,-108.35286)"
           style="opacity:0.1;fill:#000000;fill-opacity:1;stroke:none"
           d="m 129.63241,310.29318 c -14.66804,-10.40481 -23.91812,-25.62187 -23.91812,-42.57385 0,-17.8435 10.24861,-33.76479 26.27673,-44.17506 -21.01098,32.77544 -13.35542,60.08095 -2.35861,86.74891 z"
           id="path5026"
           inkscape:connector-curvature="0"
           sodipodi:nodetypes="cscc" />
      </g>
      <path
         sodipodi:nodetypes="ccc"
         inkscape:connector-curvature="0"
         id="path5062-1"
         d="m 151.10715,375.21448 c 34.13947,14.82491 46.97656,3.31242 63.21427,-0.35714 -21.98334,1.09151 -45.40644,3.71835 -63.21427,0.35714 z"
         style="opacity:0.15;fill:#000000;stroke:none" />
    </g>
  </g>
</svg>
