<?xml version="1.0" encoding="UTF-8" standalone="no"?>
<!-- Created with Inkscape (http://www.inkscape.org/) -->

<svg
   xmlns:dc="http://purl.org/dc/elements/1.1/"
   xmlns:cc="http://creativecommons.org/ns#"
   xmlns:rdf="http://www.w3.org/1999/02/22-rdf-syntax-ns#"
   xmlns:svg="http://www.w3.org/2000/svg"
   xmlns="http://www.w3.org/2000/svg"
   xmlns:xlink="http://www.w3.org/1999/xlink"
   xmlns:sodipodi="http://sodipodi.sourceforge.net/DTD/sodipodi-0.dtd"
   xmlns:inkscape="http://www.inkscape.org/namespaces/inkscape"
   width="217.67361"
   height="253.86868"
   id="svg3253"
   version="1.1"
   inkscape:version="0.48.2 r9819"
   sodipodi:docname="mr_bill.svg"
   inkscape:export-filename="/home/hansenm/Pictures/Miscellaneous/mr_bill.png"
   inkscape:export-xdpi="90"
   inkscape:export-ydpi="90">
  <defs
     id="defs3255">
    <inkscape:perspective
       sodipodi:type="inkscape:persp3d"
       inkscape:vp_x="0 : 526.18109 : 1"
       inkscape:vp_y="0 : 1000 : 0"
       inkscape:vp_z="744.09448 : 526.18109 : 1"
       inkscape:persp3d-origin="372.04724 : 350.78739 : 1"
       id="perspective3261" />
    <inkscape:perspective
       id="perspective3201"
       inkscape:persp3d-origin="0.5 : 0.33333333 : 1"
       inkscape:vp_z="1 : 0.5 : 1"
       inkscape:vp_y="0 : 1000 : 0"
       inkscape:vp_x="0 : 0.5 : 1"
       sodipodi:type="inkscape:persp3d" />
  </defs>
  <sodipodi:namedview
     id="base"
     pagecolor="#ffffff"
     bordercolor="#666666"
     borderopacity="1.0"
     inkscape:pageopacity="0"
     inkscape:pageshadow="2"
     inkscape:zoom="1.4"
     inkscape:cx="165.66933"
     inkscape:cy="80.472687"
     inkscape:document-units="px"
     inkscape:current-layer="layer1"
     showgrid="false"
     inkscape:window-width="1440"
     inkscape:window-height="876"
     inkscape:window-x="0"
     inkscape:window-y="24"
     inkscape:window-maximized="1"
     fit-margin-top="5"
     fit-margin-left="5"
     fit-margin-right="5"
     fit-margin-bottom="5" />
  <metadata
     id="metadata3258">
    <rdf:RDF>
      <cc:Work
         rdf:about="">
        <dc:format>image/svg+xml</dc:format>
        <dc:type
           rdf:resource="http://purl.org/dc/dcmitype/StillImage" />
        <dc:title />
      </cc:Work>
    </rdf:RDF>
  </metadata>
  <g
     inkscape:label="Layer 1"
     inkscape:groupmode="layer"
     id="layer1"
     transform="translate(-178.384,-334.75261)">
    <g
       style="display:inline"
       clip-path="none"
       transform="matrix(1.095869,-0.01382116,0.01382116,1.095869,142.05141,246.26985)"
       inkscape:label="People"
       id="layer2">
      <g
         id="g8597">
        <g
           id="g3796"
           transform="matrix(0.70710678,0.70710679,-0.70710679,0.70710678,176.11717,31.364503)">
          <path
             sodipodi:nodetypes="ccccccccccccc"
             id="path3787"
             d="m 47.039875,204.24215 c 1.990034,4.57817 2.402135,9.68016 2.650952,14.73452 -0.785462,6.37135 -5.409798,-1.62195 -4.854124,-3.03915 0.04595,3.01228 2.381486,9.71829 -2.915021,8.97549 -3.412127,-0.83888 -2.707869,-8.04605 -2.856804,-8.1975 0.61247,3.64875 -0.987974,11.07119 -6.059715,8.28715 -2.458744,-2.48883 -0.586296,-8.93462 -1.218469,-10.16027 0.421462,3.709 0.71632,10.99212 -4.967754,9.91087 -5.101782,-2.0165 0.846095,-9.47476 -0.04721,-12.98666 -1.619605,0.37568 -6.507002,5.22688 -8.253213,2.11547 -3.131398,-3.50365 7.21241,-8.65673 11.288318,-15.82573 8.268794,-0.35574 8.577579,-0.24543 12.91247,0.40367 1.72691,-4.24256 3.533395,3.90482 4.32057,5.78214 z"
             style="fill:#ffffff;stroke:#000000;stroke-width:1.5;stroke-linecap:butt;stroke-linejoin:miter;stroke-opacity:1"
             inkscape:connector-curvature="0" />
          <rect
             style="opacity:0.2;fill:#000000;fill-opacity:1;stroke:none"
             id="rect8409"
             width="16.25"
             height="4.5"
             x="29.125"
             y="197.875"
             ry="1.9038461" />
          <rect
             ry="1.9038461"
             y="195.25"
             x="29.25"
             height="4.5"
             width="16.25"
             id="rect3794"
             style="fill:#ffffff;fill-opacity:1;stroke:#000000;stroke-width:1.5;stroke-linecap:round;stroke-linejoin:round;stroke-miterlimit:4;stroke-opacity:1;stroke-dasharray:none;stroke-dashoffset:0" />
          <path
             style="opacity:0.2;fill:#000000;stroke:none"
             d="m 45.637813,202.48572 c 0.16023,5.47668 0.65846,12.68477 3.97748,20.41772 -0.25482,-6.0988 -0.19383,-14.31892 -3.97748,-20.41772 z"
             id="path8433-8"
             sodipodi:nodetypes="ccc"
             inkscape:connector-curvature="0" />
        </g>
        <g
           transform="matrix(-0.72517533,0.68856428,0.68856428,0.72517533,88.151333,31.265292)"
           id="g3800">
          <path
             style="fill:#ffffff;stroke:#000000;stroke-width:1.5;stroke-linecap:butt;stroke-linejoin:miter;stroke-opacity:1"
             d="m 47.039875,204.24215 c 1.990034,4.57817 2.402135,9.68016 2.650952,14.73452 -0.785462,6.37135 -5.409798,-1.62195 -4.854124,-3.03915 0.04595,3.01228 2.381486,9.71829 -2.915021,8.97549 -3.412127,-0.83888 -2.707869,-8.04605 -2.856804,-8.1975 0.61247,3.64875 -0.987974,11.07119 -6.059715,8.28715 -2.458744,-2.48883 -0.586296,-8.93462 -1.218469,-10.16027 0.421462,3.709 0.71632,10.99212 -4.967754,9.91087 -5.101782,-2.0165 0.846095,-9.47476 -0.04721,-12.98666 -1.619605,0.37568 -6.507002,5.22688 -8.253213,2.11547 -3.131398,-3.50365 7.21241,-8.65673 11.288318,-15.82573 8.268794,-0.35574 8.577579,-0.24543 12.91247,0.40367 1.72691,-4.24256 3.533395,3.90482 4.32057,5.78214 z"
             id="path3802"
             sodipodi:nodetypes="ccccccccccccc"
             inkscape:connector-curvature="0" />
          <rect
             transform="scale(-1,1)"
             style="opacity:0.2;fill:#000000;fill-opacity:1;stroke:none"
             id="rect8409-9"
             width="16.25"
             height="4.5"
             x="-45.469967"
             y="197.73079"
             ry="1.9038461" />
          <rect
             style="fill:#ffffff;fill-opacity:1;stroke:#000000;stroke-width:1.5;stroke-linecap:round;stroke-linejoin:round;stroke-miterlimit:4;stroke-opacity:1;stroke-dasharray:none;stroke-dashoffset:0"
             id="rect3804"
             width="16.25"
             height="4.5"
             x="29.25"
             y="195.25"
             ry="1.9038461" />
          <path
             style="opacity:0.2;fill:#000000;stroke:none"
             d="m 45.403554,200.95356 c 2.138025,5.04463 4.690807,11.80393 4.898583,20.21648 -2.311463,-5.64955 -5.794518,-13.09551 -4.898583,-20.21648 z"
             id="path8433"
             sodipodi:nodetypes="ccc"
             inkscape:connector-curvature="0" />
        </g>
        <path
           style="fill:#d40000;fill-opacity:1;stroke:#000000;stroke-width:2;stroke-linecap:round;stroke-linejoin:round;stroke-miterlimit:4;stroke-opacity:1;stroke-dasharray:none;stroke-dashoffset:0"
           d="m 55.323224,188.47183 16.45679,15.1979 C 81.04814,184.52281 90.584532,178.59996 103,171.8125 l -2,57.59375 60.25,0 -5.06066,-55.85723 c 19.63504,4.86175 21.54746,19.26015 32.4467,31.37868 l 14.00612,-11.80882 c -23.35963,-28.02161 -25.77848,-32.78903 -46.34481,-40.46623 -2.94991,-1.10117 -6.7058,-0.34683 -10.8127,-0.31438 l -30.22713,0 c -4.97435,-0.12648 -9.69662,-0.68055 -13.47693,0.92078 -21.451859,9.08691 -31.39334,24.0987 -46.457366,35.21278 z"
           id="rect3778"
           sodipodi:nodetypes="ccccccccsccsc"
           inkscape:connector-curvature="0" />
        <path
           style="fill:#ffffff;fill-opacity:1;stroke:#000000;stroke-width:2;stroke-linecap:round;stroke-linejoin:round;stroke-miterlimit:4;stroke-opacity:1;stroke-dashoffset:0"
           d="m 118.75,141.75 22.75,0 4.17678,12.82426 c -11.47013,3.75405 -21.10595,3.33607 -30.21967,-0.15997 L 118.75,141.75 z"
           id="rect2987"
           sodipodi:nodetypes="ccccc"
           inkscape:connector-curvature="0" />
        <path
           sodipodi:type="arc"
           style="fill:#ffffff;fill-opacity:1;stroke:#000000;stroke-width:2.01230407;stroke-linecap:butt;stroke-linejoin:miter;stroke-miterlimit:4;stroke-opacity:1;stroke-dasharray:none;stroke-dashoffset:0"
           id="path2939"
           sodipodi:cx="104.29825"
           sodipodi:cy="120.42253"
           sodipodi:rx="30.759146"
           sodipodi:ry="30.759146"
           d="m 135.05739,120.42253 c 0,16.98781 -13.77133,30.75915 -30.75914,30.75915 -16.987809,0 -30.759147,-13.77134 -30.759147,-30.75915 0,-16.98781 13.771338,-30.759145 30.759147,-30.759145 16.98781,0 30.75914,13.771335 30.75914,30.759145 z"
           transform="matrix(1,0,0,0.9878085,26.162951,3.2144534)" />
        <g
           id="g2978"
           transform="matrix(1,0,0,0.84456224,0,18.806996)">
          <path
             sodipodi:nodetypes="ccsc"
             id="path2941"
             d="m 160.92745,112.54385 c -4.16651,-7.83017 -59.33199,-3.7162 -60.932503,0 -3.264219,-10.32904 13.087923,-30.759145 30.466253,-30.759145 17.37833,0 33.16022,18.286385 30.46625,30.759145 z"
             style="fill:#ffff00;fill-opacity:1;stroke:#554400;stroke-width:2.17627692;stroke-linecap:round;stroke-linejoin:round;stroke-miterlimit:4;stroke-opacity:1;stroke-dashoffset:0"
             inkscape:connector-curvature="0" />
          <path
             sodipodi:nodetypes="cc"
             id="path2944"
             d="m 111.72287,95.592932 c -2.56039,2.529023 -3.90226,7.847288 -0.70682,10.683478"
             style="opacity:0.2;fill:none;stroke:#000000;stroke-width:1.08813846px;stroke-linecap:butt;stroke-linejoin:miter;stroke-opacity:1"
             inkscape:connector-curvature="0" />
          <path
             style="opacity:0.2;fill:none;stroke:#000000;stroke-width:1.08813846px;stroke-linecap:butt;stroke-linejoin:miter;stroke-opacity:1"
             d="m 149.14484,94.704899 c 2.56039,2.529023 3.90226,7.847291 0.70682,10.683481"
             id="path2954"
             sodipodi:nodetypes="cc"
             inkscape:connector-curvature="0" />
          <path
             sodipodi:nodetypes="cc"
             id="path2956"
             d="m 140.08418,89.300299 c 2.56039,2.529022 4.96292,13.298031 1.76748,16.134221"
             style="opacity:0.2;fill:none;stroke:#000000;stroke-width:1.08813846px;stroke-linecap:butt;stroke-linejoin:miter;stroke-opacity:1"
             inkscape:connector-curvature="0" />
          <path
             style="opacity:0.2;fill:none;stroke:#000000;stroke-width:1.08813846px;stroke-linecap:butt;stroke-linejoin:miter;stroke-opacity:1"
             d="m 119.38351,89.300299 c -2.56039,2.529022 -4.96292,13.298031 -1.76748,16.134221"
             id="path2958"
             sodipodi:nodetypes="cc"
             inkscape:connector-curvature="0" />
          <path
             sodipodi:nodetypes="cc"
             id="path2960"
             d="m 127.38351,85.95107 c -2.56039,2.836606 -4.96292,14.91536 -1.76748,18.0965"
             style="opacity:0.2;fill:none;stroke:#000000;stroke-width:1.08813846px;stroke-linecap:butt;stroke-linejoin:miter;stroke-opacity:1"
             inkscape:connector-curvature="0" />
          <path
             style="opacity:0.2;fill:none;stroke:#000000;stroke-width:1.08813846px;stroke-linecap:butt;stroke-linejoin:miter;stroke-opacity:1"
             d="m 132.08418,85.95107 c 2.56039,2.836606 4.96292,14.91536 1.76748,18.0965"
             id="path2962"
             sodipodi:nodetypes="cc"
             inkscape:connector-curvature="0" />
          <path
             sodipodi:nodetypes="cc"
             id="path3762"
             d="m 149.14484,94.704899 c 2.56039,2.529023 3.90226,7.847291 0.70682,10.683481"
             style="opacity:0.15;fill:none;stroke:#000000;stroke-width:1.08813846px;stroke-linecap:butt;stroke-linejoin:miter;stroke-opacity:1"
             inkscape:connector-curvature="0" />
        </g>
        <path
           sodipodi:type="arc"
           style="fill:#0044aa;fill-opacity:1;stroke:#00112b;stroke-width:1.5;stroke-linecap:round;stroke-linejoin:round;stroke-miterlimit:4;stroke-opacity:1;stroke-dasharray:none;stroke-dashoffset:0"
           id="path3764"
           sodipodi:cx="119.625"
           sodipodi:cy="123.125"
           sodipodi:rx="4.625"
           sodipodi:ry="4.375"
           d="m 124.25,123.125 c 0,2.41625 -2.07068,4.375 -4.625,4.375 -2.55432,0 -4.625,-1.95875 -4.625,-4.375 0,-2.41625 2.07068,-4.375 4.625,-4.375 2.55432,0 4.625,1.95875 4.625,4.375 z"
           transform="translate(5.4096563,-1.2165242)" />
        <use
           x="0"
           y="0"
           xlink:href="#path3764"
           id="use3766"
           transform="translate(20,0)"
           width="799.99799"
           height="352" />
        <path
           d="m 124.25,123.125 c 0,2.41625 -2.07068,4.375 -4.625,4.375 -2.55432,0 -4.625,-1.95875 -4.625,-4.375 0,-2.41625 2.07068,-4.375 4.625,-4.375 2.55432,0 4.625,1.95875 4.625,4.375 z"
           sodipodi:ry="4.375"
           sodipodi:rx="4.625"
           sodipodi:cy="123.125"
           sodipodi:cx="119.625"
           id="path3768"
           style="fill:#d40000;fill-opacity:1;stroke:#2b0000;stroke-width:1.66228938;stroke-linecap:round;stroke-linejoin:round;stroke-miterlimit:4;stroke-opacity:1;stroke-dasharray:none;stroke-dashoffset:0"
           sodipodi:type="arc"
           transform="matrix(0.60316414,0,0,0.6,62.009619,58.085368)" />
        <path
           style="fill:#d40000;fill-opacity:1;stroke:#2b0000;stroke-width:1;stroke-linecap:round;stroke-linejoin:round;stroke-miterlimit:4;stroke-opacity:1;stroke-dasharray:none;stroke-dashoffset:0"
           d="m 134.16314,136.58537 c -4.20982,0 -7.62255,2.93813 -7.62255,6.5625 0,3.62437 3.41273,6.5625 7.62255,6.5625 4.20982,0 7.62255,-2.93813 7.62255,-6.5625 0,-3.62437 -3.41273,-6.5625 -7.62255,-6.5625 z m 0,3.06249 c 2.28726,0 4.15775,1.56701 4.15775,3.50001 0,1.93299 -1.87049,3.5 -4.15775,3.5 -2.28726,0 -4.15775,-1.56701 -4.15775,-3.5 0,-1.933 1.87049,-3.50001 4.15775,-3.50001 z"
           id="path3770"
           inkscape:connector-curvature="0" />
        <path
           style="opacity:0.2;fill:#000000;stroke:#000000;stroke-width:1px;stroke-linecap:butt;stroke-linejoin:miter;stroke-opacity:1"
           d="m 104.66942,100.26992 c -1.82097,4.12068 -3.52365,8.51198 -3.89395,12.79443 -1.910878,22.0992 5.00863,26.74454 12.52263,33.96598 -7.79598,-12.81896 -10.16708,-30.89757 -8.62868,-46.76041 z"
           id="path3776"
           sodipodi:nodetypes="cscc"
           inkscape:connector-curvature="0" />
        <path
           transform="translate(10.75,49.750002)"
           d="m 124.25,123.125 c 0,2.41625 -2.07068,4.375 -4.625,4.375 -2.55432,0 -4.625,-1.95875 -4.625,-4.375 0,-2.41625 2.07068,-4.375 4.625,-4.375 2.55432,0 4.625,1.95875 4.625,4.375 z"
           sodipodi:ry="4.375"
           sodipodi:rx="4.625"
           sodipodi:cy="123.125"
           sodipodi:cx="119.625"
           id="path3806"
           style="fill:#ffffff;fill-opacity:1;stroke:#000000;stroke-width:1.5;stroke-linecap:round;stroke-linejoin:round;stroke-miterlimit:4;stroke-opacity:1;stroke-dasharray:none;stroke-dashoffset:0"
           sodipodi:type="arc" />
        <use
           x="0"
           y="0"
           xlink:href="#path3806"
           id="use3808"
           transform="translate(0,20)"
           width="799.99799"
           height="352" />
        <use
           height="352"
           width="799.99799"
           transform="matrix(1.2069581,0,0,1.2069581,-26.98216,4.222121)"
           id="use3810"
           xlink:href="#path3806"
           y="0"
           x="0" />
        <path
           style="fill:#0044aa;fill-opacity:1;stroke:#00112b;stroke-width:2;stroke-linecap:round;stroke-linejoin:round;stroke-miterlimit:4;stroke-opacity:1;stroke-dasharray:none;stroke-dashoffset:0"
           d="m 130.75,228.5 c -16.70661,0 -30.25,7.16344 -30.25,16 l 0,52.78125 c 0,0.67323 0.54552,5.21875 1.21875,5.21875 l 22.3125,0 c 0.67323,0 1.21875,-4.54552 1.21875,-5.21875 l 0,-37.96875 c 3.54477,0.77107 1.42954,1.1875 5.5,1.1875 4.07046,0 1.95523,-0.41643 5.5,-1.1875 l 0,37.96875 c 0,0.67323 0.54552,7.21875 1.21875,7.21875 l 22.3125,0 c 0.67323,0 1.21875,-6.54552 1.21875,-7.21875 0.66634,-16.11142 -0.90051,-36.95009 0,-52.78125 0,-8.83656 -13.54339,-16 -30.25,-16 z"
           id="path3836"
           sodipodi:nodetypes="cccccccsccccccc"
           inkscape:connector-curvature="0" />
        <rect
           style="fill:#ffffff;fill-opacity:1;stroke:#000000;stroke-width:2;stroke-linecap:round;stroke-linejoin:round;stroke-miterlimit:4;stroke-opacity:1;stroke-dasharray:none;stroke-dashoffset:0"
           id="rect3812"
           width="61.164738"
           height="13.788582"
           x="100.76272"
           y="228.96342"
           ry="1.9038461" />
        <rect
           ry="1.9038461"
           y="228.96342"
           x="107.04699"
           height="13.788582"
           width="4.5961957"
           id="rect3814"
           style="fill:#0044aa;fill-opacity:1;stroke:#00112b;stroke-width:1.5;stroke-linecap:round;stroke-linejoin:round;stroke-miterlimit:4;stroke-opacity:1;stroke-dasharray:none;stroke-dashoffset:0" />
        <rect
           style="fill:#0044aa;fill-opacity:1;stroke:#00112b;stroke-width:1.5;stroke-linecap:round;stroke-linejoin:round;stroke-miterlimit:4;stroke-opacity:1;stroke-dasharray:none;stroke-dashoffset:0"
           id="rect3816"
           width="4.5961957"
           height="13.788582"
           x="151.047"
           y="228.96342"
           ry="1.9038461" />
        <g
           id="g3831"
           transform="translate(82.201163,-6.0104053)"
           style="stroke:#2b2200;stroke-width:1">
          <path
             id="rect3818"
             d="m 39.03125,233.90625 c -1.054731,0 -1.90625,0.85152 -1.90625,1.90625 l 0,12.8125 c 0,1.05473 0.851519,1.90625 1.90625,1.90625 l 18.46875,0 c 1.054731,0 1.90625,-0.85152 1.90625,-1.90625 l 0,-12.8125 c 0,-1.05473 -0.851519,-1.90625 -1.90625,-1.90625 l -18.46875,0 z m 3.25,3 11.96875,0 c 0.673232,0 1.21875,0.54552 1.21875,1.21875 l 0,8.1875 c 0,0.67323 -0.545518,1.21875 -1.21875,1.21875 l -11.96875,0 c -0.673232,0 -1.21875,-0.54552 -1.21875,-1.21875 l 0,-8.1875 c 0,-0.67323 0.545518,-1.21875 1.21875,-1.21875 z"
             style="fill:#ffff00;fill-opacity:1;stroke:#2b2200;stroke-width:1.5;stroke-linecap:round;stroke-linejoin:round;stroke-miterlimit:4;stroke-opacity:1;stroke-dasharray:none;stroke-dashoffset:0"
             inkscape:connector-curvature="0" />
          <rect
             style="fill:#ffff00;fill-opacity:1;stroke:#2b2200;stroke-width:1.5;stroke-linecap:round;stroke-linejoin:round;stroke-miterlimit:4;stroke-opacity:1;stroke-dasharray:none;stroke-dashoffset:0"
             id="rect3820"
             width="10.960155"
             height="4.5961947"
             x="52.779961"
             y="239.92357"
             ry="0.52659583" />
          <rect
             ry="2.227905"
             y="232.49896"
             x="37.123108"
             height="19.445438"
             width="6.3639603"
             id="rect3825"
             style="fill:#ffff00;fill-opacity:1;stroke:#2b2200;stroke-width:1.50000012;stroke-linecap:round;stroke-linejoin:round;stroke-miterlimit:4;stroke-opacity:1;stroke-dasharray:none;stroke-dashoffset:0" />
        </g>
        <path
           style="opacity:0.2;fill:#000000;stroke:none"
           d="m 136.29483,259.28062 c 5.95644,6.67017 4.12189,16.09496 2.24499,25.02132 -0.38713,1.84115 -1.96086,4.16697 -2.15659,6.09138 l -0.0884,-31.1127 z"
           id="path8399"
           sodipodi:nodetypes="cscc"
           inkscape:connector-curvature="0" />
        <path
           style="opacity:0.2;fill:#000000;stroke:none"
           d="M 103.70711,171.83839 C 100.85706,211.07475 100.56983,260.44679 100.5,302 l 5.25,0.75 -1.54307,-60.17135 0.843,-14.14552 1.31754,-49.50046 -2.66038,-7.09428 2e-5,0 z"
           id="path8401"
           sodipodi:nodetypes="cccccccc"
           inkscape:connector-curvature="0" />
        <path
           style="fill:#ffffff;fill-opacity:1;stroke:#000000;stroke-width:2;stroke-linecap:round;stroke-linejoin:round;stroke-miterlimit:4;stroke-opacity:1;stroke-dashoffset:0"
           d="m 127.25736,308.05027 -30.25736,0 c 0,-7.4869 6.41071,-9.07538 14.76606,-9.07538 8.35533,0 15.4913,1.58848 15.4913,9.07538 z"
           id="path8485"
           sodipodi:nodetypes="ccsc"
           inkscape:connector-curvature="0" />
        <path
           sodipodi:nodetypes="ccsc"
           id="path8490"
           d="m 164.25736,308.05027 -30.25736,0 c 0,-7.4869 6.41071,-9.07538 14.76606,-9.07538 8.35533,0 15.4913,1.58848 15.4913,9.07538 z"
           style="fill:#ffffff;fill-opacity:1;stroke:#000000;stroke-width:2;stroke-linecap:round;stroke-linejoin:round;stroke-miterlimit:4;stroke-opacity:1;stroke-dashoffset:0"
           inkscape:connector-curvature="0" />
        <path
           sodipodi:nodetypes="ccsc"
           id="path8492"
           d="m 125.25736,304.33427 c -8.89976,-1.77289 -17.79954,-1.99561 -26.699302,0 1.764182,-3.27096 10.085642,-5.37439 13.029672,-4.7595 1.96907,0.41126 11.20764,-0.2565 13.66963,4.7595 z"
           style="opacity:0.2;fill:#000000;fill-opacity:1;stroke:none"
           inkscape:connector-curvature="0" />
        <path
           style="opacity:0.2;fill:#000000;fill-opacity:1;stroke:none"
           d="m 162.22964,304.33427 c -8.98816,-1.77289 -17.97632,-1.99561 -26.96447,0 1.79297,-2.87321 5.85593,-4.62741 13.15908,-4.7595 4.10781,-0.0743 12.72789,-0.0797 13.80539,4.7595 z"
           id="path8499"
           sodipodi:nodetypes="ccsc"
           inkscape:connector-curvature="0" />
      </g>
    </g>
  </g>
</svg>
