<?xml version="1.0" encoding="UTF-8" standalone="no"?>
<!-- Created with Inkscape (http://www.inkscape.org/) -->

<svg
   xmlns:dc="http://purl.org/dc/elements/1.1/"
   xmlns:cc="http://creativecommons.org/ns#"
   xmlns:rdf="http://www.w3.org/1999/02/22-rdf-syntax-ns#"
   xmlns:svg="http://www.w3.org/2000/svg"
   xmlns="http://www.w3.org/2000/svg"
   xmlns:sodipodi="http://sodipodi.sourceforge.net/DTD/sodipodi-0.dtd"
   xmlns:inkscape="http://www.inkscape.org/namespaces/inkscape"
   width="70.373871mm"
   height="58.412971mm"
   viewBox="0 0 70.373871 58.412971"
   version="1.1"
   id="svg7782"
   inkscape:version="0.92.3 (2405546, 2018-03-11)"
   sodipodi:docname="rider_silhouette.svg">
  <defs
     id="defs7776" />
  <sodipodi:namedview
     id="base"
     pagecolor="#ffffff"
     bordercolor="#666666"
     borderopacity="1.0"
     inkscape:pageopacity="0.0"
     inkscape:pageshadow="2"
     inkscape:zoom="0.7"
     inkscape:cx="124.17192"
     inkscape:cy="111.84325"
     inkscape:document-units="mm"
     inkscape:current-layer="layer1"
     showgrid="false"
     fit-margin-top="0"
     fit-margin-left="0"
     fit-margin-right="0"
     fit-margin-bottom="0"
     inkscape:window-width="1920"
     inkscape:window-height="1172"
     inkscape:window-x="1600"
     inkscape:window-y="0"
     inkscape:window-maximized="1" />
  <metadata
     id="metadata7779">
    <rdf:RDF>
      <cc:Work
         rdf:about="">
        <dc:format>image/svg+xml</dc:format>
        <dc:type
           rdf:resource="http://purl.org/dc/dcmitype/StillImage" />
        <dc:title></dc:title>
      </cc:Work>
    </rdf:RDF>
  </metadata>
  <g
     inkscape:label="Layer 1"
     inkscape:groupmode="layer"
     id="layer1"
     transform="translate(27.630824,-147.59638)">
    <path
       style="display:inline;fill:#000000;stroke:#000000;stroke-width:2;stroke-linecap:butt;stroke-linejoin:miter;stroke-opacity:1"
       d="m 194.79708,32.557031 c -3.4774,-0.21138 -6.65598,-1.90367 -8.01917,-5.31589 -0.27286,-3.3928 -2.78702,-6.01889 -3.66708,-4.30465 -1.48151,1.85929 -3.75931,2.68921 -4.71659,5.36784 -1.21504,2.39688 -5.62384,4.14656 -8.01916,1.59475 -3.17268,-3.06551 -5.77942,1.44454 -5.1031,3.18954 -1.01465,5.08925 7.51388,1.22416 6.56113,7.97382 -1.838,2.39854 -4.03889,4.26777 -7.89647,3.7211 -3.58778,1.02915 -8.36042,0.33039 -12.51595,0.53159 -2.61943,-1.20379 -7.71728,-0.71918 -9.47719,1.06317 -3.72316,0.98362 -6.3864,3.16173 -9.1127,4.78429 -2.13068,0.70757 -3.42104,2.93811 -5.46761,4.7843 -1.69088,1.40787 -3.42906,3.00428 -5.1031,4.78428 -1.92475,0.98632 -3.00726,3.74233 -5.1031,4.78429 -1.05303,2.60025 -3.1835,2.94501 -4.00959,6.37907 -2.77912,2.14886 -5.56714,4.28474 -9.4772,4.78429 -3.44544,0.82272 -6.205605,2.64486 -9.477185,3.72113 -1.73215,1.72659 -3.84847,2.89289 -5.10311,5.31587 -1.63705,1.55404 -2.45026,3.7498 -3.64508,5.84746 -0.97205,3.36669 -2.30852,6.20191 -3.28056,9.568579 -0.86051,2.16682 -2.80967,3.70567 -4.00959,5.84747 -2.43268,1.58899 -4.51855,4.23291 -6.92564,5.84747 -0.91699,1.6242 -5.54875,-0.73283 -6.92564,1.59477 -1.83278,2.38127 -1.86587,8.02858 1.82254,7.44222 2.70874,1.05062 7.49447,0.68213 10.57072,0 4.74978,-0.20412 9.69488,-0.32191 13.85128,-2.12636 3.82123,-0.39005 6.43804,-2.60489 9.11269,-4.78429 3.274105,-1.60372 6.134765,-3.81042 10.569795,-3.72109 6.24015,-0.4686 12.661,-0.67362 19.31982,-0.53161 2.22021,1.047 3.80167,3.51799 4.97778,4.93381 2.26236,1.64921 2.27548,7.72269 -1.93902,5.69796 -3.68853,0.005 -6.73516,-0.9287 -10.69342,-0.53157 -3.61095,-1.36958 -9.00452,-0.0868 -11.66424,1.59474 -3.65864,-0.19698 -4.94749,3.06208 -7.29015,4.7843 -1.77822,2.85282 -6.021085,2.72869 -9.960755,2.65792 -3.40204,0.23505 -6.23872,-0.35443 -8.99364,-1.06315 -4.06533,0.0959 -8.72849,-0.68008 -10.93522,2.12634 -2.31158,0.88155 -3.37898,3.5776 -5.83212,4.25271 -1.40079,2.08539 -3.31881,2.88747 -4.7386,4.7843 -3.38065,1.85217 -6.70899,2.55591 -9.47719,4.78429 -2.75501,0.32872 -4.44671,2.64121 -6.56113,4.25269 -1.22247,2.95112 -4.27416,2.9066 -7.29016,3.18953 -3.77876,1.07247 -8.28412,0.069 -11.78513,1.06316 l -0.97263,14.35288 c 2.65621,2.4838 6.98553,3.29303 11.54243,3.18952 4.86291,0.2993 8.07356,-1.81104 11.78605,-3.18952 3.39726,-0.33378 5.9025,-2.72093 8.38367,-4.25271 3.211,-1.55239 7.0898,-3.07743 10.57072,-4.25268 4.53798,-0.9514 7.72255,-2.90974 11.29973,-4.78429 2.52932,-1.67783 4.72122,-2.73778 7.65466,-4.25272 3.63364,-0.49468 6.44136,-3.23349 10.08439,-3.72111 5.406975,-1.40946 3.174005,2.25126 2.308875,6.37906 -1.320395,5.03969 -2.008725,11.61683 -3.645085,16.47922 -0.53103,3.32739 -1.20506,6.26214 -3.64508,6.91064 -2.34823,2.08611 -5.54247,3.23309 -8.74818,4.25271 -2.95476,0.19003 -2.97647,3.8431 -4.7386,5.31588 -1.86487,3.83655 -2.29161,9.77047 -3.28056,14.88446 -0.0146,5.47165 -1.13331,9.33336 -2.55156,12.75811 -0.61389,3.84108 -2.79051,5.38772 -6.19662,5.31588 0.27682,0.0314 -5.69297,-0.46697 -6.19663,1.59477 -0.73219,1.99648 -3.14198,6.86429 -1.09352,9.03699 0.43829,2.47297 2.42279,3.44676 2.91606,6.37906 1.4919,2.13572 1.7692,6.04278 5.5885,4.7843 3.98549,0.378 6.29327,-1.6907 10.44983,-1.06319 1.41957,-2.89122 0.27772,-9.51795 2.18704,-11.69493 0.80811,-2.83443 2.43104,-3.78884 3.28057,-6.37905 1.63185,-1.36124 1.93688,-4.73543 3.64508,-6.37906 0.7122,-3.36586 2.21654,-5.66807 3.28056,-7.97381 1.59037,-1.78994 3.09944,-4.69835 5.83212,-4.7843 3.529395,-2.38079 8.946955,-3.19254 12.393255,-5.3159 3.85933,-0.85804 6.88415,-3.40665 11.29974,-4.78429 3.86531,-2.12299 7.94524,-4.24447 13.12132,-4.25268 4.65345,-0.76174 6.70409,2.27229 10.93523,2.12634 4.65541,0.47618 9.49986,0.67665 14.58125,0.53159 1.563,3.09736 3.85087,4.09563 6.19662,5.31588 3.67438,0.39694 5.93776,1.85116 10.93523,2.65794 3.39815,-0.15617 7.13843,0.5941 9.11268,-1.59478 1.56498,-2.38208 7.30889,-2.87235 7.04746,-2.12634 2.52319,0.0104 6.17673,0.15281 8.26186,-1.06318 3.37432,-0.0175 5.9325,-2.20995 8.01916,-4.2527 1.75066,-0.59016 2.71785,-3.08813 4.00959,-4.25269 1.42048,-1.53092 2.60484,-3.58752 4.7386,-4.25271 5.35759,-5.1815 4.43007,6.78856 1.82253,8.5054 -1.14449,2.73952 -1.5157,4.54517 -2.91606,6.37906 -0.63745,3.61602 -3.39728,4.58489 -5.46761,5.84746 -2.19295,1.4137 -3.73788,2.83417 -5.46761,4.78429 -1.38091,2.18851 -2.11933,7.70383 -0.72902,11.16335 1.18173,2.03254 2.83485,3.79917 5.3458,4.25272 2.78279,0.0612 6.52154,1.70272 8.14098,-1.0632 2.72338,-0.95708 4.88025,-3.50477 7.29015,-4.78428 3.7545,-0.90364 4.64663,-6.14812 8.02874,-7.59476 1.65625,-1.54118 3.67511,-3.49507 5.10311,-5.31588 2.39963,-0.44855 3.31629,-2.81782 4.37409,-5.31589 1.14142,-3.63417 2.59456,-5.84223 3.28056,-10.63174 1.74279,-6.34127 2.89269,-9.28992 3.09352,-17.38451 -0.49346,-7.93988 1.66093,-12.38856 1.82255,-19.67413 -0.15879,-1.8082 -3.84615,-3.31197 -5.46761,-4.78429 -2.07676,-1.81392 -1.96738,-3.89933 -5.77466,-3.18953 -4.77242,-0.81651 -7.21106,1.7706 -11.17973,2.12635 -2.27409,1.29065 -6.21464,0.1509 -9.11269,0.53161 -0.6026,-0.96095 -2.14972,-5.13282 -1.45803,-9.56859 1.37572,-2.43815 2.25287,-5.40366 4.37409,-6.37905 0.93336,-2.37987 3.24703,-2.8247 4.37408,-5.31589 1.98862,-1.1612 2.97694,-3.39879 4.3741,-4.78429 1.39978,-1.99889 2.97897,-3.35806 4.37409,-4.78429 1.10394,-1.88347 2.40465,-3.08114 3.64507,-4.78429 0.93387,-2.0048 2.20527,-3.51732 3.64508,-4.78429 0.87496,-2.09069 2.4056,-3.2252 3.28057,-5.315899 1.97388,-2.37996 4.65643,-3.98981 8.38271,-3.72109 6.23797,-0.117 12.89184,0.3727 18.58989,-0.53159 3.40143,-0.45581 10.17887,-0.30751 12.3942,-3.18954 1.40751,-1.49119 2.52808,-3.40092 3.64508,-5.31589 1.27199,-2.67255 0.93219,-8.62478 -0.72901,-10.10015 -0.48247,-3.01753 -2.30931,-4.07446 -3.28058,-6.37906 -2.39575,-2.27783 -12.02189,-2.96572 -14.9448,-4.78429 -3.77914,-1.93079 -7.64147,-3.74033 -12.02875,-4.78429 -2.4554,-1.55783 -5.81805,-1.79248 -9.11269,-2.12636 -2.99282,-0.74963 -5.37451,-2.07932 -6.92564,-4.78429 -1.12239,-2.17309 -2.23808,-4.39068 -5.1031,-4.2527 -2.35815,-0.5521 -2.68096,5.33894 -3.64508,9.03699 -0.9916,1.65939 -2.31375,3.56626 -3.64507,5.31588 -2.17195,2.92122 -7.3363,2.17119 -9.84171,4.78429 -2.43228,1.41456 -3.26467,3.43289 -5.1031,4.78429 -1.21636,1.5928 -2.35858,3.2938 -3.64507,4.7843 -0.93497,1.92287 -2.42048,3.51248 -3.28057,5.84747 -1.25814,1.70904 -2.14368,3.96155 -3.64508,5.31587 -1.02914,2.58436 -3.32736,4.24033 -5.7103,4.7843 -3.17201,-0.11102 -4.55444,0.77041 -5.95394,-2.12636 -2.13251,-2.5598 -7.57453,-0.29316 -6.92564,-6.90929 -0.70146,-3.83172 0.0671,-10.44412 -1.09352,-13.82263 -0.82153,-2.96062 -3.1086,-9.30051 -0.72902,-12.22653 2.33314,-1.81334 6.47934,-1.58688 6.56114,-6.91064 -0.69111,-6.87143 0.13968,-12.37652 5.70848,-10.10018 1.80052,-0.6057 2.00741,-5.26147 2.31068,-6.37904 0.83982,-4.69075 -6.70337,-4.13279 -9.8417,-5.31589 -1.66864,-1.92582 -2.36317,-5.51263 -3.64508,-7.44223 0.094,-1.00335 -2.17443,-0.36097 -3.64507,-0.53159"
       id="path17713"
       sodipodi:nodetypes="ccccccccccccccccccccccccccccccccccccccccccccccccccccccccccccccccccccccccccccccccccccccccccccccccccccccccccccccccccccccccccccccccccccccccc"
       inkscape:connector-curvature="0"
       transform="matrix(0.26458333,0,0,0.26458333,-34.341927,142.07307)" />
  </g>
</svg>
