<?xml version="1.0" encoding="UTF-8" standalone="no"?>
<!-- Created with Inkscape (http://www.inkscape.org/) -->

<svg
   xmlns:dc="http://purl.org/dc/elements/1.1/"
   xmlns:cc="http://creativecommons.org/ns#"
   xmlns:rdf="http://www.w3.org/1999/02/22-rdf-syntax-ns#"
   xmlns:svg="http://www.w3.org/2000/svg"
   xmlns="http://www.w3.org/2000/svg"
   xmlns:xlink="http://www.w3.org/1999/xlink"
   xmlns:sodipodi="http://sodipodi.sourceforge.net/DTD/sodipodi-0.dtd"
   xmlns:inkscape="http://www.inkscape.org/namespaces/inkscape"
   width="70.906357mm"
   height="93.050079mm"
   viewBox="0 0 70.906357 93.050079"
   version="1.1"
   id="svg1964"
   inkscape:version="0.92.3 (2405546, 2018-03-11)"
   sodipodi:docname="sidewalk_and_grass.svg">
  <defs
     id="defs1958">
    <clipPath
       clipPathUnits="userSpaceOnUse"
       id="clipPath25739">
      <rect
         style="opacity:0.2;fill:#000000;fill-opacity:1;stroke:#000000;stroke-width:1.16788435;stroke-linecap:round;stroke-linejoin:round;stroke-miterlimit:4;stroke-dasharray:none;stroke-opacity:1"
         id="rect25741"
         width="198.83212"
         height="350.83212"
         x="-72.416046"
         y="302.58395"
         ry="5.492754" />
    </clipPath>
    <linearGradient
       inkscape:collect="always"
       xlink:href="#linearGradient4732"
       id="linearGradient4954"
       gradientUnits="userSpaceOnUse"
       x1="127.86501"
       y1="84.024384"
       x2="126.57864"
       y2="351.85995" />
    <linearGradient
       id="linearGradient4732"
       inkscape:collect="always">
      <stop
         id="stop4734"
         offset="0"
         style="stop-color:#33a1bc;stop-opacity:1" />
      <stop
         id="stop4736"
         offset="1"
         style="stop-color:#ffffff;stop-opacity:1" />
    </linearGradient>
    <clipPath
       clipPathUnits="userSpaceOnUse"
       id="clipPath13828">
      <rect
         style="color:#000000;display:inline;overflow:visible;visibility:visible;opacity:0.25;fill:#000000;fill-opacity:1;fill-rule:nonzero;stroke:#2b1100;stroke-width:1.5;stroke-linecap:round;stroke-linejoin:round;stroke-miterlimit:4;stroke-dasharray:none;stroke-dashoffset:0;stroke-opacity:1;marker:none;enable-background:accumulate"
         id="rect13830"
         width="264.5"
         height="350.5"
         x="0.932616"
         y="-45.749996" />
    </clipPath>
    <linearGradient
       inkscape:collect="always"
       xlink:href="#linearGradient3508"
       id="linearGradient4956"
       gradientUnits="userSpaceOnUse"
       gradientTransform="matrix(1,0,0,1.1223241,0,-35.107647)"
       x1="0.182616"
       y1="264.52399"
       x2="266.25723"
       y2="264.52399" />
    <linearGradient
       id="linearGradient3508"
       inkscape:collect="always">
      <stop
         id="stop3510"
         offset="0"
         style="stop-color:#165016;stop-opacity:1" />
      <stop
         id="stop3512"
         offset="1"
         style="stop-color:#2ca02c;stop-opacity:1" />
    </linearGradient>
    <linearGradient
       inkscape:collect="always"
       xlink:href="#linearGradient3516"
       id="linearGradient4958"
       gradientUnits="userSpaceOnUse"
       x1="-2.9788647"
       y1="287.3989"
       x2="267.50211"
       y2="287.3989" />
    <linearGradient
       id="linearGradient3516"
       inkscape:collect="always">
      <stop
         id="stop3518"
         offset="0"
         style="stop-color:#217821;stop-opacity:1" />
      <stop
         id="stop3520"
         offset="1"
         style="stop-color:#37c837;stop-opacity:1" />
    </linearGradient>
    <linearGradient
       inkscape:collect="always"
       xlink:href="#linearGradient3524"
       id="linearGradient4960"
       gradientUnits="userSpaceOnUse"
       x1="0.5"
       y1="311.36749"
       x2="268.26294"
       y2="311.36749" />
    <linearGradient
       id="linearGradient3524"
       inkscape:collect="always">
      <stop
         id="stop3526"
         offset="0"
         style="stop-color:#37c837;stop-opacity:1" />
      <stop
         id="stop3528"
         offset="1"
         style="stop-color:#5fd35f;stop-opacity:1" />
    </linearGradient>
    <linearGradient
       inkscape:collect="always"
       xlink:href="#linearGradient4718"
       id="linearGradient4962"
       gradientUnits="userSpaceOnUse"
       x1="0.49163717"
       y1="339.50473"
       x2="267.5"
       y2="339.50473" />
    <linearGradient
       id="linearGradient4718"
       inkscape:collect="always">
      <stop
         id="stop4720"
         offset="0"
         style="stop-color:#c8ab37;stop-opacity:1" />
      <stop
         style="stop-color:#decd87;stop-opacity:1"
         offset="0.19942625"
         id="stop4726" />
      <stop
         id="stop4722"
         offset="1"
         style="stop-color:#ffeeaa;stop-opacity:1" />
    </linearGradient>
    <linearGradient
       inkscape:collect="always"
       xlink:href="#linearGradient4923"
       id="linearGradient4967"
       gradientUnits="userSpaceOnUse"
       x1="127.03492"
       y1="284.64413"
       x2="127.03492"
       y2="293.86362"
       gradientTransform="matrix(1.0075188,0,0,1,3.0914298e-7,0.48469614)" />
    <linearGradient
       inkscape:collect="always"
       id="linearGradient4923">
      <stop
         style="stop-color:#808080;stop-opacity:1"
         offset="0"
         id="stop4925" />
      <stop
         style="stop-color:#b3b3b3;stop-opacity:1"
         offset="1"
         id="stop4927" />
    </linearGradient>
  </defs>
  <sodipodi:namedview
     id="base"
     pagecolor="#ffffff"
     bordercolor="#666666"
     borderopacity="1.0"
     inkscape:pageopacity="0.0"
     inkscape:pageshadow="2"
     inkscape:zoom="0.98994949"
     inkscape:cx="322.13158"
     inkscape:cy="286.02177"
     inkscape:document-units="mm"
     inkscape:current-layer="layer1"
     showgrid="false"
     fit-margin-top="0"
     fit-margin-left="0"
     fit-margin-right="0"
     fit-margin-bottom="0"
     inkscape:window-width="1920"
     inkscape:window-height="1172"
     inkscape:window-x="1600"
     inkscape:window-y="0"
     inkscape:window-maximized="1" />
  <metadata
     id="metadata1961">
    <rdf:RDF>
      <cc:Work
         rdf:about="">
        <dc:format>image/svg+xml</dc:format>
        <dc:type
           rdf:resource="http://purl.org/dc/dcmitype/StillImage" />
        <dc:title></dc:title>
      </cc:Work>
    </rdf:RDF>
  </metadata>
  <g
     inkscape:label="Layer 1"
     inkscape:groupmode="layer"
     id="layer1"
     transform="translate(-55.261109,-155.22496)">
    <g
       transform="matrix(0.26458333,0,0,0.26458333,55.261109,155.22496)"
       id="g4977">
      <g
         clip-path="url(#clipPath25739)"
         transform="matrix(1.3377206,0,0,1,96.872436,-302.58395)"
         id="g25711">
        <g
           style="display:inline"
           transform="matrix(1,0,0,1.408,-98.000003,240.184)"
           id="g4571">
          <rect
             ry="2.9848423"
             y="2"
             x="2"
             height="250"
             width="266"
             id="rect4573"
             style="opacity:0.25;fill:url(#linearGradient4954);fill-opacity:1;fill-rule:nonzero;stroke:none" />
        </g>
        <g
           style="display:inline"
           id="g4777"
           transform="matrix(1.0056711,0,0,1,-96.937908,278.25)"
           clip-path="url(#clipPath13828)">
          <path
             style="fill:url(#linearGradient4956);fill-opacity:1;fill-rule:nonzero;stroke:none"
             d="m 9.1970115,220.91523 c 5.2071705,-3.83187 5.2236355,2.64197 11.8427855,-2.72253 -0.649628,3.66763 7.096335,-2.12737 -0.155548,2.90226 3.262502,1.32696 6.986453,-5.01729 2.009454,0.72423 4.155759,1.02295 10.930401,-2.30275 3.773768,2.51837 9.177849,-5.71066 4.15801,-2.35803 2.380782,0.36457 -2.64118,5.08743 3.86126,-2.67042 5.412135,-0.1386 -9.994073,8.85813 7.902761,-4.74693 -0.446109,3.43278 6.36788,-5.05847 9.641057,-5.92412 2.314386,0.66196 -4.203735,6.59497 12.866089,-10.02457 4.196774,2.08659 2.944726,-2.97478 10.093897,-6.89369 3.044443,-0.4086 6.316028,-2.852 11.034771,-5.4602 5.075001,0.72112 3.945373,-2.32516 1.683831,1.29573 7.081351,-1.10786 -9.645522,4.06696 10.136341,-2.2274 -0.450698,4.12674 2.047915,-3.93022 15.318369,-5.25469 10.445471,-2.32376 5.375359,-4.18737 3.608913,-0.44357 5.178321,-2.10959 2.89769,0.19885 0.273635,7.18766 5.536707,2.00632 -5.896568,6.01629 5.485007,-2.32468 3.915712,-0.14599 4.868204,-3.04038 -7.712086,7.26896 3.19576,0.98051 3.030934,-2.43999 10.400566,-3.20972 3.338713,0.11659 5.202274,-3.48123 -7.86992,7.86128 1.434595,1.19038 6.830083,-4.34251 3.371384,-0.4226 0.02193,2.73689 4.069893,-3.98321 5.83496,-2.71151 6.052945,-1.29863 5.367979,-2.95918 11.23182,-5.16984 4.585718,0.75508 6.127192,-3.25826 9.099262,-5.46211 4.661422,-0.22087 4.86116,-3.35211 6.32081,-5.44011 2.83247,-0.21373 6.15511,-4.39704 0.27739,3.51258 5.95889,-1.98206 3.87838,-1.78957 -6.9113,7.12694 2.05421,0.64054 9.58467,-6.15743 -4.22233,5.75126 3.48936,0.1883 8.20164,-6.17932 -1.67938,6.47167 6.63361,-1.49831 9.57512,-6.54547 -6.07928,8.08422 3.86025,0.47601 6.08822,-4.52154 -2.37972,3.79175 2.71357,0.6339 -5.2245,5.67165 11.53201,-9.40518 2.00858,0.58336 4.56097,-3.53003 6.61864,-3.07235 1.00128,0.94555 3.56492,-1.45283 12.41277,-5.47671 10.63707,-2.96618 -4.41493,3.61008 15.24462,-7.78318 4.05766,0.68456 -0.72408,3.12659 17.11421,-6.02454 9.14104,0.20426 6.99442,-4.79371 -0.96135,3.06864 5.94805,-2.08328 2.85051,0.6144 15.99604,-5.54858 9.76718,-0.82357 1.33852,-1.35387 9.12388,-5.6145 3.43035,-0.56731 4.55213,-3.59452 3.83713,-1.45965 5.79285,-2.29739 0.61996,1.34505 3.86591,-3.22683 -0.93809,2.10595 1.5979,1.18091 6.28673,-6.2775 6.64257,-2.48973 0.90478,1.86499 -8.17786,3.30817 -0.38756,-0.84572 7.87986,-4.25028 4.29804,-1.16302 1.33632,2.60974 5.82299,-3.30444 -1.47182,2.8395 4.75763,-2.01504 2.40554,-0.45146 3.44327,-1.19092 0.0128,1.9995 1.62216,-1.84017 11.61469,-8.31982 4.71042,-2.4577 4.79904,-4.28061 4.83281,-0.23998 8.5625,-2.41514 -6.27281,5.18686 -2.3693,3.42088 1.47245,-0.16061 -3.54116,3.18352 2.03512,-0.6463 1.34207,2.04864 5.0696,-3.4629 -3.30243,3.46953 2.91777,-1.42098 6.83415,-3.4743 10.25186,-4.11561 2.94309,2.25764 3.97268,-2.06645 12.75529,-8.84764 3.81207,-1.80969 -7.31297,7.26846 7.49175,-4.90632 6.97937,-1.80874 3.58994,-4.40716 -1.96334,7.54568 4.79295,0.67322 5.73993,-4.75062 -4.12949,6.61899 3.53876,0.11252 5.91183,-1.64611 -5.08557,3.00218 2.76574,2.0117 5.87441,-5.47055 -0.51208,5.65747 7.8996,0.60259 6.41642,-0.66539 1.03762,6.31203 10.0492,3.43517 -9.34298,6.78899 10.4861,-3.32808 5.05009,4.64543 -6.15112,6.05528 6.99906,-3.90043 4.77095,2.98582 v 67.60285 C 253.1978,237.00057 67.915373,304.15474 2.9552815,276.98571 -3.3046948,272.11246 3.1582967,276.48051 2,277.65261 v -32.9188 c -0.3047923,-12.19197 -4.5824221,-15.17432 1.4372586,-20.93024 1.0513948,-1.00533 4.1307585,-1.6144 5.7597529,-2.88834 z"
             id="path3486"
             sodipodi:nodetypes="ccccccccccccccccccccccccccccccccccccccccccccccccccccccccccccccccccsc"
             inkscape:connector-curvature="0" />
          <path
             style="fill:url(#linearGradient4958);fill-opacity:1;fill-rule:nonzero;stroke:none"
             d="m 2,262.23227 c 5.7650028,-3.89281 -1.42906094,-0.0848 3.6486244,-3.11347 -3.3715457,2.67198 5.6052026,-4.39992 0.1338518,1.63087 4.5298238,-0.20821 3.7803699,-0.7065 5.1169818,0.74969 2.486324,1.49088 2.639048,-0.80742 7.528865,-1.08037 -5.385195,3.55126 7.569088,-2.7976 0.476004,3.96679 4.057854,-0.44104 14.012463,-9.15396 7.097522,-3.05211 3.579973,-2.0374 3.162346,-0.0203 4.361861,-0.85745 0.574751,0.45691 5.614639,-1.76849 4.899425,0.0554 7.923739,-4.59322 -4.200723,4.21362 5.123773,-1.60914 -0.225289,0.83621 -6.006565,5.81233 1.139912,0.69482 0.200654,1.13318 7.691258,-2.31999 5.577981,1.06406 5.535614,-3.79926 -0.515811,2.12214 5.321915,-2.47504 8.106875,-5.95429 -4.922883,4.17895 3.074545,-1.16362 8.246456,-5.58277 -7.514499,6.20941 0.526997,0.42008 6.955107,-4.51309 -6.160544,5.5219 1.306369,0.14878 4.185285,-2.99095 6.348159,-3.99501 1.765929,0.32887 4.695369,-2.04616 10.206767,-5.0097 2.905591,-0.0192 6.663517,-4.27697 2.139402,-0.75933 2.885625,-0.28872 -0.671119,4.07945 8.644488,-8.04454 4.445065,-0.66404 7.445766,-4.51029 3.318491,-0.97917 2.805048,-0.60569 8.212197,-2.85739 -3.664033,5.38043 4.511204,-0.6692 5.398782,-3.45114 -3.115692,3.89586 2.612661,-0.59298 4.870183,-2.71712 -4.676598,4.19308 2.316439,-0.25119 5.899794,-4.70656 -1.873579,2.88272 5.242468,-0.37064 -7.934876,5.14059 0.331057,1.61868 1.173259,0.17969 -7.147312,5.40269 12.846754,-6.88984 1.570247,1.14101 3.176058,-2.07425 8.846338,-4.27053 2.742126,-0.3321 6.755968,-4.37774 3.247267,-0.0732 9.579221,-4.585 -6.903064,6.03037 -1.15713,3.04965 3.69007,0.0828 -1.784,2.57043 -2.26291,2.34874 -2.21578,3.62171 4.73072,-3.90983 1.74626,0.56385 7.52649,-3.28717 -4.29163,6.27806 9.34251,-4.07026 3.62701,1.51619 2.79722,0.74776 3.78514,0.87266 7.95166,-2.4924 -3.92699,4.20728 5.07414,-2.93232 -0.94868,2.54877 6.18205,-4.04248 0.13567,1.21295 5.66945,-2.69489 -0.15729,3.65965 8.17145,-3.74848 2.58028,1.84228 6.40834,-3.39905 -4.398,4.8484 4.18149,-1.37896 -1.68828,4.16395 0.87855,1.93398 4.953,-0.94211 -7.11865,6.82468 6.52387,-3.45744 2.96981,1.19397 -0.62789,1.59869 8.70198,-4.1313 4.02746,0.002 4.04114,-3.57446 8.90874,-4.97404 2.09994,-0.49299 2.17876,-0.93467 -0.76844,2.41171 3.28319,0.53743 3.3819,-2.41795 -7.5934,6.50507 -0.0914,2.25876 5.20292,-3.45991 4.35571,-0.1756 9.893,-0.82963 2.10087,0.124 6.66121,-5.25751 3.54456,-0.48587 3.75683,-1.86431 -4.97564,4.76853 2.06658,-0.002 5.2542,-2.72569 -7.29243,5.51663 2.40359,1.5941 -1.64973,2.46779 10.72694,-5.67962 1.86051,1.09245 7.39336,-2.77473 -3.14766,3.70655 4.04265,0.0849 6.49483,-2.51327 -7.05866,6.0493 2.20115,0.39189 0.3929,0.85542 -4.05396,3.05955 1.83355,-0.25452 -3.50066,4.85549 3.19275,-2.8788 2.61758,2.59655 3.15484,-0.41569 5.70156,-1.18612 1.51821,1.67298 2.11843,-2.90544 8.81748,-3.24083 3.31105,0.7009 9.03322,-0.39809 -1.40798,-4.88644 0.38286,2.06891 5.91963,-4.04186 5.54728,-4.12775 6.11488,-1.10721 6.18006,-1.13921 4.79421,0.13413 5.16199,2.83418 5.71988,-3.92682 -1.1327,5.17958 4.86279,-0.27406 2.00802,0.72658 2.25396,5.30414 7.61335,1.48729 -7.17698,5.35328 -3.63512,3.81337 2.39784,1.00641 0.86994,3.00488 -1.46256,4.33526 3.85451,2.10802 -3.98002,5.47524 -7.617,5.48042 0.34504,2.50616 -0.44028,1.84975 13.29281,-2.66583 4.63544,3.49724 5.76865,-3.4745 10.34125,-5.59446 2.30641,0.40323 -4.03603,3.37818 5.70335,-3.9206 0.88574,1.69843 6.8225,-5.91345 -0.54977,4.02617 6.08317,-0.90694 4.85407,-2.65998 -1.05148,2.65721 4.66691,-1.11514 -2.7574,4.29034 7.28502,-2.10713 0.92765,3.15412 -5.74423,4.45296 12.93097,-8.80917 2.66569,0.31743 -4.84118,5.16215 4.80631,-2.49984 3.26401,0.25118 7.13935,-5.21991 -5.99258,7.85145 3.66268,0.0315 4.46983,-3.88805 -0.86925,3.30436 -0.79425,3.14442 -2.5302,1.74251 5.89862,-3.48773 6.24432,-0.18472 1.78194,-2.66854 3.67998,3.11503 7.80093,-0.75849 -6.44745,6.10086 5.41559,-3.3312 -0.31738,2.97661 -6.04258,5.13991 6.94114,-2.83645 6.74947,0.21207 v 42.138 c -130.2769,14.42598 -101.46056,-56.19492 -187.552737,-32.02677 5.697754,-4.47707 -7.041094,4.12957 -0.628623,-2.05214 -1.819794,-0.0961 -9.17969,5.37098 -5.002985,0.79664 -7.79154,4.25868 -1.92943,-0.58731 -2.254302,-1.08695 -5.416633,3.12723 -8.841901,2.76936 -4.727428,-0.40882 -3.382428,1.58121 -10.799244,5.89654 -11.406472,3.03496 C 39.588167,293.66046 -0.86903571,301.95758 2,299.34758 c -3.3289957,1.70077 7.2319736,-5.79122 0,-0.60995 z"
             id="path3488"
             sodipodi:nodetypes="ccccccccccccccccccccccccccccccccccccccccscccccccccccccccccccccccccccccccccccccccccccccc"
             inkscape:connector-curvature="0" />
          <path
             style="fill:url(#linearGradient4960);fill-opacity:1;fill-rule:nonzero;stroke:#217821;stroke-width:2.59407353;stroke-linecap:round;stroke-linejoin:round;stroke-miterlimit:4;stroke-dasharray:none;stroke-dashoffset:0;stroke-opacity:1"
             d="m 13.235893,283.45523 c 2.620359,-0.0391 -2.414342,5.06038 3.685098,0.51621 1.62712,-1.15496 -12.3558434,8.80531 -1.407204,2.18883 3.935955,-2.01845 14.912653,-4.82427 5.072596,0.90684 5.839834,-3.6249 1.619879,0.17523 4.579901,-0.20979 -4.936995,5.34699 4.833059,-4.8077 2.910563,1.62438 -12.563186,8.60002 15.919188,-10.29858 4.263334,-1.42855 -4.416078,4.33959 7.579435,-2.42827 -1.142958,4.19433 2.967924,-1.62509 4.620782,-1.33558 9.67789,-3.83235 -5.981941,6.04531 -0.774265,2.36678 3.02802,0.27415 -6.395201,5.22531 -5.103586,4.46567 0.908495,0.50572 3.612261,-5.69078 -2.993756,5.905 3.057519,1.85677 -3.172488,3.75102 5.324948,-3.90063 4.604251,0.56414 5.586804,-3.51681 -4.485587,4.52774 2.392891,0.33911 4.039663,-2.71396 7.908531,-3.87443 2.278575,0.38581 3.100521,-2.34675 12.670062,-1.09348 10.472529,-2.17062 -8.018232,6.86868 -0.393997,1.34056 3.139203,0.36104 -12.909749,8.47371 16.147884,-7.90733 5.830999,1.07298 4.828085,-3.30065 5.967718,-3.05834 5.183788,-2.11834 -4.447896,4.2272 2.941061,-2.07566 4.571598,-2.09482 6.874057,-5.17747 -9.385473,8.60274 1.697669,-0.0711 6.105361,-4.45828 -3.149419,3.16526 3.152783,-1.7895 -1.053536,1.82767 -5.750083,4.54242 0.574071,0.1058 2.33901,-2.14908 -1.002764,2.29556 3.001915,-1.18949 -5.598257,5.86597 9.856931,-7.09663 1.232369,0.19636 -2.25404,1.25748 6.576442,-2.93132 -1.005565,2.23547 5.517927,-3.95622 9.672507,-7.26743 2.119047,-1.07079 -4.372727,3.82384 9.90854,-6.79027 2.334901,-0.56159 -5.099396,4.51398 17.891219,-11.56049 5.891669,-2.02544 -3.71982,-0.0918 10.45097,-4.1346 8.71991,-4.619 -10.30802,7.62719 11.56729,-4.12304 5.20245,1.35933 4.23515,-2.28901 -4.85781,4.78386 2.3401,-0.43198 -1.47045,2.82794 8.20622,-5.71512 3.96543,-0.60707 6.96399,-5.9045 -2.78356,3.56034 6.21691,-0.31527 4.9864,-0.64015 7.03811,-1.52723 5.88579,0.10474 6.67078,-5.72092 -2.69088,5.03815 5.17896,-0.97516 0.64728,3.2525 7.30154,-3.89386 1.27424,1.67834 4.13516,-2.56897 8.60488,-1.89871 11.74543,-3.92919 -4.90615,3.87471 -6.95358,6.52978 0.1575,1.3649 1.87954,-0.98583 -7.4153,6.6885 1.63697,2.14942 -3.48686,5.05015 7.57517,-4.63084 2.82775,1.66311 5.79994,-4.40351 -4.49521,3.10938 3.4308,-0.0498 3.56084,-0.37706 -2.45453,2.83927 3.68894,2.05996 5.2203,-1.76709 5.03921,2.96623 5.59218,1.95332 1.39266,-1.14221 7.462,-4.54712 2.51633,-0.25236 4.11195,0.15293 3.3806,-2.76585 3.34517,2.35098 -6.92849,-0.4998 11.61008,-5.85171 2.23203,-0.10099 -4.03707,2.71533 7.44811,-4.88556 -0.73582,1.09266 1.26543,0.0335 7.65588,-4.77019 1.98187,-0.0547 3.08875,-1.60467 6.46156,-0.36391 1.81202,1.9077 2.23484,-0.99667 6.71369,-2.63603 2.13923,0.36116 10.37511,-4.80104 4.67797,-0.85779 3.6443,0.64803 2.65398,-1.03846 -2.95055,2.62488 2.05256,-0.49975 2.41678,0.16173 -2.44781,6.24028 2.88516,1.30992 3.12768,-1.67121 5.97796,-4.22798 2.06961,0.42648 2.32954,3.48926 1.41749,1.35709 6.7503,0.65875 -6.63612,4.2934 -0.96219,1.92849 2.43573,-0.46441 -3.67929,1.74345 -4.80081,4.83865 -0.33804,1.14786 -4.6606,5.48762 7.71298,-2.17937 0.45545,3.36442 8.17111,-4.75481 -9.55632,7.49298 2.38219,0.46771 8.14142,-2.80116 -3.97811,6.89443 5.71416,1.44194 5.94477,-1.75431 -6.97832,6.55781 3.06196,1.37265 6.3571,-3.43082 -3.76024,4.52167 3.26481,0.11018 9.73001,-5.38513 -5.56471,4.23388 2.32777,1.70536 -4.13591,3.4893 10.38061,-5.98273 1.45164,1.35183 -9.04798,5.9837 5.24363,-2.95347 2.61219,-0.52934 8.21349,-3.83253 -7.15195,6.38343 3.51986,1.17549 6.17764,-3.25672 -4.83804,6.43328 3.15875,2.02431 7.95045,-4.66365 -2.70071,4.18466 5.16912,0.58987 7.13217,-4.18307 -3.03998,4.60732 4.14645,0.61007 5.35168,-3.42809 -5.17606,4.40124 1.46321,1.03447 -7.49457,8.85716 2.49483,-1.07011 7.39833,1.30706 8.98275,-7.10641 -9.87404,8.7023 1.78487,1.60177 2.52374,-2.32765 -2.95131,4.85351 3.36966,-0.18963 6.71702,-5.30906 -1.92455,4.87073 5.85074,-0.13331 -2.06157,2.35558 6.09544,-1.00616 2.87319,5.17334 V 350 H 2 v -61.85915 c 0,-2.61063 8.915444,-3.06872 11.235893,-4.68562 z"
             id="path3496"
             sodipodi:nodetypes="ccccccccccccccscccccccccccccccccccccccccccccccccccccccccccccccccccccccccccccccsc"
             inkscape:connector-curvature="0" />
          <path
             style="fill:url(#linearGradient4962);fill-opacity:1;fill-rule:nonzero;stroke:#445500;stroke-width:2.59407353;stroke-linecap:round;stroke-linejoin:round;stroke-miterlimit:4;stroke-dasharray:none;stroke-dashoffset:0;stroke-opacity:1"
             d="m 6.5601848,331.99045 c 0.6018718,-4.40945 4.7938672,2.47637 8.3875962,-0.6137 -0.552222,5.6988 2.015798,-2.94202 6.120364,0.0726 3.774473,0.006 6.408275,3.91704 9.222266,-0.59113 7.004727,2.86118 13.757141,1.98325 19.158727,-1.17493 1.833549,4.77195 8.464426,-3.2493 11.468912,3.06095 7.403805,1.843 7.575507,-0.65688 8.791652,3.40718 3.990351,5.28881 15.883927,2.39699 22.33668,5.34107 1.268138,1.80531 1.234139,-2.28563 3.477077,0.34898 0.176396,-3.70541 0.379296,0.2905 2.781478,-3.06764 -1.04239,3.95898 2.321903,-1.81081 5.301973,-0.81176 0.63754,-3.97105 0.73906,2.68456 1.6612,-1.5616 3.22508,4.62268 2.30471,-4.40681 7.28453,0.50355 5.49908,-0.82405 8.66696,4.37046 13.93138,2.02188 2.99445,1.70165 5.19076,-1.62799 8.25376,1.32306 1.9018,-2.6772 9.99045,2.0312 7.1505,1.23969 -0.23007,-5.89938 8.32615,1.97546 12.0792,-2.85941 3.57198,-1.21027 5.11879,0.83686 5.26143,-3.9947 1.84203,5.21418 3.27135,-3.0397 4.20823,2.65956 1.34796,-7.39052 8.59936,-0.80755 10.93176,-0.76057 -0.89712,-3.36906 2.69754,0.77722 4.62288,1.55009 -0.53836,4.21947 0.85349,-3.68101 0.92359,2.2115 0.8309,5.06622 1.67342,-4.6907 3.74385,1.69869 2.69229,3.22307 7.94945,-0.37474 12.27306,0.47466 4.8576,0.95431 7.75432,3.82453 10.97985,-0.235 1.59613,3.03668 5.94937,-8.08621 6.27062,-3.03752 0.44622,-4.2778 1.47838,2.61651 3.17287,-1.88778 3.06796,-2.7037 11.57667,-8.69831 13.03943,-5.54507 0.97492,4.09884 4.5213,-6.26042 4.79391,-0.39815 2.30893,-4.26864 1.44785,4.64247 4.06983,-0.21874 4.53778,1.87852 8.02178,2.28388 13.77191,0.69009 0.47823,4.93654 12.26034,-6.72638 13.9693,2.3958 L 266,350 H 2 v -19.66641 c -0.2336309,-0.76487 4.5050357,-3.28694 4.5601848,1.65686 z"
             id="path3553"
             sodipodi:nodetypes="cccccccccccccccccccccccscccccccccccc"
             inkscape:connector-curvature="0" />
        </g>
      </g>
      <rect
         y="279.23373"
         x="1.0026121"
         height="71.187164"
         width="265.99478"
         id="rect25737"
         style="fill:url(#linearGradient4967);fill-opacity:1;stroke:#000000;stroke-width:1.99025917" />
      <path
         inkscape:connector-curvature="0"
         id="path25743"
         d="M 85.764497,279.83221 136.67619,351.25"
         style="fill:none;stroke:#000000;stroke-width:1.5;stroke-linecap:butt;stroke-linejoin:miter;stroke-opacity:1" />
      <use
         height="352"
         width="799.99799"
         transform="translate(100,-3.1223731e-6)"
         id="use25745"
         xlink:href="#path25743"
         y="0"
         x="0" />
      <path
         style="fill:none;stroke:#000000;stroke-width:1.5;stroke-linecap:butt;stroke-linejoin:miter;stroke-opacity:1"
         d="M 1.5861178,302.02643 36.67619,351.25"
         id="path4921"
         inkscape:connector-curvature="0"
         sodipodi:nodetypes="cc" />
    </g>
  </g>
</svg>
