<?xml version="1.0" encoding="UTF-8" standalone="no"?>
<!-- Created with Inkscape (http://www.inkscape.org/) -->

<svg
   xmlns:dc="http://purl.org/dc/elements/1.1/"
   xmlns:cc="http://creativecommons.org/ns#"
   xmlns:rdf="http://www.w3.org/1999/02/22-rdf-syntax-ns#"
   xmlns:svg="http://www.w3.org/2000/svg"
   xmlns="http://www.w3.org/2000/svg"
   xmlns:xlink="http://www.w3.org/1999/xlink"
   xmlns:sodipodi="http://sodipodi.sourceforge.net/DTD/sodipodi-0.dtd"
   xmlns:inkscape="http://www.inkscape.org/namespaces/inkscape"
   width="230"
   height="200"
   id="svg2"
   version="1.1"
   inkscape:version="0.47 r22583"
   sodipodi:docname="smiley.svg"
   inkscape:export-filename="/home/hansenm/Desktop/smiley.png"
   inkscape:export-xdpi="117.39"
   inkscape:export-ydpi="117.39">
  <defs
     id="defs4">
    <inkscape:perspective
       sodipodi:type="inkscape:persp3d"
       inkscape:vp_x="0 : 526.18109 : 1"
       inkscape:vp_y="0 : 1000 : 0"
       inkscape:vp_z="744.09448 : 526.18109 : 1"
       inkscape:persp3d-origin="372.04724 : 350.78739 : 1"
       id="perspective10" />
  </defs>
  <sodipodi:namedview
     id="base"
     pagecolor="#ffffff"
     bordercolor="#666666"
     borderopacity="1.0"
     inkscape:pageopacity="1"
     inkscape:pageshadow="2"
     inkscape:zoom="1.979899"
     inkscape:cx="-53.520941"
     inkscape:cy="119.03691"
     inkscape:document-units="px"
     inkscape:current-layer="layer1"
     showgrid="false"
     inkscape:window-width="1440"
     inkscape:window-height="849"
     inkscape:window-x="0"
     inkscape:window-y="24"
     inkscape:window-maximized="1" />
  <metadata
     id="metadata7">
    <rdf:RDF>
      <cc:Work
         rdf:about="">
        <dc:format>image/svg+xml</dc:format>
        <dc:type
           rdf:resource="http://purl.org/dc/dcmitype/StillImage" />
        <dc:title></dc:title>
      </cc:Work>
    </rdf:RDF>
  </metadata>
  <g
     inkscape:label="Layer 1"
     inkscape:groupmode="layer"
     id="layer1"
     transform="translate(-56.599007,-34.108162)">
    <g
       id="g3608"
       transform="translate(25.126885,-17.703026)">
      <path
         d="m 233.34524,151.81119 c 0,43.79451 -38.89442,79.29697 -86.87312,79.29697 -47.978695,0 -86.873113,-35.50246 -86.873113,-79.29697 0,-43.79451 38.894418,-79.296976 86.873113,-79.296976 47.9787,0 86.87312,35.502466 86.87312,79.296976 z"
         sodipodi:ry="79.296974"
         sodipodi:rx="86.873116"
         sodipodi:cy="151.81119"
         sodipodi:cx="146.47212"
         id="path2816"
         style="fill:#ffe680;fill-opacity:1;stroke:#000000;stroke-width:6;stroke-linecap:round;stroke-linejoin:round;stroke-miterlimit:4;stroke-opacity:1;stroke-dasharray:none;stroke-dashoffset:0"
         sodipodi:type="arc" />
      <path
         sodipodi:nodetypes="cczc"
         id="path2818"
         d="m 125.76398,145.56753 -35.37564,0 c 0.140585,-10.83156 -4.141982,-36.01212 16.68782,-37.1929 20.8298,-1.18078 18.68782,26.3301 18.68782,37.1929 z"
         style="fill:#ffffff;fill-opacity:1;stroke:#000000;stroke-width:4;stroke-linecap:round;stroke-linejoin:round;stroke-miterlimit:4;stroke-opacity:1;stroke-dashoffset:0" />
      <use
         height="1052.3622"
         width="744.09448"
         transform="translate(71.215754,0)"
         id="use3595"
         xlink:href="#path2818"
         y="0"
         x="0" />
      <path
         transform="matrix(1.1166667,0,0,1.1034483,-15.781403,-16.655638)"
         d="m 124.24877,122.26423 c 0,4.04471 -3.39196,7.3236 -7.57615,7.3236 -4.18419,0 -7.57614,-3.27889 -7.57614,-7.3236 0,-4.04472 3.39195,-7.32361 7.57614,-7.32361 4.18419,0 7.57615,3.27889 7.57615,7.32361 z"
         sodipodi:ry="7.323606"
         sodipodi:rx="7.5761442"
         sodipodi:cy="122.26423"
         sodipodi:cx="116.67262"
         id="path3597"
         style="fill:#000000;fill-opacity:1;stroke:none"
         sodipodi:type="arc" />
      <use
         height="1052.3622"
         width="744.09448"
         transform="translate(71.067821,-0.50507627)"
         id="use3599"
         xlink:href="#path3597"
         y="0"
         x="0" />
      <path
         style="fill:#a02c2c;fill-opacity:1;stroke:#000000;stroke-width:4;stroke-linecap:round;stroke-linejoin:round;stroke-miterlimit:4;stroke-opacity:1;stroke-dashoffset:0"
         d="m 100.65748,175.51749 71.59189,0 c 0,0 32.69942,41.2399 -20.80431,41.83576 -53.503729,0.59586 -50.78758,-41.83576 -50.78758,-41.83576 z"
         id="path3601"
         sodipodi:nodetypes="cccc" />
      <path
         sodipodi:nodetypes="ccc"
         id="path3606"
         d="m 136.65141,214.41287 c 5.16241,-18.21939 19.19779,-19.13867 33.64872,-1.92708 -10.39447,4.33739 -22.46472,5.562 -33.64872,1.92708 z"
         style="fill:#de8787;stroke:none" />
    </g>
  </g>
</svg>
