<?xml version="1.0" encoding="UTF-8" standalone="no"?>
<!-- Created with Inkscape (http://www.inkscape.org/) -->

<svg
   xmlns:dc="http://purl.org/dc/elements/1.1/"
   xmlns:cc="http://creativecommons.org/ns#"
   xmlns:rdf="http://www.w3.org/1999/02/22-rdf-syntax-ns#"
   xmlns:svg="http://www.w3.org/2000/svg"
   xmlns="http://www.w3.org/2000/svg"
   xmlns:xlink="http://www.w3.org/1999/xlink"
   xmlns:sodipodi="http://sodipodi.sourceforge.net/DTD/sodipodi-0.dtd"
   xmlns:inkscape="http://www.inkscape.org/namespaces/inkscape"
   width="139.7762mm"
   height="93.133331mm"
   viewBox="0 0 139.7762 93.133331"
   version="1.1"
   id="svg1125"
   inkscape:version="0.92.3 (2405546, 2018-03-11)"
   sodipodi:docname="sock_puppets.svg">
  <defs
     id="defs1119">
    <clipPath
       clipPathUnits="userSpaceOnUse"
       id="clipPath4581">
      <rect
         y="-3.3275211"
         x="-188.79961"
         height="352"
         width="266"
         id="rect4583"
         style="opacity:0.2;fill:#1a1a1a;fill-opacity:1;stroke:none"
         transform="matrix(-0.99418784,0.1076594,0.1076594,0.99418784,0,0)" />
    </clipPath>
    <filter
       inkscape:collect="always"
       id="filter3980"
       x="-0.040344831"
       width="1.0806897"
       y="-0.11699999"
       height="1.234">
      <feGaussianBlur
         inkscape:collect="always"
         stdDeviation="2.0682873"
         id="feGaussianBlur3982" />
    </filter>
    <filter
       inkscape:collect="always"
       id="filter4436"
       x="-0.023139892"
       width="1.0462798"
       y="-0.10915976"
       height="1.2183195">
      <feGaussianBlur
         inkscape:collect="always"
         stdDeviation="1.2323709"
         id="feGaussianBlur4438" />
    </filter>
    <filter
       inkscape:collect="always"
       id="filter4043">
      <feGaussianBlur
         inkscape:collect="always"
         stdDeviation="0.63198038"
         id="feGaussianBlur4045" />
    </filter>
    <filter
       inkscape:collect="always"
       id="filter4002">
      <feGaussianBlur
         inkscape:collect="always"
         stdDeviation="0.77010419"
         id="feGaussianBlur4004" />
    </filter>
    <filter
       inkscape:collect="always"
       id="filter4037">
      <feGaussianBlur
         inkscape:collect="always"
         stdDeviation="2.5252341"
         id="feGaussianBlur4039" />
    </filter>
    <filter
       inkscape:collect="always"
       id="filter4376">
      <feGaussianBlur
         inkscape:collect="always"
         stdDeviation="2.3934451"
         id="feGaussianBlur4378" />
    </filter>
    <filter
       inkscape:collect="always"
       id="filter4479"
       x="-0.21774752"
       width="1.435495"
       y="-0.034793671"
       height="1.0695873">
      <feGaussianBlur
         inkscape:collect="always"
         stdDeviation="1.9169714"
         id="feGaussianBlur4481" />
    </filter>
    <clipPath
       clipPathUnits="userSpaceOnUse"
       id="clipPath4577">
      <rect
         style="opacity:0.2;fill:#1a1a1a;fill-opacity:1;stroke:none"
         id="rect4579"
         width="266"
         height="352"
         x="-58.999996"
         y="-3" />
    </clipPath>
    <filter
       inkscape:collect="always"
       id="filter4440">
      <feGaussianBlur
         inkscape:collect="always"
         stdDeviation="0.40349909"
         id="feGaussianBlur4442" />
    </filter>
  </defs>
  <sodipodi:namedview
     id="base"
     pagecolor="#ffffff"
     bordercolor="#666666"
     borderopacity="1.0"
     inkscape:pageopacity="0.0"
     inkscape:pageshadow="2"
     inkscape:zoom="0.35"
     inkscape:cx="-295.856"
     inkscape:cy="290.28572"
     inkscape:document-units="mm"
     inkscape:current-layer="layer1"
     showgrid="false"
     fit-margin-top="0"
     fit-margin-left="0"
     fit-margin-right="0"
     fit-margin-bottom="0"
     inkscape:window-width="1920"
     inkscape:window-height="1172"
     inkscape:window-x="1600"
     inkscape:window-y="0"
     inkscape:window-maximized="1" />
  <metadata
     id="metadata1122">
    <rdf:RDF>
      <cc:Work
         rdf:about="">
        <dc:format>image/svg+xml</dc:format>
        <dc:type
           rdf:resource="http://purl.org/dc/dcmitype/StillImage" />
        <dc:title></dc:title>
      </cc:Work>
    </rdf:RDF>
  </metadata>
  <g
     inkscape:label="Layer 1"
     inkscape:groupmode="layer"
     id="layer1"
     transform="translate(-44.260711,-132.50476)">
    <g
       id="g4112"
       transform="matrix(0.26458333,0,0,0.26458333,58.888989,133.29851)"
       clip-path="url(#clipPath4577)">
      <path
         sodipodi:nodetypes="sssssss"
         inkscape:connector-curvature="0"
         id="path3078"
         d="m 96.499998,196.00001 c 0,5.46354 -4.59988,13.56153 -5.248203,18.45811 -2.733449,20.64493 -8.266767,29.35633 -18.477278,37.43476 C 64.951313,258.08249 60.026506,266.21763 51,266.50001 22.615112,267.38799 7.0977695,236.21648 5.5000011,196.00001 3.9495357,156.97416 18.728033,125.12406 51,125.50001 c 25.12725,0.29271 45.499998,31.56392 45.499998,70.5 z"
         style="fill:#f5c89f;fill-opacity:1;stroke:#000000;stroke-width:1;stroke-linecap:round;stroke-linejoin:round;stroke-miterlimit:4;stroke-opacity:1" />
      <path
         sodipodi:nodetypes="cccccccccccc"
         inkscape:connector-curvature="0"
         id="path3863"
         d="m 5.10229,199.61849 -9.545941,-17.32411 1.767767,-31.1127 18.031222,-25.10229 32.880465,-12.72792 21.920309,5.65685 21.213208,17.32412 10.6066,16.97056 -4.5962,43.84062 C 93.6826,176.97255 90.04777,156.78591 78.994947,138.45376 63.06012,148.5799 51.74731,146.83505 26.669046,139.86797 6.240928,150.58306 9.111323,176.84764 5.10229,199.61849 Z"
         style="fill:#28170b;stroke:#000000;stroke-width:1px;stroke-linecap:butt;stroke-linejoin:miter;stroke-opacity:1" />
      <ellipse
         transform="translate(-20)"
         id="path4232"
         style="fill:#000000;fill-opacity:1;stroke:none"
         cx="53.740116"
         cy="189.01189"
         rx="9.1923885"
         ry="7.4246211" />
      <path
         sodipodi:nodetypes="ccccc"
         inkscape:connector-curvature="0"
         id="rect3965"
         d="M 39.396969,291.18881 H 161.01933 c -5.18269,27.53168 -4.22487,58.74767 0,91.92388 H 47.396969 Z"
         style="fill:#ffccaa;fill-opacity:1;stroke:#2b1100;stroke-width:2" />
      <path
         inkscape:connector-curvature="0"
         id="path3978"
         d="m 40.811182,311.69491 2.828427,14.14214 51.618791,-3.53553 16.97056,-14.14214 32.52692,3.53553 13.43502,14.14214 5.65686,-24.74874 -67.88225,-17.67767 z"
         style="opacity:0.2;fill:#000000;stroke:none;filter:url(#filter3980)" />
      <path
         transform="matrix(0.96059113,0,0,1.1184954,14.293103,-15.560512)"
         style="fill:#502d16;fill-opacity:1;stroke:#28170b;stroke-width:1.92949474"
         d="m 147,67.000008 c 0,21.539105 -45.4431,39.000002 -101.5,39.000002 -56.056902,0 -96.347186,-6.713589 -96.347186,-28.252694 0,-21.539106 27.292787,-58.010767 83.349689,-58.010767 C 88.559403,19.736549 147,45.460902 147,67.000008 Z"
         id="path4384"
         inkscape:connector-curvature="0"
         sodipodi:nodetypes="sssss" />
      <path
         sodipodi:nodetypes="ccccccccccccccccccccccccccccccccccccccccccccccccccccccccccccccc"
         inkscape:connector-curvature="0"
         id="path4245"
         d="m 2.91822,40.165909 c -1.668897,3.165249 -3.608372,5.58771 -4.94975,9.192388 -0.09695,4.381388 -2.327134,6.629554 -4.24264,9.192389 -4.190427,2.783672 -12.249542,2.945586 -16.263455,5.656854 -2.235537,2.126078 -6.862987,3.022459 -7.778175,6.363961 -2.741419,2.528179 -3.874404,6.502481 -3.53553,12.268339 0.425531,5.151852 -1.119214,12.261444 1.41421,15.308825 1.138818,3.372755 2.681561,8.537895 4.24264,13.435025 1.421623,7.33834 2.895332,14.63424 3.53553,22.75118 0.648759,6.0293 2.466888,10.88084 3.535536,16.49325 1.885483,6.36411 2.464054,14.03509 4.949748,19.79899 2.025924,5.40389 2.054036,12.79288 4.949746,17.32412 0.480454,4.41568 2.045158,8.80471 4.637764,11.92975 -0.150346,1.98565 2.38012,6.89389 4.24264,9.19239 -0.04845,2.10946 2.354421,6.06559 3.847516,9.28345 2.112727,4.02133 2.647014,4.1242 4.949754,7.77817 1.735264,2.59726 4.998316,3.61177 5.656856,7.07107 4.102467,3.65772 -2.28494,6.56734 -1.41422,11.43747 -0.519497,6.19771 7.483164,7.77475 3.53554,15.43259 -2.268548,4.2104 0.667488,7.28297 2.12132,9.89949 2.926449,2.03945 4.526499,7.73754 2.121316,11.66727 -1.932328,4.19992 -4.016858,-0.78331 2.121324,-0.21142 3.270264,4.70139 1.111272,9.71515 0.7071,15.55635 2.24944,1.85221 6.670193,2.36197 8.48529,4.94974 3.774074,1.97699 3.246144,8.99819 4.242636,13.43504 2.524728,2.80058 7.35264,2.196 11.437467,2.82842 5.178177,0.2445 7.861304,-2.05533 13.393779,-1.41421 6.19647,-0.45518 11.529489,-2.66108 18.591044,-2.12132 4.357404,-0.16219 7.889224,-1.14997 12.851684,-0.70711 6.32998,0.13217 13.36938,-14.44507 18.67935,-13.29289 4.66729,1.22526 10.07923,1.70588 16.26345,1.41421 4.71007,1.43504 11.89387,0.38298 17.71314,0.70711 6.35213,0 12.70427,14 19.05641,14 2.83494,1.64341 8.70891,0.24778 12.72793,0.7071 4.97128,-0.626 6.13589,-5.99603 3.53553,-10.6066 -1.83418,-3.11557 -3.00193,-6.89757 -4.94975,-9.89949 -2.10224,-2.12765 -3.18423,-5.04765 -5.65685,-7.77818 -2.08651,-2.62754 -3.19594,7.76785 -4.94975,4.80761 -0.0701,-4.52611 0.57655,-9.76892 -1.41421,-12.37436 -1.05085,-3.19887 -5.65021,-7.42382 -2.82843,-11.66727 0.67062,-4.08722 5.47899,-14.10169 -1.41421,-14.84924 -2.97494,-2.2107 -4.19742,-6.17707 -3.53554,-12.02081 1.96538,-4.75452 3.91845,-11.27226 2.12132,-17.67767 -2.16533,-2.23512 -3.13975,-5.14126 -5.65685,-7.07107 -1.37981,-4.04134 -3.76206,-7.08025 -4.24264,-12.02082 -2.7913,-4.62972 -0.88469,-11.86856 -0.70711,-17.13557 -0.5357,-5.04155 1.10623,-7.90547 0.70711,-12.81044 0.30678,-5.50326 2.07611,-9.54398 2.12132,-15.30882 1.16951,-3.69818 1.35987,-9.57203 1.41421,-14.43092 -0.76085,-4.79974 -2.30014,-8.82104 -4.24264,-12.43914 -1.90285,-3.5183 -3.25075,-7.59155 -2.82843,-13.43503 1.76195,-2.95209 3.3943,-6.03379 4.94975,-9.19239 2.21356,-1.83559 2.89827,-5.5386 4.94975,-7.77817 1.54382,-4.11303 3.07548,-8.23823 4.24264,-12.727922 0,-4.714045 0,-9.428091 0,-14.142136 -1.67019,-2.412647 -2.50036,-6.24501 -4.24264,-9.192388 -1.32362,-2.095322 -1.09999,-4.445516 -4.24264,-7.071068 -3.0052,-1.47314 -4.21215,-4.744538 -7.77818,-5.656854 -2.30737,-2.642378 -5.95288,-3.946617 -9.89949,-4.949748 -2.90972,-2.275729 -8.02254,-2.348354 -10.6066,-4.949747 -4.27646,-0.555996 -6.17028,-3.273367 -9.89949,-4.949748 -3.23721,-1.735478 -6.71895,-2.941868 -9.1924,-4.949747 -29.631969,9.581821 -69.686993,1.57633 -97.58073,4.949747 z"
         style="fill:#ffffff;stroke:#000000;stroke-width:1.5;stroke-linecap:butt;stroke-linejoin:miter;stroke-opacity:1" />
      <path
         sodipodi:nodetypes="cccccccc"
         inkscape:connector-curvature="0"
         id="path4247"
         d="m 144.70393,186.35384 c 0.65297,1.74114 -2.81302,2.89571 -0.61185,0.66588 -3.40536,4.71013 -9.8327,8.05067 -13.76838,12.26804 -3.50217,2.26247 -6.46657,5.09147 -9.66166,7.64267 -3.78752,2.85529 -8.02619,4.95773 -12.58643,6.40111 l -23.341044,4.88576 c -5.780138,1.35034 -11.719404,1.84158 -17.609112,2.28082 -0.187922,0.0995 -0.375844,0.19907 -0.563767,0.29861"
         style="opacity:0.5;fill:none;stroke:#000000;stroke-width:2;stroke-linecap:butt;stroke-linejoin:miter;stroke-opacity:1" />
      <path
         inkscape:connector-curvature="0"
         id="path4265"
         d="m 13.234019,235.32738 c 29.163414,10.46303 61.887322,18.42477 92.154341,7.82697 3.53254,-0.96032 7.04342,-2.05494 10.37613,-3.58433"
         style="fill:none;stroke:#000000;stroke-width:0.75;stroke-linecap:butt;stroke-linejoin:miter;stroke-opacity:1" />
      <path
         sodipodi:nodetypes="cccc"
         inkscape:connector-curvature="0"
         id="path4273"
         d="m 87.6872,284.37502 75.19917,-28.47955 c -74.7596,42.57384 -76.17818,38.67858 -125.00793,32.84837 z"
         style="opacity:0.25;fill:#000000;stroke:none;filter:url(#filter4440)" />
      <path
         inkscape:connector-curvature="0"
         id="path3968"
         d="m 71.923879,330.07969 -5.656854,7.77817"
         style="fill:none;stroke:#000000;stroke-width:1px;stroke-linecap:butt;stroke-linejoin:miter;stroke-opacity:1" />
      <use
         height="352"
         width="799.99799"
         transform="rotate(-75,73.669646,306.4204)"
         id="use3970"
         xlink:href="#path3968"
         y="0"
         x="0" />
      <use
         x="0"
         y="0"
         xlink:href="#path3968"
         id="use3972"
         transform="translate(46,1.9999988)"
         width="799.99799"
         height="352" />
      <use
         height="352"
         width="799.99799"
         transform="rotate(-150,97.415958,315.66235)"
         id="use3974"
         xlink:href="#path3968"
         y="0"
         x="0" />
      <use
         x="0"
         y="0"
         xlink:href="#path3968"
         id="use3976"
         transform="matrix(-0.50000001,0.86602541,0.86602541,0.50000001,-169.0173,110.23785)"
         width="799.99799"
         height="352" />
      <ellipse
         transform="matrix(1.1447368,0,0,1,-24.652019,1.7677669)"
         id="path4041"
         style="opacity:0.25;fill:#000000;fill-opacity:1;stroke:none;filter:url(#filter4043)"
         cx="43.133514"
         cy="73.046379"
         rx="13.435028"
         ry="11.667261" />
      <path
         sodipodi:nodetypes="ssssssssss"
         inkscape:connector-curvature="0"
         id="path3986"
         d="m 26.3125,57.84375 c -8.396272,0 -15.1875,5.689314 -15.1875,12.71875 0,7.029436 6.791228,12.75 15.1875,12.75 8.396272,0 15.21875,-5.720564 15.21875,-12.75 0,-7.029436 -6.822478,-12.71875 -15.21875,-12.71875 z m -4,5.3125 c 1.788731,0 3.25,1.221208 3.25,2.71875 0,1.497542 -1.461269,2.6875 -3.25,2.6875 -1.788731,0 -3.25,-1.189958 -3.25,-2.6875 0,-1.497542 1.461269,-2.71875 3.25,-2.71875 z"
         style="fill:#aa4400;fill-opacity:1;stroke:#000000;stroke-width:1.5" />
      <ellipse
         style="opacity:0.25;fill:#000000;fill-opacity:1;stroke:none;filter:url(#filter4043)"
         id="path4047"
         transform="matrix(1.1447368,0,0,1.2141995,41.469299,-17.73316)"
         cx="43.133514"
         cy="73.046379"
         rx="13.435028"
         ry="11.667261" />
      <path
         inkscape:connector-curvature="0"
         style="fill:#2c89a0;fill-opacity:1;stroke:#000000;stroke-width:1.5"
         d="m 97.04869,78.761 c 7.27139,-4.198123 10.3081,-12.520842 6.79338,-18.60851 C 100.32736,54.06482 91.5857,52.506278 84.31431,56.704414 77.042923,60.902551 73.994767,69.267937 77.509483,75.355621 81.0242,81.443291 89.77729,82.959136 97.04869,78.761 Z m 0.80785,-6.600761 c -1.54909,0.894366 -3.42519,0.567396 -4.17396,-0.729508 -0.74877,-1.296913 -0.0782,-3.058078 1.47083,-3.952444 1.54909,-0.894362 3.40956,-0.594467 4.15834,0.702451 0.74876,1.296899 0.0939,3.085135 -1.45521,3.979501 z m -8.55553,-2.818596 c -1.54909,0.894367 -3.40957,0.59445 -4.15833,-0.702455 -0.74878,-1.296911 -0.0939,-3.085141 1.4552,-3.979502 1.54909,-0.894372 3.42519,-0.567408 4.17396,0.7295 0.74877,1.296912 0.0782,3.058082 -1.47083,3.952457 z"
         id="path3994" />
      <path
         transform="rotate(8.1389539,30.23801,-81.614094)"
         style="opacity:0.25;fill:#000000;stroke:none;filter:url(#filter4002)"
         d="m 8.6297316,128.32792 c 38.9305874,8.3118 45.5888374,20.48375 61.3744074,20.52775 17.962988,0.0501 47.817061,-6.73808 72.118401,-14.67414 -58.748666,18.23553 -94.314862,1.42496 -133.4928084,-5.85361 z"
         id="path3996"
         inkscape:connector-curvature="0"
         sodipodi:nodetypes="cscc" />
      <path
         inkscape:connector-curvature="0"
         id="path4028"
         d="m 48.1875,26.71875 c -6.37805,2.271516 -8.980942,3.957352 -14.875,5.65625 -5.01053,2.337494 -10.88392,3.799305 -17.78125,4.25 -5.021099,0.353882 -9.296799,1.480682 -12.625,3.53125 -1.668897,3.165249 -3.596122,5.582822 -4.9375,9.1875 -0.09695,4.381388 -2.334494,6.655915 -4.25,9.21875 -4.190427,2.783672 -12.236087,2.944982 -16.25,5.65625 -2.235537,2.126078 -6.866062,3.002248 -7.78125,6.34375 -2.741419,2.528179 -3.870124,6.515392 -3.53125,12.28125 0.425531,5.151852 -1.127174,12.265119 1.40625,15.3125 1.138818,3.37275 2.688921,8.54037 4.25,13.4375 1.421623,7.33834 2.891052,14.63306 3.53125,22.75 0.648759,6.0293 2.462602,10.85634 3.53125,16.46875 1.885483,6.36411 2.451806,14.0486 4.9375,19.8125 2.025924,5.40389 2.07304,12.78126 4.96875,17.3125 0.480454,4.41568 2.032394,8.81246 4.625,11.9375 -0.150346,1.98565 2.38748,6.889 4.25,9.1875 -0.04845,2.10946 2.350655,6.06339 3.84375,9.28125 2.112727,4.02133 2.66601,4.12728 4.96875,7.78125 1.735264,2.59726 4.99771,3.63445 5.65625,7.09375 4.102467,3.65772 -2.30822,6.56737 -1.4375,11.4375 -0.519497,6.19771 7.478874,7.74841 3.53125,15.40625 -2.268548,4.2104 0.671168,7.28973 2.125,9.90625 2.882912,2.00911 4.471334,7.57808 2.21875,11.5 0.546757,-0.087 1.210464,-0.10772 2.03125,-0.0312 3.270264,4.70139 1.122922,9.7213 0.71875,15.5625 2.24944,1.85221 6.653653,2.34973 8.46875,4.9375 3.774074,1.97699 3.253508,9.00065 4.25,13.4375 2.524728,2.80058 7.352673,2.18008 11.4375,2.8125 5.178177,0.2445 7.873775,-2.04737 13.40625,-1.40625 6.19647,-0.45518 11.532195,-2.66476 18.59375,-2.125 4.3574,-0.16219 7.88129,-1.13036 12.84375,-0.6875 6.32998,0.13217 13.34628,-14.46468 18.65625,-13.3125 4.66729,1.22526 10.09703,1.72917 16.28125,1.4375 4.71007,1.43504 11.89948,0.36337 17.71875,0.6875 6.35213,0 12.71036,14 19.0625,14 2.83494,1.64341 8.69973,0.25943 12.71875,0.71875 4.97128,-0.626 6.13161,-6.01443 3.53125,-10.625 -0.69123,-1.17413 -1.29565,-2.43274 -1.875,-3.71875 0.91976,3.6432 -0.52307,7.13995 -4.375,7.625 -3.83272,-0.43803 -9.45272,0.87973 -12.15625,-0.6875 -6.05769,0 -12.09857,-13.34375 -18.15625,-13.34375 -5.54952,-0.30911 -12.41451,0.68102 -16.90625,-0.6875 -5.89755,0.27815 -11.04906,-0.17529 -15.5,-1.34375 -5.06383,-1.09877 -11.77594,12.81354 -17.8125,12.6875 -4.73243,-0.42233 -8.09458,0.50158 -12.25,0.65625 -6.734222,-0.51474 -11.840763,1.59717 -17.75,2.03125 -5.276021,-0.6114 -7.811854,1.57692 -12.75,1.34375 -3.895478,-0.6031 -8.498554,-0.0167 -10.90625,-2.6875 -0.950301,-4.23118 -0.46337,-10.92715 -4.0625,-12.8125 -1.730959,-2.46781 -5.948581,-2.9524 -8.09375,-4.71875 0.385437,-5.57044 2.462423,-10.36029 -0.65625,-14.84375 -0.782926,-0.0729 -1.416021,-0.0205 -1.9375,0.0625 -0.03067,0.0532 -0.06159,0.1037 -0.09375,0.15625 -1.596287,3.46954 -3.28368,0.38109 0.09375,-0.15625 2.156401,-3.74065 0.62666,-9.05111 -2.125,-10.96875 -1.386441,-2.49523 -4.194641,-5.45352 -2.03125,-9.46875 3.764635,-7.30286 -3.870416,-8.77708 -3.375,-14.6875 -0.830358,-4.64438 5.2873,-7.41808 1.375,-10.90625 -0.628014,-3.29895 -3.751423,-4.27313 -5.40625,-6.75 -2.195998,-3.48459 -2.703957,-3.60257 -4.71875,-7.4375 -1.423884,-3.0687 -3.70245,-6.83207 -3.65625,-8.84375 -1.776184,-2.19195 -4.205877,-6.8564 -4.0625,-8.75 -2.472428,-2.98018 -3.948067,-7.19525 -4.40625,-11.40625 -2.761482,-4.32119 -2.817986,-11.3466 -4.75,-16.5 -2.370472,-5.49672 -2.920668,-12.80589 -4.71875,-18.875 -1.019112,-5.35225 -2.725064,-10.00018 -3.34375,-15.75 -0.610522,-7.74068 -2.019275,-14.68932 -3.375,-21.6875 -1.488716,-4.67013 -2.976471,-9.59609 -4.0625,-12.8125 -2.415989,-2.906126 -0.937944,-9.680708 -1.34375,-14.59375 -0.323166,-5.498585 0.760658,-9.307763 3.375,-11.71875 0.872766,-3.186609 5.27434,-4.034975 7.40625,-6.0625 3.827851,-2.585589 11.535068,-2.720364 15.53125,-5.375 1.826714,-2.444037 3.93879,-4.602959 4.03125,-8.78125 1.279199,-3.437586 3.127213,-5.731474 4.71875,-8.75 3.173924,-1.955516 7.2429,-3.037522 12.03125,-3.375 6.577608,-0.429804 12.19048,-1.833359 16.96875,-4.0625 5.620843,-1.620147 8.07385,-3.208778 14.15625,-5.375 1.40851,2.864059 6.665768,1.088987 7.40625,2.6875 h 14.5625 c 4.854321,-0.49177 7.60757,1.123629 12.4375,0.65625 5.26482,1.806385 11.16454,2.786754 15.5,4.75 2.3588,1.914805 5.66284,3.063718 8.75,4.71875 3.55634,1.598673 5.39052,4.188527 9.46875,4.71875 2.46428,2.480807 7.31891,2.548511 10.09375,4.71875 3.76367,0.956632 7.23708,2.198858 9.4375,4.71875 3.40072,0.870026 4.57161,3.970147 7.4375,5.375 2.99698,2.503847 2.76898,4.751805 4.03125,6.75 1.66152,2.810754 2.46973,6.480439 4.0625,8.78125 V 94.8438 c -0.94609,3.639339 -2.16421,7.0316 -3.40625,10.375 0.30764,-0.50086 0.6466,-0.98633 1.03125,-1.40625 1.54382,-4.11303 3.08284,-8.260308 4.25,-12.75 v -14.125 c -1.67019,-2.412647 -2.50772,-6.240122 -4.25,-9.1875 -1.32362,-2.095322 -1.10735,-4.436948 -4.25,-7.0625 -3.0052,-1.47314 -4.21522,-4.775184 -7.78125,-5.6875 -2.30737,-2.642378 -5.95964,-3.934369 -9.90625,-4.9375 -2.90972,-2.275729 -8.00969,-2.336107 -10.59375,-4.9375 -4.27646,-0.555996 -6.17704,-3.292369 -9.90625,-4.96875 C 106.45029,38.420822 102.97345,37.226679 100.5,35.2188 95.9538,33.160126 89.77073,32.175489 84.25,30.2813 79.185299,30.771397 76.309028,29.046876 71.21875,29.56255 H 55.9375 c -0.776475,-1.676213 -6.273025,0.159523 -7.75,-2.84375 z m -29.625,254.75 c -3.542122,0.56328 -1.767691,3.82581 -0.09375,0.1875 0.03578,-0.0585 0.05973,-0.12827 0.09375,-0.1875 z M 142.21875,121.125 c -0.39018,0.69006 -0.81499,1.38602 -1.21875,2.0625 -0.40274,5.57261 0.87286,9.45729 2.6875,12.8125 1.85246,3.45039 3.33692,7.2665 4.0625,11.84375 -0.0518,4.63366 -0.22845,10.22324 -1.34375,13.75 -0.0431,5.49761 -1.7387,9.37684 -2.03125,14.625 0.38061,4.6776 -1.19837,7.4109 -0.6875,12.21875 -0.16935,5.02286 -1.97442,11.92864 0.6875,16.34375 0.4583,4.71155 2.7154,7.5835 4.03125,11.4375 0.44696,0.34267 0.85698,0.72791 1.21875,1.125 -1.39927,-3.56173 -3.43521,-6.47878 -3.875,-11 -2.7913,-4.62972 -0.89633,-11.88924 -0.71875,-17.15625 -0.5357,-5.04155 1.11787,-7.90753 0.71875,-12.8125 0.30678,-5.50326 2.07979,-9.51641 2.125,-15.28125 1.16951,-3.69818 1.35191,-9.57861 1.40625,-14.4375 -0.76085,-4.79974 -2.3075,-8.8194 -4.25,-12.4375 -1.86388,-3.44624 -3.15564,-7.44048 -2.8125,-13.09375 z m 9.15625,98.5625 c 0.68531,1.03856 1.35585,2.08285 2.21875,3.03125 -0.69023,-1.04447 -1.38835,-2.08745 -2.21875,-3.03125 z m 2.46875,3.40625 c 1.65432,6.06851 -0.2009,12.24655 -2.0625,16.75 -0.51809,4.57418 0.19757,7.93022 2.03125,10.15625 -0.48343,-1.90842 -0.58651,-4.21112 -0.28125,-6.90625 1.96538,-4.75452 3.92213,-11.25084 2.125,-17.65625 -0.70373,-0.72641 -1.26651,-1.53213 -1.8125,-2.34375 z m 4.8125,32.4375 c 0.017,3.27229 -1.77471,7.61213 -2.15625,9.9375 -1.86052,2.79788 -0.32312,5.5678 1.125,8.03125 -0.13235,-1.16263 0.054,-2.34364 0.84375,-3.53125 0.61048,-3.72066 4.66783,-12.35514 0.1875,-14.4375 z m 1.6875,24.0625 c 0.43499,2.57156 0.17293,5.82055 0.21875,8.78125 0.79455,1.34111 1.44204,-0.19554 2.125,-1.90625 -0.13374,-1.93201 -0.48026,-3.64149 -1.375,-4.8125 -0.21012,-0.63961 -0.56259,-1.3489 -0.96875,-2.0625 z"
         style="opacity:0.2;fill:#000000;fill-opacity:1;stroke:none;filter:url(#filter4037)" />
      <g
         transform="translate(-20)"
         id="g4089">
        <path
           sodipodi:nodetypes="ccscc"
           inkscape:connector-curvature="0"
           id="path3984"
           d="M 89.1615,106.21502 C 61.864061,90.130819 37.395048,90.982564 10.097609,107.60717 c 14.619583,6.03003 24.639811,12.59938 34.166851,17.78876 43.870975,23.89657 64.06759,8.23233 99.04495,-32.853597 z"
           style="fill:#000000;stroke:none" />
        <path
           style="fill:none;stroke:#000000;stroke-width:1px;stroke-linecap:butt;stroke-linejoin:miter;stroke-opacity:1"
           d="m 18.031222,98.502226 3.181981,5.656854"
           id="path4049"
           inkscape:connector-curvature="0" />
        <path
           style="fill:none;stroke:#000000;stroke-width:1px;stroke-linecap:butt;stroke-linejoin:miter;stroke-opacity:1"
           d="m 32.880464,94.613138 1.767767,7.071072"
           id="path4051"
           inkscape:connector-curvature="0" />
        <path
           style="fill:none;stroke:#000000;stroke-width:1px;stroke-linecap:butt;stroke-linejoin:miter;stroke-opacity:1"
           d="m 43.133513,91.431158 1.06066,6.717514"
           id="path4053"
           inkscape:connector-curvature="0" />
        <path
           style="fill:none;stroke:#000000;stroke-width:1px;stroke-linecap:butt;stroke-linejoin:miter;stroke-opacity:1"
           d="m 63.993162,93.906032 -1.767767,4.24264"
           id="path4055"
           inkscape:connector-curvature="0" />
        <path
           style="fill:none;stroke:#000000;stroke-width:1px;stroke-linecap:butt;stroke-linejoin:miter;stroke-opacity:1"
           d="m 80.256618,97.795119 -2.828427,5.656851"
           id="path4057"
           inkscape:connector-curvature="0" />
        <path
           style="fill:none;stroke:#000000;stroke-width:1px;stroke-linecap:butt;stroke-linejoin:miter;stroke-opacity:1"
           d="m 101.82337,100.26999 1.41422,6.01041"
           id="path4059"
           inkscape:connector-curvature="0" />
        <path
           style="fill:none;stroke:#000000;stroke-width:1px;stroke-linecap:butt;stroke-linejoin:miter;stroke-opacity:1"
           d="m 116.67262,97.441565 1.41421,4.596195"
           id="path4061"
           inkscape:connector-curvature="0" />
        <path
           style="fill:none;stroke:#000000;stroke-width:1px;stroke-linecap:butt;stroke-linejoin:miter;stroke-opacity:1"
           d="m 129.40054,94.259585 0.7071,5.656854"
           id="path4063"
           inkscape:connector-curvature="0" />
        <path
           style="fill:none;stroke:#000000;stroke-width:1px;stroke-linecap:butt;stroke-linejoin:miter;stroke-opacity:1"
           d="m 140.00714,94.966692 6.01041,-3.535534"
           id="path4065"
           inkscape:connector-curvature="0" />
        <path
           style="fill:none;stroke:#000000;stroke-width:1px;stroke-linecap:butt;stroke-linejoin:miter;stroke-opacity:1"
           d="M 13.435028,107.69461 H 6.7175142"
           id="path4067"
           inkscape:connector-curvature="0" />
        <path
           style="fill:none;stroke:#000000;stroke-width:1px;stroke-linecap:butt;stroke-linejoin:miter;stroke-opacity:1"
           d="m 22.273863,109.46238 -3.18198,4.24264"
           id="path4069"
           inkscape:connector-curvature="0" />
        <path
           style="fill:none;stroke:#000000;stroke-width:1px;stroke-linecap:butt;stroke-linejoin:miter;stroke-opacity:1"
           d="m 32.880464,113.35147 -4.24264,6.36396"
           id="path4071"
           inkscape:connector-curvature="0" />
        <path
           style="fill:none;stroke:#000000;stroke-width:1px;stroke-linecap:butt;stroke-linejoin:miter;stroke-opacity:1"
           d="m 42.779959,117.59411 -2.474874,8.13173"
           id="path4073"
           inkscape:connector-curvature="0" />
        <path
           style="fill:none;stroke:#000000;stroke-width:1px;stroke-linecap:butt;stroke-linejoin:miter;stroke-opacity:1"
           d="m 52.3259,125.37228 -1.414213,5.65686"
           id="path4075"
           inkscape:connector-curvature="0" />
        <path
           style="fill:none;stroke:#000000;stroke-width:1px;stroke-linecap:butt;stroke-linejoin:miter;stroke-opacity:1"
           d="m 62.578949,128.55426 0.707106,9.54594"
           id="path4077"
           inkscape:connector-curvature="0" />
        <path
           style="fill:none;stroke:#000000;stroke-width:1px;stroke-linecap:butt;stroke-linejoin:miter;stroke-opacity:1"
           d="m 77.781744,133.15046 1.414213,7.77817"
           id="path4079"
           inkscape:connector-curvature="0" />
        <path
           style="fill:none;stroke:#000000;stroke-width:1px;stroke-linecap:butt;stroke-linejoin:miter;stroke-opacity:1"
           d="m 93.338093,131.38269 0.353553,7.77817"
           id="path4081"
           inkscape:connector-curvature="0" />
        <path
           style="fill:none;stroke:#000000;stroke-width:1px;stroke-linecap:butt;stroke-linejoin:miter;stroke-opacity:1"
           d="m 106.77312,124.31162 5.3033,5.65686"
           id="path4083"
           inkscape:connector-curvature="0" />
        <path
           style="fill:none;stroke:#000000;stroke-width:1px;stroke-linecap:butt;stroke-linejoin:miter;stroke-opacity:1"
           d="m 117.73328,115.11923 6.36396,4.24265"
           id="path4085"
           inkscape:connector-curvature="0" />
        <path
           style="fill:none;stroke:#000000;stroke-width:1px;stroke-linecap:butt;stroke-linejoin:miter;stroke-opacity:1"
           d="m 126.92566,106.2804 8.83884,1.06066"
           id="path4087"
           inkscape:connector-curvature="0" />
      </g>
      <path
         style="fill:#502d16;fill-opacity:1;stroke:#28170b;stroke-width:1.99999988;stroke-linecap:round;stroke-linejoin:round;stroke-miterlimit:4;stroke-dasharray:none"
         d="M 114.69798,31.050887 C 115.35175,45.671825 77.826884,50.217007 43.08692,51.770348 15.783047,52.991196 2.1111091,53.686326 -2.8082483,46.829584 -4.1480135,44.96218 -7.8020856,43.417894 -7.9420212,40.288283"
         id="path4404"
         inkscape:connector-curvature="0"
         sodipodi:nodetypes="cssc" />
    </g>
    <g
       transform="matrix(-0.26304553,0.02848488,0.02848488,0.26304553,163.61097,133.38517)"
       id="g4158"
       clip-path="url(#clipPath4581)">
      <path
         style="fill:#f5c89f;fill-opacity:1;stroke:#000000;stroke-width:1;stroke-linecap:round;stroke-linejoin:round;stroke-miterlimit:4;stroke-opacity:1"
         d="m 96.499998,196.00001 c 0,5.46354 -4.59988,13.56153 -5.248203,18.45811 -2.733449,20.64493 -8.266767,29.35633 -18.477278,37.43476 C 64.951313,258.08249 60.026506,266.21763 51,266.50001 22.615112,267.38799 7.0977695,236.21648 5.5000011,196.00001 3.9495357,156.97416 18.728033,125.12406 51,125.50001 c 25.12725,0.29271 45.499998,31.56392 45.499998,70.5 z"
         id="path4160"
         inkscape:connector-curvature="0"
         sodipodi:nodetypes="sssssss" />
      <path
         style="fill:#28170b;stroke:#000000;stroke-width:1px;stroke-linecap:butt;stroke-linejoin:miter;stroke-opacity:1"
         d="m 5.10229,199.61849 -9.545941,-17.32411 1.767767,-31.1127 18.031222,-25.10229 32.880465,-12.72792 21.920309,5.65685 21.213208,17.32412 10.6066,16.97056 -4.5962,43.84062 C 93.6826,176.97255 90.04777,156.78591 78.994947,138.45376 63.06012,148.5799 51.74731,146.83505 26.669046,139.86797 6.240928,150.58306 9.111323,176.84764 5.10229,199.61849 Z"
         id="path4162"
         inkscape:connector-curvature="0"
         sodipodi:nodetypes="cccccccccccc" />
      <ellipse
         style="fill:#000000;fill-opacity:1;stroke:none"
         id="path4164"
         transform="translate(-20)"
         cx="53.740116"
         cy="189.01189"
         rx="9.1923885"
         ry="7.4246211" />
      <path
         style="fill:#ffccaa;fill-opacity:1;stroke:#2b1100;stroke-width:2"
         d="m 39.396969,291.18881 114.580641,-9.29592 c -5.18269,27.53168 -4.22487,58.74767 0,91.92388 l -106.580641,9.29592 z"
         id="path4166"
         inkscape:connector-curvature="0"
         sodipodi:nodetypes="ccccc" />
      <path
         style="opacity:0.2;fill:#000000;stroke:none;filter:url(#filter3980)"
         d="m 40.811182,311.69491 2.828427,14.14214 51.618791,-3.53553 16.97056,-14.14214 32.52692,3.53553 3.49314,15.21873 5.65686,-24.74874 -57.94037,-18.75426 z"
         id="path4168"
         inkscape:connector-curvature="0"
         sodipodi:nodetypes="ccccccccc" />
      <path
         style="fill:#ffe680;fill-opacity:1;stroke:#2b2200;stroke-width:2"
         d="m 393.96875,59.75 c -67.82549,-0.0422 -84.93732,8.224259 -119.8437,60.21875 -7.68742,54.30845 1.27796,98.88267 22.875,125.53125 3.70912,-35.9409 6.7294,-71.70913 20.90625,-110.40625 17.05843,12.67293 28.08723,21.15625 63.5625,21.15625 53.84776,0 92.56249,-7.50237 92.5625,-31.59375 1e-5,-24.09139 -26.21474,-64.906251 -80.0625,-64.90625 z"
         transform="matrix(-0.99418783,0.1076594,0.1076594,0.99418783,415.67761,-88.594046)"
         id="path4384-1"
         inkscape:connector-curvature="0"
         sodipodi:nodetypes="ccccsscc" />
      <path
         style="fill:#ffffff;stroke:#000000;stroke-width:1.5;stroke-linecap:butt;stroke-linejoin:miter;stroke-opacity:1"
         d="m 33.32381,32.387735 c -5.01053,2.337494 -10.904103,3.791945 -17.801433,4.24264 -5.021099,0.353882 -9.275956,1.484966 -12.604157,3.535534 -1.668897,3.165249 -3.608372,5.58771 -4.94975,9.192388 -0.09695,4.381388 -2.327134,6.629554 -4.24264,9.192389 -4.190427,2.783672 -12.249542,2.945586 -16.263455,5.656854 -2.235537,2.126078 -6.862987,3.022459 -7.778175,6.363961 -2.741419,2.528179 -3.874404,6.502481 -3.53553,12.268339 0.425531,5.151852 -1.119214,12.261444 1.41421,15.308825 1.138818,3.372755 2.681561,8.537895 4.24264,13.435025 1.421623,7.33834 2.895332,14.63424 3.53553,22.75118 0.648759,6.0293 2.466888,10.88084 3.535536,16.49325 1.885483,6.36411 2.464054,14.03509 4.949748,19.79899 2.025924,5.40389 2.054036,12.79288 4.949746,17.32412 0.480454,4.41568 2.045158,8.80471 4.637764,11.92975 -0.150346,1.98565 2.38012,6.89389 4.24264,9.19239 -0.04845,2.10946 2.354421,6.06559 3.847516,9.28345 2.112727,4.02133 2.647014,4.1242 4.949754,7.77817 1.735264,2.59726 4.998316,3.61177 5.656856,7.07107 4.102467,3.65772 -2.28494,6.56734 -1.41422,11.43747 -0.519497,6.19771 7.483164,7.77475 3.53554,15.43259 -2.268548,4.2104 0.667488,7.28297 2.12132,9.89949 2.926449,2.03945 4.526499,7.73754 2.121316,11.66727 -1.932328,4.19992 -4.016858,-0.78331 2.121324,-0.21142 3.270264,4.70139 1.111272,9.71515 0.7071,15.55635 2.24944,1.85221 6.670193,2.36197 8.48529,4.94974 3.774074,1.97699 3.246144,8.99819 4.242636,13.43504 2.524728,2.80058 7.35264,2.196 11.437467,2.82842 5.178177,0.2445 7.861304,-2.05533 13.393779,-1.41421 6.19647,-0.45518 11.529489,-2.66108 18.591044,-2.12132 4.357404,-0.16219 7.889224,-1.14997 12.851684,-0.70711 6.32998,0.13217 13.36938,-14.44507 18.67935,-13.29289 4.66729,1.22526 10.07923,1.70588 16.26345,1.41421 4.71007,1.43504 11.89387,0.38298 17.71314,0.70711 8.41752,-4.41692 23.78089,-0.89194 18.34931,-21.14392 -1.05085,-3.19887 -5.65021,-7.42382 -2.82843,-11.66727 0.67062,-4.08722 5.47899,-14.10169 -1.41421,-14.84924 -2.97494,-2.2107 -4.19742,-6.17707 -3.53554,-12.02081 1.96538,-4.75452 3.91845,-11.27226 2.12132,-17.67767 -2.16533,-2.23512 -3.13975,-5.14126 -5.65685,-7.07107 -1.37981,-4.04134 -3.76206,-7.08025 -4.24264,-12.02082 -2.7913,-4.62972 -0.88469,-11.86856 -0.70711,-17.13557 -0.5357,-5.04155 1.10623,-7.90547 0.70711,-12.81044 0.30678,-5.50326 -3.88902,-8.89802 -3.84381,-14.66286 1.16951,-3.69818 1.35987,-9.57203 1.41421,-14.43092 -0.76085,-4.79974 -2.30014,-8.82104 -4.24264,-12.43914 -1.90285,-3.5183 -3.25075,-7.59155 -2.82843,-13.43503 1.76195,-2.95209 3.3943,-6.03379 4.94975,-9.19239 2.21356,-1.83559 2.89827,-5.5386 4.94975,-7.77817 1.54382,-4.11303 3.07548,-8.238234 4.24264,-12.727926 0,-4.714045 0,-9.428091 0,-14.142136 -1.67019,-2.412647 -2.50036,-6.24501 -4.24264,-9.192388 -1.32362,-2.095322 -1.09999,-4.445516 -4.24264,-7.071068 -3.0052,-1.47314 -4.21215,-4.744538 -7.77818,-5.656854 -2.30737,-2.642378 -5.95288,-3.946617 -9.89949,-4.949748 -2.90972,-2.275729 -8.02254,-2.348354 -10.6066,-4.949747 -4.27646,-0.555996 -0.20515,-3.919323 -3.93436,-5.595704 -3.23721,-1.735478 -6.71895,-2.941868 -9.1924,-4.949747 C 95.95275,33.157488 89.75623,32.160603 84.2355,30.266414 79.170799,30.756511 76.309072,29.043634 71.218794,29.559308 55.273023,27.79113 46.383295,28.546239 33.32381,32.387735 Z"
         id="path4170"
         inkscape:connector-curvature="0"
         sodipodi:nodetypes="ccccccccccccccccccccccccccccccccccccccccccccccccccccccccccccc" />
      <path
         style="fill:none;stroke:#000000;stroke-width:0.75;stroke-linecap:butt;stroke-linejoin:miter;stroke-opacity:1"
         d="m 14.587263,256.1534 c 20.3808,5.93025 42.758178,9.60895 61.11838,-1.13278 2.178854,-1.03589 4.326107,-2.17583 6.300591,-3.64401"
         id="path4174"
         inkscape:connector-curvature="0" />
      <path
         style="opacity:0.25;fill:#000000;stroke:none;filter:url(#filter4436)"
         d="m 87.6872,284.37502 75.19917,-28.47955 c -74.7596,42.57384 -76.17818,38.67858 -125.00793,32.84837 z"
         id="path4176"
         inkscape:connector-curvature="0"
         sodipodi:nodetypes="cccc" />
      <g
         id="g4340"
         transform="matrix(-0.97681891,0.21406733,0.21406733,0.97681891,33.756158,-3.6554136)">
        <ellipse
           transform="matrix(-1.1182006,0.24505075,0.21406733,0.97681891,57.373409,-6.6117443)"
           id="path4188"
           style="opacity:0.25;fill:#000000;fill-opacity:1;stroke:none;filter:url(#filter4043)"
           cx="43.133514"
           cy="73.046379"
           rx="13.435028"
           ry="11.667261" />
        <path
           sodipodi:nodetypes="ssssssssss"
           inkscape:connector-curvature="0"
           id="path4190"
           d="m 26.346371,83.308338 c 8.396272,0 15.1875,-5.689314 15.1875,-12.71875 0,-7.029436 -6.791229,-12.750001 -15.1875,-12.75 -8.396272,-10e-7 -15.218751,5.720564 -15.21875,12.75 -10e-7,7.029436 6.822477,12.71875 15.21875,12.71875 z m 4,-5.312501 c -1.788731,1e-6 -3.25,-1.221207 -3.25,-2.718749 0,-1.497542 1.461268,-2.6875 3.249999,-2.6875 1.788732,0 3.250001,1.189957 3.250001,2.6875 -10e-7,1.497542 -1.46127,2.71875 -3.25,2.718749 z"
           style="fill:#bc5fd3;fill-opacity:1;stroke:#000000;stroke-width:1.5" />
      </g>
      <g
         id="g4336"
         transform="rotate(30,108.77701,58.25138)">
        <ellipse
           style="opacity:0.25;fill:#000000;fill-opacity:1;stroke:none;filter:url(#filter4043)"
           id="path4192"
           transform="matrix(1.1447368,0,0,1.2141995,41.469299,-17.73316)"
           cx="43.133514"
           cy="73.046379"
           rx="13.435028"
           ry="11.667261" />
        <path
           inkscape:connector-curvature="0"
           style="fill:#ffcc00;fill-opacity:1;stroke:#000000;stroke-width:1.5"
           d="M 97.048691,78.761 C 104.32008,74.562877 107.35679,66.240158 103.84207,60.15249 100.32736,54.06482 91.5857,52.506278 84.31431,56.704414 77.042928,60.90255 73.994765,69.267938 77.509484,75.35562 81.0242,81.443291 89.77729,82.959136 97.048691,78.761 Z m 0.807849,-6.600761 c -1.54909,0.894366 -3.42519,0.567396 -4.17396,-0.729508 -0.74877,-1.296913 -0.0782,-3.058078 1.470831,-3.952444 1.54909,-0.894362 3.40956,-0.594467 4.158339,0.702451 0.74876,1.296899 0.0939,3.085135 -1.45521,3.979501 z m -8.55553,-2.818596 c -1.54909,0.894367 -3.409569,0.59445 -4.158329,-0.702455 -0.748781,-1.296911 -0.0939,-3.085141 1.4552,-3.979502 1.549089,-0.894372 3.42519,-0.567408 4.17396,0.7295 0.74877,1.296912 0.0782,3.058082 -1.470831,3.952457 z"
           id="path4194" />
      </g>
      <path
         sodipodi:nodetypes="cscc"
         inkscape:connector-curvature="0"
         id="path4196"
         d="m 8.6297316,128.32792 c 38.9305874,8.3118 45.5888374,20.48375 61.3744074,20.52775 17.962988,0.0501 47.817061,-6.73808 72.118401,-14.67414 -58.748666,18.23553 -94.314862,1.42496 -133.4928084,-5.85361 z"
         style="opacity:0.25;fill:#000000;stroke:none;filter:url(#filter4002)"
         transform="rotate(-3.5717862,219.13861,547.81064)" />
      <path
         style="opacity:0.2;fill:#000000;fill-opacity:1;stroke:none;filter:url(#filter4037)"
         d="m 48.1875,26.71875 c -6.37805,2.271516 -8.980942,3.957352 -14.875,5.65625 -5.01053,2.337494 -10.88392,3.799305 -17.78125,4.25 -5.021099,0.353882 -9.296799,1.480682 -12.625,3.53125 -1.668897,3.165249 -3.596122,5.582822 -4.9375,9.1875 -0.09695,4.381388 -2.334494,6.655915 -4.25,9.21875 -4.190427,2.783672 -12.236087,2.944982 -16.25,5.65625 -2.235537,2.126078 -6.866062,3.002248 -7.78125,6.34375 -2.741419,2.528179 -3.870124,6.515392 -3.53125,12.28125 0.425531,5.151852 -1.127174,12.265119 1.40625,15.3125 1.138818,3.37275 2.688921,8.54037 4.25,13.4375 1.421623,7.33834 2.891052,14.63306 3.53125,22.75 0.648759,6.0293 2.462602,10.85634 3.53125,16.46875 1.885483,6.36411 2.451806,14.0486 4.9375,19.8125 2.025924,5.40389 2.07304,12.78126 4.96875,17.3125 0.480454,4.41568 2.032394,8.81246 4.625,11.9375 -0.150346,1.98565 2.38748,6.889 4.25,9.1875 -0.04845,2.10946 2.350655,6.06339 3.84375,9.28125 2.112727,4.02133 2.66601,4.12728 4.96875,7.78125 1.735264,2.59726 4.99771,3.63445 5.65625,7.09375 4.102467,3.65772 -2.30822,6.56737 -1.4375,11.4375 -0.519497,6.19771 7.478874,7.74841 3.53125,15.40625 -2.268548,4.2104 0.671168,7.28973 2.125,9.90625 2.882912,2.00911 4.471334,7.57808 2.21875,11.5 0.546757,-0.087 1.210464,-0.10772 2.03125,-0.0312 3.270264,4.70139 1.122922,9.7213 0.71875,15.5625 2.24944,1.85221 6.653653,2.34973 8.46875,4.9375 3.774074,1.97699 3.253508,9.00065 4.25,13.4375 2.524728,2.80058 7.352673,2.18008 11.4375,2.8125 5.178177,0.2445 7.873775,-2.04737 13.40625,-1.40625 6.19647,-0.45518 11.532195,-2.66476 18.59375,-2.125 4.3574,-0.16219 7.88129,-1.13036 12.84375,-0.6875 6.32998,0.13217 13.34628,-14.46468 18.65625,-13.3125 4.66729,1.22526 10.09703,1.72917 16.28125,1.4375 4.71007,1.43504 11.89948,0.36337 17.71875,0.6875 l -1.25,-6.03125 c -5.54952,-0.30911 -12.41451,0.68102 -16.90625,-0.6875 -5.89755,0.27815 -11.04906,-0.17529 -15.5,-1.34375 -5.06383,-1.09877 -11.77594,12.81354 -17.8125,12.6875 -4.73243,-0.42233 -8.09458,0.50158 -12.25,0.65625 -6.734222,-0.51474 -11.840763,1.59717 -17.75,2.03125 -5.276021,-0.6114 -7.811854,1.57692 -12.75,1.34375 -3.895478,-0.6031 -8.498554,-0.0167 -10.90625,-2.6875 -0.950301,-4.23118 -0.46337,-10.92715 -4.0625,-12.8125 -1.730959,-2.46781 -5.948581,-2.9524 -8.09375,-4.71875 0.385437,-5.57044 2.462423,-10.36029 -0.65625,-14.84375 -0.782926,-0.0729 -1.416021,-0.0205 -1.9375,0.0625 -0.03067,0.0532 -0.06159,0.1037 -0.09375,0.15625 -1.596287,3.46954 -3.28368,0.38109 0.09375,-0.15625 2.156401,-3.74065 0.62666,-9.05111 -2.125,-10.96875 -1.386441,-2.49523 -4.194641,-5.45352 -2.03125,-9.46875 3.764635,-7.30286 -3.870416,-8.77708 -3.375,-14.6875 -0.830358,-4.64438 5.2873,-7.41808 1.375,-10.90625 -0.628014,-3.29895 -3.751423,-4.27313 -5.40625,-6.75 -2.195998,-3.48459 -2.703957,-3.60257 -4.71875,-7.4375 -1.423884,-3.0687 -3.70245,-6.83207 -3.65625,-8.84375 -1.776184,-2.19195 -4.205877,-6.8564 -4.0625,-8.75 -2.472428,-2.98018 -3.948067,-7.19525 -4.40625,-11.40625 -2.761482,-4.32119 -2.817986,-11.3466 -4.75,-16.5 -2.370472,-5.49672 -2.920668,-12.80589 -4.71875,-18.875 -1.019112,-5.35225 -2.725064,-10.00018 -3.34375,-15.75 -0.610522,-7.74068 -2.019275,-14.68932 -3.375,-21.6875 -1.488716,-4.67013 -2.976471,-9.59609 -4.0625,-12.8125 -2.415989,-2.906126 -0.937944,-9.680708 -1.34375,-14.59375 -0.323166,-5.498585 0.760658,-9.307763 3.375,-11.71875 0.872766,-3.186609 5.27434,-4.034975 7.40625,-6.0625 3.827851,-2.585589 11.535068,-2.720364 15.53125,-5.375 1.826714,-2.444037 3.93879,-4.602959 4.03125,-8.78125 1.279199,-3.437586 3.127213,-5.731474 4.71875,-8.75 3.173924,-1.955516 7.2429,-3.037522 12.03125,-3.375 6.577608,-0.429804 12.19048,-1.833359 16.96875,-4.0625 5.620843,-1.620147 8.07385,-3.208778 14.15625,-5.375 1.40851,2.864059 6.665768,1.088987 7.40625,2.6875 h 14.5625 c 4.854321,-0.49177 7.60757,1.123629 12.4375,0.65625 5.26482,1.806385 11.16454,2.786754 15.5,4.75 2.3588,1.914805 5.66284,3.063718 8.75,4.71875 3.55634,1.598673 5.39052,4.188527 9.46875,4.71875 2.46428,2.480807 7.31891,2.548511 10.09375,4.71875 3.76367,0.956632 7.23708,2.198858 9.4375,4.71875 3.40072,0.870026 4.57161,3.970147 7.4375,5.375 2.99698,2.503847 2.76898,4.751805 4.03125,6.75 1.66152,2.810754 2.46973,6.480439 4.0625,8.78125 V 94.8438 c -0.94609,3.639339 -2.16421,7.0316 -3.40625,10.375 0.30764,-0.50086 0.6466,-0.98633 1.03125,-1.40625 1.54382,-4.11303 3.08284,-8.260308 4.25,-12.75 v -14.125 c -1.67019,-2.412647 -2.50772,-6.240122 -4.25,-9.1875 -1.32362,-2.095322 -1.10735,-4.436948 -4.25,-7.0625 -3.0052,-1.47314 -4.21522,-4.775184 -7.78125,-5.6875 -2.30737,-2.642378 -5.95964,-3.934369 -9.90625,-4.9375 -2.90972,-2.275729 -8.00969,-2.336107 -10.59375,-4.9375 -4.27646,-0.555996 -6.17704,-3.292369 -9.90625,-4.96875 C 106.45029,38.420822 102.97345,37.226679 100.5,35.2188 95.9538,33.160126 89.77073,32.175489 84.25,30.2813 79.185299,30.771397 76.309028,29.046876 71.21875,29.56255 H 55.9375 c -0.776475,-1.676213 -6.273025,0.159523 -7.75,-2.84375 z m -29.625,254.75 c 314.08774,10.80916 157.04387,5.40458 0,0 z M 142.21875,121.125 c -0.39018,0.69006 -0.81499,1.38602 -1.21875,2.0625 -0.40274,5.57261 0.87286,9.45729 2.6875,12.8125 1.85246,3.45039 3.33692,7.2665 4.0625,11.84375 -0.0518,4.63366 -0.22845,10.22324 -1.34375,13.75 -0.0431,5.49761 -1.7387,9.37684 -2.03125,14.625 0.38061,4.6776 -1.19837,7.4109 -0.6875,12.21875 -0.16935,5.02286 -1.97442,11.92864 0.6875,16.34375 0.4583,4.71155 2.7154,7.5835 4.03125,11.4375 0.44696,0.34267 0.85698,0.72791 1.21875,1.125 -1.39927,-3.56173 -3.43521,-6.47878 -3.875,-11 -2.7913,-4.62972 -0.89633,-11.88924 -0.71875,-17.15625 -0.5357,-5.04155 1.11787,-7.90753 0.71875,-12.8125 0.30678,-5.50326 2.07979,-9.51641 2.125,-15.28125 1.16951,-3.69818 1.35191,-9.57861 1.40625,-14.4375 -0.76085,-4.79974 -2.3075,-8.8194 -4.25,-12.4375 -1.86388,-3.44624 -3.15564,-7.44048 -2.8125,-13.09375 z m 9.15625,98.5625 c 0.68531,1.03856 1.35585,2.08285 2.21875,3.03125 -0.69023,-1.04447 -1.38835,-2.08745 -2.21875,-3.03125 z m 2.46875,3.40625 c 1.65432,6.06851 -0.2009,12.24655 -2.0625,16.75 -0.51809,4.57418 0.19757,7.93022 2.03125,10.15625 -0.48343,-1.90842 -0.58651,-4.21112 -0.28125,-6.90625 1.96538,-4.75452 3.92213,-11.25084 2.125,-17.65625 -0.70373,-0.72641 -1.26651,-1.53213 -1.8125,-2.34375 z m 4.8125,32.4375 c 0.017,3.27229 -1.77471,7.61213 -2.15625,9.9375 -1.86052,2.79788 -0.32312,5.5678 1.125,8.03125 -0.13235,-1.16263 0.054,-2.34364 0.84375,-3.53125 0.61048,-3.72066 4.66783,-12.35514 0.1875,-14.4375 z m 1.6875,24.0625 c 0.43499,2.57156 0.17293,5.82055 0.21875,8.78125 l 2.125,-1.90625 c -0.13374,-1.93201 -0.48026,-3.64149 -1.375,-4.8125 -0.21012,-0.63961 -0.56259,-1.3489 -0.96875,-2.0625 z"
         id="path4198"
         inkscape:connector-curvature="0"
         sodipodi:nodetypes="cccccccccccccccccccccccccccccccccccccccccccccccccccccccccccccccccccccccccccccccccccccccccccccccccccccccccccccccccccccccccccccccccccccccccc" />
      <g
         id="g4200"
         transform="matrix(-0.97681891,0.21406733,0.21406733,0.97681891,109.92077,-11.554347)">
        <path
           inkscape:connector-curvature="0"
           id="path4235"
           d="m 77.781744,133.15046 1.414213,7.77817"
           style="fill:none;stroke:#000000;stroke-width:1px;stroke-linecap:butt;stroke-linejoin:miter;stroke-opacity:1" />
        <path
           inkscape:connector-curvature="0"
           id="path4233"
           d="m 62.578949,128.55426 0.707106,9.54594"
           style="fill:none;stroke:#000000;stroke-width:1px;stroke-linecap:butt;stroke-linejoin:miter;stroke-opacity:1" />
        <path
           inkscape:connector-curvature="0"
           id="path4230"
           d="m 51.990296,126.91738 -1.414213,5.65686"
           style="fill:none;stroke:#000000;stroke-width:1px;stroke-linecap:butt;stroke-linejoin:miter;stroke-opacity:1" />
        <path
           style="fill:none;stroke:#000000;stroke-width:1px;stroke-linecap:butt;stroke-linejoin:miter;stroke-opacity:1"
           d="m 333.04729,141.98929 -3.53554,-8.83883"
           id="path4350"
           inkscape:connector-curvature="0"
           transform="rotate(-6.1804078,-225.20181,2912.7293)" />
        <path
           style="fill:none;stroke:#000000;stroke-width:1px;stroke-linecap:butt;stroke-linejoin:miter;stroke-opacity:1"
           d="m 348.60363,139.86797 -0.7071,-12.37437"
           id="path4352"
           inkscape:connector-curvature="0"
           transform="rotate(-6.1804078,-225.20181,2912.7293)" />
        <path
           style="fill:none;stroke:#000000;stroke-width:1px;stroke-linecap:butt;stroke-linejoin:miter;stroke-opacity:1"
           d="m 366.63486,137.3931 c 0,-1.41422 -1.06066,-10.96016 -1.06066,-10.96016"
           id="path4354"
           inkscape:connector-curvature="0"
           transform="rotate(-6.1804078,-225.20181,2912.7293)" />
        <path
           style="fill:none;stroke:#000000;stroke-width:1px;stroke-linecap:butt;stroke-linejoin:miter;stroke-opacity:1"
           d="m 383.25187,139.16086 1.76776,-9.54594"
           id="path4356"
           inkscape:connector-curvature="0"
           transform="rotate(-6.1804078,-225.20181,2912.7293)" />
        <path
           style="fill:none;stroke:#000000;stroke-width:1px;stroke-linecap:butt;stroke-linejoin:miter;stroke-opacity:1"
           d="m 401.99019,145.17127 2.12132,-8.13173"
           id="path4358"
           inkscape:connector-curvature="0"
           transform="rotate(-6.1804078,-225.20181,2912.7293)" />
        <path
           style="fill:none;stroke:#000000;stroke-width:1px;stroke-linecap:butt;stroke-linejoin:miter;stroke-opacity:1"
           d="m 421.08208,146.93904 5.65685,-6.71752"
           id="path4360"
           inkscape:connector-curvature="0"
           transform="rotate(-6.1804078,-225.20181,2912.7293)" />
        <path
           style="fill:none;stroke:#000000;stroke-width:1px;stroke-linecap:butt;stroke-linejoin:miter;stroke-opacity:1"
           d="m 323.14779,147.29259 c -0.70711,-1.41421 -7.07107,-6.01041 -7.07107,-6.01041"
           id="path4348"
           inkscape:connector-curvature="0"
           transform="rotate(-6.1804078,-225.20181,2912.7293)" />
        <path
           style="fill:none;stroke:#000000;stroke-width:1px;stroke-linecap:butt;stroke-linejoin:miter;stroke-opacity:1"
           d="m 314.66251,149.41391 -8.48528,-0.7071"
           id="path4346"
           inkscape:connector-curvature="0"
           transform="rotate(-6.1804078,-225.20181,2912.7293)" />
        <path
           style="fill:none;stroke:#000000;stroke-width:1px;stroke-linecap:butt;stroke-linejoin:miter;stroke-opacity:1"
           d="m 329.51175,156.83853 -3.53553,6.01041"
           id="path4344"
           inkscape:connector-curvature="0"
           transform="rotate(-6.1804078,-225.20181,2912.7293)" />
        <path
           inkscape:connector-curvature="0"
           id="path4228"
           d="m 42.995278,119.58249 -2.474874,8.13173"
           style="fill:none;stroke:#000000;stroke-width:1px;stroke-linecap:butt;stroke-linejoin:miter;stroke-opacity:1" />
        <path
           inkscape:connector-curvature="0"
           id="path4237"
           d="m 93.338093,131.38269 0.353553,7.77817"
           style="fill:none;stroke:#000000;stroke-width:1px;stroke-linecap:butt;stroke-linejoin:miter;stroke-opacity:1" />
        <path
           inkscape:connector-curvature="0"
           id="path4239"
           d="m 106.77312,124.31162 5.3033,5.65686"
           style="fill:none;stroke:#000000;stroke-width:1px;stroke-linecap:butt;stroke-linejoin:miter;stroke-opacity:1" />
        <path
           inkscape:connector-curvature="0"
           id="path4241"
           d="m 117.73328,115.11923 6.36396,4.24265"
           style="fill:none;stroke:#000000;stroke-width:1px;stroke-linecap:butt;stroke-linejoin:miter;stroke-opacity:1" />
        <path
           inkscape:connector-curvature="0"
           id="path4220"
           d="m 139.92641,94.221051 6.01041,-3.535534"
           style="fill:none;stroke:#000000;stroke-width:1px;stroke-linecap:butt;stroke-linejoin:miter;stroke-opacity:1" />
        <path
           style="fill:#800000;stroke:#000000;stroke-width:1;stroke-opacity:1"
           d="m 100.84365,89.30268 c -27.297434,-16.084201 -63.448602,1.679884 -90.746041,18.30449 14.619583,6.03003 24.639811,12.59938 34.166851,17.78876 43.870975,23.89657 64.06759,8.23233 99.04495,-32.853597 z"
           id="path4202"
           inkscape:connector-curvature="0"
           sodipodi:nodetypes="ccscc" />
        <path
           sodipodi:nodetypes="ccscc"
           inkscape:connector-curvature="0"
           id="path4601"
           d="m 97.448884,92.322516 c -23.282872,-13.71874 -54.117382,1.432828 -77.400258,15.612494 12.469519,5.14321 21.016098,10.74642 29.142021,15.17262 37.418986,20.38216 54.645333,7.02162 84.478673,-28.021908 z"
           style="fill:#000000;stroke:none" />
      </g>
      <g
         id="g4380"
         transform="matrix(1.1973054,0.29471952,-0.28387486,0.96203824,13.569007,-27.358589)">
        <path
           style="opacity:0.2;fill:#000000;fill-opacity:1;stroke:none;filter:url(#filter4376)"
           d="m 139.96866,158.50389 c 55.88163,39.52879 -3.25899,75.2248 -31.7349,39.43877 13.96866,32.83215 -21.684894,63.94083 -58.125228,22.5322"
           id="path4374"
           inkscape:connector-curvature="0"
           sodipodi:nodetypes="ccc" />
        <path
           sodipodi:nodetypes="ccc"
           inkscape:connector-curvature="0"
           id="path4362"
           d="m 141.09576,150.33506 c 57.33883,36.57364 -3.25899,75.2248 -31.7349,39.43877 13.96866,32.83215 -21.684894,63.94083 -58.125228,22.5322"
           style="fill:#ffffff;fill-opacity:1;stroke:#000000;stroke-width:1.34948146;stroke-linecap:butt;stroke-linejoin:miter;stroke-opacity:1" />
      </g>
      <path
         style="fill:#ffe680;fill-opacity:1;stroke:#2b2200;stroke-width:2;stroke-linecap:butt;stroke-linejoin:miter;stroke-opacity:1"
         d="m 397.99999,79.525134 c 20.51262,18.068283 23.35705,31.793976 53,42.474876 6.37265,50.27457 -2.73607,90.87329 -11,131.99999 28.52924,-19.04365 37.73043,-64.31822 40,-118.99999 3.63854,-14.03249 -9.83673,-43.235714 -28.05666,-53.822486"
         id="path4462"
         inkscape:connector-curvature="0"
         transform="matrix(-0.99418783,0.1076594,0.1076594,0.99418783,415.67761,-88.594046)"
         sodipodi:nodetypes="ccccc" />
      <path
         style="opacity:0.5;fill:none;stroke:#000000;stroke-width:1px;stroke-linecap:butt;stroke-linejoin:miter;stroke-opacity:1"
         d="M 11.093057,37.226235 C 8.3741513,49.34821 0.20009841,59.968386 -10.588135,66.066844 c -2.87405,1.776012 -5.837645,3.400404 -8.789209,5.042336"
         id="path4464"
         inkscape:connector-curvature="0" />
      <path
         inkscape:connector-curvature="0"
         id="path4472"
         d="m -3.9882808,32.317513 c -1.8931413,10.266601 -8.2882022,19.392875 -16.9442312,24.771965 -2.301895,1.560434 -4.681147,2.99526 -7.050082,4.444579"
         style="opacity:0.5;fill:none;stroke:#000000;stroke-width:1px;stroke-linecap:butt;stroke-linejoin:miter;stroke-opacity:1" />
      <path
         style="opacity:0.2;fill:#1a1a1a;stroke:none;filter:url(#filter4479)"
         d="m 450.42701,120.06898 c 9.65863,46.66802 -1.44938,89.1827 -9.8995,132.22897 13.69306,-42.59158 34.09181,-84.2252 9.8995,-132.22897 z"
         id="path4477"
         inkscape:connector-curvature="0"
         transform="matrix(-0.99418783,0.1076594,0.1076594,0.99418783,415.67761,-88.594046)"
         sodipodi:nodetypes="ccc" />
    </g>
  </g>
</svg>
