<?xml version="1.0" encoding="UTF-8" standalone="no"?>
<!-- Created with Inkscape (http://www.inkscape.org/) -->

<svg
   xmlns:dc="http://purl.org/dc/elements/1.1/"
   xmlns:cc="http://creativecommons.org/ns#"
   xmlns:rdf="http://www.w3.org/1999/02/22-rdf-syntax-ns#"
   xmlns:svg="http://www.w3.org/2000/svg"
   xmlns="http://www.w3.org/2000/svg"
   xmlns:xlink="http://www.w3.org/1999/xlink"
   xmlns:sodipodi="http://sodipodi.sourceforge.net/DTD/sodipodi-0.dtd"
   xmlns:inkscape="http://www.inkscape.org/namespaces/inkscape"
   width="71.917007"
   height="70.75383"
   id="svg3118"
   version="1.1"
   inkscape:version="0.48.2 r9819"
   sodipodi:docname="New document 2">
  <defs
     id="defs3120">
    <radialGradient
       inkscape:collect="always"
       xlink:href="#linearGradient4984"
       id="radialGradient4992"
       gradientUnits="userSpaceOnUse"
       gradientTransform="matrix(-0.30975472,0.14289338,0.09771597,0.21449856,91.534958,50.133487)"
       cx="190.9938"
       cy="141.21756"
       fx="190.9938"
       fy="141.21756"
       r="8.8420811" />
    <linearGradient
       id="linearGradient4984">
      <stop
         id="stop4986"
         offset="0"
         style="stop-color:#00f700;stop-opacity:1;" />
      <stop
         id="stop4988"
         offset="1"
         style="stop-color:#008c00;stop-opacity:1" />
    </linearGradient>
    <filter
       inkscape:collect="always"
       id="filter4734"
       color-interpolation-filters="sRGB">
      <feGaussianBlur
         inkscape:collect="always"
         stdDeviation="0.32544761"
         id="feGaussianBlur4736" />
    </filter>
    <radialGradient
       inkscape:collect="always"
       xlink:href="#linearGradient3309"
       id="radialGradient3605"
       gradientUnits="userSpaceOnUse"
       gradientTransform="matrix(0.5568362,0,0,-0.5589219,26.519019,164.24998)"
       cx="37.460934"
       cy="105.68679"
       fx="37.460934"
       fy="105.68679"
       r="7.5416007" />
    <linearGradient
       id="linearGradient3309">
      <stop
         style="stop-color:#ff0000;stop-opacity:1;"
         offset="0"
         id="stop3311" />
      <stop
         style="stop-color:#c80000;stop-opacity:1;"
         offset="1"
         id="stop3313" />
    </linearGradient>
    <filter
       inkscape:collect="always"
       id="filter4638"
       color-interpolation-filters="sRGB">
      <feGaussianBlur
         inkscape:collect="always"
         stdDeviation="0.18089527"
         id="feGaussianBlur4640" />
    </filter>
    <radialGradient
       inkscape:collect="always"
       xlink:href="#linearGradient4984"
       id="radialGradient4982"
       gradientUnits="userSpaceOnUse"
       gradientTransform="matrix(0.19680876,0.27862666,-0.19187379,0.13690322,35.857003,35.486576)"
       cx="190.9938"
       cy="141.21756"
       fx="190.9938"
       fy="141.21756"
       r="8.8420811" />
    <linearGradient
       id="linearGradient3087">
      <stop
         id="stop3089"
         offset="0"
         style="stop-color:#00f700;stop-opacity:1;" />
      <stop
         id="stop3091"
         offset="1"
         style="stop-color:#008c00;stop-opacity:1" />
    </linearGradient>
  </defs>
  <sodipodi:namedview
     id="base"
     pagecolor="#ffffff"
     bordercolor="#666666"
     borderopacity="1.0"
     inkscape:pageopacity="0.0"
     inkscape:pageshadow="2"
     inkscape:zoom="0.98994949"
     inkscape:cx="144.91066"
     inkscape:cy="-54.841711"
     inkscape:document-units="px"
     inkscape:current-layer="layer1"
     showgrid="false"
     fit-margin-top="5"
     fit-margin-left="5"
     fit-margin-right="5"
     fit-margin-bottom="5"
     inkscape:window-width="1440"
     inkscape:window-height="876"
     inkscape:window-x="0"
     inkscape:window-y="24"
     inkscape:window-maximized="1" />
  <metadata
     id="metadata3123">
    <rdf:RDF>
      <cc:Work
         rdf:about="">
        <dc:format>image/svg+xml</dc:format>
        <dc:type
           rdf:resource="http://purl.org/dc/dcmitype/StillImage" />
        <dc:title></dc:title>
      </cc:Work>
    </rdf:RDF>
  </metadata>
  <g
     inkscape:label="Layer 1"
     inkscape:groupmode="layer"
     id="layer1"
     transform="translate(-166.75513,-236.21361)">
    <g
       transform="matrix(5.5419582,-1.4849632,-1.4849632,-5.5419582,98.067134,929.01649)"
       id="g3616">
      <path
         sodipodi:nodetypes="ccccccccccccccccccscscccccccc"
         inkscape:connector-curvature="0"
         id="path4990"
         d="m 45.319323,110.27253 0.287275,-1.7388 0.113225,-0.20171 c 0.01817,0.003 0.03876,-0.001 0.05729,0.001 l 0.613637,0.0392 c 0.09707,0.002 0.191967,2e-5 0.284458,-0.003 l 0.2628,0.35745 0.324762,1.07637 0.298587,-1.19867 -0.191244,-0.3033 c 0.145115,-0.0248 0.616846,0.14675 0.731032,0.11026 l 0.218813,0.38626 1.088934,1.16782 -0.372179,-1.18743 -0.315974,-1.1283 c -0.09986,-0.1907 -1.158816,0.63174 -1.627779,-0.75363 l -0.522089,0.40695 -0.408285,-0.50022 c -0.290762,0.24426 -0.717241,0.79811 -0.877728,0.53285 l -0.393311,-0.6501 -0.256397,0.84457 c -0.102983,0.33926 -0.633346,0.0673 -0.792945,0.0577 l -0.137396,0.0612 -0.98361,1.47729 1.432286,-1.02274 0.03119,-0.009 c 0.174234,0.0415 0.599058,0.046 0.844537,0.10867 l -0.05585,0.32787 z"
         style="fill:url(#radialGradient4992);fill-opacity:1;stroke:#005400;stroke-width:0.17429326;stroke-linecap:round;stroke-linejoin:round;stroke-miterlimit:4;stroke-opacity:1;stroke-dasharray:none;stroke-dashoffset:0" />
      <path
         sodipodi:nodetypes="csssssssc"
         id="path4730"
         d="m 50.430762,104.73407 c 0,-0.87326 0.684294,-3.25522 0.02252,-3.82791 -0.661768,-0.57268 -2.669599,0.66391 -3.678706,0.66391 -1.009106,0 -1.923151,0.35438 -2.58492,0.92706 -0.661769,0.57268 -1.568436,1.66198 -1.568436,2.53525 0,0.87327 0.134685,2.59153 0.971825,2.33639 1.954425,-0.59568 2.694459,-0.19159 3.181531,1.12592 0.349912,0.9465 1.923152,0.0434 2.584921,-0.52932 0.661769,-0.57268 1.071261,-2.35803 1.071261,-3.2313 z"
         style="opacity:0.25;fill:#000000;fill-opacity:1;fill-rule:evenodd;stroke:none;filter:url(#filter4734)"
         inkscape:connector-curvature="0" />
      <path
         inkscape:connector-curvature="0"
         style="fill:url(#radialGradient3605);fill-opacity:1;fill-rule:evenodd;stroke:#550000;stroke-width:0.26143986;stroke-linejoin:miter;stroke-miterlimit:4;stroke-opacity:1"
         d="m 51.127934,105.08266 c 0,-0.87326 0.684294,-3.25522 0.02252,-3.82791 -0.661768,-0.57268 -2.669599,0.66391 -3.678706,0.66391 -1.009106,0 -1.923151,0.35438 -2.58492,0.92706 -0.661769,0.57268 -1.568436,1.66198 -1.568436,2.53525 0,0.87327 0.134685,2.59153 0.971825,2.33639 1.954425,-0.59568 2.694459,-0.19159 3.181531,1.12592 0.349912,0.9465 1.923152,0.0434 2.584921,-0.52932 0.661769,-0.57268 1.071261,-2.35803 1.071261,-3.2313 z"
         id="path3441"
         sodipodi:nodetypes="csssssssc" />
      <use
         height="1052.3622"
         width="744.09448"
         transform="translate(5.7240818,-4.0095549)"
         id="use4923"
         xlink:href="#path4766"
         y="0"
         x="0" />
      <path
         sodipodi:nodetypes="cssscssc"
         id="path3868"
         d="m 51.150454,101.25475 c -0.661768,-0.57268 -2.669599,0.66391 -3.678706,0.66391 -1.009106,0 -1.923151,0.35438 -2.58492,0.92706 -0.661769,0.57268 -1.568436,1.66198 -1.568436,2.53525 0,0.87327 0.134685,2.59153 0.971825,2.33639 -0.17803,-1.53123 -0.526915,-3.49082 1.000687,-4.44549 0.508448,-0.31775 1.304018,-0.73956 2.077123,-0.74254 1.129057,-0.004 2.454373,-1.01967 3.782427,-1.27458 z"
         style="opacity:0.25;fill:#000000;fill-opacity:1;fill-rule:evenodd;stroke:none;filter:url(#filter4638)"
         inkscape:connector-curvature="0" />
      <path
         style="fill:url(#radialGradient4982);fill-opacity:1;stroke:#005400;stroke-width:0.17429326;stroke-linecap:round;stroke-linejoin:round;stroke-miterlimit:4;stroke-opacity:1;stroke-dasharray:none;stroke-dashoffset:0"
         d="m 45.811389,110.67634 0.620614,-1.64949 0.0028,-0.2313 c -0.01692,-0.007 -0.03316,-0.0202 -0.05009,-0.0278 l -0.551042,-0.27284 c -0.08515,-0.0466 -0.16623,-0.096 -0.244907,-0.14476 l -0.406323,0.17817 -0.819438,0.76978 0.340755,-1.18738 0.317267,-0.16704 c -0.113288,-0.094 -0.607589,-0.1813 -0.688219,-0.27004 l -0.38263,0.22511 -1.526947,0.46688 0.916029,-0.84224 0.8378,-0.81917 c 0.181822,-0.11521 0.687693,1.12652 1.786505,0.16124 l 0.248669,0.61347 0.603689,-0.22905 c 0.129688,0.3569 0.222096,1.0498 0.493722,0.90031 l 0.66566,-0.36634 -0.200241,0.85961 c -0.08044,0.3453 0.514847,0.37496 0.657842,0.44648 l 0.08839,0.12172 0.113183,1.77118 -0.72903,-1.60186 -0.02256,-0.0233 c -0.171633,-0.0512 -0.541796,-0.2597 -0.785724,-0.32816 l -0.115565,0.31187 z"
         id="path4939"
         inkscape:connector-curvature="0"
         sodipodi:nodetypes="ccccccccccccccccccscscccccccc" />
      <path
         sodipodi:type="arc"
         style="fill:#f0c000;fill-opacity:1;stroke:#800000;stroke-width:0.42005163;stroke-linecap:round;stroke-linejoin:round;stroke-miterlimit:4;stroke-opacity:1;stroke-dasharray:none;stroke-dashoffset:0"
         id="path4766"
         sodipodi:cx="190.20787"
         sodipodi:cy="152.50655"
         sodipodi:rx="0.54306316"
         sodipodi:ry="1.7649553"
         d="m 190.75093,152.50655 a 0.54306316,1.7649553 0 1 1 -1.08612,0 0.54306316,1.7649553 0 1 1 1.08612,0 z"
         transform="matrix(0.20504582,0.03159968,0.03159968,-0.20504582,0.31393577,131.33249)"
         inkscape:tile-cx="182.74075"
         inkscape:tile-cy="149.24817"
         inkscape:tile-w="1.2928486"
         inkscape:tile-h="4.2017579"
         inkscape:tile-x0="182.09433"
         inkscape:tile-y0="147.14729" />
      <use
         x="0"
         y="0"
         xlink:href="#path4766"
         id="use4887"
         transform="translate(1.1501809,0.4096953)"
         width="744.09448"
         height="1052.3622" />
      <use
         height="1052.3622"
         width="744.09448"
         transform="translate(0.4957351,-1.0354329)"
         id="use4889"
         xlink:href="#path4766"
         y="0"
         x="0" />
      <use
         x="0"
         y="0"
         xlink:href="#path4766"
         id="use4891"
         transform="translate(2.1746231,0.24979551)"
         width="744.09448"
         height="1052.3622" />
      <use
         height="1052.3622"
         width="744.09448"
         transform="translate(3.1211454,1.0070134)"
         id="use4893"
         xlink:href="#path4766"
         y="0"
         x="0" />
      <use
         height="1052.3622"
         width="744.09448"
         transform="translate(4.6355811,1.7169052)"
         id="use4897"
         xlink:href="#path4766"
         y="0"
         x="0" />
      <use
         x="0"
         y="0"
         xlink:href="#path4766"
         id="use4899"
         transform="translate(4.0440046,0.51008923)"
         width="744.09448"
         height="1052.3622" />
      <use
         height="1052.3622"
         width="744.09448"
         transform="translate(3.4287651,-0.53108533)"
         id="use4901"
         xlink:href="#path4766"
         y="0"
         x="0" />
      <use
         x="0"
         y="0"
         xlink:href="#path4766"
         id="use4903"
         transform="translate(2.4349167,-1.1699879)"
         width="744.09448"
         height="1052.3622" />
      <use
         height="1052.3622"
         width="744.09448"
         transform="translate(1.4410683,-1.5012707)"
         id="use4905"
         xlink:href="#path4766"
         y="0"
         x="0" />
      <use
         height="1052.3622"
         width="744.09448"
         transform="translate(2.3639275,-2.6134345)"
         id="use4907"
         xlink:href="#path4766"
         y="0"
         x="0" />
      <use
         x="0"
         y="0"
         xlink:href="#path4766"
         id="use4909"
         transform="translate(3.4051021,-2.5187823)"
         width="744.09448"
         height="1052.3622" />
      <use
         height="1052.3622"
         width="744.09448"
         transform="translate(4.4226136,-3.2523371)"
         id="use4911"
         xlink:href="#path4766"
         y="0"
         x="0" />
      <use
         x="0"
         y="0"
         xlink:href="#path4766"
         id="use4913"
         transform="translate(4.2096461,-1.998195)"
         width="744.09448"
         height="1052.3622" />
      <use
         height="1052.3622"
         width="744.09448"
         transform="translate(4.9905267,-0.9096943)"
         id="use4915"
         xlink:href="#path4766"
         y="0"
         x="0" />
      <use
         x="0"
         y="0"
         xlink:href="#path4766"
         id="use4917"
         transform="translate(6.0317016,-1.6432491)"
         width="744.09448"
         height="1052.3622" />
      <use
         height="1052.3622"
         width="744.09448"
         transform="translate(5.8423971,0.5100892)"
         id="use4919"
         xlink:href="#path4766"
         y="0"
         x="0" />
      <use
         x="0"
         y="0"
         xlink:href="#path4766"
         id="use4921"
         transform="translate(5.9607124,-2.8737281)"
         width="744.09448"
         height="1052.3622" />
    </g>
  </g>
</svg>
