<?xml version="1.0" encoding="UTF-8" standalone="no"?>
<!-- Created with Inkscape (http://www.inkscape.org/) -->

<svg
   xmlns:dc="http://purl.org/dc/elements/1.1/"
   xmlns:cc="http://creativecommons.org/ns#"
   xmlns:rdf="http://www.w3.org/1999/02/22-rdf-syntax-ns#"
   xmlns:svg="http://www.w3.org/2000/svg"
   xmlns="http://www.w3.org/2000/svg"
   xmlns:sodipodi="http://sodipodi.sourceforge.net/DTD/sodipodi-0.dtd"
   xmlns:inkscape="http://www.inkscape.org/namespaces/inkscape"
   width="113.8847mm"
   height="62.329861mm"
   viewBox="0 0 113.8847 62.329861"
   version="1.1"
   id="svg1124"
   inkscape:version="0.92.3 (2405546, 2018-03-11)"
   sodipodi:docname="symbols.svg">
  <defs
     id="defs1118">
    <clipPath
       clipPathUnits="userSpaceOnUse"
       id="clipPath9528">
      <rect
         style="opacity:0.2;fill:#000000;fill-opacity:1;fill-rule:nonzero;stroke:none"
         id="rect9530"
         width="194.25096"
         height="257.05389"
         x="50.691269"
         y="19.661852"
         transform="rotate(14.999999)" />
    </clipPath>
    <filter
       inkscape:collect="always"
       id="filter3875">
      <feGaussianBlur
         inkscape:collect="always"
         stdDeviation="1.7580469"
         id="feGaussianBlur3877" />
    </filter>
  </defs>
  <sodipodi:namedview
     id="base"
     pagecolor="#ffffff"
     bordercolor="#666666"
     borderopacity="1.0"
     inkscape:pageopacity="0.0"
     inkscape:pageshadow="2"
     inkscape:zoom="0.98994949"
     inkscape:cx="-17.605503"
     inkscape:cy="18.314821"
     inkscape:document-units="mm"
     inkscape:current-layer="layer1"
     showgrid="false"
     fit-margin-top="0"
     fit-margin-left="0"
     fit-margin-right="0"
     fit-margin-bottom="0"
     inkscape:window-width="1920"
     inkscape:window-height="1172"
     inkscape:window-x="1600"
     inkscape:window-y="0"
     inkscape:window-maximized="1" />
  <metadata
     id="metadata1121">
    <rdf:RDF>
      <cc:Work
         rdf:about="">
        <dc:format>image/svg+xml</dc:format>
        <dc:type
           rdf:resource="http://purl.org/dc/dcmitype/StillImage" />
        <dc:title></dc:title>
      </cc:Work>
    </rdf:RDF>
  </metadata>
  <g
     inkscape:label="Layer 1"
     inkscape:groupmode="layer"
     id="layer1"
     transform="translate(-42.006166,-124.36043)">
    <g
       id="g3886"
       transform="matrix(0.26645489,0.1538378,-0.1538378,0.26645489,144.34934,75.052445)">
      <path
         id="path3869"
         d="m 70.59375,189.25 c -20.697787,0 -37.46875,14.86411 -37.46875,33.21875 0,18.35464 16.770963,33.25 37.46875,33.25 4.122183,0 8.102793,-0.59721 11.8125,-1.6875 l 9.1875,16 -19.625,11.21875 7.78125,13.34375 19.53125,-11.15625 22.125,38.59375 13.34375,-7.75 -22.0625,-38.53125 21.34375,-12.1875 -7.75,-13.375 L 105,262.34375 96.125,246.8125 c 7.35971,-6.0683 11.96875,-14.72904 11.96875,-24.34375 0,-18.35464 -16.802213,-33.21875 -37.5,-33.21875 z m 3.53125,4.59375 c 15.133651,0 27.40625,10.87721 27.40625,24.28125 0,13.40404 -12.272599,24.28125 -27.40625,24.28125 -15.133651,0 -27.40625,-10.87721 -27.40625,-24.28125 0,-13.40404 12.272599,-24.28125 27.40625,-24.28125 z"
         style="fill:#de8787;fill-opacity:1;fill-rule:nonzero;stroke:#a02c2c;stroke-width:1.71988499;stroke-linecap:round;stroke-linejoin:round;stroke-miterlimit:4;stroke-dasharray:none;stroke-dashoffset:0;stroke-opacity:1;filter:url(#filter3875)"
         inkscape:connector-curvature="0" />
      <path
         id="rect3070"
         d="m 73.53125,185.84375 c -20.697787,0 -37.46875,14.86411 -37.46875,33.21875 0,18.35464 16.770963,33.25 37.46875,33.25 4.122183,0 8.102793,-0.59721 11.8125,-1.6875 l 9.1875,16 -19.625,11.21875 7.78125,13.34375 19.53125,-11.15625 22.125,38.59375 13.34375,-7.75 -22.0625,-38.53125 21.34375,-12.1875 -7.75,-13.375 -21.28125,12.15625 -8.875,-15.53125 c 7.35971,-6.0683 11.96875,-14.72904 11.96875,-24.34375 0,-18.35464 -16.802213,-33.21875 -37.5,-33.21875 z m 0.59375,8 c 15.133651,0 27.40625,10.87721 27.40625,24.28125 0,13.40404 -12.272599,24.28125 -27.40625,24.28125 -15.133651,0 -27.40625,-10.87721 -27.40625,-24.28125 0,-13.40404 12.272599,-24.28125 27.40625,-24.28125 z"
         style="fill:#f4d7d7;fill-opacity:1;fill-rule:nonzero;stroke:#000000;stroke-width:1.71988499;stroke-linecap:round;stroke-linejoin:round;stroke-miterlimit:4;stroke-dasharray:none;stroke-dashoffset:0;stroke-opacity:1"
         inkscape:connector-curvature="0" />
    </g>
    <g
       id="g3910"
       transform="matrix(0.34289114,-0.0918774,0.0918774,0.34289114,-0.89838777,100.39603)">
      <path
         sodipodi:nodetypes="sscscs"
         style="color:#000000;font-style:normal;font-variant:normal;font-weight:normal;font-stretch:normal;font-size:medium;line-height:normal;font-family:Sans;-inkscape-font-specification:Sans;text-indent:0;text-align:start;text-decoration:none;text-decoration-line:none;letter-spacing:normal;word-spacing:normal;text-transform:none;writing-mode:lr-tb;direction:ltr;baseline-shift:baseline;text-anchor:start;display:inline;overflow:visible;visibility:visible;fill:#ffd42a;fill-opacity:1;stroke:#000000;stroke-width:1.49066484;stroke-opacity:1;marker:none;enable-background:accumulate"
         d="m 140.30637,117.6152 c 13.5485,-0.76071 25.93044,2.5722 37.6875,8.78125 15.91968,8.40737 30.58939,22.60438 44.875,39.125 -20.62375,7.02132 -40.44131,11.55802 -58.53125,10.71875 -25.83525,-1.1986 -48.29958,-12.92014 -66.343747,-44.15625 15.474657,-9.17252 29.452627,-13.7467 42.312497,-14.46875 z"
         id="path3898"
         inkscape:connector-curvature="0" />
      <path
         inkscape:connector-curvature="0"
         id="path3890"
         d="m 140.53125,112.15625 c -14.20645,0.78716 -29.53241,5.70132 -46.03125,15.625 a 3.0003,3.0003 0 0 0 -3.1875,4.375 c 19.08829,35.10276 44.75149,49.11679 73.21875,50.4375 20.00993,0.92834 41.33439,-4.19457 63.1875,-11.84375 5.33632,6.3934 10.63844,13.08494 15.90625,19.96875 a 3.0003,3.0003 0 1 0 4.75,-3.65625 c -4.84522,-6.33159 -9.69307,-12.51519 -14.625,-18.5 7.25648,-2.67661 14.57263,-5.54479 21.90625,-8.59375 a 3.0003,3.0003 0 1 0 -2.3125,-5.53125 c -7.97088,3.3139 -15.87598,6.42714 -23.6875,9.25 -15.02509,-17.66841 -30.74363,-32.90741 -48.375,-42.21875 -12.53595,-6.62039 -26.06952,-10.12593 -40.75,-9.3125 z m 0.25,5.8125 c 13.5485,-0.76071 25.93044,2.5722 37.6875,8.78125 15.91968,8.40737 30.58939,22.60438 44.875,39.125 -20.62375,7.02132 -40.44131,11.55802 -58.53125,10.71875 -25.83525,-1.1986 -48.29958,-12.92014 -66.34375,-44.15625 15.47466,-9.17252 29.45263,-13.7467 42.3125,-14.46875 z"
         style="color:#000000;font-style:normal;font-variant:normal;font-weight:normal;font-stretch:normal;font-size:medium;line-height:normal;font-family:Sans;-inkscape-font-specification:Sans;text-indent:0;text-align:start;text-decoration:none;text-decoration-line:none;letter-spacing:normal;word-spacing:normal;text-transform:none;writing-mode:lr-tb;direction:ltr;baseline-shift:baseline;text-anchor:start;display:inline;overflow:visible;visibility:visible;fill:#ffeeaa;fill-opacity:1;stroke:#000000;stroke-width:1.49066484;marker:none;enable-background:accumulate" />
      <text
         transform="matrix(0.77512443,0.20769397,-0.32252886,1.2036941,0,0)"
         id="text3904"
         y="90.700829"
         x="186.31815"
         style="font-style:normal;font-weight:normal;line-height:0%;font-family:sans-serif;letter-spacing:0px;word-spacing:0px;fill:#000000;fill-opacity:1;stroke:#ffeeaa;stroke-width:0.74533242"
         xml:space="preserve"><tspan
           style="font-style:normal;font-variant:normal;font-weight:normal;font-stretch:normal;font-size:24.45693779px;line-height:125%;font-family:'Arial Black';-inkscape-font-specification:'Arial Black,';text-align:start;writing-mode:lr-tb;text-anchor:start;stroke:#ffeeaa;stroke-width:0.74533242;stroke-opacity:1"
           y="90.700829"
           x="186.31815"
           id="tspan3906"
           sodipodi:role="line"><tspan
   style="font-size:22.23196411px;stroke-width:0.74533242"
   id="tspan3928">T</tspan>R<tspan
   style="font-size:26.67835617px;stroke-width:0.74533242"
   id="tspan3930">U</tspan>T<tspan
   style="font-size:22.23196411px;stroke-width:0.74533242"
   id="tspan3932">H</tspan></tspan></text>
    </g>
    <g
       id="g2389"
       transform="translate(-18.174328,-10.156242)">
      <path
         inkscape:connector-curvature="0"
         id="path3918"
         d="m 74.853099,166.63877 c 4.670168,-1.5367 9.315951,-1.53139 14.012752,-0.46093 6.359716,1.44945 12.824899,5.04229 19.373549,9.48433 -6.55919,4.39116 -13.069221,7.8372 -19.478768,9.23983 -8.132918,1.77976 -16.113534,0.40298 -24.27567,-6.40631 -1.024582,-0.85476 3.358852,-1.62426 2.32789,-2.65472 1.067328,-1.0921 -3.281298,-2.25902 -2.223331,-3.16285 3.457534,-2.95377 6.869373,-4.92249 10.263578,-6.03935 z"
         style="color:#000000;font-style:normal;font-variant:normal;font-weight:normal;font-stretch:normal;font-size:medium;line-height:normal;font-family:Sans;-inkscape-font-specification:Sans;text-indent:0;text-align:start;text-decoration:none;text-decoration-line:none;letter-spacing:normal;word-spacing:normal;text-transform:none;writing-mode:lr-tb;direction:ltr;baseline-shift:baseline;text-anchor:start;display:inline;overflow:visible;visibility:visible;fill:#808080;fill-opacity:1;stroke:#000000;stroke-width:0.38490322;stroke-opacity:1;marker:none;enable-background:accumulate"
         sodipodi:nodetypes="sscsscss" />
      <path
         style="color:#000000;font-style:normal;font-variant:normal;font-weight:normal;font-stretch:normal;font-size:medium;line-height:normal;font-family:Sans;-inkscape-font-specification:Sans;text-indent:0;text-align:start;text-decoration:none;text-decoration-line:none;letter-spacing:normal;word-spacing:normal;text-transform:none;writing-mode:lr-tb;direction:ltr;baseline-shift:baseline;text-anchor:start;display:inline;overflow:visible;visibility:visible;fill:#cccccc;fill-opacity:1;stroke:#000000;stroke-width:0.38490322;marker:none;enable-background:accumulate"
         d="m 82.953336,163.36162 c -2.838522,-0.0126 -5.687622,0.40867 -8.534648,1.34315 -3.018854,0.99089 -6.040168,2.5715 -9.047659,4.81298 -0.506514,0.3775 -2.604207,3.10153 -2.425146,3.731 l 2.387836,2.45313 -2.117339,3.08739 c -0.08428,0.64995 1.4757,2.61111 1.986754,2.9848 4.14183,3.02857 8.321363,4.81264 12.498829,5.59649 v 4.04813 h -3.889561 c -0.842757,0 -1.529708,0.63217 -1.529708,1.4271 v 1.51105 c -3e-6,0.79495 0.686948,1.2872 1.529708,1.2872 h 8.385408 v -7.80711 c 2.415893,0.0518 4.829389,-0.20247 7.2288,-0.72754 3.221152,-0.7049 6.417455,-1.87762 9.597981,-3.38588 l 3.143359,5.45658 -3.367218,1.94012 c -0.729848,0.42137 -1.00376,1.31697 -0.606287,2.00541 l 0.755526,1.30584 c 0.397468,0.68845 1.238249,0.77583 1.968099,0.35445 l 7.26611,-4.19737 -5.1581,-8.9264 c 2.47473,-1.3845 4.93645,-2.94871 7.3967,-4.62643 2.46705,1.73706 4.95426,3.57877 7.44333,5.49389 0.44845,0.37703 1.21106,0.29745 1.56702,-0.1679 0.35596,-0.46536 0.22943,-1.21424 -0.25185,-1.54836 -2.28938,-1.76149 -4.55915,-3.47947 -6.84637,-5.11146 2.28852,-1.61718 4.5751,-3.30078 6.8557,-5.0555 0.47733,-0.33743 0.59057,-1.09511 0.23319,-1.55769 -0.35738,-0.46258 -1.11069,-0.53525 -1.55769,-0.15857 -2.47878,1.9072 -4.95563,3.73617 -7.42468,5.45658 -6.91507,-4.77438 -13.840719,-8.63628 -20.884235,-10.24158 -2.190983,-0.49935 -4.39612,-0.77373 -6.603859,-0.7835 z m -0.02797,2.13599 c 2.041232,0.0204 4.082635,0.2872 6.137484,0.75553 6.359715,1.44945 12.82454,5.04401 19.37319,9.48605 -6.55918,4.39116 -13.066244,7.8409 -19.475792,9.24353 -7.492119,1.63954 -14.854056,0.60027 -22.348652,-4.89693 -0.400595,-0.29383 -1.467042,-0.81915 -1.203245,-1.25921 l 1.977426,-3.30193 -2.191974,-2.49043 c -0.378307,-0.42918 0.886255,-1.33499 1.324503,-1.66962 2.868979,-2.19063 5.706397,-3.71446 8.534648,-4.64509 2.335083,-0.76835 4.663297,-1.15562 6.995613,-1.21257 0.29154,-0.007 0.585178,-0.0122 0.876784,-0.009 z"
         id="path3920"
         inkscape:connector-curvature="0"
         clip-path="none" />
      <text
         xml:space="preserve"
         style="font-style:normal;font-weight:normal;font-size:4.34772635px;line-height:0%;font-family:sans-serif;letter-spacing:0px;word-spacing:0px;fill:#ffffff;fill-opacity:1;stroke:#1a1a1a;stroke-width:0.28867739"
         x="85.699722"
         y="143.70671"
         id="text3922"
         transform="scale(0.80122982,1.2480814)"><tspan
           sodipodi:role="line"
           id="tspan3924"
           x="85.699722"
           y="143.70671"
           style="font-style:normal;font-variant:normal;font-weight:normal;font-stretch:normal;font-size:9.92924881px;line-height:125%;font-family:'Arial Black';-inkscape-font-specification:'Arial Black,';text-align:start;writing-mode:lr-tb;text-anchor:start;fill:#ffffff;stroke:#1a1a1a;stroke-width:0.28867739;stroke-opacity:1"><tspan
   style="font-size:7.94282246px;fill:#ffffff;stroke:#1a1a1a;stroke-width:0.28867739"
   id="tspan3934">D</tspan><tspan
   style="font-size:9.02593422px;fill:#ffffff;stroke:#1a1a1a;stroke-width:0.28867739"
   id="tspan3938">A</tspan>RW<tspan
   style="font-size:9.02593422px;fill:#ffffff;stroke:#1a1a1a;stroke-width:0.28867739"
   id="tspan3942">I</tspan><tspan
   style="font-size:7.94282246px;fill:#ffffff;stroke:#1a1a1a;stroke-width:0.28867739"
   id="tspan3944">N</tspan></tspan></text>
    </g>
  </g>
</svg>
